<svg width="1198" height="1155" viewBox="0 0 1198 1155" fill="none" xmlns="http://www.w3.org/2000/svg">
<path opacity="0.05" fill-rule="evenodd" clip-rule="evenodd" d="M0 578.703C0 259.103 268.79 0 599.608 0C929.72 0 1198 258.554 1198 577.491C1198 896.446 930.348 1155 600.236 1155H0V578.703ZM916.106 577.491C916.106 746.36 774.119 883.236 599.02 883.236C423.881 883.236 281.894 746.36 281.894 577.491C281.894 408.64 423.881 271.764 599.02 271.764C640.49 271.764 680.116 279.439 716.407 293.408C638.959 311.261 581.364 378.449 581.364 458.6C581.364 552.416 660.224 628.454 757.524 628.454C825.162 628.454 883.895 591.705 913.438 537.766L914.066 542.655C914.733 548.341 915.243 554.084 915.557 559.864L915.792 563.958C915.988 568.45 916.106 572.961 916.106 577.491Z" fill="#02CDD7"/>
</svg>
