<svg width="240" height="39" viewBox="0 0 240 39" fill="none" xmlns="http://www.w3.org/2000/svg">
<path d="M18.2937 38.5649V22.3981L10.6141 32.1584L2.94821 22.3981V38.5649H0.648438V18.0312H1.93522L10.6141 29.0921L19.293 18.0312H20.6619V38.5649H18.2937Z" fill="#532A29"/>
<path d="M43.0071 38.5649H40.4883L49.0166 18.0312H50.3034L58.8043 38.5649H56.2718L54.0405 33.0893H45.2521L43.0071 38.5649ZM46.0734 30.9538H53.2465L49.66 22.2201L46.0734 30.9538Z" fill="#532A29"/>
<path d="M85.3248 17.9761C90.5677 17.9761 94.209 20.8097 94.209 25.3956C94.2364 26.9365 93.7269 28.4389 92.7678 29.6453C91.8087 30.8516 90.4598 31.6867 88.9524 32.0074C90.4059 32.7808 91.5935 33.9731 92.361 35.4297L94.4144 38.5645H91.7997L90.1297 35.9499C88.3912 33.2805 87.3918 32.8288 85.2153 32.8014H81.0127V38.5645H78.6719V18.0308L85.3248 17.9761ZM81.0127 30.6522H85.5164C89.0756 30.6522 92.0462 29.0643 92.0462 25.3956C92.0462 21.7269 89.0619 20.1253 85.5164 20.1253H81.0127V30.6522Z" fill="#532A29"/>
<path d="M131.105 29.7213C131.105 35.3339 127.628 38.7699 122.714 38.7699C117.799 38.7699 114.336 35.3339 114.336 29.7213V17.9761H116.636V29.6529C116.636 34.1566 119.018 36.6344 122.714 36.6344C126.41 36.6344 128.805 34.1566 128.805 29.6529V17.9761H131.105V29.7213Z" fill="#532A29"/>
<path d="M158.936 17.771C160.358 17.769 161.763 18.0836 163.049 18.6921C164.335 19.3006 165.469 20.1878 166.369 21.2891L164.877 22.658C164.132 21.8132 163.218 21.1333 162.195 20.6619C161.172 20.1904 160.062 19.9378 158.936 19.9202H158.607C156.431 19.9202 153.816 21.0701 153.816 23.5068C153.816 25.3 155.185 26.2446 158.224 26.5731L160.455 26.8606C164.562 27.3945 167.081 28.9824 167.081 32.7195C167.081 36.4567 163.631 38.7428 159.483 38.7701H159.319C155.212 38.7701 152.31 36.8947 151.023 34.3075L152.516 32.9386C153.46 35.0193 155.815 36.6483 159.36 36.6483H159.442C162.358 36.6483 164.74 35.1699 164.74 32.7332C164.74 30.2966 163.097 29.4068 160.154 28.9961L157.923 28.736C153.816 28.2021 151.475 26.6689 151.475 23.5889C151.475 20.0297 154.802 17.8121 158.566 17.7847L158.936 17.771Z" fill="#532A29"/>
<path d="M193.147 38.5645V31.5146L185.316 17.9761H187.931L194.324 28.7494L200.676 17.9761H203.249L195.392 31.5146V38.5645H193.147Z" fill="#532A29"/>
<path d="M223.782 38.5649H221.25L229.778 18.0312H231.147L239.648 38.5649H237.061L234.83 33.0893H226.028L223.782 38.5649ZM226.835 30.9538H234.022L230.422 22.2201L226.835 30.9538Z" fill="#532A29"/>
<path d="M204.207 1.76837L196.719 13.3631L194.953 12.3501L202.441 0.755371L204.207 1.76837Z" fill="#532A29"/>
</svg>
