<svg width="1002" height="1095" viewBox="0 0 1002 1095" fill="none" xmlns="http://www.w3.org/2000/svg">
<g opacity="0.1">
<path fill-rule="evenodd" clip-rule="evenodd" d="M1001.65 510C1001.65 833.087 739.735 1095 416.648 1095C93.5619 1095 -168.352 833.087 -168.352 510C-168.352 186.913 93.5619 -75 416.648 -75C739.735 -75 1001.65 186.913 1001.65 510ZM978.248 510C978.248 820.163 726.812 1071.6 416.648 1071.6C106.485 1071.6 -144.952 820.163 -144.952 510C-144.952 199.837 106.485 -51.6 416.648 -51.6C726.812 -51.6 978.248 199.837 978.248 510Z" fill="#532A29"/>
<path d="M595.548 756.488V378.184L415.846 606.576L236.463 378.184V756.488H182.648V276H212.759L415.846 534.823L618.932 276H650.964V756.488H595.548Z" fill="#532A29"/>
</g>
</svg>
