<svg width="1003" height="1082" viewBox="0 0 1003 1082" fill="none" xmlns="http://www.w3.org/2000/svg">
<g opacity="0.05">
<path d="M-216.719 348.494C-226.787 344.299 -237.904 340.943 -250.069 338.426C-261.816 335.909 -277.337 334.651 -296.634 334.651C-318.029 334.651 -335.019 340.104 -347.604 351.011C-360.189 361.499 -366.482 373.455 -366.482 386.879C-366.482 400.303 -360.609 412.469 -348.863 423.376C-337.117 434.283 -314.254 443.722 -280.274 451.692C-250.069 458.404 -226.787 467.004 -210.426 477.492C-193.646 487.98 -181.9 499.935 -175.188 513.36C-168.476 526.364 -165.12 540.837 -165.12 556.778C-165.12 572.3 -169.105 587.192 -177.076 601.455C-184.627 615.299 -197.212 626.835 -214.831 636.064C-232.031 644.874 -255.104 649.279 -284.049 649.279C-325.161 649.279 -363.126 639.63 -397.945 620.333C-403.398 616.977 -406.125 612.362 -406.125 606.489C-406.125 602.714 -404.657 599.148 -401.72 595.792C-398.784 592.436 -395.008 590.758 -390.394 590.758C-387.877 590.758 -385.36 591.387 -382.843 592.646C-353.058 609.426 -320.127 617.816 -284.049 617.816C-255.523 617.816 -233.919 611.943 -219.236 600.197C-204.134 588.031 -196.583 573.558 -196.583 556.778C-196.583 539.159 -203.714 524.476 -217.977 512.73C-231.821 500.984 -254.684 491.126 -286.566 483.155C-316.351 475.604 -339.424 467.004 -355.785 457.356C-371.726 447.707 -382.843 436.8 -389.135 424.634C-395.008 412.469 -397.945 399.045 -397.945 384.362C-397.945 370.938 -394.169 358.143 -386.618 345.977C-378.647 333.392 -367.111 323.114 -352.009 315.144C-336.907 307.173 -318.449 303.188 -296.634 303.188C-273.562 303.188 -255.104 305.076 -241.26 308.851C-226.997 312.207 -212.104 317.032 -196.583 323.324C-189.871 325.841 -186.515 330.665 -186.515 337.797C-186.515 341.992 -188.193 345.768 -191.549 349.124C-194.485 352.06 -198.051 353.528 -202.246 353.528C-203.085 353.528 -204.344 353.319 -206.022 352.899C-207.7 352.06 -211.265 350.592 -216.719 348.494Z" fill="black"/>
<path d="M-41.5399 643.616C-45.735 643.616 -49.5105 642.147 -52.8665 639.211C-55.803 635.855 -57.2713 632.079 -57.2713 627.884V322.695C-57.2713 318.08 -55.803 314.305 -52.8665 311.368C-49.5105 308.432 -45.735 306.964 -41.5399 306.964H48.4437C73.1945 306.964 94.799 311.998 113.257 322.066C131.715 331.714 145.978 344.929 156.047 361.709C166.534 378.489 171.778 397.786 171.778 419.6C171.778 439.737 167.163 458.404 157.934 475.604C149.125 492.804 135.491 506.647 117.033 517.135C98.994 527.623 76.131 532.866 48.4437 532.866H-25.8085V627.884C-25.8085 632.079 -27.2768 635.855 -30.2133 639.211C-33.1498 642.147 -36.9254 643.616 -41.5399 643.616ZM-25.8085 338.426V501.404H48.4437C78.2285 501.404 100.882 493.643 116.403 478.121C132.345 462.18 140.315 442.673 140.315 419.6C140.315 395.269 131.715 375.762 114.516 361.08C97.3159 345.977 75.292 338.426 48.4437 338.426H-25.8085Z" fill="black"/>
<path d="M298.111 651.011C298.111 655.206 296.643 658.982 293.706 662.338C290.77 665.274 286.994 666.743 282.38 666.743C278.185 666.743 274.409 665.274 271.053 662.338C268.116 658.982 266.648 655.206 266.648 651.011V318.92C266.648 314.305 268.116 310.53 271.053 307.593C274.409 304.656 278.185 303.188 282.38 303.188C286.994 303.188 290.77 304.656 293.706 307.593C296.643 310.53 298.111 314.305 298.111 318.92V651.011Z" fill="black"/>
<path d="M595.661 348.494C585.592 344.299 574.476 340.943 562.31 338.426C550.564 335.909 535.042 334.651 515.745 334.651C494.35 334.651 477.36 340.104 464.775 351.011C452.19 361.499 445.898 373.455 445.898 386.879C445.898 400.303 451.771 412.469 463.517 423.376C475.263 434.283 498.126 443.722 532.106 451.692C562.31 458.404 585.593 467.004 601.953 477.492C618.733 487.98 630.479 499.935 637.192 513.36C643.904 526.364 647.26 540.837 647.26 556.778C647.26 572.3 643.274 587.192 635.304 601.455C627.753 615.299 615.168 626.835 597.548 636.064C580.349 644.874 557.276 649.279 528.33 649.279C487.219 649.279 449.254 639.63 414.435 620.333C408.981 616.977 406.254 612.362 406.254 606.489C406.254 602.714 407.723 599.148 410.659 595.792C413.596 592.436 417.371 590.758 421.986 590.758C424.503 590.758 427.02 591.387 429.537 592.646C459.322 609.426 492.253 617.816 528.33 617.816C556.856 617.816 578.461 611.943 593.144 600.197C608.246 588.031 615.797 573.558 615.797 556.778C615.797 539.159 608.665 524.476 594.402 512.73C580.558 500.984 557.695 491.126 525.813 483.155C496.028 475.604 472.956 467.004 456.595 457.356C440.654 447.707 429.537 436.8 423.244 424.634C417.371 412.469 414.435 399.045 414.435 384.362C414.435 370.938 418.21 358.143 425.761 345.977C433.732 333.392 445.268 323.114 460.371 315.144C475.473 307.173 493.931 303.188 515.745 303.188C538.818 303.188 557.276 305.076 571.12 308.851C585.383 312.207 600.275 317.032 615.797 323.324C622.509 325.841 625.865 330.665 625.865 337.797C625.865 341.992 624.187 345.768 620.831 349.124C617.894 352.06 614.329 353.528 610.133 353.528C609.294 353.528 608.036 353.319 606.358 352.899C604.68 352.06 601.114 350.592 595.661 348.494Z" fill="black"/>
<path d="M858.601 643.616C854.406 643.616 850.631 642.147 847.275 639.211C844.338 635.855 842.87 632.079 842.87 627.884V522.169C835.738 512.94 826.299 499.935 814.553 483.155C802.807 466.375 790.432 448.336 777.427 429.039C764.842 409.742 752.676 391.284 740.93 373.665C729.604 356.045 720.794 341.782 714.501 330.875C713.243 328.358 712.614 325.631 712.614 322.695C712.614 318.919 713.872 315.563 716.389 312.627C718.906 309.271 722.682 307.593 727.716 307.593C734.008 307.593 738.413 309.9 740.93 314.515C746.803 324.163 754.564 336.748 764.213 352.27C774.281 367.372 784.978 383.523 796.305 400.723C808.051 417.922 819.378 434.493 830.285 450.434C841.611 466.375 851.26 480.009 859.23 491.336C868.04 479.17 877.689 465.117 888.176 449.175C899.083 432.815 909.99 416.244 920.897 399.464C931.805 382.265 941.873 366.323 951.102 351.641C960.75 336.539 968.302 324.163 973.755 314.515C976.272 309.9 980.677 307.593 986.969 307.593C997.037 307.593 1002.07 312.627 1002.07 322.695C1002.07 325.631 1001.44 328.358 1000.18 330.875C993.891 341.363 985.291 355.206 974.384 372.406C963.897 389.186 952.36 407.225 939.775 426.522C927.19 445.4 915.025 463.439 903.278 480.638C891.952 497.838 882.303 512.101 874.333 523.428V627.884C874.333 632.079 872.864 635.855 869.928 639.211C866.991 642.147 863.216 643.616 858.601 643.616Z" fill="black"/>
<path fill-rule="evenodd" clip-rule="evenodd" d="M293.71 662.338C296.5 659.15 297.965 655.582 298.104 651.637C298.104 651.636 298.104 651.635 298.104 651.634V896.207C298.127 896.671 298.148 897.135 298.167 897.601C298.306 900.859 298.375 904.157 298.375 907.494C298.375 909.539 298.349 911.572 298.299 913.593C297.537 943.9 291.06 971.442 278.868 996.219C278.081 997.845 277.272 999.45 276.439 1001.03C263.953 1024.8 246.304 1043.96 223.493 1058.52C220.504 1060.4 217.437 1062.17 214.29 1063.82C192.266 1075.39 166.388 1081.17 136.656 1081.17C104.774 1081.17 76.4571 1073.62 51.7064 1058.52C26.9556 1042.99 7.4487 1022.23 -6.81442 996.219C-20.6581 970.21 -27.5799 941.264 -27.5799 909.382C-27.5799 874.144 -20.6581 843.31 -6.81442 816.881C7.02921 790.453 26.1166 769.897 50.4478 755.214C75.1986 740.532 103.935 733.19 136.656 733.19C166.441 733.19 193.499 740.532 217.83 755.214C219.053 755.94 220.263 756.679 221.46 757.433C239.417 768.744 254.495 783.28 266.694 801.041V652.223C266.71 652.455 266.731 652.686 266.756 652.915C267.138 656.357 268.571 659.498 271.057 662.338C271.476 662.705 271.902 663.049 272.335 663.37C275.363 665.619 278.713 666.743 282.383 666.743C286.998 666.743 290.774 665.274 293.71 662.338C293.71 662.338 293.71 662.338 293.71 662.338ZM124.304 755.569C165.572 755.569 202.74 774.52 228.746 804.798C229.738 805.86 230.713 806.941 231.671 808.04C238.376 815.736 244.25 824.346 249.293 833.871C250.761 836.546 252.138 839.269 253.422 842.042C262.415 861.45 266.912 883.268 266.912 907.494C266.912 909.146 266.892 910.789 266.853 912.423C266.263 936.929 261.249 959.408 251.81 979.859C251.474 980.571 251.134 981.279 250.787 981.982C245.595 992.528 239.198 1001.97 231.596 1010.32C228.333 1014.35 224.878 1018.2 221.247 1021.84C195.828 1047.36 161.754 1062.97 124.304 1062.97C45.6638 1062.97 -18.0865 994.153 -18.0865 909.268C-18.0865 824.383 45.6638 755.569 124.304 755.569Z" fill="#505050"/>
<path d="M-205.775 1008.86C-188.347 1031 -172.948 1051.12 -159.576 1069.21C-158.842 1070.26 -157.937 1071.18 -156.863 1071.97C-153.638 1074.33 -148.879 1075.51 -142.586 1075.51C-138.391 1075.51 -134.825 1074.04 -131.889 1071.1C-128.952 1067.74 -127.484 1063.97 -127.484 1059.77V754.585C-127.484 749.97 -128.952 746.195 -131.889 743.258C-134.825 740.322 -138.601 738.854 -143.215 738.854C-147.411 738.854 -151.186 740.322 -154.542 743.258C-154.909 743.625 -155.253 744.006 -155.574 744.399C-157.823 747.152 -158.947 750.547 -158.947 754.585V1018.24C-176.147 995.59 -195.024 971.469 -215.58 945.879C-235.716 919.87 -255.852 894.28 -275.989 869.11C-295.705 843.52 -313.954 820.028 -330.734 798.633C-347.513 776.82 -361.147 758.991 -371.634 745.148C-371.635 745.147 -371.635 745.147 -371.635 745.146C-372.998 743.199 -374.948 741.704 -377.485 740.661C-380.415 739.456 -384.129 738.854 -388.625 738.854C-390.513 738.854 -392.348 739.221 -394.131 739.955C-395.914 740.689 -397.645 741.79 -399.323 743.258C-402.259 746.195 -403.728 749.97 -403.728 754.585V1059.77C-403.728 1059.77 -403.728 1059.78 -403.728 1059.78C-403.727 1061.87 -403.36 1063.86 -402.626 1065.75C-401.892 1067.64 -400.791 1069.42 -399.323 1071.1C-398.903 1071.47 -398.477 1071.81 -398.045 1072.13C-395.016 1074.38 -391.667 1075.51 -387.996 1075.51C-383.382 1075.51 -379.606 1074.04 -376.67 1071.1C-373.733 1067.74 -372.265 1063.97 -372.265 1059.77V796.116C-370.482 798.371 -368.669 800.668 -366.828 803.008C-353.934 819.389 -339.596 837.857 -323.812 858.412C-321.505 861.349 -319.188 864.298 -316.861 867.261C-300.572 888 -283.802 909.382 -266.55 931.406C-265.317 932.953 -264.088 934.498 -262.86 936.042C-244.45 959.196 -226.592 981.982 -209.287 1004.4C-208.108 1005.89 -206.937 1007.38 -205.775 1008.86Z" fill="#505050"/>
<path d="M481.041 1072.13C484.069 1074.38 487.419 1075.51 491.089 1075.51C495.704 1075.51 499.479 1074.04 502.416 1071.1C505.352 1067.74 506.821 1063.97 506.821 1059.77V770.316H627.009C631.623 770.316 635.398 768.848 638.335 765.912C638.335 765.912 638.335 765.912 638.335 765.912C641.272 762.556 642.74 758.78 642.74 754.586C642.74 754.585 642.74 754.585 642.74 754.585C642.74 749.971 641.272 746.195 638.336 743.259C638.336 743.259 638.335 743.259 638.335 743.258C635.399 740.322 631.623 738.854 627.009 738.854H357.687C353.492 738.854 349.716 740.322 346.36 743.258C345.993 743.625 345.649 744.006 345.328 744.399C343.08 747.152 341.956 750.547 341.956 754.585C341.956 754.847 341.961 755.108 341.973 755.367C342.145 759.25 343.607 762.765 346.36 765.912C346.78 766.279 347.206 766.623 347.639 766.944C350.667 769.192 354.016 770.316 357.687 770.316H475.358V1059.77C475.358 1060.04 475.364 1060.3 475.375 1060.56C475.547 1064.44 477.01 1067.95 479.763 1071.1C480.182 1071.47 480.608 1071.81 481.041 1072.13Z" fill="#505050"/>
<path d="M731.421 1072.13C734.449 1074.38 737.799 1075.51 741.469 1075.51H917.032C921.646 1075.51 925.422 1074.04 928.358 1071.1C928.358 1071.1 928.358 1071.1 928.358 1071.1C931.295 1067.74 932.763 1063.97 932.763 1059.77C932.763 1055.16 931.295 1051.38 928.359 1048.45C928.359 1048.45 928.359 1048.45 928.358 1048.45C925.422 1045.51 921.646 1044.04 917.032 1044.04H757.201V911.27H888.715C893.33 911.27 897.105 909.802 900.041 906.865C900.042 906.865 900.042 906.865 900.042 906.865C902.978 903.509 904.447 899.733 904.447 895.538C904.447 890.926 902.98 887.152 900.046 884.216C900.045 884.215 900.043 884.213 900.042 884.212C897.105 881.275 893.33 879.807 888.715 879.807H757.201V770.316H915.773C920.388 770.316 924.163 768.848 927.099 765.912C927.1 765.912 927.1 765.912 927.1 765.912C930.036 762.556 931.505 758.78 931.505 754.585C931.505 749.971 930.037 746.195 927.1 743.259C927.1 743.259 927.1 743.259 927.1 743.258C924.163 740.322 920.388 738.854 915.773 738.854H739.582C735.806 738.854 732.45 740.532 729.514 743.888C729.199 744.255 728.904 744.632 728.629 745.018C726.702 747.725 725.738 750.914 725.738 754.585V1059.77C725.738 1060.04 725.744 1060.3 725.755 1060.56C725.927 1064.44 727.39 1067.95 730.143 1071.1C730.562 1071.47 730.988 1071.81 731.421 1072.13Z" fill="#505050"/>
<path fill-rule="evenodd" clip-rule="evenodd" d="M293.71 662.338C296.5 659.15 297.965 655.582 298.104 651.637C298.104 651.636 298.104 651.635 298.104 651.634V896.207C298.127 896.671 298.148 897.135 298.167 897.601C298.306 900.859 298.375 904.157 298.375 907.494C298.375 909.539 298.349 911.572 298.299 913.593C297.537 943.9 291.06 971.442 278.868 996.219C278.081 997.845 277.272 999.45 276.439 1001.03C263.953 1024.8 246.304 1043.96 223.493 1058.52C220.504 1060.4 217.437 1062.17 214.29 1063.82C192.266 1075.39 166.388 1081.17 136.656 1081.17C104.774 1081.17 76.4571 1073.62 51.7064 1058.52C26.9556 1042.99 7.4487 1022.23 -6.81442 996.219C-20.6581 970.21 -27.5799 941.264 -27.5799 909.382C-27.5799 874.144 -20.6581 843.31 -6.81442 816.881C7.02921 790.453 26.1166 769.897 50.4478 755.214C75.1986 740.532 103.935 733.19 136.656 733.19C166.441 733.19 193.499 740.532 217.83 755.214C219.053 755.94 220.263 756.679 221.46 757.433C239.417 768.744 254.495 783.28 266.694 801.041V652.223C266.71 652.455 266.731 652.686 266.756 652.915C267.138 656.357 268.571 659.498 271.057 662.338C271.476 662.705 271.902 663.049 272.335 663.37C275.363 665.619 278.713 666.743 282.383 666.743C286.998 666.743 290.774 665.274 293.71 662.338C293.71 662.338 293.71 662.338 293.71 662.338ZM124.304 755.569C165.572 755.569 202.74 774.52 228.746 804.798C229.738 805.86 230.713 806.941 231.671 808.04C238.376 815.736 244.25 824.346 249.293 833.871C250.761 836.546 252.138 839.269 253.422 842.042C262.415 861.45 266.912 883.268 266.912 907.494C266.912 909.146 266.892 910.789 266.853 912.423C266.263 936.929 261.249 959.408 251.81 979.859C251.474 980.571 251.134 981.279 250.787 981.982C245.595 992.528 239.198 1001.97 231.596 1010.32C228.333 1014.35 224.878 1018.2 221.247 1021.84C195.828 1047.36 161.754 1062.97 124.304 1062.97C45.6638 1062.97 -18.0865 994.153 -18.0865 909.268C-18.0865 824.383 45.6638 755.569 124.304 755.569Z" fill="#505050"/>
<path d="M-205.775 1008.86C-188.347 1031 -172.948 1051.12 -159.576 1069.21C-158.842 1070.26 -157.937 1071.18 -156.863 1071.97C-153.638 1074.33 -148.879 1075.51 -142.586 1075.51C-138.391 1075.51 -134.825 1074.04 -131.889 1071.1C-128.952 1067.74 -127.484 1063.97 -127.484 1059.77V754.585C-127.484 749.97 -128.952 746.195 -131.889 743.258C-134.825 740.322 -138.601 738.854 -143.215 738.854C-147.411 738.854 -151.186 740.322 -154.542 743.258C-154.909 743.625 -155.253 744.006 -155.574 744.399C-157.823 747.152 -158.947 750.547 -158.947 754.585V1018.24C-176.147 995.59 -195.024 971.469 -215.58 945.879C-235.716 919.87 -255.852 894.28 -275.989 869.11C-295.705 843.52 -313.954 820.028 -330.734 798.633C-347.513 776.82 -361.147 758.991 -371.634 745.148C-371.635 745.147 -371.635 745.147 -371.635 745.146C-372.998 743.199 -374.948 741.704 -377.485 740.661C-380.415 739.456 -384.129 738.854 -388.625 738.854C-390.513 738.854 -392.348 739.221 -394.131 739.955C-395.914 740.689 -397.645 741.79 -399.323 743.258C-402.259 746.195 -403.728 749.97 -403.728 754.585V1059.77C-403.728 1059.77 -403.728 1059.78 -403.728 1059.78C-403.727 1061.87 -403.36 1063.86 -402.626 1065.75C-401.892 1067.64 -400.791 1069.42 -399.323 1071.1C-398.903 1071.47 -398.477 1071.81 -398.045 1072.13C-395.016 1074.38 -391.667 1075.51 -387.996 1075.51C-383.382 1075.51 -379.606 1074.04 -376.67 1071.1C-373.733 1067.74 -372.265 1063.97 -372.265 1059.77V796.116C-370.482 798.371 -368.669 800.668 -366.828 803.008C-353.934 819.389 -339.596 837.857 -323.812 858.412C-321.505 861.349 -319.188 864.298 -316.861 867.261C-300.572 888 -283.802 909.382 -266.55 931.406C-265.317 932.953 -264.088 934.498 -262.86 936.042C-244.45 959.196 -226.592 981.982 -209.287 1004.4C-208.108 1005.89 -206.937 1007.38 -205.775 1008.86Z" fill="#505050"/>
<path d="M481.041 1072.13C484.069 1074.38 487.419 1075.51 491.089 1075.51C495.704 1075.51 499.479 1074.04 502.416 1071.1C505.352 1067.74 506.821 1063.97 506.821 1059.77V770.316H627.009C631.623 770.316 635.398 768.848 638.335 765.912C638.335 765.912 638.335 765.912 638.335 765.912C641.272 762.556 642.74 758.78 642.74 754.586C642.74 754.585 642.74 754.586 642.74 754.586C642.74 749.971 641.272 746.195 638.336 743.259C638.336 743.259 638.335 743.259 638.335 743.258C635.399 740.322 631.623 738.854 627.009 738.854H357.687C353.492 738.854 349.716 740.322 346.36 743.258C345.993 743.625 345.649 744.006 345.328 744.399C343.08 747.152 341.956 750.547 341.956 754.585C341.956 754.847 341.961 755.108 341.973 755.367C342.145 759.25 343.607 762.765 346.36 765.912C346.78 766.279 347.206 766.623 347.639 766.944C350.667 769.192 354.016 770.316 357.687 770.316H475.358V1059.77C475.358 1060.04 475.364 1060.3 475.375 1060.56C475.547 1064.44 477.01 1067.95 479.763 1071.1C480.182 1071.47 480.608 1071.81 481.041 1072.13Z" fill="#505050"/>
<path d="M731.421 1072.13C734.449 1074.38 737.799 1075.51 741.469 1075.51H917.032C921.646 1075.51 925.422 1074.04 928.358 1071.1C928.358 1071.1 928.358 1071.1 928.358 1071.1C931.295 1067.74 932.763 1063.97 932.763 1059.77C932.763 1055.16 931.295 1051.38 928.359 1048.45C928.359 1048.45 928.359 1048.45 928.358 1048.45C925.422 1045.51 921.646 1044.04 917.032 1044.04H757.201V911.27H888.715C893.33 911.27 897.105 909.802 900.041 906.865C900.042 906.865 900.042 906.865 900.042 906.865C902.978 903.509 904.447 899.733 904.447 895.538C904.447 890.926 902.98 887.152 900.046 884.216C900.045 884.215 900.043 884.213 900.042 884.212C897.105 881.275 893.33 879.807 888.715 879.807H757.201V770.316H915.773C920.388 770.316 924.163 768.848 927.099 765.912C927.1 765.912 927.1 765.912 927.1 765.912C930.036 762.556 931.505 758.78 931.505 754.585C931.505 749.971 930.037 746.195 927.1 743.259C927.1 743.259 927.1 743.259 927.1 743.258C924.163 740.322 920.388 738.854 915.773 738.854H739.582C735.806 738.854 732.45 740.532 729.514 743.888C729.199 744.255 728.904 744.632 728.629 745.018C726.702 747.725 725.738 750.914 725.738 754.585V1059.77C725.738 1060.04 725.744 1060.3 725.755 1060.56C725.927 1064.44 727.39 1067.95 730.143 1071.1C730.562 1071.47 730.988 1071.81 731.421 1072.13Z" fill="#505050"/>
<path fill-rule="evenodd" clip-rule="evenodd" d="M556.02 45.2696C567.157 6.12322 575.992 -33.6783 579.498 -74C539.649 -66.9177 501.582 -53.8523 463.582 -39.2742C426.373 -23.9735 390.089 -4.92486 358.68 21.4847C326.413 45.6589 298.367 79.4968 283.482 119.568C275.283 139.638 273.202 160.95 272.634 182.195C272.066 203.439 276.036 224.482 282.241 244.667C283.166 248.414 286.326 251.305 290.142 251.893C292.039 252.157 293.943 252.428 295.853 252.699C314.669 255.374 334.056 258.13 353.221 255.9C374.331 253.442 395.305 247.96 414.633 239.519C453.22 221.126 482.914 190.246 505.632 155.888C528.35 121.53 544.093 83.6934 556.02 45.2696ZM467.012 -30.3332C503.364 -47.8691 541.364 -62.4472 579.498 -74C572.176 -34.2659 561.039 4.88044 545.952 40.4138C531.722 78.1825 513.609 113.851 491.546 145.906C468.692 177.239 439.654 205.816 405.47 220.982C388.378 228.565 369.638 233.19 350.763 234.79C338.041 235.868 324.899 235.243 312.062 233.58L378.177 157.37C389.391 158.05 400.547 157.444 411.646 155.551C423.679 153.499 434.923 150.724 446.89 147.159C458.856 143.594 469.242 138.583 479.561 132.06C489.88 125.537 498.618 117.569 506.567 108.879C497.896 118.359 488.367 125.605 477.981 130.615C467.595 135.625 456.418 139.913 445.174 142.688C433.208 146.253 421.897 147.516 409.796 148.055C406.883 147.991 403.923 147.979 400.94 147.967C396.18 147.947 391.359 147.927 386.569 147.696L567.224 -60.5442L297.244 219.521C294.332 206.843 291.867 194.145 290.786 181.385C290.699 162.443 293.637 143.366 299.668 125.667C312.453 89.4782 337.609 58.8006 366.783 33.2486C397.469 7.62915 430.661 -12.7972 467.012 -30.3332Z" fill="black"/>
<path fill-rule="evenodd" clip-rule="evenodd" d="M556.02 45.2696C567.157 6.12322 575.992 -33.6783 579.498 -74C539.649 -66.9177 501.582 -53.8523 463.582 -39.2742C426.373 -23.9735 390.089 -4.92486 358.68 21.4847C326.413 45.6589 298.367 79.4968 283.482 119.568C275.283 139.638 273.202 160.95 272.634 182.195C272.066 203.439 276.036 224.482 282.241 244.667C283.166 248.414 286.326 251.305 290.142 251.893C292.039 252.157 293.943 252.428 295.853 252.699C314.669 255.374 334.056 258.13 353.221 255.9C374.331 253.442 395.305 247.96 414.633 239.519C453.22 221.126 482.914 190.246 505.632 155.888C528.35 121.53 544.093 83.6934 556.02 45.2696ZM467.012 -30.3332C503.364 -47.8691 541.364 -62.4472 579.498 -74C572.176 -34.2659 561.039 4.88044 545.952 40.4138C531.722 78.1825 513.609 113.851 491.546 145.906C468.692 177.239 439.654 205.816 405.47 220.982C388.378 228.565 369.638 233.19 350.763 234.79C338.041 235.868 324.899 235.243 312.062 233.58L378.177 157.37C389.391 158.05 400.547 157.444 411.646 155.551C423.679 153.499 434.923 150.724 446.89 147.159C458.856 143.594 469.242 138.583 479.561 132.06C489.88 125.537 498.618 117.569 506.567 108.879C497.896 118.359 488.367 125.605 477.981 130.615C467.595 135.625 456.418 139.913 445.174 142.688C433.208 146.253 421.897 147.516 409.796 148.055C406.883 147.991 403.923 147.979 400.94 147.967C396.18 147.947 391.359 147.927 386.569 147.696L567.224 -60.5442L297.244 219.521C294.332 206.843 291.867 194.145 290.786 181.385C290.699 162.443 293.637 143.366 299.668 125.667C312.453 89.4782 337.609 58.8006 366.783 33.2486C397.469 7.62915 430.661 -12.7972 467.012 -30.3332Z" fill="black"/>
</g>
</svg>
