<svg width="94" height="78" viewBox="0 0 94 78" fill="none" xmlns="http://www.w3.org/2000/svg">
<path fill-rule="evenodd" clip-rule="evenodd" d="M46.6883 49.612C46.8745 49.3992 46.9723 49.161 46.9816 48.8977L46.9816 48.8975V65.2232C46.9831 65.2542 46.9845 65.2852 46.9859 65.3163C46.9951 65.5338 46.9997 65.7539 46.9997 65.9767C46.9997 66.1132 46.998 66.2489 46.9946 66.3837C46.9438 68.4068 46.5114 70.2453 45.6976 71.8993C45.6451 72.0078 45.591 72.1149 45.5355 72.2207C44.7019 73.8073 43.5239 75.0863 42.0012 76.0577C41.8017 76.1837 41.5969 76.3018 41.3869 76.4121C39.9168 77.1839 38.1893 77.5698 36.2046 77.5698C34.0764 77.5698 32.1862 77.0658 30.5341 76.0577C28.8819 75.0216 27.5798 73.6354 26.6277 71.8993C25.7036 70.1631 25.2416 68.2309 25.2416 66.1027C25.2416 63.7504 25.7036 61.6922 26.6277 59.9281C27.5518 58.1639 28.8259 56.7918 30.4501 55.8117C32.1022 54.8316 34.0204 54.3415 36.2046 54.3415C38.1928 54.3415 39.999 54.8316 41.6232 55.8117C41.7048 55.8601 41.7856 55.9095 41.8655 55.9598C43.0642 56.7148 44.0707 57.6851 44.8849 58.8707V48.9368C44.886 48.9523 44.8874 48.9677 44.8891 48.983C44.9146 49.2127 45.0103 49.4224 45.1762 49.612C45.2042 49.6365 45.2326 49.6595 45.2615 49.6809C45.4636 49.831 45.6872 49.906 45.9323 49.906C46.2403 49.906 46.4923 49.808 46.6883 49.612ZM35.3801 55.8354C38.1348 55.8354 40.6159 57.1003 42.3518 59.1215C42.418 59.1924 42.4831 59.2645 42.5471 59.3379C42.9947 59.8516 43.3868 60.4264 43.7234 61.0622C43.8214 61.2407 43.9133 61.4225 43.999 61.6076C44.5993 62.9031 44.8995 64.3595 44.8995 65.9767C44.8995 66.0869 44.8982 66.1966 44.8956 66.3056C44.8562 67.9415 44.5215 69.442 43.8914 70.8071C43.869 70.8547 43.8463 70.902 43.8232 70.9489C43.4766 71.6528 43.0495 72.2833 42.5421 72.8404C42.3243 73.1096 42.0937 73.3664 41.8513 73.6097C40.1545 75.313 37.88 76.3547 35.3801 76.3547C30.1307 76.3547 25.8753 71.7613 25.8753 66.0951C25.8753 60.4288 30.1307 55.8354 35.3801 55.8354Z" fill="#505050"/>
<path d="M13.3467 72.7428C14.51 74.2211 15.538 75.5641 16.4305 76.7717C16.4795 76.8417 16.5399 76.903 16.6117 76.9555C16.827 77.113 17.1446 77.1918 17.5646 77.1918C17.8447 77.1918 18.0827 77.0938 18.2787 76.8977C18.4747 76.6737 18.5727 76.4217 18.5727 76.1417V55.7697C18.5727 55.4616 18.4747 55.2096 18.2787 55.0136C18.0827 54.8176 17.8307 54.7196 17.5226 54.7196C17.2426 54.7196 16.9906 54.8176 16.7666 55.0136C16.7421 55.0381 16.7191 55.0635 16.6977 55.0897C16.5476 55.2735 16.4725 55.5001 16.4725 55.7697V73.3694C15.3244 71.8572 14.0643 70.2471 12.6922 68.5389C11.348 66.8027 10.0039 65.0946 8.65977 63.4144C7.34364 61.7062 6.12552 60.1381 5.00541 58.71C3.88535 57.2539 2.97529 56.0638 2.27523 55.1397L2.27515 55.1396C2.18418 55.0097 2.05403 54.9099 1.88467 54.8402C1.68908 54.7598 1.4412 54.7196 1.14103 54.7196C1.01502 54.7196 0.892509 54.7441 0.773498 54.7931C0.654486 54.8421 0.538974 54.9156 0.426963 55.0136C0.230944 55.2096 0.132935 55.4616 0.132935 55.7697V76.1417L0.132935 76.1418C0.132948 76.2818 0.15745 76.4147 0.206442 76.5407C0.255447 76.6667 0.328954 76.7857 0.426963 76.8977C0.454966 76.9222 0.483407 76.9452 0.512284 76.9667C0.714429 77.1167 0.938014 77.1918 1.18304 77.1918C1.49107 77.1918 1.74309 77.0938 1.93911 76.8977C2.13513 76.6737 2.23314 76.4217 2.23314 76.1417V58.5419C2.35215 58.6924 2.47313 58.8458 2.59608 59.002C3.45673 60.0954 4.41386 61.3282 5.46746 62.7003C5.62147 62.8964 5.77615 63.0933 5.93147 63.291C7.01877 64.6754 8.13822 66.1027 9.28984 67.5728C9.37209 67.6761 9.45419 67.7792 9.53612 67.8823C10.7651 69.4279 11.9571 70.9489 13.1122 72.4453C13.191 72.5451 13.2691 72.6442 13.3467 72.7428Z" fill="#505050"/>
<path fill-rule="evenodd" clip-rule="evenodd" d="M46.6883 49.612C46.8745 49.3992 46.9723 49.161 46.9816 48.8977L46.9816 48.8975V65.2232C46.9831 65.2542 46.9845 65.2852 46.9859 65.3163C46.9951 65.5338 46.9997 65.7539 46.9997 65.9767C46.9997 66.1132 46.998 66.2489 46.9946 66.3837C46.9438 68.4068 46.5114 70.2453 45.6976 71.8993C45.6451 72.0078 45.591 72.1149 45.5355 72.2207C44.7019 73.8073 43.5239 75.0863 42.0012 76.0577C41.8017 76.1837 41.5969 76.3018 41.3869 76.4121C39.9168 77.1839 38.1893 77.5698 36.2046 77.5698C34.0764 77.5698 32.1862 77.0658 30.5341 76.0577C28.8819 75.0216 27.5798 73.6354 26.6277 71.8993C25.7036 70.1631 25.2416 68.2309 25.2416 66.1027C25.2416 63.7504 25.7036 61.6922 26.6277 59.9281C27.5518 58.1639 28.8259 56.7918 30.4501 55.8117C32.1022 54.8316 34.0204 54.3415 36.2046 54.3415C38.1928 54.3415 39.999 54.8316 41.6232 55.8117C41.7048 55.8601 41.7856 55.9095 41.8655 55.9598C43.0642 56.7148 44.0707 57.6851 44.8849 58.8707V48.9368C44.886 48.9523 44.8874 48.9677 44.8891 48.983C44.9146 49.2127 45.0103 49.4224 45.1762 49.612C45.2042 49.6365 45.2326 49.6595 45.2615 49.6809C45.4636 49.831 45.6872 49.906 45.9323 49.906C46.2403 49.906 46.4923 49.808 46.6883 49.612ZM35.3801 55.8354C38.1348 55.8354 40.6159 57.1003 42.3518 59.1215C42.418 59.1924 42.4831 59.2645 42.5471 59.3379C42.9947 59.8516 43.3868 60.4264 43.7234 61.0622C43.8214 61.2407 43.9133 61.4225 43.999 61.6076C44.5993 62.9031 44.8995 64.3595 44.8995 65.9767C44.8995 66.0869 44.8982 66.1966 44.8956 66.3056C44.8562 67.9415 44.5215 69.442 43.8914 70.8071C43.869 70.8547 43.8463 70.902 43.8232 70.9489C43.4766 71.6528 43.0495 72.2833 42.5421 72.8404C42.3243 73.1096 42.0937 73.3664 41.8513 73.6097C40.1545 75.313 37.88 76.3547 35.3801 76.3547C30.1307 76.3547 25.8753 71.7613 25.8753 66.0951C25.8753 60.4288 30.1307 55.8354 35.3801 55.8354Z" fill="#505050"/>
<path d="M13.3467 72.7428C14.51 74.2211 15.538 75.5641 16.4305 76.7717C16.4795 76.8417 16.5399 76.903 16.6117 76.9555C16.827 77.113 17.1446 77.1918 17.5646 77.1918C17.8447 77.1918 18.0827 77.0938 18.2787 76.8977C18.4747 76.6737 18.5727 76.4217 18.5727 76.1417V55.7697C18.5727 55.4616 18.4747 55.2096 18.2787 55.0136C18.0827 54.8176 17.8307 54.7196 17.5226 54.7196C17.2426 54.7196 16.9906 54.8176 16.7666 55.0136C16.7421 55.0381 16.7191 55.0635 16.6977 55.0897C16.5476 55.2735 16.4725 55.5001 16.4725 55.7697V73.3694C15.3244 71.8572 14.0643 70.2471 12.6922 68.5389C11.348 66.8027 10.0039 65.0946 8.65977 63.4144C7.34364 61.7062 6.12552 60.1381 5.00541 58.71C3.88535 57.2539 2.97529 56.0638 2.27523 55.1397L2.27515 55.1396C2.18418 55.0097 2.05403 54.9099 1.88467 54.8402C1.68908 54.7598 1.4412 54.7196 1.14103 54.7196C1.01502 54.7196 0.892509 54.7441 0.773498 54.7931C0.654486 54.8421 0.538974 54.9156 0.426963 55.0136C0.230944 55.2096 0.132935 55.4616 0.132935 55.7697V76.1417L0.132935 76.1418C0.132948 76.2818 0.15745 76.4147 0.206442 76.5407C0.255447 76.6667 0.328954 76.7857 0.426963 76.8977C0.454966 76.9222 0.483407 76.9452 0.512284 76.9667C0.714429 77.1167 0.938014 77.1918 1.18304 77.1918C1.49107 77.1918 1.74309 77.0938 1.93911 76.8977C2.13513 76.6737 2.23314 76.4217 2.23314 76.1417V58.5419C2.35215 58.6924 2.47313 58.8458 2.59608 59.002C3.45673 60.0954 4.41386 61.3282 5.46746 62.7003C5.62147 62.8964 5.77615 63.0933 5.93147 63.291C7.01877 64.6754 8.13822 66.1027 9.28984 67.5728C9.37209 67.6761 9.45419 67.7792 9.53612 67.8823C10.7651 69.4279 11.9571 70.9489 13.1122 72.4453C13.191 72.5451 13.2691 72.6442 13.3467 72.7428Z" fill="#505050"/>
<path d="M62.5019 76.9666C62.704 77.1167 62.9276 77.1917 63.1726 77.1917C63.4807 77.1917 63.7327 77.0937 63.9287 76.8977C64.1247 76.6736 64.2227 76.4216 64.2227 76.1416V56.8197H72.2455C72.5535 56.8197 72.8055 56.7217 73.0016 56.5257L73.0016 56.5257C73.1976 56.3017 73.2956 56.0496 73.2956 55.7696V55.7696C73.2956 55.4616 73.1976 55.2096 73.0016 55.0135L73.0016 55.0135C72.8056 54.8175 72.5535 54.7195 72.2455 54.7195H54.2677C53.9877 54.7195 53.7357 54.8175 53.5117 55.0135C53.4872 55.038 53.4642 55.0634 53.4428 55.0896C53.2927 55.2734 53.2177 55.5001 53.2177 55.7696C53.2177 55.7871 53.218 55.8045 53.2188 55.8218C53.2303 56.081 53.3279 56.3156 53.5117 56.5257C53.5397 56.5502 53.5681 56.5731 53.597 56.5946C53.7991 56.7447 54.0227 56.8197 54.2677 56.8197H62.1225V76.1416C62.1225 76.1591 62.1229 76.1765 62.1237 76.1938C62.1352 76.453 62.2328 76.6876 62.4166 76.8977C62.4446 76.9222 62.473 76.9451 62.5019 76.9666Z" fill="#505050"/>
<path d="M79.2152 76.9666C79.4174 77.1167 79.641 77.1917 79.886 77.1917H91.6052C91.9132 77.1917 92.1652 77.0937 92.3612 76.8977L92.3612 76.8977C92.5573 76.6736 92.6553 76.4216 92.6553 76.1416C92.6553 75.8336 92.5573 75.5816 92.3613 75.3856L92.3612 75.3855C92.1652 75.1895 91.9132 75.0915 91.6052 75.0915H80.9361V66.2286H89.715C90.023 66.2286 90.275 66.1306 90.471 65.9346L90.471 65.9346C90.6671 65.7106 90.7651 65.4585 90.7651 65.1785C90.7651 64.8706 90.6672 64.6187 90.4713 64.4227C90.4712 64.4226 90.4711 64.4225 90.471 64.4224C90.275 64.2264 90.023 64.1284 89.715 64.1284H80.9361V56.8197H91.5212C91.8292 56.8197 92.0812 56.7217 92.2772 56.5257L92.2772 56.5257C92.4732 56.3016 92.5713 56.0496 92.5713 55.7696C92.5713 55.4616 92.4733 55.2096 92.2773 55.0135L92.2772 55.0135C92.0812 54.8175 91.8292 54.7195 91.5212 54.7195H79.76C79.508 54.7195 79.2839 54.8315 79.0879 55.0555C79.0669 55.08 79.0472 55.1052 79.0289 55.131C78.9002 55.3117 78.8359 55.5246 78.8359 55.7696V76.1416C78.8359 76.1591 78.8363 76.1765 78.837 76.1938C78.8485 76.453 78.9462 76.6876 79.1299 76.8977C79.1579 76.9222 79.1864 76.9451 79.2152 76.9666Z" fill="#505050"/>
<path d="M62.5019 76.9666C62.704 77.1167 62.9276 77.1917 63.1726 77.1917C63.4807 77.1917 63.7327 77.0937 63.9287 76.8977C64.1247 76.6736 64.2227 76.4216 64.2227 76.1416V56.8197H72.2455C72.5535 56.8197 72.8055 56.7217 73.0016 56.5257L73.0016 56.5257C73.1976 56.3017 73.2956 56.0496 73.2956 55.7696C73.2956 55.4616 73.1976 55.2096 73.0016 55.0135L73.0016 55.0135C72.8056 54.8175 72.5535 54.7195 72.2455 54.7195H54.2677C53.9877 54.7195 53.7357 54.8175 53.5117 55.0135C53.4872 55.038 53.4642 55.0634 53.4428 55.0896C53.2927 55.2734 53.2177 55.5001 53.2177 55.7696C53.2177 55.7871 53.218 55.8045 53.2188 55.8218C53.2303 56.081 53.3279 56.3156 53.5117 56.5257C53.5397 56.5502 53.5681 56.5731 53.597 56.5946C53.7991 56.7447 54.0227 56.8197 54.2677 56.8197H62.1225V76.1416C62.1225 76.1591 62.1229 76.1765 62.1237 76.1938C62.1352 76.453 62.2328 76.6876 62.4166 76.8977C62.4446 76.9222 62.473 76.9451 62.5019 76.9666Z" fill="#505050"/>
<path d="M79.2152 76.9666C79.4174 77.1167 79.641 77.1917 79.886 77.1917H91.6052C91.9132 77.1917 92.1652 77.0937 92.3612 76.8977L92.3612 76.8977C92.5573 76.6736 92.6553 76.4216 92.6553 76.1416C92.6553 75.8336 92.5573 75.5816 92.3613 75.3856L92.3612 75.3855C92.1652 75.1895 91.9132 75.0915 91.6052 75.0915H80.9361V66.2286H89.715C90.023 66.2286 90.275 66.1306 90.471 65.9346L90.471 65.9346C90.6671 65.7106 90.7651 65.4585 90.7651 65.1785C90.7651 64.8706 90.6672 64.6187 90.4713 64.4227C90.4712 64.4226 90.4711 64.4225 90.471 64.4224C90.275 64.2264 90.023 64.1284 89.715 64.1284H80.9361V56.8197H91.5212C91.8292 56.8197 92.0812 56.7217 92.2772 56.5257L92.2772 56.5257C92.4732 56.3016 92.5713 56.0496 92.5713 55.7696C92.5713 55.4616 92.4733 55.2096 92.2773 55.0135L92.2772 55.0135C92.0812 54.8175 91.8292 54.7195 91.5212 54.7195H79.76C79.508 54.7195 79.2839 54.8315 79.0879 55.0555C79.0669 55.08 79.0472 55.1052 79.0289 55.131C78.9002 55.3117 78.8359 55.5246 78.8359 55.7696V76.1416C78.8359 76.1591 78.8363 76.1765 78.837 76.1938C78.8485 76.453 78.9462 76.6876 79.1299 76.8977C79.1579 76.9222 79.1864 76.9451 79.2152 76.9666Z" fill="#505050"/>
<path fill-rule="evenodd" clip-rule="evenodd" d="M64.1989 8.42145C64.9423 5.80835 65.532 3.15152 65.7661 0.459961C63.1061 0.932716 60.565 1.80486 58.0285 2.77798C55.5447 3.79933 53.1226 5.07087 51.026 6.83376C48.8722 8.44744 47 10.7062 46.0064 13.381C45.4591 14.7207 45.3202 16.1433 45.2823 17.5615C45.2444 18.9796 45.5094 20.3842 45.9236 21.7316C45.9853 21.9818 46.1963 22.1747 46.451 22.214C46.5776 22.2316 46.7047 22.2497 46.8322 22.2678C48.0882 22.4464 49.3823 22.6303 50.6616 22.4814C52.0707 22.3174 53.4709 21.9514 54.761 21.388C57.3368 20.1602 59.3189 18.0989 60.8354 15.8054C62.3519 13.512 63.4027 10.9863 64.1989 8.42145ZM58.2574 3.37481C60.684 2.20425 63.2205 1.23113 65.7661 0.459961C65.2773 3.11229 64.5339 5.72539 63.5268 8.09732C62.5769 10.6185 61.3678 12.9994 59.8951 15.1391C58.3696 17.2307 56.4312 19.1383 54.1493 20.1506C53.0084 20.6568 51.7575 20.9655 50.4976 21.0723C49.6484 21.1443 48.7711 21.1026 47.9142 20.9916L52.3275 15.9044C53.076 15.9498 53.8207 15.9093 54.5616 15.783C55.3649 15.646 56.1154 15.4607 56.9142 15.2228C57.713 14.9848 58.4063 14.6503 59.0951 14.2149C59.7839 13.7795 60.3672 13.2476 60.8978 12.6675C60.319 13.3003 59.6829 13.784 58.9896 14.1184C58.2963 14.4529 57.5503 14.7391 56.7997 14.9243C56.0009 15.1623 55.2459 15.2466 54.4381 15.2826C54.2437 15.2783 54.0461 15.2775 53.8469 15.2767C53.5292 15.2754 53.2074 15.274 52.8877 15.2586L64.9468 1.35816L46.925 20.0531C46.7306 19.2068 46.5662 18.3592 46.494 17.5074C46.4882 16.243 46.6843 14.9696 47.0869 13.7881C47.9403 11.3725 49.6195 9.32467 51.5669 7.61902C53.6153 5.90887 55.8309 4.54537 58.2574 3.37481Z" fill="black"/>
<path fill-rule="evenodd" clip-rule="evenodd" d="M64.1989 8.42145C64.9423 5.80835 65.532 3.15152 65.7661 0.459961C63.1061 0.932716 60.565 1.80486 58.0285 2.77798C55.5447 3.79933 53.1226 5.07087 51.026 6.83376C48.8722 8.44744 47 10.7062 46.0064 13.381C45.4591 14.7207 45.3202 16.1433 45.2823 17.5615C45.2444 18.9796 45.5094 20.3842 45.9236 21.7316C45.9853 21.9818 46.1963 22.1747 46.451 22.214C46.5776 22.2316 46.7047 22.2497 46.8322 22.2678C48.0882 22.4464 49.3823 22.6303 50.6616 22.4814C52.0707 22.3174 53.4709 21.9514 54.761 21.388C57.3368 20.1602 59.3189 18.0989 60.8354 15.8054C62.3519 13.512 63.4027 10.9863 64.1989 8.42145ZM58.2574 3.37481C60.684 2.20425 63.2205 1.23113 65.7661 0.459961C65.2773 3.11229 64.5339 5.72539 63.5268 8.09732C62.5769 10.6185 61.3678 12.9994 59.8951 15.1391C58.3696 17.2307 56.4312 19.1383 54.1493 20.1506C53.0084 20.6568 51.7575 20.9655 50.4976 21.0723C49.6484 21.1443 48.7711 21.1026 47.9142 20.9916L52.3275 15.9044C53.076 15.9498 53.8207 15.9093 54.5616 15.783C55.3649 15.646 56.1154 15.4607 56.9142 15.2228C57.713 14.9848 58.4063 14.6503 59.0951 14.2149C59.7839 13.7795 60.3672 13.2476 60.8978 12.6675C60.319 13.3003 59.6829 13.784 58.9896 14.1184C58.2963 14.4529 57.5503 14.7391 56.7997 14.9243C56.0009 15.1623 55.2459 15.2466 54.4381 15.2826C54.2437 15.2783 54.0461 15.2775 53.8469 15.2767C53.5292 15.2754 53.2074 15.274 52.8877 15.2586L64.9468 1.35816L46.925 20.0531C46.7306 19.2068 46.5662 18.3592 46.494 17.5074C46.4882 16.243 46.6843 14.9696 47.0869 13.7881C47.9403 11.3725 49.6195 9.32467 51.5669 7.61902C53.6153 5.90887 55.8309 4.54537 58.2574 3.37481Z" fill="black"/>
<path d="M12.6432 28.6622C11.9712 28.3822 11.2291 28.1582 10.417 27.9902C9.63295 27.8222 8.59685 27.7381 7.30872 27.7381C5.88058 27.7381 4.74647 28.1022 3.90638 28.8303C3.0663 29.5303 2.64626 30.3284 2.64626 31.2245C2.64626 32.1206 3.0383 32.9327 3.82238 33.6607C4.60645 34.3888 6.1326 35.0189 8.40083 35.5509C10.417 35.999 11.9712 36.573 13.0633 37.2731C14.1834 37.9732 14.9675 38.7712 15.4155 39.6673C15.8636 40.5354 16.0876 41.5015 16.0876 42.5656C16.0876 43.6017 15.8216 44.5958 15.2895 45.5479C14.7855 46.472 13.9454 47.2421 12.7693 47.8581C11.6211 48.4462 10.081 48.7402 8.1488 48.7402C5.40453 48.7402 2.87028 48.0962 0.546054 46.808C0.182018 46.584 0 46.276 0 45.8839C0 45.6319 0.0980096 45.3939 0.294029 45.1699C0.490048 44.9458 0.742073 44.8338 1.0501 44.8338C1.21812 44.8338 1.38614 44.8758 1.55415 44.9598C3.54235 46.08 5.74057 46.64 8.1488 46.64C10.053 46.64 11.4951 46.248 12.4752 45.4639C13.4833 44.6518 13.9874 43.6857 13.9874 42.5656C13.9874 41.3895 13.5113 40.4094 12.5592 39.6253C11.6351 38.8412 10.109 38.1832 7.98079 37.6511C5.99259 37.1471 4.45244 36.573 3.36033 35.929C2.29623 35.2849 1.55415 34.5568 1.13411 33.7447C0.742073 32.9327 0.546054 32.0366 0.546054 31.0565C0.546054 30.1604 0.798078 29.3063 1.30213 28.4942C1.83418 27.6541 2.60426 26.9681 3.61236 26.436C4.62045 25.904 5.85258 25.6379 7.30872 25.6379C8.84887 25.6379 10.081 25.764 11.0051 26.016C11.9572 26.24 12.9513 26.562 13.9874 26.9821C14.4354 27.1501 14.6594 27.4721 14.6594 27.9482C14.6594 28.2282 14.5474 28.4802 14.3234 28.7042C14.1274 28.9003 13.8894 28.9983 13.6093 28.9983C13.5533 28.9983 13.4693 28.9843 13.3573 28.9563C13.2453 28.9003 13.0073 28.8023 12.6432 28.6622Z" fill="black"/>
<path d="M24.3368 48.3622C24.0568 48.3622 23.8047 48.2642 23.5807 48.0681C23.3847 47.8441 23.2867 47.5921 23.2867 47.3121V26.9401C23.2867 26.632 23.3847 26.38 23.5807 26.184C23.8047 25.988 24.0568 25.89 24.3368 25.89H30.3434C31.9956 25.89 33.4377 26.226 34.6698 26.8981C35.9019 27.5421 36.854 28.4242 37.5261 29.5443C38.2262 30.6644 38.5762 31.9526 38.5762 33.4087C38.5762 34.7528 38.2682 35.999 37.6521 37.1471C37.0641 38.2952 36.154 39.2193 34.9218 39.9193C33.7177 40.6194 32.1916 40.9694 30.3434 40.9694H25.3869V47.3121C25.3869 47.5921 25.2889 47.8441 25.0929 48.0681C24.8969 48.2642 24.6448 48.3622 24.3368 48.3622ZM25.3869 27.9902V38.8692H30.3434C32.3316 38.8692 33.8437 38.3512 34.8798 37.3151C35.9439 36.251 36.476 34.9489 36.476 33.4087C36.476 31.7845 35.9019 30.4824 34.7538 29.5023C33.6057 28.4942 32.1356 27.9902 30.3434 27.9902H25.3869Z" fill="black"/>
<path d="M47.0092 48.8558C47.0092 49.1359 46.9112 49.3879 46.7152 49.6119C46.5191 49.8079 46.2671 49.906 45.9591 49.906C45.6791 49.906 45.427 49.8079 45.203 49.6119C45.007 49.3879 44.909 49.1359 44.909 48.8558V26.6881C44.909 26.38 45.007 26.128 45.203 25.932C45.427 25.736 45.6791 25.638 45.9591 25.638C46.2671 25.638 46.5191 25.736 46.7152 25.932C46.9112 26.128 47.0092 26.38 47.0092 26.6881V48.8558Z" fill="black"/>
<path d="M84.4231 48.3622C84.143 48.3622 83.891 48.2642 83.667 48.0681C83.471 47.8441 83.3729 47.5921 83.3729 47.3121V40.2554C82.8969 39.6393 82.2668 38.7712 81.4828 37.6511C80.6987 36.531 79.8726 35.3269 79.0045 34.0388C78.1644 32.7506 77.3524 31.5185 76.5683 30.3424C75.8122 29.1663 75.2242 28.2142 74.8041 27.4861C74.7201 27.3181 74.6781 27.1361 74.6781 26.9401C74.6781 26.688 74.7621 26.464 74.9301 26.268C75.0981 26.044 75.3502 25.932 75.6862 25.932C76.1062 25.932 76.4003 26.086 76.5683 26.394C76.9603 27.0381 77.4784 27.8782 78.1224 28.9143C78.7945 29.9224 79.5086 31.0005 80.2646 32.1486C81.0487 33.2967 81.8048 34.4028 82.5329 35.4669C83.2889 36.531 83.933 37.4411 84.4651 38.1972C85.0531 37.3851 85.6972 36.447 86.3973 35.3829C87.1253 34.2908 87.8534 33.1847 88.5815 32.0646C89.3095 30.9165 89.9816 29.8524 90.5977 28.8723C91.2417 27.8642 91.7458 27.0381 92.1098 26.394C92.2778 26.086 92.5719 25.932 92.9919 25.932C93.664 25.932 94 26.268 94 26.9401C94 27.1361 93.958 27.3181 93.874 27.4861C93.4539 28.1862 92.8799 29.1103 92.1518 30.2584C91.4517 31.3785 90.6817 32.5826 89.8416 33.8707C89.0015 35.1309 88.1894 36.335 87.4054 37.4831C86.6493 38.6312 86.0052 39.5833 85.4732 40.3394V47.3121C85.4732 47.5921 85.3752 47.8441 85.1791 48.0681C84.9831 48.2642 84.7311 48.3622 84.4231 48.3622Z" fill="black"/>
<path d="M69.6418 28.8161C68.2752 28.0921 66.5461 27.7302 64.4544 27.7302C62.7811 27.7302 61.2332 28.1339 59.8109 28.9414C58.4164 29.7488 57.2869 30.8765 56.4223 32.3244C55.5577 33.7444 55.1255 35.415 55.1255 37.3362C55.1255 39.0904 55.502 40.6774 56.255 42.0975C57.008 43.4896 58.0957 44.6034 59.518 45.4387C60.9683 46.2462 62.6974 46.6499 64.7054 46.6499C65.7094 46.6499 66.6437 46.5524 67.5083 46.3575C68.4007 46.1626 69.1956 45.8842 69.8928 45.5222C70.0323 45.4387 70.1857 45.3969 70.353 45.3969C70.6598 45.3969 70.9108 45.4944 71.106 45.6893C71.3012 45.8842 71.3988 46.1348 71.3988 46.4411C71.3988 46.8866 71.2036 47.1928 70.8132 47.3599C69.9765 47.8054 69.0422 48.1395 68.0103 48.3623C66.9784 48.6129 65.8768 48.7382 64.7054 48.7382C62.2512 48.7382 60.1455 48.237 58.3885 47.2346C56.6594 46.2322 55.3346 44.8679 54.4143 43.1416C53.4939 41.4153 53.0338 39.4802 53.0338 37.3362C53.0338 34.9974 53.5637 32.9508 54.6235 31.1967C55.6832 29.4426 57.0777 28.0782 58.8068 27.1037C60.536 26.1292 62.4185 25.6419 64.4544 25.6419C66.9644 25.6419 69.0283 26.0874 70.6458 26.9784C71.0084 27.2012 71.1897 27.5074 71.1897 27.8972C71.1897 28.1478 71.0921 28.3845 70.8968 28.6073C70.7016 28.83 70.4506 28.9414 70.1438 28.9414C69.9765 28.9414 69.8091 28.8996 69.6418 28.8161Z" fill="black"/>
</svg>
