<svg width="891" height="1156" viewBox="0 0 891 1156" fill="none" xmlns="http://www.w3.org/2000/svg">
<g opacity="0.05">
<path d="M816.81 465.836C816.431 464.398 815.961 462.987 815.401 461.61L643.968 169.411C642.813 167.45 641.165 165.824 639.189 164.695C637.213 163.566 634.976 162.971 632.7 162.971C630.424 162.971 628.188 163.566 626.211 164.695C624.235 165.824 622.588 167.45 621.432 169.411L586.824 228.173L464.688 20.092L457.243 6.81023C455.965 4.72918 454.175 3.0105 452.044 1.81825C449.913 0.626005 447.512 0 445.07 0C442.628 0 440.227 0.626005 438.096 1.81825C435.964 3.0105 434.174 4.72918 432.896 6.81023L257.238 306.656L246.775 311.888L218.001 262.987C216.883 261.109 215.332 259.526 213.476 258.37C211.621 257.215 209.516 256.521 207.337 256.346H205.124C202.945 256.521 200.84 257.215 198.985 258.37C197.129 259.526 195.578 261.109 194.46 262.987L87.4146 445.511C38.9755 510.922 9.39662 588.364 1.89492 669.415C-5.60678 750.466 9.25592 832.023 44.8666 905.215C80.4772 978.407 135.472 1040.43 203.871 1084.55C272.27 1128.66 351.453 1153.17 432.809 1155.42C514.165 1157.66 594.579 1137.55 665.305 1097.28C736.031 1057 794.362 998.103 833.953 926.986C873.544 855.868 892.88 775.255 889.857 693.914C886.835 612.572 861.57 533.617 816.81 465.634V465.836ZM632.7 201.207L730.49 368.034L780.994 454.365H484.407L632.7 201.207ZM274.341 333.018L299.895 289.551L360.259 187.321V245.077H398.69V120.711L426.659 73.219V351.935H465.09V75.2314L490.242 118.095V245.077H528.674V184.705L570.928 256.749L557.246 280.092L540.947 308.065L450.402 462.415C449.187 464.436 448.532 466.745 448.505 469.103C448.478 471.462 449.079 473.785 450.247 475.834C451.414 477.883 453.107 479.584 455.15 480.763C457.193 481.941 459.513 482.554 461.871 482.538H703.326L766.708 590.604H124.035L194.46 469.86H315.187C317.449 469.711 319.634 468.986 321.536 467.753C323.438 466.52 324.993 464.821 326.053 462.817L327.26 460.603C328.299 458.688 328.843 456.544 328.843 454.365C328.843 452.186 328.299 450.042 327.26 448.127L266.896 345.495L274.341 333.018ZM168.101 362.198L206.331 297.399L222.629 325.17L234.501 345.294L238.123 351.532L250.799 373.065L291.042 441.687H120.816L168.101 362.198ZM445.17 1124.29C369.058 1124.32 294.41 1103.36 229.435 1063.72C164.46 1024.07 111.674 967.273 76.88 899.57C42.0864 831.866 26.6331 755.878 32.219 679.961C37.8049 604.044 64.2138 531.137 108.542 469.257H162.064L87.4146 596.44C86.1784 598.581 85.5276 601.01 85.5276 603.483C85.5276 605.956 86.1784 608.385 87.4146 610.526C88.6082 612.677 90.3594 614.467 92.4839 615.706C94.6085 616.945 97.0278 617.589 99.4874 617.57H790.652C793.114 617.548 795.527 616.881 797.651 615.636C799.775 614.391 801.535 612.61 802.756 610.472C803.978 608.335 804.618 605.914 804.612 603.452C804.607 600.99 803.956 598.572 802.725 596.44L735.319 481.532H790.048C831.41 543.899 855.092 616.314 858.576 691.071C862.059 765.829 845.213 840.132 809.83 906.076C774.447 972.019 721.852 1027.14 657.639 1065.56C593.426 1103.99 519.999 1124.28 445.17 1124.29V1124.29Z" fill="#CCB300"/>
<path d="M178.165 752.802C174.667 749.545 170.468 747.135 165.891 745.759V745.759C170.057 743.802 173.607 740.74 176.153 736.905C179.662 732.138 181.436 726.316 181.183 720.403C181.255 716.645 180.54 712.913 179.085 709.448C177.629 705.982 175.466 702.859 172.732 700.279C168.673 696.664 163.924 693.909 158.772 692.179C153.619 690.45 148.169 689.783 142.752 690.217C134.711 690.166 126.731 691.599 119.21 694.443C113.841 696.493 108.713 699.125 103.918 702.292L114.984 723.623C117.842 721.224 120.944 719.133 124.24 717.384C128.308 715.382 132.785 714.349 137.319 714.366C141.076 714.212 144.792 715.194 147.983 717.183C149.303 718.033 150.396 719.192 151.168 720.559C151.939 721.927 152.365 723.462 152.41 725.032C152.429 726.333 152.189 727.626 151.706 728.835C151.222 730.044 150.504 731.145 149.593 732.075C144.452 735.56 138.279 737.192 132.087 736.703H124.844V759.242H135.709C140.493 758.746 145.317 759.656 149.593 761.858C151.072 762.733 152.307 763.966 153.186 765.442C154.065 766.919 154.559 768.593 154.623 770.31C154.583 772.138 154.083 773.926 153.168 775.509C152.254 777.092 150.955 778.418 149.392 779.366C145.605 781.331 141.382 782.3 137.118 782.183C131.866 782.233 126.684 780.989 122.027 778.561C117.689 776.087 113.753 772.965 110.356 769.304L95.668 789.428C101.055 794.343 107.249 798.292 113.978 801.1C122.607 804.218 131.786 805.52 140.941 804.923C151.929 805.529 162.851 802.869 172.33 797.276C176.662 794.344 180.199 790.382 182.622 785.746C185.045 781.11 186.279 775.944 186.214 770.713C186.141 767.34 185.392 764.017 184.009 760.94C182.626 757.863 180.639 755.096 178.165 752.802V752.802Z" fill="#CCB300"/>
<path d="M305.129 705.914C293.013 695.149 277.37 689.204 261.164 689.204C244.958 689.204 229.315 695.149 217.199 705.914C211.603 711.302 207.165 717.776 204.155 724.938C201.145 732.1 199.627 739.801 199.693 747.57C199.662 755.334 201.196 763.024 204.204 770.181C207.212 777.339 211.631 783.816 217.199 789.226C229.373 799.87 244.994 805.735 261.164 805.735C277.334 805.735 292.955 799.87 305.129 789.226C310.587 783.765 314.895 777.265 317.799 770.11C320.702 762.955 322.141 755.291 322.031 747.57C322.175 739.844 320.752 732.17 317.847 725.01C314.942 717.85 310.615 711.354 305.129 705.914V705.914ZM283.599 769.102C280.637 771.955 277.136 774.189 273.302 775.675C269.467 777.16 265.375 777.868 261.264 777.756C257.078 777.85 252.915 777.116 249.013 775.597C245.111 774.077 241.548 771.802 238.527 768.901C233.048 763.617 229.868 756.388 229.674 748.777C229.653 740.591 232.83 732.72 238.527 726.842C241.566 723.812 245.176 721.415 249.148 719.791C253.121 718.167 257.376 717.349 261.667 717.384C269.952 717.463 277.912 720.619 284.002 726.239C286.859 729.009 289.133 732.324 290.688 735.987C292.243 739.651 293.049 743.59 293.056 747.57C292.877 755.716 289.476 763.459 283.599 769.102V769.102Z" fill="#CCB300"/>
<path d="M369.113 795.264C377.826 784.443 382.009 770.667 380.784 756.827V716.579H408.752V803.716H437.928V691.827H352.01V753.406C352.01 768.097 347.986 773.53 346.175 773.53C343.49 775.825 340.049 777.044 336.517 776.951C334.191 776.878 331.887 776.471 329.676 775.744V802.508C333.756 803.674 337.93 804.482 342.151 804.923C347.065 805.219 351.987 804.516 356.621 802.855C361.256 801.195 365.505 798.613 369.113 795.264V795.264Z" fill="#CCB300"/>
<path d="M517.806 804.923C534.057 805.22 549.812 799.32 561.871 788.422C567.402 782.984 571.798 776.501 574.803 769.35C577.808 762.199 579.363 754.522 579.377 746.765C579.397 739.003 577.857 731.316 574.85 724.161C571.843 717.005 567.43 710.526 561.871 705.109C549.831 694.155 534.08 688.185 517.806 688.406C501.586 688.155 485.887 694.132 473.941 705.109C468.319 710.488 463.849 716.955 460.805 724.116C457.761 731.278 456.206 738.984 456.235 746.765C456.241 754.542 457.812 762.237 460.854 769.394C463.896 776.55 468.347 783.021 473.941 788.422C485.907 799.343 501.61 805.25 517.806 804.923V804.923ZM495.27 725.434C501.332 719.644 509.424 716.464 517.806 716.58C526.099 716.619 534.072 719.781 540.14 725.434C542.998 728.204 545.272 731.519 546.827 735.183C548.382 738.847 549.187 742.785 549.195 746.765C549.198 750.833 548.379 754.859 546.788 758.603C545.196 762.346 542.864 765.729 539.932 768.548C537.001 771.368 533.529 773.565 529.727 775.009C525.925 776.453 521.87 777.114 517.806 776.951C513.649 777.052 509.514 776.321 505.644 774.8C501.774 773.28 498.246 771 495.27 768.097C492.521 765.507 490.32 762.391 488.8 758.934C487.279 755.477 486.468 751.749 486.417 747.973C486.389 743.945 487.157 739.953 488.676 736.223C490.196 732.493 492.436 729.1 495.27 726.239V725.434Z" fill="#CCB300"/>
<path d="M610.768 803.313H639.743V716.378H663.687V691.827H587.227V716.378H610.768V803.313Z" fill="#CCB300"/>
<path d="M732.907 689.211C716.687 688.959 700.988 694.937 689.043 705.914C683.447 711.303 679.009 717.776 675.999 724.938C672.989 732.1 671.471 739.801 671.537 747.57C671.506 755.334 673.04 763.024 676.048 770.182C679.055 777.339 683.475 783.816 689.043 789.227C701.217 799.87 716.838 805.735 733.008 805.735C749.177 805.735 764.798 799.87 776.973 789.227C782.54 783.816 786.96 777.339 789.968 770.182C792.975 763.024 794.509 755.334 794.478 747.57C794.544 739.801 793.026 732.1 790.016 724.938C787.007 717.776 782.568 711.303 776.973 705.914C764.954 694.925 749.189 688.949 732.907 689.211ZM755.443 769.706C749.287 775.335 741.248 778.456 732.907 778.456C724.566 778.456 716.527 775.335 710.371 769.706C707.622 767.117 705.422 764.001 703.901 760.544C702.38 757.087 701.57 753.359 701.518 749.583C701.464 745.522 702.219 741.491 703.739 737.724C705.259 733.958 707.513 730.533 710.371 727.648C716.445 721.876 724.529 718.699 732.907 718.793C741.258 718.841 749.292 721.998 755.443 727.648C760.888 732.913 764.186 740.012 764.699 747.57C764.488 755.669 761.174 763.378 755.443 769.103V769.706Z" fill="#CCB300"/>
<path d="M227.659 854.227L184.801 965.914H215.385L222.83 947.199H263.072L269.914 965.914H301.906L260.054 854.428L227.659 854.227ZM230.878 925.666L243.152 889.645L255.628 925.666H230.878Z" fill="#CCB300"/>
<path d="M329.071 915.604C329.071 930.496 325.047 935.728 323.236 935.728C320.55 938.024 317.109 939.242 313.578 939.149C311.315 939.095 309.074 938.688 306.938 937.942V965.914C311.242 966.804 315.622 967.276 320.016 967.323C324.784 967.548 329.55 966.828 334.039 965.205C338.528 963.582 342.652 961.087 346.174 957.864C354.886 947.043 359.069 933.267 357.844 919.428V879.18H385.813V965.914H414.989V854.227H329.071V915.604Z" fill="#CCB300"/>
<path d="M504.529 854.227H427.867V878.778H451.409V965.713H480.384V878.778H504.529V854.227Z" fill="#CCB300"/>
<path d="M539.136 854.227L496.277 965.914H526.862L534.306 947.199H574.549L581.39 965.914H612.377L570.525 854.428L539.136 854.227ZM543.361 925.666L555.635 889.645L567.104 925.666H543.361Z" fill="#CCB300"/>
<path d="M631.089 865.294C624.913 872.659 621.687 882.052 622.034 891.657C621.797 895.933 622.442 900.213 623.931 904.229C625.419 908.246 627.719 911.912 630.687 915C635.056 919.66 640.869 922.709 647.186 923.654L616.199 965.914H649.6L673.545 927.88H676.362V965.914H705.336V854.226H662.478C656.773 853.896 651.06 854.704 645.671 856.605C640.282 858.505 635.325 861.459 631.089 865.294V865.294ZM676.362 878.576V905.542H668.112C663.508 905.781 658.962 904.431 655.234 901.719C652.886 899.063 651.66 895.601 651.814 892.059C651.736 890.301 652.037 888.546 652.696 886.914C653.356 885.282 654.359 883.811 655.637 882.601C659.185 879.838 663.625 878.477 668.112 878.777L676.362 878.576Z" fill="#CCB300"/>
</g>
</svg>
