<svg width="74" height="75" viewBox="0 0 74 75" fill="none" xmlns="http://www.w3.org/2000/svg">
<g clip-path="url(#clip0_1_1166)">
<path d="M37.0093 0.355469C16.6288 0.355469 0.0478516 16.9047 0.0478516 37.2454C0.0478516 47.4211 4.19743 56.6485 10.8959 63.3284C8.85359 66.3322 7.1866 67.5416 7.14018 67.5734L8.86685 70.1343L10.563 72.715C10.8084 72.5545 13.0429 71.0188 15.6634 67.3334C21.6974 71.6103 29.0616 74.1353 37.0093 74.1353C57.3885 74.1353 73.9696 57.5861 73.9696 37.2454C73.9696 16.9047 57.3885 0.355469 37.0093 0.355469ZM6.22513 37.2467C6.22513 20.3116 20.0358 6.53275 37.0093 6.53275C53.9829 6.53275 67.7923 20.3116 67.7923 37.2467C67.7923 41.3114 66.99 45.1904 65.5458 48.7446C50.7431 38.7121 52.0984 13.9566 52.113 13.706L45.9623 13.1543C41.6164 50.9579 36.4152 53.0267 36.2866 53.0904C33.3451 52.5268 27.6241 38.1207 24.2848 22.8671L18.1871 23.7517C19.3833 40.1324 16.9007 50.8611 13.9884 57.6086C9.16391 52.1833 6.22513 45.0525 6.22513 37.2467ZM37.0093 67.9607C30.2035 67.9607 23.9095 65.742 18.8077 61.9969C20.9402 57.6299 22.9241 51.7072 23.9479 43.8179C27.9782 54.7043 31.9288 59.4931 36.5558 59.2584C41.9639 58.9852 45.8283 51.8412 48.9488 35.4882C51.3054 42.497 55.4444 49.6039 62.6415 54.2336C57.1193 62.4995 47.6929 67.9607 37.0093 67.9607Z" fill="#A2BC0C"/>
</g>
<defs>
<clipPath id="clip0_1_1166">
<rect width="74" height="74" fill="white" transform="translate(0 0.250977)"/>
</clipPath>
</defs>
</svg>
