<svg width="1006" height="1080" viewBox="0 0 1006 1080" fill="none" xmlns="http://www.w3.org/2000/svg">
<path opacity="0.05" d="M428.643 -72.1157C110.542 -72.1157 -148.256 186.186 -148.256 503.666C-148.256 662.489 -83.4889 806.512 21.0614 910.773C-10.8149 957.656 -36.8335 976.533 -37.5579 977.03L-10.608 1017L15.866 1057.28C19.6953 1054.77 54.573 1030.81 95.4732 973.283C189.653 1040.04 304.594 1079.45 428.643 1079.45C746.724 1079.45 1005.52 821.146 1005.52 503.666C1005.52 186.186 746.724 -72.1157 428.643 -72.1157ZM-51.8402 503.687C-51.8402 239.362 163.718 24.2999 428.643 24.2999C693.569 24.2999 909.107 239.362 909.107 503.687C909.107 567.129 896.584 627.673 874.043 683.147C643.001 526.559 664.156 140.172 664.383 136.26L568.382 127.65C500.551 717.693 419.37 749.983 417.362 750.977C371.452 742.18 282.157 517.327 230.037 279.248L134.863 293.055C153.534 548.728 114.785 716.182 69.3305 821.498C-5.9714 736.819 -51.8402 625.521 -51.8402 503.687ZM428.643 983.074C322.416 983.074 224.179 948.445 144.55 889.991C177.834 821.829 208.8 729.388 224.779 606.25C287.683 776.167 349.346 850.911 421.564 847.248C505.974 842.984 566.291 731.479 614.996 476.24C651.778 585.634 716.379 696.559 828.712 768.819C742.522 897.836 595.394 983.074 428.643 983.074Z" fill="#A2BC0C"/>
</svg>
