<svg width="1227" height="1156" viewBox="0 0 1227 1156" fill="none" xmlns="http://www.w3.org/2000/svg">
<path opacity="0.05" d="M522.493 576.425C522.734 594.406 519.277 612.246 512.335 628.836C506.545 644.349 495.845 657.546 481.864 666.418C459.515 675.654 435.228 679.213 411.169 676.778H111.327C87.2683 679.213 62.9808 675.654 40.6325 666.418C26.5656 657.551 15.846 644.259 10.1608 628.633C-3.38692 594.935 -3.38692 557.305 10.1608 523.607C16.0142 508.236 26.7098 495.188 40.6325 486.431C62.9808 477.195 87.2683 473.636 111.327 476.071H411.169C435.228 473.636 459.515 477.195 481.864 486.431C495.805 495.348 506.493 508.53 512.335 524.013C519.276 540.674 522.733 558.58 522.493 576.628M238.09 982.918C318.519 1064.54 421.409 1120.38 533.67 1143.36C645.932 1166.33 762.489 1155.39 868.515 1111.93C974.541 1068.47 1065.24 994.446 1129.08 899.287C1192.91 804.128 1227 692.13 1227 577.542C1227 462.954 1192.91 350.956 1129.08 255.797C1065.24 160.637 974.541 86.6179 868.515 43.1557C762.489 -0.306473 645.932 -11.2469 533.67 11.7262C421.409 34.6993 318.519 90.5475 238.09 172.166C217.407 194.725 206.278 224.426 207.044 255.023C207.81 285.619 220.411 314.726 242.197 336.222C263.983 357.719 293.256 369.929 323.859 370.286C354.463 370.643 384.013 359.118 406.294 338.135C437.571 306.081 474.857 280.505 516.023 262.868C557.189 245.23 601.426 235.877 646.208 235.344C711.626 238.087 775.757 254.414 834.524 283.286C880.098 305.821 921.901 335.289 958.442 370.638L959.661 372.061C964.359 377.912 967.344 384.951 968.285 392.396C969.227 399.841 968.089 407.401 964.996 414.238C961.903 421.075 956.978 426.923 950.765 431.132C944.552 435.34 937.295 437.746 929.799 438.083H803.036C732.545 438.083 724.419 446.412 701.463 485.822C685.417 513.616 676.969 545.144 676.969 577.237C676.969 609.331 685.417 640.859 701.463 668.652C723.809 708.063 731.935 716.595 803.036 716.595H929.799C937.278 716.966 944.509 719.398 950.693 723.621C956.877 727.844 961.774 733.694 964.843 740.525C967.912 747.355 969.033 754.902 968.082 762.33C967.132 769.758 964.147 776.778 959.458 782.617V783.836C922.88 819.14 881.084 848.603 835.539 871.188C776.623 900.184 712.238 916.384 646.614 918.724C601.655 918.114 557.263 908.589 516.011 890.7C474.758 872.812 437.466 846.915 406.294 814.511C384.024 792.823 354.109 780.779 323.024 780.985C291.939 781.191 262.187 793.631 240.206 815.611C218.225 837.592 205.786 867.345 205.58 898.429C205.374 929.514 217.418 959.429 239.105 981.699" fill="#E30613"/>
</svg>
