<svg width="241" height="74" viewBox="0 0 241 74" fill="none" xmlns="http://www.w3.org/2000/svg">
<path d="M90.4677 19.8366H105.936C106.139 19.8366 106.344 19.632 106.344 19.4285V16.7438C106.344 16.5402 106.139 16.3359 105.936 16.3359H87.025C86.8215 16.3359 86.6172 16.5402 86.6172 16.7438V36.3486C86.6172 36.5529 86.8207 36.7572 87.025 36.7572H90.0596C90.2634 36.7572 90.4677 36.5529 90.4677 36.3486V19.8366Z" fill="#222222"/>
<path d="M112.626 19.8366H128.497C128.701 19.8366 128.905 19.632 128.905 19.4285V16.7438C128.905 16.5402 128.701 16.3359 128.497 16.3359H109.243C109.038 16.3359 108.834 16.5402 108.834 16.7438V36.3486C108.834 36.5529 109.038 36.7572 109.243 36.7572H128.497C128.701 36.7572 128.905 36.5529 128.905 36.3486V33.6646C128.905 33.4603 128.701 33.256 128.497 33.256H112.626V28.2967H124.879C125.084 28.2967 125.288 28.0924 125.288 27.8881V25.2042C125.288 24.9999 125.084 24.7953 124.879 24.7953H112.626V19.8363V19.8366Z" fill="#222222"/>
<path d="M134.685 24.7956V16.7438C134.685 16.5402 134.481 16.3359 134.276 16.3359H131.3C131.097 16.3359 130.893 16.5402 130.893 16.7438V36.3486C130.893 36.5529 131.097 36.7572 131.3 36.7572H134.276C134.481 36.7572 134.685 36.5529 134.685 36.3486V28.2967H146.88V36.3486C146.88 36.5529 147.083 36.7572 147.288 36.7572H150.264C150.468 36.7572 150.672 36.5529 150.672 36.3486V16.7438C150.672 16.5402 150.468 16.3359 150.264 16.3359H147.288C147.083 16.3359 146.88 16.5402 146.88 16.7438V24.7956H134.685Z" fill="#222222"/>
<path d="M157.058 19.8366H172.928C173.133 19.8366 173.337 19.632 173.337 19.4285V16.7438C173.337 16.5402 173.133 16.3359 172.928 16.3359H153.674C153.47 16.3359 153.266 16.5402 153.266 16.7438V36.3486C153.266 36.5529 153.47 36.7572 153.674 36.7572H172.928C173.133 36.7572 173.337 36.5529 173.337 36.3486V33.6646C173.337 33.4603 173.133 33.256 172.928 33.256H157.058V28.2967H169.311C169.515 28.2967 169.72 28.0924 169.72 27.8881V25.2042C169.72 24.9999 169.515 24.7953 169.311 24.7953H157.058V19.8363V19.8366Z" fill="#222222"/>
<path d="M201.332 31.1852V16.7438C201.332 16.5402 201.128 16.3359 200.923 16.3359H197.948C197.743 16.3359 197.539 16.5402 197.539 16.7438V36.3486C197.539 36.5529 197.743 36.7572 197.948 36.7572H200.427C200.777 36.7572 200.982 36.6404 201.215 36.3778L213.526 21.9079V36.3486C213.526 36.5529 213.73 36.7572 213.935 36.7572H216.911C217.115 36.7572 217.319 36.5529 217.319 36.3486V16.7438C217.319 16.5402 217.115 16.3359 216.911 16.3359H214.43C214.081 16.3359 213.876 16.452 213.643 16.7153L201.331 31.1852H201.332Z" fill="#222222"/>
<path d="M188.459 24.8544C190.938 24.8544 191.756 23.3957 191.756 22.1999C191.756 20.8281 190.676 19.8366 189.013 19.8366H182.273C181.661 19.8366 180.669 19.8946 180.028 20.4202C179.852 20.5658 179.298 21.0326 179.298 21.9081V22.1412C179.298 22.3455 179.094 22.5498 178.89 22.5498H175.914C175.71 22.5498 175.506 22.3455 175.506 22.1412V21.7618C175.506 19.5448 176.614 18.2904 177.139 17.8238C178.598 16.511 180.64 16.3359 181.923 16.3359H189.801C194.001 16.3359 195.723 19.3402 195.694 21.7913C195.666 23.561 194.825 25.4396 192.835 26.488C194.825 27.5363 195.67 29.5316 195.694 31.3015C195.726 33.7524 194.001 36.7574 189.801 36.7574H181.923C180.64 36.7574 178.598 36.5824 177.139 35.2695C176.614 34.8027 175.506 33.5481 175.506 31.3308V30.9514C175.506 30.7471 175.71 30.5433 175.914 30.5433H178.89C179.094 30.5433 179.298 30.7471 179.298 30.9514V31.1852C179.298 32.0602 179.853 32.5268 180.028 32.6731C180.669 33.198 181.661 33.2563 182.273 33.2563H189.013C190.676 33.2563 191.756 32.2645 191.756 30.8934C191.756 29.6974 190.938 28.2382 188.459 28.2382H180.757C180.553 28.2382 180.348 28.0337 180.348 27.8301V26.4878V25.2622C180.348 25.0587 180.553 24.8544 180.757 24.8544H188.459Z" fill="#222222"/>
<path d="M87.025 41.0645C86.8215 41.0645 86.6172 41.2688 86.6172 41.4731V61.0778C86.6172 61.2814 86.8215 61.4857 87.025 61.4857H90.0011C90.2054 61.4857 90.4097 61.2814 90.4097 61.0778V44.5656H102.604V61.0778C102.604 61.2814 102.808 61.4857 103.012 61.4857H105.988C106.192 61.4857 106.397 61.2814 106.397 61.0778V41.4731C106.397 41.2688 106.192 41.0645 105.988 41.0645C99.8582 41.0645 93.1557 41.0645 87.025 41.0645Z" fill="#222222"/>
<path d="M109.243 41.064C109.038 41.064 108.834 41.2683 108.834 41.4726V61.0774C108.834 61.2809 109.038 61.4852 109.243 61.4852H112.218C112.423 61.4852 112.626 61.2809 112.626 61.0774V53.4922H122.195C123.479 53.4922 125.521 53.3166 126.98 52.0043C127.505 51.5369 128.614 50.2829 128.614 48.0655C128.614 47.2873 128.614 47.2683 128.614 46.4901C128.614 44.2731 127.505 43.0182 126.98 42.5514C125.521 41.2385 123.479 41.0635 122.195 41.0635H118.476H109.243L109.243 41.064ZM112.626 49.9913V44.5654H118.476H121.846C122.458 44.5654 123.45 44.6234 124.092 45.1491C124.267 45.2946 124.821 45.7615 124.821 46.6364C124.821 47.293 124.821 47.2642 124.821 47.92C124.821 48.7955 124.267 49.2624 124.092 49.4079C123.451 49.9333 122.458 49.9915 121.846 49.9915H112.627L112.626 49.9913Z" fill="#222222"/>
<path d="M140.534 61.4859H137.311C136.027 61.4859 133.985 61.3109 132.526 59.9981C132.001 59.532 130.893 58.2771 130.893 56.0601C130.893 52.8702 130.893 49.6812 130.893 46.4911C130.893 44.274 132.001 43.0192 132.526 42.5523C133.985 41.2395 136.026 41.0645 137.311 41.0645H140.534H144.254C145.537 41.0645 147.579 41.2395 149.038 42.5523C149.563 43.0192 150.672 44.2738 150.672 46.4911C150.672 49.6812 150.672 52.8702 150.672 56.0601C150.672 58.2771 149.563 59.5322 149.038 59.9981C147.579 61.3109 145.537 61.4859 144.254 61.4859H140.534ZM140.534 44.5659H137.66C137.048 44.5659 136.056 44.6239 135.414 45.1495C135.239 45.2951 134.685 45.7619 134.685 46.6369C134.685 49.7294 134.685 52.822 134.685 55.9148C134.685 56.7895 135.239 57.2564 135.414 57.4019C136.056 57.9273 137.048 57.9856 137.66 57.9856H140.534H143.904C144.516 57.9856 145.508 57.9276 146.15 57.4019C146.325 57.2564 146.879 56.7895 146.879 55.9148C146.879 52.822 146.879 49.7294 146.879 46.6369C146.879 45.7619 146.325 45.2953 146.15 45.1495C145.508 44.6241 144.516 44.5659 143.904 44.5659H140.534Z" fill="#222222"/>
<path d="M157.058 44.5656H172.928C173.133 44.5656 173.337 44.3613 173.337 44.157V41.4731C173.337 41.2688 173.133 41.0645 172.928 41.0645H153.674C153.47 41.0645 153.266 41.2688 153.266 41.4731V61.0778C153.266 61.2814 153.47 61.4857 153.674 61.4857H172.928C173.133 61.4857 173.337 61.2814 173.337 61.0778V58.3939C173.337 58.1893 173.133 57.985 172.928 57.985H157.058V53.0258H169.311C169.515 53.0258 169.72 52.8215 169.72 52.6172V49.9332C169.72 49.7289 169.515 49.5246 169.311 49.5246H157.058V44.5654V44.5656Z" fill="#222222"/>
<path d="M209.354 44.5656H216.911C217.115 44.5656 217.319 44.3613 217.319 44.157V41.4731C217.319 41.2688 217.114 41.0645 216.911 41.0645C209.978 41.0645 204.537 41.0645 197.948 41.0645C197.744 41.0645 197.539 41.2688 197.539 41.4731V44.157C197.539 44.3613 197.743 44.5656 197.948 44.5656H205.504V61.0778C205.504 61.2814 205.708 61.4857 205.912 61.4857H208.947C209.15 61.4857 209.355 61.2814 209.355 61.0778V44.5656H209.354Z" fill="#222222"/>
<path d="M179.298 49.5249V41.4731C179.298 41.2688 179.094 41.0645 178.89 41.0645H175.914C175.71 41.0645 175.506 41.2688 175.506 41.4731V61.0778C175.506 61.2822 175.71 61.4865 175.914 61.4865H178.89C179.094 61.4865 179.298 61.2822 179.298 61.0778V53.026H188.897C189.625 53.026 190.53 53.3759 191.055 53.9303C191.492 54.3971 191.756 55.1556 191.756 55.827V61.0778C191.756 61.2822 191.959 61.4865 192.164 61.4865H195.139C195.344 61.4865 195.548 61.2822 195.548 61.0778V55.5637C195.548 54.4259 195.197 53.3759 194.586 52.6174C192.701 50.2625 190.687 49.5249 188.05 49.5249H179.299H179.298Z" fill="#222222"/>
<path d="M188.896 49.5246C189.626 49.5246 190.53 49.1748 191.056 48.6204C191.493 48.1535 191.755 47.3951 191.755 46.7239V41.4731C191.755 41.2688 191.96 41.0645 192.165 41.0645H195.14C195.345 41.0645 195.549 41.2688 195.549 41.4731V46.987C195.549 48.1248 195.198 49.1748 194.586 49.9332C192.908 52.0299 191.127 52.8446 188.897 52.9978V49.5246H188.896Z" fill="#222222"/>
<path d="M223.826 21.7913C224.02 20.6366 225.042 19.8366 226.535 19.8366H233.274C233.887 19.8366 234.878 19.8946 235.52 20.4202C235.695 20.5658 236.25 21.0326 236.25 21.9081V22.1412C236.25 22.3455 236.454 22.5498 236.658 22.5498H239.634C239.838 22.5498 240.042 22.3455 240.042 22.1412V21.7618C240.042 19.5448 238.933 18.2904 238.408 17.8238C236.95 16.511 234.908 16.3359 233.624 16.3359H225.747C221.546 16.3359 219.825 19.3402 219.854 21.7913V31.3015C219.821 33.7516 221.546 36.7574 225.747 36.7574H233.624C234.908 36.7574 236.95 36.5824 238.408 35.269C238.933 34.8029 240.042 33.5481 240.042 31.331V30.9522C240.042 30.7474 239.838 30.5436 239.634 30.5436H236.658C236.454 30.5436 236.25 30.7474 236.25 30.9522V31.1852C236.25 32.0602 235.695 32.5276 235.52 32.6731C234.878 33.198 233.887 33.2563 233.274 33.2563H226.535C225.043 33.2563 224.02 32.457 223.826 31.3015V21.7913Z" fill="#222222"/>
<path fill-rule="evenodd" clip-rule="evenodd" d="M36.7559 0C40.3901 0 43.9004 0.530504 47.2161 1.51298V17.1142L26.295 17.1134V1.51221C29.6107 0.529734 33.1209 0 36.7559 0V0ZM49.1372 2.13998C51.8259 3.10218 54.3696 4.36748 56.7282 5.89663V17.1139H49.1372V2.13998ZM58.6485 7.23046C60.3763 8.51398 61.9886 9.94586 63.4654 11.5071L58.6485 15.8284V7.23046ZM64.7417 12.9305C70.2095 19.3463 73.5113 27.665 73.5113 36.7557C73.5113 48.852 67.6671 59.5838 58.6485 66.2811V56.3984V24.2507L47.2161 34.5082V56.3984V71.9986C43.9004 72.9811 40.3901 73.5116 36.7559 73.5116C33.1212 73.5116 29.6109 72.9819 26.295 71.9991V56.3982V47.4258L64.7415 12.9305H64.7417ZM56.7282 67.615C54.3698 69.1441 51.8261 70.4099 49.1372 71.3716V49.1495L56.7282 55.9601V67.615ZM24.3749 71.3721C21.6857 70.4099 19.1418 69.1441 16.7836 67.615V55.9601L24.3749 49.1487V71.3721ZM14.8631 66.2811C13.1348 64.9976 11.523 63.5652 10.0462 62.0045L14.8631 57.6832V66.2811ZM8.76961 60.5811C3.30134 54.1658 0 45.8471 0 36.7559C0 33.9335 0.319278 31.1855 0.921644 28.5456H14.8631V31.5302V55.1141L8.76961 60.5811ZM1.41442 26.6253C2.17745 23.9581 3.23538 21.4157 4.54919 19.0335H14.8633V26.6253H1.41468H1.41442ZM5.6854 17.1139C8.1136 13.2811 11.2307 9.92892 14.8631 7.23046V17.1132V17.1139H5.6854ZM16.7836 5.89663C19.1413 4.36748 21.6857 3.10243 24.3749 2.13998V17.1132H16.7836V5.89663ZM44.4753 28.5456H43.2688H26.2952V44.857L44.4753 28.5456Z" fill="#D6282A"/>
</svg>
