<svg width="1011" height="1068" viewBox="0 0 1011 1068" fill="none" xmlns="http://www.w3.org/2000/svg">
<path opacity="0.05" fill-rule="evenodd" clip-rule="evenodd" d="M433.504 -87C490.604 -87 545.757 -78.6648 597.853 -63.2284V181.895L269.143 181.883V-63.2405C321.239 -78.6769 376.392 -87 433.504 -87V-87ZM628.036 -53.377C670.281 -38.2592 710.247 -18.379 747.306 5.64663V181.891H628.036V-53.377ZM777.477 26.6035C804.624 46.77 829.956 69.2673 853.159 93.797L777.477 161.692V26.6035ZM873.213 116.161C959.122 216.966 1011 347.667 1011 490.498C1011 680.554 919.176 849.168 777.477 954.396V799.121V294.023L597.853 455.185V799.121V1044.23C545.757 1059.66 490.604 1068 433.504 1068C376.396 1068 321.243 1059.68 269.143 1044.24V799.117V658.145L873.209 116.161H873.213ZM747.306 975.353C710.251 999.379 670.285 1019.27 628.036 1034.38V685.227L747.306 792.234V975.353ZM238.976 1034.39C196.723 1019.27 156.753 999.379 119.702 975.353V792.234L238.976 685.215V1034.39ZM89.5268 954.396C62.3718 934.23 37.0477 911.725 13.8446 887.203L89.5268 819.308V954.396ZM-6.21312 864.839C-92.1298 764.042 -144 633.341 -144 490.502C-144 446.157 -138.984 402.981 -129.519 361.502H89.5268V408.396V778.943L-6.21312 864.839ZM-121.777 331.331C-109.788 289.426 -93.1662 249.48 -72.5237 212.05H89.5308V331.331H-121.773H-121.777ZM-54.6718 181.891C-16.5202 121.67 32.4546 69.0012 89.5268 26.6035V181.879V181.891H-54.6718ZM119.702 5.64663C156.745 -18.379 196.723 -38.2552 238.976 -53.377V181.879H119.702V5.64663ZM554.79 361.502H535.833H269.147V617.784L554.79 361.502Z" fill="#D6282A"/>
</svg>
