<svg width="1155" height="1155" viewBox="0 0 1155 1155" fill="none" xmlns="http://www.w3.org/2000/svg">
<path opacity="0.05" fill-rule="evenodd" clip-rule="evenodd" d="M577.504 0C634.604 0 689.757 8.33517 741.853 23.7716V268.895L413.143 268.883V23.7595C465.239 8.32307 520.392 0 577.504 0V0ZM772.036 33.623C814.281 48.7408 854.247 68.621 891.306 92.6466V268.891H772.036V33.623V33.623ZM921.477 113.604C948.624 133.77 973.956 156.267 997.159 180.797L921.477 248.692V113.604ZM1017.21 203.161C1103.12 303.966 1155 434.667 1155 577.498C1155 767.554 1063.18 936.168 921.477 1041.4V886.121V381.023L741.853 542.185V886.121V1131.23C689.757 1146.66 634.604 1155 577.504 1155C520.396 1155 465.243 1146.68 413.143 1131.24V886.117V745.145L1017.21 203.161H1017.21ZM891.306 1062.35C854.251 1086.38 814.285 1106.27 772.036 1121.38V772.227L891.306 879.234V1062.35ZM382.976 1121.39C340.723 1106.27 300.753 1086.38 263.702 1062.35V879.234L382.976 772.215V1121.39ZM233.527 1041.4C206.372 1021.23 181.048 998.725 157.845 974.203L233.527 906.308V1041.4ZM137.787 951.839C51.8702 851.042 0 720.341 0 577.502C0 533.157 5.01644 489.981 14.4807 448.502H233.527V495.396V865.942L137.787 951.839V951.839ZM22.2232 418.331C34.2118 376.426 50.8338 336.48 71.4763 299.05H233.531V418.331H22.2272H22.2232ZM89.3282 268.891C127.48 208.67 176.455 156.001 233.527 113.604V268.879V268.891H89.3282V268.891ZM263.702 92.6466C300.745 68.621 340.723 48.7448 382.976 33.623V268.879H263.702V92.6466V92.6466ZM698.79 448.502H679.833H413.147V704.784L698.79 448.502Z" fill="#D6282A"/>
</svg>
