<?xml version="1.0" standalone="no"?>
<!DOCTYPE svg PUBLIC "-//W3C//DTD SVG 20010904//EN"
 "http://www.w3.org/TR/2001/REC-SVG-20010904/DTD/svg10.dtd">
<svg version="1.0" xmlns="http://www.w3.org/2000/svg"
 width="884.000000pt" height="884.000000pt" viewBox="0 0 884.000000 884.000000"
 preserveAspectRatio="xMidYMid meet">
<metadata>
Created by potrace 1.14, written by Peter Selinger 2001-2017
</metadata>
<g transform="translate(0.000000,884.000000) scale(0.100000,-0.100000)"
fill="#000000" stroke="none">
<path d="M1236 8788 c2 -18 6 -58 9 -88 8 -70 29 -153 65 -255 34 -95 88 -232
103 -260 6 -11 12 -22 12 -25 1 -3 12 -27 26 -55 22 -46 173 -246 191 -253 5
-2 6 -8 2 -13 -3 -5 -1 -9 5 -9 11 0 121 -144 121 -159 0 -6 -2 -11 -5 -11
-23 0 -235 141 -243 161 -2 5 -10 9 -17 9 -7 0 -15 3 -17 8 -1 4 -34 31 -72
60 -37 30 -75 60 -85 67 -9 8 -47 39 -86 70 -83 67 -140 115 -249 209 -45 39
-89 77 -100 85 -37 31 -130 117 -173 159 -23 23 -45 42 -47 42 -12 0 6 -102
29 -175 42 -129 163 -359 227 -431 10 -11 18 -23 18 -27 0 -4 6 -15 14 -24 78
-97 106 -133 106 -137 0 -3 10 -15 23 -28 12 -13 49 -55 82 -93 63 -73 333
-345 426 -430 84 -76 190 -168 244 -211 20 -16 23 -22 10 -17 -38 13 -160 77
-163 85 -2 4 -8 8 -14 8 -14 0 -191 101 -200 114 -4 6 -8 7 -8 2 0 -4 -15 2
-32 16 -18 13 -50 32 -70 43 -21 11 -38 23 -38 27 0 5 -5 8 -10 8 -12 0 -183
112 -188 123 -2 4 -8 7 -13 7 -6 0 -34 18 -64 40 -30 22 -57 40 -60 40 -3 0
-11 5 -18 11 -7 5 -66 48 -132 95 -66 47 -128 92 -138 100 -9 7 -19 14 -22 14
-5 0 -37 25 -60 48 -8 6 -16 12 -20 12 -3 0 -11 5 -18 10 -33 30 -189 141
-192 138 -6 -6 46 -108 56 -108 5 0 9 -7 9 -16 0 -13 51 -95 97 -154 48 -63
262 -317 308 -366 6 -6 35 -39 65 -74 30 -34 71 -79 90 -100 19 -21 58 -64 87
-96 29 -33 77 -86 107 -119 31 -33 56 -63 56 -67 0 -3 -12 -2 -27 3 -499 163
-605 201 -633 229 -3 3 -28 17 -56 33 -61 32 -85 36 -61 10 24 -28 87 -124 87
-134 0 -5 4 -9 8 -9 4 0 15 -13 24 -28 20 -34 169 -180 258 -254 86 -71 196
-152 300 -222 47 -31 93 -62 102 -68 10 -7 48 -32 85 -56 62 -39 65 -42 33
-37 -55 10 -75 13 -80 15 -3 1 -8 2 -11 2 -4 -1 -73 10 -155 24 -82 14 -165
27 -184 29 -19 2 -46 7 -60 10 -14 3 -38 8 -55 10 -16 2 -48 6 -70 9 -102 15
-105 15 -105 1 0 -18 53 -61 114 -92 28 -14 53 -28 56 -32 5 -7 435 -221 443
-221 3 0 48 -20 100 -45 53 -25 101 -45 107 -45 5 0 10 -4 10 -9 0 -5 12 -11
28 -14 15 -3 36 -13 47 -21 19 -15 19 -15 -5 -11 -79 14 -452 20 -520 9 -43
-7 -82 -25 -87 -41 -10 -28 100 -95 267 -161 89 -36 380 -134 398 -135 28 -1
9 -15 -35 -27 -27 -8 -50 -14 -53 -15 -3 -1 -32 -9 -65 -19 -172 -50 -216
-104 -124 -151 74 -39 334 -91 544 -110 33 -3 73 -8 88 -11 28 -6 28 -6 -20
-31 -141 -75 -161 -148 -48 -179 71 -20 165 -31 276 -33 l47 -1 -26 -49 c-22
-40 -25 -54 -17 -78 13 -36 63 -60 135 -66 30 -3 56 -9 58 -15 7 -22 49 -58
82 -72 42 -17 43 -18 143 -33 43 -7 75 -16 71 -19 -3 -4 -8 -21 -9 -38 -2 -23
5 -38 29 -62 40 -40 139 -86 193 -90 12 -1 7 -22 -13 -51 -20 -30 1 -72 44
-91 52 -23 125 -37 215 -40 l51 -2 -3 -56 c-3 -62 12 -100 56 -144 29 -29 113
-71 153 -77 17 -3 31 -17 45 -43 34 -65 113 -105 228 -113 10 0 24 -15 32 -33
40 -92 136 -148 278 -163 16 -1 41 -14 55 -28 35 -32 92 -56 156 -63 29 -4 55
-13 59 -21 29 -50 127 -119 181 -127 6 -1 16 -4 21 -7 19 -10 79 -14 197 -14
l117 0 -25 -32 c-13 -17 -28 -42 -34 -55 -5 -13 -14 -30 -19 -38 -9 -13 -17
-35 -27 -65 -12 -35 -36 -123 -39 -140 -1 -11 -6 -38 -10 -60 -4 -22 -8 -46
-8 -53 0 -8 -24 -24 -53 -37 -30 -13 -60 -30 -69 -37 -31 -26 -107 -107 -131
-139 -13 -19 -165 -173 -337 -345 -693 -690 -1094 -1119 -1149 -1229 -49 -96
-73 -199 -73 -312 0 -62 3 -74 23 -91 19 -16 78 -142 67 -142 -2 0 10 -37 26
-82 17 -46 33 -112 35 -147 6 -71 35 -159 68 -206 11 -16 19 -30 17 -30 -3 0
4 -13 15 -30 30 -48 76 -84 112 -91 67 -13 102 23 255 261 31 50 64 99 72 110
8 11 48 72 89 135 41 63 80 122 86 130 17 26 192 293 218 335 14 22 28 42 31
45 3 3 12 17 20 32 8 15 22 37 33 47 10 11 18 23 18 26 0 3 22 39 50 80 27 41
50 77 50 80 0 3 9 15 20 27 11 12 20 28 20 35 0 7 4 13 8 13 4 0 23 26 42 58
19 31 39 62 43 67 5 6 51 75 103 155 52 80 150 228 217 330 67 102 126 194
132 205 6 11 19 24 30 30 31 16 139 89 146 98 3 5 8 7 10 6 4 -3 28 11 116 68
29 18 57 33 61 33 5 0 21 9 36 21 14 11 26 18 26 14 0 -3 12 2 28 13 27 20
191 99 247 120 17 7 56 18 89 27 55 14 60 14 86 -5 16 -11 33 -20 39 -20 6 0
11 -15 11 -34 0 -25 7 -40 25 -54 17 -14 27 -34 31 -64 10 -74 53 -150 96
-170 42 -20 53 -44 42 -91 -11 -47 -11 -46 -14 -54 -9 -27 -3 -61 14 -80 18
-21 78 -46 136 -57 97 -18 139 -29 207 -51 43 -14 97 -35 120 -45 24 -11 47
-20 51 -20 5 0 40 -16 78 -36 77 -41 190 -128 244 -188 19 -21 43 -46 53 -55
9 -8 17 -21 17 -28 0 -7 4 -13 8 -13 15 0 56 -95 57 -133 2 -50 -11 -65 -60
-68 -40 -3 -110 -30 -159 -62 -32 -21 -34 -59 -6 -90 l20 -21 -39 -36 c-104
-94 -108 -188 -11 -251 14 -9 28 -17 33 -17 4 -1 21 -9 37 -17 36 -19 37 -16
5 31 -29 43 -37 109 -18 154 3 8 7 17 7 20 3 17 35 49 62 63 34 17 84 71 84
90 1 39 116 105 150 87 23 -12 29 -32 46 -145 4 -22 14 -65 24 -95 21 -65 18
-90 -18 -150 -21 -36 -27 -59 -27 -110 -1 -36 -5 -75 -9 -86 -11 -36 -96 -58
-164 -43 -28 6 -31 5 -21 -8 20 -23 68 -45 103 -45 49 -1 97 26 166 93 62 60
64 64 66 115 1 29 5 57 8 63 4 6 13 31 20 56 13 41 12 48 -5 82 -42 82 -72
223 -47 223 15 0 68 -76 68 -100 1 -26 23 -57 91 -127 l66 -68 2 -69 c2 -79
19 -109 117 -210 49 -51 41 -109 -23 -165 -25 -23 -53 -41 -62 -41 -13 0 -14
-2 -2 -9 16 -11 75 -5 102 9 55 30 105 151 96 232 -7 59 -52 142 -106 198 -28
29 -43 55 -51 93 -13 53 -55 147 -89 195 -24 34 -36 72 -22 72 23 0 99 -88
125 -144 18 -40 52 -83 106 -136 105 -105 111 -116 112 -227 0 -35 3 -63 7
-63 13 0 60 87 65 124 4 21 2 55 -4 77 -10 38 -105 189 -119 189 -3 0 -12 12
-19 27 -6 16 -20 42 -30 58 -11 17 -18 33 -16 36 2 4 -3 12 -11 19 -8 7 -15
17 -15 23 0 18 -73 77 -135 109 -98 50 -165 101 -245 184 -149 156 -181 184
-277 247 -127 82 -229 140 -378 212 -190 93 -297 170 -338 243 -29 51 -13 116
67 272 59 115 135 243 148 248 4 2 8 8 8 14 0 6 21 43 47 82 26 39 48 72 49
74 1 2 24 9 50 17 27 7 139 41 249 75 110 34 207 63 215 65 8 2 87 25 175 50
221 63 278 71 310 45 22 -18 18 -48 -14 -113 -40 -80 -35 -128 26 -256 20 -45
37 -97 39 -126 4 -48 8 -61 36 -121 24 -51 97 -63 174 -29 64 28 78 46 25 32
-111 -30 -183 79 -138 208 17 47 13 107 -10 141 -8 13 -12 24 -9 24 4 0 0 10
-7 23 -17 27 -15 43 13 137 24 81 38 83 75 10 10 -19 39 -69 65 -110 27 -41
58 -100 71 -130 12 -30 42 -85 65 -121 25 -37 42 -74 39 -85 -9 -45 -35 -104
-74 -167 -22 -37 -41 -70 -41 -73 0 -8 64 38 73 53 4 6 13 18 20 25 23 23 56
87 68 130 35 125 27 205 -36 328 -14 28 -21 51 -15 55 16 10 89 -76 119 -140
16 -33 39 -82 52 -110 13 -27 22 -59 20 -69 -1 -11 -20 -53 -42 -94 -21 -41
-39 -79 -39 -84 0 -5 20 7 45 27 28 24 55 58 72 96 16 32 31 58 34 58 10 1 22
-51 19 -84 -3 -40 -41 -113 -79 -152 -17 -18 -31 -35 -31 -37 0 -3 19 -3 41
-1 114 12 164 105 125 235 -11 39 -11 48 2 68 29 45 5 98 -135 302 -28 41
-145 154 -193 187 -90 61 -229 127 -289 138 -65 11 -195 2 -291 -20 -3 -1 -21
-4 -40 -9 -83 -17 -247 -58 -265 -66 -63 -28 -293 -83 -312 -75 -33 12 -15 33
161 185 62 54 264 258 331 334 81 93 214 268 215 284 0 6 4 12 8 12 5 0 14 10
20 23 7 12 21 38 33 57 25 42 73 133 74 140 0 3 8 21 17 40 21 44 78 210 73
210 -3 0 0 11 5 26 10 24 13 44 30 169 15 120 4 256 -44 505 -32 165 -49 324
-37 336 2 2 5 21 7 41 1 21 5 49 8 63 3 14 8 39 12 55 17 88 57 166 123 238
154 169 165 175 326 201 101 15 343 11 448 -9 35 -7 35 9 -1 26 -15 8 -114 68
-220 134 -169 106 -193 124 -209 160 -47 105 -153 220 -282 307 -129 88 -252
141 -504 218 -28 9 -215 6 -252 -3 -11 -3 -33 -8 -50 -13 -58 -14 -171 -73
-241 -126 -85 -63 -164 -135 -164 -148 0 -6 -4 -10 -9 -10 -11 0 -121 -145
-121 -160 0 -5 -3 -10 -7 -10 -5 0 -21 -23 -36 -50 -24 -43 -55 -66 -58 -42
-4 30 -9 65 -16 112 -14 95 -7 378 11 490 3 14 7 48 11 75 6 51 11 85 20 140
3 17 7 48 10 70 3 22 10 63 15 90 5 28 12 66 14 85 3 19 10 60 16 90 6 30 13
69 15 85 2 17 6 39 8 50 3 11 10 50 17 86 11 62 16 71 75 132 114 116 228 321
344 617 12 30 35 106 52 169 17 64 33 119 35 123 7 11 -17 22 -25 11 -3 -5
-28 -24 -56 -43 -117 -77 -265 -280 -404 -552 -64 -124 -208 -462 -215 -503
-1 -5 -4 -14 -7 -20 -3 -5 -30 -84 -59 -175 -29 -91 -57 -174 -61 -185 -5 -11
-11 -31 -14 -45 -2 -14 -18 -74 -34 -135 -16 -60 -32 -121 -35 -135 -9 -44
-35 -132 -40 -137 -28 -28 -37 121 -22 367 12 217 26 301 62 376 30 63 55 145
48 156 -3 4 -1 8 4 8 5 0 9 6 9 13 0 6 5 37 11 67 7 30 14 69 17 85 3 17 7 39
9 50 4 21 25 156 31 202 2 16 4 30 5 33 1 3 3 10 4 15 6 41 45 107 100 170 14
17 26 33 26 38 0 15 -125 -70 -176 -120 -58 -58 -136 -202 -168 -308 -10 -33
-22 -69 -27 -80 -5 -11 -10 -29 -12 -40 -2 -11 -9 -38 -15 -60 -6 -22 -13 -52
-16 -68 -3 -15 -7 -35 -10 -45 -3 -9 -7 -33 -10 -52 -5 -28 -30 -165 -35 -185
0 -3 -1 -6 -1 -7 -1 -2 -3 -24 -5 -49 -2 -25 -7 -61 -10 -80 -10 -56 -13 -81
-20 -140 -3 -31 -8 -66 -10 -78 -3 -11 -7 -31 -10 -43 -13 -58 -32 -31 -41 57
-7 70 -16 132 -24 167 -9 41 -7 102 5 168 10 51 12 59 15 63 1 1 3 9 5 17 2 8
15 58 29 110 29 105 39 180 39 285 1 118 -18 265 -33 265 -4 0 -34 -44 -66
-97 -53 -89 -86 -165 -99 -233 -3 -14 -7 -36 -10 -50 -6 -30 -15 -111 -20
-183 -5 -64 -5 -344 -1 -412 2 -27 7 -86 12 -130 4 -44 8 -123 8 -175 1 -77
-2 -95 -14 -95 -31 0 -134 240 -146 340 -6 50 -9 190 -4 190 1 0 3 15 6 34 2
18 11 63 20 100 9 36 19 80 22 96 8 40 7 260 -2 310 -4 22 -7 48 -7 59 0 30
-53 -26 -83 -88 -24 -49 -61 -163 -70 -216 -2 -14 -7 -41 -10 -60 -3 -19 -8
-47 -10 -63 -3 -15 -12 -34 -20 -43 -32 -31 -79 -107 -127 -204 -27 -54 -49
-101 -49 -104 0 -2 -13 -33 -29 -68 -16 -35 -37 -87 -47 -115 -10 -29 -22 -53
-26 -53 -5 0 -8 -7 -8 -15 0 -8 -11 -35 -25 -60 -14 -25 -35 -64 -48 -87 -13
-24 -36 -79 -51 -123 -15 -44 -35 -86 -44 -92 -40 -32 -131 -5 -283 82 -82 47
-269 164 -279 175 -9 10 -45 31 -62 36 -10 4 -18 10 -18 14 0 4 -8 10 -17 14
-10 3 -45 23 -78 45 -65 43 -119 73 -235 133 -136 69 -223 94 -232 67 -4 -11
-40 3 -58 21 -7 7 -43 29 -60 37 -8 4 -17 9 -20 13 -3 4 -43 33 -89 65 -46 32
-91 64 -100 71 -9 7 -72 57 -141 111 -117 92 -156 123 -184 148 -6 6 -38 33
-71 62 -156 132 -421 397 -530 528 -22 27 -47 56 -55 64 -8 9 -26 32 -40 51
-13 19 -35 46 -47 60 -13 14 -23 28 -23 32 0 3 -6 13 -12 20 -7 7 -40 47 -73
88 -81 101 -142 160 -167 160 -18 0 -19 -4 -13 -37 4 -21 9 -47 10 -58 2 -11
28 -88 59 -171 31 -83 56 -154 56 -157 0 -3 26 -61 58 -129 77 -162 85 -183
77 -206 -13 -43 -121 2 -245 103 -89 73 -284 275 -360 375 -19 25 -43 52 -52
61 -10 9 -18 20 -18 23 0 4 -7 14 -15 22 -8 9 -36 46 -62 82 -26 37 -51 69
-55 70 -5 2 -8 10 -8 18 0 8 -4 14 -10 14 -5 0 -10 4 -10 9 0 5 -8 26 -17 47
-9 22 -17 43 -17 48 -1 5 -6 11 -12 13 -7 2 -10 -8 -8 -29z m5572 -170 c-1
-18 -13 -54 -25 -80 -13 -27 -23 -50 -23 -53 0 -11 -104 -220 -113 -226 -5 -3
-8 -9 -8 -13 3 -13 -78 -161 -131 -238 -52 -78 -124 -152 -138 -143 -7 4 -9
23 -6 49 5 52 44 186 58 204 6 6 7 12 3 12 -4 0 -2 7 5 15 7 8 9 15 5 15 -4 0
0 11 9 25 9 13 16 31 16 39 0 8 4 16 8 18 5 2 15 15 23 30 39 75 112 188 122
188 6 0 8 3 4 6 -5 6 7 23 52 73 13 14 28 33 35 41 17 24 80 70 94 70 9 0 12
-11 10 -32z m-777 -535 c1 -16 1 -31 0 -35 0 -4 -3 -40 -6 -80 -6 -77 -32
-185 -46 -194 -5 -3 -9 -14 -9 -25 0 -10 -4 -19 -10 -19 -5 0 -10 -8 -10 -17
0 -10 -10 -29 -21 -43 l-20 -25 4 60 c5 59 48 264 67 318 27 74 33 87 41 87 5
0 10 -12 10 -27z m-335 -57 c8 -21 8 -215 0 -256 -6 -33 -17 -68 -36 -115 -4
-11 -18 -46 -30 -77 -25 -65 -45 -80 -53 -40 -7 32 -1 274 8 317 10 54 27 98
54 142 26 44 47 54 57 29z m-330 -280 c-10 -196 -17 -224 -45 -207 -28 18 -19
129 22 261 8 25 12 51 9 59 -3 9 0 11 8 6 10 -6 11 -35 6 -119z m-159 -501 c2
-113 11 -338 13 -350 1 -5 1 -14 0 -20 -1 -5 -1 -26 0 -46 1 -21 -4 -40 -10
-44 -6 -3 -10 -3 -9 2 1 4 0 15 -3 23 -8 19 -38 149 -44 185 -1 6 -3 12 -4 15
-14 36 -17 211 -4 250 7 19 15 43 18 53 4 11 13 17 23 15 15 -3 18 -16 20 -83z
m2110 -609 c68 -8 169 -29 179 -37 6 -5 13 -7 16 -4 8 8 119 -30 192 -65 60
-29 166 -114 155 -124 -3 -3 -36 -12 -74 -20 -89 -20 -103 -24 -113 -30 -4 -2
-35 -8 -67 -11 -33 -4 -64 -10 -70 -13 -11 -6 24 39 39 49 4 4 11 28 13 53 8
70 -21 119 -84 145 -83 34 -187 -42 -178 -129 1 -14 3 -32 4 -41 0 -9 12 -27
26 -40 13 -13 25 -27 25 -31 0 -7 -84 -3 -127 6 -168 37 -278 29 -361 -27 -38
-26 -112 -119 -112 -142 0 -8 -4 -15 -10 -15 -5 0 -10 -5 -10 -11 0 -16 -60
-100 -94 -131 -22 -21 -33 -25 -43 -17 -18 16 -9 46 53 169 29 58 57 125 64
150 18 72 30 90 116 177 123 123 191 152 334 147 52 -2 109 -5 127 -8z m207
-159 c23 -36 -36 -74 -61 -41 -12 16 -7 44 10 55 15 11 40 4 51 -14z m-553
-2755 c-32 -63 -145 -200 -289 -351 -35 -36 -87 -92 -115 -125 -29 -32 -61
-68 -72 -80 -11 -13 -38 -45 -60 -71 -22 -27 -49 -59 -60 -71 -11 -12 -33 -39
-50 -60 -16 -21 -42 -52 -56 -69 -14 -16 -34 -46 -45 -65 -10 -19 -22 -37 -25
-40 -8 -6 -88 -140 -120 -200 -13 -25 -27 -47 -30 -50 -11 -9 -99 -186 -104
-208 -6 -35 -38 -82 -55 -82 -9 0 -21 15 -28 33 -7 19 -19 34 -27 35 -8 1 -27
2 -42 3 -43 2 -60 15 -70 57 -11 42 -5 197 7 197 1 0 3 10 6 23 2 12 21 55 41
95 48 92 50 97 25 67 -12 -14 -26 -31 -32 -37 -6 -7 -7 -13 -3 -13 4 0 3 -4
-2 -8 -6 -4 -28 -33 -48 -64 -21 -31 -42 -60 -47 -63 -16 -10 -12 41 7 87 19
49 102 189 117 200 7 5 5 8 -5 8 -14 0 -99 -81 -99 -94 0 -4 -8 -19 -19 -34
-36 -54 -55 -87 -53 -94 1 -5 -3 -8 -9 -8 -13 0 -4 70 20 150 18 58 13 57 -34
-10 -25 -35 -45 -70 -45 -77 0 -7 -9 -17 -20 -23 -11 -6 -20 -9 -20 -6 0 13
-243 -75 -260 -94 -3 -3 -32 -19 -65 -36 -96 -50 -130 -69 -135 -74 -3 -3 -14
-10 -25 -16 -51 -28 -70 -39 -75 -45 -3 -3 -35 -22 -71 -42 -61 -34 -99 -46
-99 -31 0 4 19 43 43 87 52 99 139 189 257 265 87 57 173 99 220 108 8 2 16 8
18 13 2 6 12 11 23 11 10 0 19 5 19 10 0 6 6 10 14 10 8 0 16 3 18 8 2 4 22
20 45 36 23 15 73 60 111 100 90 94 120 116 224 159 49 20 94 41 100 47 59 49
77 64 108 83 19 12 44 29 54 39 11 10 24 18 29 18 4 0 23 11 41 25 18 14 36
25 41 25 4 0 15 8 24 18 65 70 208 152 328 187 50 15 77 31 140 87 43 39 85
73 93 78 8 4 47 6 85 5 39 -2 88 0 110 4 60 11 68 5 46 -37z"/>
</g>
</svg>
