<svg width="1139" height="1246" viewBox="0 0 1139 1246" fill="none" xmlns="http://www.w3.org/2000/svg">
<path d="M705.698 298.507C707.074 294.38 710.514 293.004 714.641 295.755C730.464 306.072 729.088 337.023 722.896 355.594C716.017 375.54 698.818 409.243 674.051 420.935C672.676 421.623 669.924 422.311 667.86 421.623C664.615 420.001 666.048 416.252 667.143 413.387C667.441 412.608 667.714 411.894 667.86 411.306C683.683 361.097 705.01 299.882 705.698 298.507Z" fill="#0181C8"/>
<path d="M650.619 461.311C651.816 458.217 653.196 454.65 654.789 450.511C656.853 445.008 659.605 444.321 664.42 445.696C670.612 448.447 675.428 453.262 674.74 462.891C673.364 481.462 659.605 491.779 647.91 491.779C644.469 492.467 641.718 489.716 642.405 486.276C642.987 481.042 644.061 478.266 650.619 461.311Z" fill="#0181C8"/>
<path d="M352.776 398.238C362.407 367.974 388.55 301.946 412.629 301.946C425.011 301.946 425.699 312.263 425.699 327.394C425.699 403.052 369.287 486.276 350.025 486.276C335.577 486.276 336.953 446.384 352.776 398.238Z" fill="#0181C8"/>
<path fill-rule="evenodd" clip-rule="evenodd" d="M898.363 346.653C900.798 342.054 922.275 308.86 952.337 308.172C982.399 307.485 1041.84 318.48 1055.5 343.217C1055.5 343.217 1044.57 343.904 1032.96 348.027C1027.49 350.088 1017.93 351.463 1007.68 352.15C1013.14 348.714 1017.24 342.53 1017.24 335.658C1017.24 325.351 1008.36 316.418 998.114 316.418C987.865 316.418 978.983 325.351 978.983 335.658C978.983 343.217 983.082 349.401 989.231 352.837C981.716 352.837 974.2 352.15 968.051 350.776L967.147 350.594C947.3 346.594 914.656 341.59 904.506 370.85C902.704 376.045 898.326 387.233 898.326 387.233L859.8 489.716C857.736 495.218 853.608 503.472 847.417 503.472C837.097 503.472 828.154 498.657 830.906 486.276C833.658 473.208 852.233 421.623 863.24 393.423C862.162 385.879 861.178 378.24 860.189 370.569C857.874 352.596 855.535 334.445 851.912 316.902C847.693 322.155 844.261 326.974 841.655 330.848C834.416 342.099 831.139 348.888 829.153 348.529C827.014 348.143 826.371 339.473 823.891 319.167C823.183 313.263 823.179 305.219 823.686 295.797C819.91 296.266 817.064 296.728 816.459 297.131C814.62 298.356 813.327 301.218 810.637 307.174C810.307 307.906 809.955 308.684 809.579 309.511L808.016 312.99C798.87 333.341 783.967 366.499 769.678 411.306C766.238 420.935 768.99 423.686 778.621 423.686C782.749 422.999 784.813 422.999 789.628 422.999C795.82 422.999 798.572 425.75 798.572 428.501C798.572 431.252 795.82 434.004 789.628 434.691C789.349 434.691 788.588 434.72 787.53 434.759C783.373 434.914 774.623 435.24 772.429 434.691C765.55 434.691 762.11 438.13 760.047 444.321C756.606 454.637 755.919 457.389 755.231 468.393C755.231 470.02 755.471 471.886 755.668 473.567C755.804 474.73 755.919 475.804 755.919 476.647C757.294 482.837 758.67 487.652 764.862 489.028C765.557 489.259 766.35 489.491 767.188 489.736C771.325 490.945 776.557 492.474 776.557 495.906C776.376 496.087 776.146 496.46 775.869 496.911C775.095 498.168 773.948 500.032 772.429 500.032C760.734 500.032 751.103 499.345 742.16 493.842C727.024 484.213 728.401 451.198 733.216 435.379C749.039 378.292 759.358 348.028 786.877 294.38C789.628 288.877 794.444 285.438 800.636 284.751C808.445 284.007 816.457 283.665 824.56 283.508C829.344 227.841 846.438 141.884 846.438 141.884C875.133 123.331 907.245 43.6223 911.344 21.6337C913.576 10.0357 917.023 3.53023 915.95 2.6724C915.054 1.95455 910.994 5.18867 900.412 12.7009C877.182 29.1929 847.804 84.1639 835.506 112.337C823.208 140.51 799.978 201.666 786.314 262.134C772.649 322.603 776.749 187.923 786.314 173.492C794.894 161.411 801.08 120.428 804.871 95.3096C805.608 90.4273 806.254 86.1444 806.81 82.7896C808.482 72.3666 818.661 61.2851 823.897 55.5837C829.362 49.6333 829.446 49.543 808.86 62.1754C772.465 85.5258 760.852 172.634 754.436 220.759C753.866 225.033 753.337 229 752.836 232.587C748.076 267.157 745.364 243.273 743.431 226.251C742.866 221.281 742.368 216.896 741.904 214.721C739.854 204.414 739.172 196.855 746.687 171.431C754.202 146.007 756.935 128.141 753.519 101.343C752.039 89.7267 751.585 84.437 750.21 84.186C748.413 83.8577 745.045 92.1375 735.756 106.152C720.041 130.89 718.675 195.481 724.824 251.14C730.973 306.799 715.259 269.006 707.06 249.078C698.861 229.838 700.228 200.291 707.06 178.99C713.892 157.688 707.06 117.834 707.06 117.834C687.929 128.141 682.464 183.8 682.464 183.8C668.98 193.292 649.509 242.26 642.432 260.06L642.154 260.76C639.535 267.344 636.816 272.212 633.997 277.259C632.615 279.733 631.209 282.25 629.78 285.032C642.013 291.254 645.158 306.917 645.158 330.833C645.158 395.486 594.937 501.408 552.283 501.408C529.581 501.408 515.134 463.579 524.765 424.374C526.661 416.08 531.661 396.602 539.566 374.631C527.54 397.95 506.621 418.146 483.488 426.438C482.112 427.813 479.36 427.813 477.984 429.189C475.232 430.565 473.169 434.004 476.608 436.755C482.112 440.881 488.303 448.447 492.431 474.584C493.119 479.398 496.559 483.525 500.687 486.276C504.815 488.34 510.318 491.091 508.942 495.218C506.879 501.408 499.999 502.096 494.495 500.032C476.599 492.665 473.2 481.674 468.586 466.752C467.17 462.171 465.638 457.218 463.537 451.886C459.409 442.945 454.593 436.067 442.898 436.067C440.147 436.067 438.083 440.881 437.395 444.321C432.579 459.452 430.515 465.642 425.699 480.086C425.464 480.794 425.234 481.496 425.007 482.189C421.932 491.589 419.393 499.345 408.501 499.345C396.117 499.345 396.117 480.086 400.245 468.393C412.629 433.316 456.657 293.692 456.657 293.692C460.785 284.063 466.977 281.311 476.608 281.999C516.51 281.999 550.22 285.438 550.22 332.897C550.349 339.993 549.365 347.259 547.439 354.467C555.141 336.318 564.665 318.236 575.911 304.675C564.745 298.215 552.273 290.065 539.465 281.694C523.247 271.095 506.49 260.143 491.161 251.827C439.236 223.654 446.068 238.084 446.068 238.084C441.817 235.752 434.458 231.148 424.864 224.605C345.784 291.52 257.15 409.907 257.15 420.247C257.15 420.247 257.838 427.125 257.838 435.379C257.838 476.647 253.711 533.047 217.937 533.047C212.158 533.047 208.531 530.627 206.282 526.917C192.68 545.693 261.598 545.237 261.598 545.237C237.001 575.471 282.094 572.723 282.094 572.723C284.144 589.901 325.138 590.588 325.138 590.588C310.79 609.828 356.566 620.135 356.566 620.135C331.97 645.56 396.876 644.873 396.876 644.873C385.945 678.543 430.354 685.414 430.354 685.414C431.72 706.028 466.565 706.028 466.565 706.028C474.764 735.575 511.658 733.514 511.658 733.514C514.321 739.169 520.958 742.503 527.627 744.466C528.352 741.927 527.127 740.054 522.702 738.012C508.254 731.822 492.431 709.812 503.438 692.617C505.502 689.178 509.63 689.178 511.694 691.241C519.261 698.463 519.261 705.341 519.261 711.617C519.261 717.894 519.261 723.568 526.829 728.382C534.397 733.197 535.773 732.509 541.276 726.319C553.66 711.875 680.243 556.432 688.499 545.428C665.261 548.184 643.827 544.853 622.259 541.502C606.156 539 589.98 536.486 572.922 536.486C521.325 536.486 496.559 557.12 496.559 583.256C496.559 603.891 508.942 610.768 522.702 610.768C534.397 610.768 542.652 600.452 546.78 586.696C548.156 581.881 552.283 581.881 556.411 583.944C568.794 590.135 571.546 593.573 565.355 607.33C559.851 619.022 541.276 631.403 528.893 631.403C503.438 631.403 485.551 616.271 485.551 587.383C485.551 553.681 515.134 524.105 572.234 524.105C593.456 524.105 611.755 526.192 629.201 528.182C643.427 529.805 657.086 531.363 671.3 531.671C687.244 532.102 700.22 526.596 710.057 522.421C715.924 519.931 720.674 517.915 724.273 517.915C735.28 517.915 751.103 529.608 753.855 538.549C756.606 550.93 754.542 561.247 750.415 572.252C750.415 572.252 740.569 593.524 727.746 622.493C731.719 615.71 737.023 613.595 745.599 614.208C784.125 614.208 816.459 617.647 816.459 663.729C817.835 698.119 788.252 739.387 752.478 752.456C751.734 753.2 750.788 753.542 749.748 753.917C748.869 754.234 747.922 754.576 746.975 755.207C744.224 756.582 742.16 760.022 745.599 762.773C751.103 766.899 757.294 774.465 760.734 799.226C760.903 800.41 761.197 801.511 761.606 802.54C766.884 800.68 772.012 798.656 777.432 793.983C784.315 787.72 792.141 782.722 800.005 777.699C802.974 775.803 805.95 773.902 808.882 771.93C826.9 721.509 851.545 652.037 851.545 652.037C861.607 628.143 856.146 627.817 849.354 627.411C848.716 627.373 848.066 627.335 847.417 627.276C844.321 626.932 841.225 626.76 838.129 626.588C835.033 626.416 831.938 626.244 828.842 625.9C827.466 625.9 825.402 625.212 825.402 623.837C824.714 622.461 824.714 621.086 826.09 619.71C826.778 619.022 828.154 618.334 829.53 618.334L895.573 615.583C900.389 614.895 905.205 614.895 910.021 614.895C911.654 614.895 912.856 615.326 914.309 615.846C914.693 615.984 915.093 616.127 915.524 616.271C915.524 617.647 916.212 619.022 916.212 621.086C916.212 622.461 914.837 623.837 913.46 624.524C911.396 625.212 909.333 625.212 907.269 625.212C902.453 625.212 899.014 625.212 894.198 625.9C889.382 626.588 885.942 628.651 883.878 633.466L883.87 633.485C881.121 639.669 878.373 645.853 876.311 652.037C875.303 654.915 873.903 658.577 872.024 663.495C866.614 677.653 857.227 702.218 841.756 748.469C851.102 743.989 860.6 741.202 866.869 739.362C868.181 738.977 869.352 738.633 870.351 738.324C874.1 736.267 878.53 731.987 882.876 727.787C887.241 723.568 891.523 719.431 894.947 717.71C898.309 716.019 903.326 716.325 908.858 716.663C914.566 717.011 920.823 717.393 926.375 715.648C936.623 712.213 929.108 723.894 921.592 733.514C914.077 743.134 893.58 766.497 881.282 778.865C873.036 787.159 861.104 801.321 849.812 814.725C844.263 821.312 838.867 827.716 834.14 833.15C819.792 849.641 786.997 910.11 786.997 910.11C782.898 928.663 774.699 934.847 773.333 925.914C772.347 919.475 769.588 919.463 765.309 919.443C763.652 919.435 761.766 919.426 759.668 919.043C752.152 917.668 750.786 907.361 752.836 889.495C754.886 871.63 768.55 853.077 768.55 853.077C764.382 855.871 762.411 858.982 759.021 864.334C757.409 866.878 755.477 869.928 752.836 873.691C745.321 885.373 743.271 887.434 743.954 878.501C744.637 869.568 764.451 840.021 764.451 840.021C756.935 844.144 749.42 851.015 739.854 869.568C729.606 888.808 741.904 844.831 741.904 844.831C732.339 855.826 726.19 869.568 726.19 869.568H721.408C704.327 870.255 652.402 901.177 633.955 912.859C614.824 924.54 618.241 918.355 629.172 899.116C635.27 887.669 648.863 875.979 661.465 867.519C661.284 867.456 661.121 867.389 660.981 867.318C660.457 867.109 659.917 866.9 659.371 866.688C656.332 865.508 653.099 864.253 651.349 862.504C623.143 841.182 627.959 788.221 639.654 752.456C646.724 731.251 634.687 733.924 611.599 739.051C596.493 742.405 576.658 746.809 554.347 746.265C550.936 746.265 548.466 747.205 546.157 749.471C561.044 778.44 619.607 769.933 619.607 769.933C599.794 787.798 595.011 835.898 595.011 835.898C575.88 837.96 556.75 867.507 556.75 867.507C504.826 918.355 360.665 1061.97 349.734 1085.33C338.802 1109.38 335.386 1137.55 342.901 1142.36C347.521 1145.32 350.075 1154.25 352.786 1163.72C354.485 1169.66 356.246 1175.81 358.615 1180.84C360.801 1185.73 360.915 1189.4 361.044 1193.55C361.277 1201.08 361.56 1210.19 374.329 1231.01C394.143 1262.61 410.54 1233.07 410.54 1233.07L605.943 935.534C706.377 869.568 725.507 876.44 725.507 876.44C726.19 880.563 734.389 881.25 734.389 881.25C732.339 896.367 741.221 894.993 741.221 894.993C741.221 903.925 747.37 925.914 754.886 926.601C763.084 927.975 764.451 933.473 759.668 947.216C755.717 961.123 766.998 963.542 784.947 967.39L786.997 967.83C789.927 968.461 792.311 968.947 794.372 969.368C805.769 971.692 807.259 971.996 836.189 983.634C870.351 997.377 898.363 1031.73 899.046 1044.79C899.631 1055.97 897.709 1056.06 892.851 1056.29C892.038 1056.33 891.143 1056.37 890.164 1056.47C883.331 1057.16 876.5 1059.91 867.617 1065.4C858.735 1070.21 869.667 1081.21 869.667 1081.21C826.624 1115.57 878.549 1128.62 878.549 1128.62C858.735 1110.07 876.5 1090.14 876.5 1090.14C879.915 1089.45 890.164 1083.96 892.214 1076.4C893.973 1069.91 898.249 1067.98 905.906 1064.52C907.17 1063.95 908.526 1063.34 909.977 1062.66C916.517 1060.03 918.049 1069.7 919.721 1080.27C920.67 1086.26 921.664 1092.54 923.642 1097.01C928.424 1108.69 923.642 1116.25 918.859 1121.75C916.628 1124.74 916.825 1127.12 917.139 1130.89C917.401 1134.04 917.743 1138.16 916.81 1144.43C914.077 1158.17 887.431 1151.3 887.431 1151.3C906.39 1171.64 924.179 1151.41 932.689 1141.73C933.379 1140.95 934.009 1140.23 934.573 1139.62C938.238 1135.26 937.842 1133.85 937.265 1131.79C936.66 1129.62 935.855 1126.75 939.356 1119C944.811 1106.93 941.12 1101.87 938.715 1098.57C938.107 1097.74 937.582 1097.02 937.306 1096.33C935.94 1092.89 935.257 1090.83 932.524 1075.71C929.791 1060.59 943.456 1079.15 943.456 1084.64C943.456 1090.14 951.654 1099.07 959.17 1105.26C966.094 1110.96 966.058 1115.49 966.01 1121.54C966.005 1122.06 966.001 1122.58 966.001 1123.12C966.001 1123.87 965.981 1124.56 965.963 1125.21C965.79 1131.24 965.697 1134.5 981.716 1150.61C999.48 1168.48 968.051 1182.22 968.051 1182.22C985.132 1185.65 991.964 1177.41 997.43 1159.54C1002.9 1142.36 987.182 1122.44 981.716 1119C978.392 1116.61 976.718 1110.24 975.089 1104.04C974.374 1101.32 973.667 1098.63 972.834 1096.33C971.422 1092.42 968.735 1088.15 965.995 1083.8C963.431 1079.72 960.821 1075.58 959.17 1071.59C955.754 1063.34 974.2 1077.09 976.933 1087.39C979.666 1097.7 991.965 1108.69 1001.53 1116.94C1011.78 1125.19 1008.36 1151.3 1008.36 1151.3C1029.13 1129.9 1016.1 1113.04 1004.64 1098.19C1000.63 1093.01 996.819 1088.07 994.697 1083.27C986.522 1064.77 983.781 1063.35 961.414 1051.76L961.219 1051.66C945.717 1043.16 934.414 1030.43 925.311 1020.18C921.175 1015.52 917.492 1011.38 914.077 1008.37C903.828 998.751 864.884 975.388 842.338 965.081C820.475 954.774 801.345 944.467 793.146 928.663C784.947 912.859 840.289 833.15 840.289 833.15C842.594 832.57 851.707 829.763 864.132 825.935C895.894 816.149 949.304 799.695 966.001 796.731C989.231 792.608 984.449 806.351 976.933 817.345C968.735 829.027 987.865 860.635 987.865 860.635C987.865 914.233 1028.18 883.311 1028.18 883.311C991.964 895.68 1000.85 855.826 1000.85 855.826C1005.63 852.39 1003.58 838.647 998.796 831.088C994.577 825.784 996.872 818.842 999.081 812.158C999.733 810.184 1000.38 808.232 1000.85 806.351C1002.9 798.106 1007 798.106 1009.73 806.351C1010.92 809.949 1013.93 814.463 1017.41 819.664C1021.89 826.382 1027.14 834.249 1030.23 842.77C1035.69 857.2 1043.89 865.446 1043.89 865.446C1047.99 877.814 1026.13 905.987 1026.13 905.987C1047.31 896.367 1052.09 873.004 1053.45 862.697C1055.5 852.39 1052.77 842.083 1044.57 826.278C1036.37 810.474 1056.19 829.027 1060.29 840.021C1064.39 851.015 1071.22 862.697 1071.22 862.697C1070.54 872.317 1057.55 892.244 1057.55 892.244C1074.63 886.06 1080.1 864.758 1080.1 864.758C1093.08 881.937 1066.44 905.3 1066.44 905.3C1107.43 905.3 1088.98 864.758 1088.98 864.758C1100.59 856.976 1085.42 836.952 1071.04 817.973C1070.18 816.843 1069.33 815.717 1068.48 814.597C1052.77 794.67 1030.23 781.614 1007.68 774.056C986.179 766.848 928.648 784.008 897.286 793.362C895.758 793.818 894.293 794.255 892.896 794.67C862.835 803.603 877.182 789.86 877.182 789.86C988.548 695.721 1007 633.191 1012.46 589.901C1015.76 564.46 1010.99 540.205 1006.61 517.881C1002.82 498.602 999.313 480.762 1001.53 464.841C1006.72 429.451 1013.86 421.982 1028.71 406.452C1031.44 403.589 1034.44 400.451 1037.74 396.814C1057.3 375.237 1129.31 385.896 1137.51 387.11C1138.19 387.211 1138.44 387.246 1138.17 387.194L1073.27 346.653C1065.75 323.977 1037.06 289.62 970.101 269.693C929.708 257.671 897.024 273.908 873.997 293.814C880.968 303.645 885.048 317.22 886.63 326.706C888.212 341.89 891.54 353.147 895.009 360.34C896.618 356.234 895.927 351.252 898.363 346.653ZM795.196 128.829C793.829 145.32 781.531 165.247 781.531 165.247C774.016 178.302 786.997 115.085 793.146 104.091C798.157 94.0118 796.851 109.342 795.547 124.671C795.428 126.063 795.31 127.456 795.196 128.829ZM750.103 117.834C750.786 130.89 751.47 143.945 748.053 154.253C747.678 155.384 747.196 156.921 746.634 158.713C742.077 173.246 732.264 204.539 731.656 172.118C731.656 172.118 730.973 141.884 736.438 126.767C742.587 112.337 749.42 104.778 750.103 117.834ZM700.955 138.531C701.544 134.104 701.854 131.772 702.961 138.448C704.727 148.516 701.419 172.877 700.471 179.854C700.319 180.972 700.228 181.643 700.228 181.738C689.979 191.358 694.762 155.627 698.178 150.13C699.75 147.6 700.454 142.304 700.955 138.531ZM671.532 222.28C677.681 202.353 681.78 212.66 680.414 222.28C679.879 225.776 680.496 238.221 681.158 251.579C681.756 263.663 682.392 276.495 682.246 284.125C684.543 281.795 687.773 280.399 691.938 279.936C728.401 275.809 760.047 299.882 753.855 341.15C746.381 385.409 713.924 411.414 696.232 425.59C692.754 428.377 689.846 430.707 687.811 432.628C695.379 437.442 700.882 449.823 698.818 462.891C692.627 499.345 664.42 506.223 627.271 504.847L626.659 504.803C617.069 504.125 603.952 503.197 607.32 490.403L679.556 288.19C679.599 288.088 679.643 287.988 679.689 287.889C676.759 277.895 666.21 239.531 671.532 222.28ZM1008.36 334.971C1008.36 337.72 1005.63 340.469 1002.9 340.469C1000.16 340.469 997.43 337.72 997.43 334.971C997.43 332.223 1000.16 329.474 1002.9 329.474C1005.63 329.474 1008.36 331.535 1008.36 334.971ZM905.195 35.377C898.363 54.6169 872.4 104.778 864.884 115.085C864.263 115.919 863.583 116.844 862.858 117.828C854.03 129.82 838.705 150.638 844.388 123.331C844.388 123.331 849.854 100.655 858.052 84.8514C866.251 69.047 880.599 47.0584 889.48 37.4381C898.363 27.8185 912.027 16.1371 905.195 35.377ZM314.938 424.374C305.307 463.579 319.754 501.408 342.456 501.408C385.798 501.408 435.331 395.486 436.019 330.833C436.019 299.194 430.515 281.999 405.749 281.999C352.776 281.999 320.442 400.301 314.938 424.374Z" fill="#0181C8"/>
<path d="M671.645 861.24C676.201 858.687 680.217 856.808 683.147 855.826C695.445 851.703 713.892 842.77 732.339 821.468C736.952 816.142 741.18 812.534 745.152 809.925C741.765 804.772 739.84 798.729 737.621 791.762C736.198 787.296 734.655 782.451 732.528 777.217C729.088 768.963 723.585 762.085 712.577 762.085C709.825 762.085 707.761 766.899 707.074 769.651C704.911 776.138 703.442 780.961 702.044 785.552C700.328 791.182 698.719 796.464 696.066 804.041C695.77 804.871 695.484 805.697 695.201 806.512C692.204 815.146 689.613 822.611 679.556 822.611C667.172 822.611 667.86 804.041 671.988 793.036C683.571 761.511 721.038 642.122 725.83 626.828C712.308 657.48 695.97 695.621 684.371 726.319C682.995 729.758 683.683 732.51 685.059 735.948C686.625 738.687 687.299 739.868 687.59 741.137C687.811 742.099 687.811 743.111 687.811 744.89L686.435 746.265C679.556 745.578 676.115 749.017 674.74 755.207C673.506 760.141 672.034 765.275 670.519 770.563C662.74 797.713 653.801 828.906 669.924 857.689C670.516 858.873 671.108 860.057 671.645 861.24Z" fill="#0181C8"/>
<path d="M212.404 521.115C213.352 521.786 214.612 522.042 215.873 522.042C216.561 522.042 217.937 522.042 218.625 520.667C220.029 519.155 221.314 517.151 222.484 514.819C218.345 517.082 215.017 519.177 212.404 521.115Z" fill="#0181C8"/>
<path d="M224.439 510.363C221.01 510.036 216.229 509.555 210.614 508.921C212.324 488.774 222.593 466.33 228.256 466.33C231.696 466.33 231.696 471.833 231.696 473.896C231.696 479.571 229.374 497.627 224.439 510.363Z" fill="#0181C8"/>
<path d="M202.818 508.002C164.236 503.258 102.494 492.682 139.984 476.523L178.245 464.841C178.245 464.841 -36.2879 401.624 171.412 417.428C171.412 417.428 -6.90979 338.407 49.7983 347.34C106.506 356.273 146.816 363.144 146.816 363.144C146.816 363.144 55.9473 309.547 27.9353 267.631C17.5199 252.047 12.9604 245.866 13.7651 245.064C14.8498 243.981 25.6817 252.671 45.0554 261.271C59.16 283.526 83.2814 299.882 112.68 299.882C145.701 299.882 197.986 284.063 226.88 259.99C229.632 259.99 231.008 261.365 231.008 266.18C231.008 267.344 230.679 269.491 230.177 272.778C228.898 281.147 226.492 296.899 225.504 322.579C224.634 346.954 226.794 376.286 228.497 399.42C229.485 412.844 230.32 424.181 230.32 431.252C230.32 436.755 228.944 442.257 225.504 447.072C222.122 452.483 203.436 488.493 202.818 508.002Z" fill="#0181C8"/>
<path d="M74.6893 272.05C84.7992 280.838 97.5998 286.126 111.303 286.126C113.726 286.126 116.119 286.074 118.484 285.971C110.684 283.64 96.6654 279.308 74.6893 272.05Z" fill="#0181C8"/>
<path d="M123.921 285.645C114.933 275.881 82.3305 240.312 54.4026 207.909C56.641 197.098 61.1681 187.461 67.357 179.489C104.112 205.422 152.697 237.641 198.293 260.738C177.876 273.497 153.169 283.396 123.921 285.645Z" fill="#0181C8"/>
<path d="M201.443 258.725C233.618 237.71 254.69 209.918 265.713 195.382C269.038 190.997 271.449 187.818 272.973 186.395C275.037 184.331 277.789 183.644 279.852 183.644C284.668 183.644 292.236 188.458 292.236 195.336C292.236 198.775 290.86 204.965 288.108 209.092C251.647 270.307 251.647 316.39 253.711 376.916C253.77 377.33 253.829 377.76 253.89 378.199C254.532 382.863 255.323 388.609 257.838 388.609C258.526 388.609 259.902 387.921 261.278 386.545C267.504 380.05 272.239 373.129 278.039 364.65C286.98 351.581 298.452 334.812 321.818 310.199C326.62 305.223 332.387 298.962 338.962 291.822C358.205 270.929 384.379 242.511 413.606 216.75C369.864 185.59 296.328 126.15 246.567 58.7399C189.845 -16.7468 209.038 33.8882 220.74 64.7627C222.993 70.7054 224.968 75.9159 226.07 79.3541C227.938 85.1776 231.695 92.6954 235.415 100.139C245.303 119.924 254.928 139.185 228.12 124.706C191.226 104.778 133.152 27.8185 127.003 15.4496C125.343 12.1106 123.932 8.57173 122.797 5.72447C119.727 -1.97605 118.674 -4.61713 120.17 15.4496C122.22 42.2486 142.717 88.2869 151.599 106.152C154.922 112.359 164.51 123.955 173.864 135.266C191.435 156.516 208.176 176.762 180.977 158.376C139.301 130.203 51.1644 54.6169 43.6493 44.9966C36.1336 35.377 41.5992 56.678 41.5992 56.678C47.9089 84.7211 65.6165 114.776 87.3713 143.157C91.686 142.202 96.2269 141.688 100.984 141.688C115.239 141.688 118.108 143.697 124.789 148.375L125.062 148.566C126.439 149.254 127.126 150.63 127.126 152.005C127.126 153.38 126.439 155.443 124.375 156.132C115.587 154.854 107.022 155.505 99.0507 157.792C136.429 202.903 181.159 241.864 201.443 258.725Z" fill="#0181C8"/>
<path d="M50.0272 167.113C39.3326 159.386 30.1964 152.624 23.1523 147.381C-3.39019 127.224 -3.30537 127.368 4.67856 140.963C6.76453 144.515 9.38975 148.986 12.2205 154.253C15.8104 160.933 25.39 173.351 37.5638 188.032C40.6193 180.727 44.7975 173.552 50.0272 167.113Z" fill="#0181C8"/>
<path d="M601.056 316.605C584.373 337.833 569.389 376.914 562.603 398.238C546.78 446.384 545.404 486.276 559.851 486.276C579.114 486.276 635.526 403.052 635.526 327.394C635.526 312.289 634.841 301.981 622.519 301.946C621.559 304.661 620.588 307.634 619.607 310.921C617.373 318.412 610.672 319.523 601.056 316.605Z" fill="#0181C8"/>
<path d="M751.103 640.344C754.542 626.588 757.294 625.212 766.238 625.212C786.188 625.212 795.132 636.905 794.444 650.661C794.444 687.114 769.678 743.514 722.209 743.514C719.457 743.514 718.769 742.138 718.769 740.075C718.769 736.254 725.562 716.516 733.37 693.828C739.618 675.674 746.516 655.631 751.103 640.344Z" fill="#0181C8"/>
<path d="M708.45 544.052C712.577 539.237 717.393 535.11 724.96 534.423C725.648 536.486 726.337 538.549 724.273 539.237C723.584 543.364 722.209 547.491 720.832 550.93C687.123 626.588 671.3 663.729 649.974 713.939C647.91 718.066 645.158 721.505 639.654 720.817C627.251 720.065 618.954 721.982 607.36 724.662C597.733 726.887 585.832 729.637 567.419 731.822C565.355 732.51 562.603 732.51 559.163 732.51C557.318 732.51 559.322 728.661 560.259 726.863C560.37 726.649 560.466 726.465 560.539 726.319L708.45 544.052Z" fill="#0181C8"/>
<path d="M481.424 310.199C485.551 295.755 488.303 294.38 497.247 294.38C517.886 294.38 526.829 306.76 526.829 321.892C526.829 359.721 501.374 418.184 451.842 418.184C448.402 418.184 447.714 416.121 447.714 414.057C447.714 410.079 455.31 387.921 463.844 363.025C470.064 344.879 476.783 325.277 481.424 310.199Z" fill="#0181C8"/>
</svg>
