<svg width="1098" height="1134" viewBox="0 0 1098 1134" fill="none" xmlns="http://www.w3.org/2000/svg">
<g opacity="0.1">
<path d="M406.729 0.0703125C406.912 152.891 407.246 303.159 407.527 455.986L556.223 456.013L555.889 132.117H621.048L621.451 521.859L443.591 521.737C397.567 521.781 375.81 521.799 358.217 504.107C341.173 486.965 341.421 468.293 341.893 432.88C343.783 288.289 341.744 144.888 341.57 0.0762855H406.729V0.0703125Z" fill="#1D2431"/>
<path d="M1032.16 66.6916V1.28174H1097.58V66.6916H1032.16Z" fill="#1D2431"/>
<path d="M1097.35 132.106V522.086H1031.94V132.106H1097.35Z" fill="#1D2431"/>
<path d="M0 611.518H279.729V676.93H0V611.518Z" fill="#1D2431"/>
<path d="M171.326 807.427H279.084C279.084 884.558 279.156 966.952 280.165 1044.21C280.637 1079.62 280.882 1098.29 263.841 1115.43C246.248 1133.13 224.489 1133.11 178.47 1133.06L33.1328 1133.19L33.536 742.342H98.695L98.3605 1067.34L214.532 1067.31C214.797 925.1 213.922 986.075 213.949 872.836H171.326V807.421V807.427Z" fill="#1D2431"/>
<path d="M804.18 221.163L907.545 0.0141602L966.57 27.6122L863.207 248.761L804.18 221.163Z" fill="#1D2431"/>
<path d="M901.3 522.792C901.118 369.968 901.838 577.923 901.554 425.101L751.728 425.075V490.837H686.312C686.312 327.217 686.312 163.668 686.312 0H751.728V359.273L865.489 359.351C911.514 359.306 933.267 359.288 950.864 376.98C967.905 394.123 967.66 412.791 967.185 448.205C967.185 448.205 967.185 443.346 966.459 522.789H901.3V522.792Z" fill="#1D2431"/>
<path d="M883.321 808.314H1097.27L1097.19 873.726C1096.15 1061.61 918.341 1132.75 754.936 1132.75L754.93 1067.33C879.839 1067.33 1030.66 1022.08 1031.78 873.723H883.321V808.311V808.314Z" fill="#1D2431"/>
<path d="M1098 675.131C945.177 675.313 970.765 675.648 817.944 675.929L817.917 877.579L752.125 877.653L752.194 711.996C752.152 665.972 752.131 644.215 769.823 626.622C786.965 609.578 805.637 609.826 841.05 610.298C985.641 612.188 953.19 610.148 1098 609.975V675.134V675.131Z" fill="#1D2431"/>
<path d="M344.511 611.623H686.439V677.036H409.957V1133.63H344.541C344.541 959.614 344.508 785.597 344.508 611.623H344.511Z" fill="#1D2431"/>
<path d="M409.87 675.245C418.205 890.338 491.243 988.563 641.46 1130.81L686.43 1083.53C549.219 953.606 482.663 870.077 475.026 672.943L409.867 675.245H409.87Z" fill="#1D2431"/>
<path d="M442.656 1100.92V1035.5H508.069V1100.92H442.656Z" fill="#1D2431"/>
<path d="M276.56 66.2112C268.225 281.306 195.187 379.529 44.9704 521.775L0 474.502C137.211 344.575 203.767 261.043 211.404 63.9116L276.563 66.2112H276.56Z" fill="#1D2431"/>
<path d="M104.823 248.761L1.46094 27.6117L60.4827 0.0136719L163.848 221.162L104.823 248.761Z" fill="#1D2431"/>
</g>
</svg>
