<svg width="1002" height="1082" viewBox="0 0 1002 1082" fill="none" xmlns="http://www.w3.org/2000/svg">
<path opacity="0.05" d="M297.493 502.424C297.734 520.406 294.277 538.246 287.335 554.836C281.545 570.349 270.845 583.546 256.864 592.418C234.515 601.654 210.228 605.213 186.169 602.778H-113.673C-137.732 605.213 -162.019 601.654 -184.367 592.418C-198.434 583.551 -209.154 570.259 -214.839 554.633C-228.387 520.935 -228.387 483.305 -214.839 449.607C-208.986 434.236 -198.29 421.188 -184.367 412.431C-162.019 403.195 -137.732 399.636 -113.673 402.071H186.169C210.228 399.636 234.515 403.195 256.864 412.431C270.805 421.348 281.493 434.53 287.335 450.013C294.276 466.674 297.733 484.58 297.493 502.628M13.0896 908.918C93.5187 990.536 196.409 1046.38 308.67 1069.36C420.932 1092.33 537.489 1081.39 643.515 1037.93C749.541 994.466 840.241 920.446 904.077 825.287C967.914 730.128 1002 618.13 1002 503.542C1002 388.954 967.914 276.956 904.077 181.797C840.241 86.6372 749.541 12.6179 643.515 -30.8443C537.489 -74.3065 420.932 -85.2469 308.67 -62.2738C196.409 -39.3007 93.5187 16.5475 13.0896 98.1657C-7.59322 120.725 -18.7218 150.426 -17.9558 181.023C-17.1898 211.619 -4.58881 240.726 17.197 262.222C38.9828 283.719 68.2556 295.929 98.8593 296.286C129.463 296.643 159.013 285.118 181.294 264.135C212.571 232.081 249.857 206.505 291.023 188.868C332.189 171.23 376.426 161.877 421.208 161.344C486.626 164.087 550.757 180.414 609.524 209.286C655.098 231.821 696.901 261.289 733.442 296.638L734.661 298.061C739.359 303.912 742.344 310.951 743.285 318.396C744.227 325.841 743.089 333.401 739.996 340.238C736.903 347.076 731.978 352.923 725.765 357.132C719.552 361.34 712.295 363.746 704.799 364.083H578.036C507.545 364.083 499.419 372.412 476.463 411.822C460.417 439.616 451.969 471.144 451.969 503.237C451.969 535.331 460.417 566.859 476.463 594.652C498.809 634.062 506.935 642.595 578.036 642.595H704.799C712.278 642.966 719.509 645.398 725.693 649.621C731.877 653.844 736.774 659.694 739.843 666.525C742.912 673.355 744.033 680.902 743.082 688.33C742.132 695.758 739.147 702.778 734.458 708.617V709.836C697.88 745.14 656.084 774.603 610.539 797.188C551.623 826.184 487.238 842.384 421.614 844.724C376.655 844.114 332.263 834.589 291.011 816.7C249.758 798.812 212.466 772.915 181.294 740.511C159.024 718.823 129.109 706.779 98.024 706.985C66.9394 707.191 37.1866 719.631 15.206 741.611C-6.77463 763.592 -19.2143 793.345 -19.4203 824.429C-19.6263 855.514 -7.58205 885.429 14.1053 907.699" fill="#E30613"/>
</svg>
