<svg width="132" height="74" viewBox="0 0 132 74" fill="none" xmlns="http://www.w3.org/2000/svg">
<path d="M20.318 65.9667L25.1051 72.3201C25.2263 72.5034 25.2869 72.7478 25.2869 72.9311C25.2869 73.2365 25.1657 73.4809 24.9839 73.6641C24.8021 73.8474 24.5598 73.9696 24.2568 73.9696C23.8932 73.9696 23.6508 73.8474 23.4084 73.542L22.6207 72.5034H13.7736L12.9859 73.542C12.8041 73.7863 12.5011 73.9696 12.1376 73.9696C11.8346 73.9696 11.5922 73.8474 11.4104 73.6641C11.2286 73.4809 11.1074 73.2365 11.1074 72.9311C11.1074 72.6867 11.168 72.5034 11.2892 72.3201L16.0763 65.9667C16.3187 65.6613 16.6217 65.4169 16.9852 65.2336C17.3488 65.0503 17.7124 64.9893 18.1366 64.9893C18.5607 64.9893 18.9243 65.0503 19.2879 65.2336C19.8333 65.4169 20.1362 65.6613 20.318 65.9667ZM15.4097 70.5485H21.1664L18.3184 66.6998L15.4097 70.5485Z" fill="#222222"/>
<path d="M28.1226 71.9065V66.0208C28.1226 65.7174 28.2428 65.4747 28.4231 65.2926C28.6034 65.1106 28.8438 64.9893 29.1443 64.9893C29.4448 64.9893 29.6852 65.1106 29.8654 65.2926C30.0457 65.4747 30.1659 65.7174 30.1659 66.0208V71.9065H41.044C41.3445 71.9065 41.5849 72.0279 41.7652 72.2099C41.9455 72.392 42.0657 72.6347 42.0657 72.9381C42.0657 73.2415 41.9455 73.4842 41.7652 73.6662C41.5849 73.8482 41.3445 73.9696 41.044 73.9696H30.1659C29.6251 73.9696 29.1443 73.7876 28.7236 73.3628C28.3029 72.9987 28.1226 72.5133 28.1226 71.9065Z" fill="#222222"/>
<path d="M45.1382 71.9065V66.0208C45.1382 65.7174 45.2584 65.4747 45.4387 65.2926C45.619 65.1106 45.8594 64.9893 46.1599 64.9893C46.4604 64.9893 46.7008 65.1106 46.8811 65.2926C47.0614 65.4747 47.1816 65.7174 47.1816 66.0208V71.9065H58.0596C58.3601 71.9065 58.6005 72.0279 58.7808 72.2099C58.9611 72.392 59.0813 72.6347 59.0813 72.9381C59.0813 73.2415 58.9611 73.4842 58.7808 73.6662C58.6005 73.8482 58.3601 73.9696 58.0596 73.9696H47.1816C46.6407 73.9696 46.1599 73.7876 45.7392 73.3628C45.3185 72.9987 45.1382 72.5133 45.1382 71.9065Z" fill="#222222"/>
<path d="M61.917 72.9921V66.0278C61.917 65.7223 62.0421 65.478 62.2298 65.2947C62.4174 65.1114 62.6677 64.9893 62.9805 64.9893C63.2932 64.9893 63.5435 65.1114 63.7311 65.2947C63.9188 65.478 64.0439 65.7223 64.0439 66.0278V72.9311C64.0439 73.2365 63.9188 73.4809 63.7311 73.6641C63.5435 73.8474 63.2932 73.9696 62.9805 73.9696C62.6677 73.9696 62.4174 73.8474 62.2298 73.6641C62.0421 73.542 61.917 73.2976 61.917 72.9921Z" fill="#222222"/>
<path d="M75.8542 65.9667L80.6412 72.3201C80.7624 72.5034 80.823 72.7478 80.823 72.9311C80.823 73.2365 80.7018 73.4809 80.5201 73.6641C80.3383 73.8474 80.0959 73.9696 79.7929 73.9696C79.4293 73.9696 79.1869 73.8474 78.9446 73.542L78.1568 72.5034H69.3098L68.522 73.542C68.3402 73.7863 68.0373 73.9696 67.6737 73.9696C67.3707 73.9696 67.1283 73.8474 66.9465 73.6641C66.7647 73.4809 66.6436 73.2365 66.6436 72.9311C66.6436 72.6867 66.7042 72.5034 66.8253 72.3201L71.6124 65.9667C71.8548 65.6613 72.1578 65.4169 72.5214 65.2336C72.8849 65.0503 73.2485 64.9893 73.6727 64.9893C74.0969 64.9893 74.4604 65.0503 74.824 65.2336C75.3088 65.4169 75.6118 65.6613 75.8542 65.9667ZM70.9459 70.5485H76.7025L73.8545 66.6998L70.9459 70.5485Z" fill="#222222"/>
<path d="M95.3145 73.6702L85.9389 67.384V72.9518C85.9389 73.2512 85.8187 73.4906 85.6384 73.6702C85.4581 73.8499 85.2177 73.9696 84.9172 73.9696C84.6167 73.9696 84.3763 73.8499 84.196 73.6702C84.0157 73.4906 83.8955 73.2512 83.8955 72.9518V66.6656C83.8955 66.2465 84.0758 65.8873 84.3763 65.5281C84.6768 65.2287 85.0374 65.0491 85.5182 65.0491C85.8187 65.0491 86.1192 65.109 86.3596 65.2886L95.7953 71.3952V66.007C95.7953 65.7077 95.9155 65.4682 96.0958 65.2886C96.2761 65.109 96.5165 64.9893 96.817 64.9893C97.1175 64.9893 97.3579 65.109 97.5382 65.2886C97.7185 65.4682 97.8387 65.7077 97.8387 66.007V72.2933C97.8387 72.7123 97.6584 73.0716 97.3579 73.3709C97.0574 73.6702 96.6968 73.8499 96.2761 73.8499C95.9155 73.9696 95.615 73.8499 95.3145 73.6702Z" fill="#222222"/>
<path d="M102.752 71.9065H113.815C114.12 71.9065 114.365 72.0279 114.548 72.2099C114.732 72.392 114.854 72.6347 114.854 72.9381C114.854 73.2415 114.732 73.4842 114.548 73.6662C114.365 73.8482 114.12 73.9696 113.815 73.9696H102.752C102.202 73.9696 101.713 73.7876 101.286 73.3628C100.858 72.9381 100.674 72.4526 100.674 71.9065V67.0523C100.674 66.5062 100.858 66.0208 101.286 65.596C101.713 65.1713 102.202 64.9893 102.752 64.9893H113.815C114.12 64.9893 114.365 65.1106 114.548 65.2926C114.732 65.4747 114.854 65.7174 114.854 66.0208C114.854 66.3242 114.732 66.5669 114.548 66.7489C114.365 66.9309 114.12 67.0523 113.815 67.0523H102.752V71.9065Z" fill="#222222"/>
<path d="M117.689 71.8601V67.0385C117.689 66.496 117.87 66.0139 118.29 65.592C118.711 65.1701 119.192 64.9893 119.733 64.9893H130.611C130.911 64.9893 131.152 65.1098 131.332 65.2906C131.512 65.4714 131.633 65.7125 131.633 66.0139C131.633 66.3152 131.512 66.5563 131.332 66.7371C131.152 66.9179 130.911 67.0385 130.611 67.0385H119.733V68.485H130.611C130.911 68.485 131.152 68.6055 131.332 68.7863C131.512 68.9671 131.633 69.2082 131.633 69.5096C131.633 69.8109 131.512 70.052 131.332 70.2328C131.152 70.4136 130.911 70.5342 130.611 70.5342H119.733V71.9204H130.551C130.851 71.9204 131.092 72.0409 131.272 72.2217C131.452 72.4026 131.573 72.6436 131.573 72.945C131.573 73.2463 131.452 73.4874 131.272 73.6682C131.092 73.8491 130.851 73.9696 130.551 73.9696H119.673C119.132 73.9696 118.651 73.7888 118.23 73.3669C117.93 72.8847 117.689 72.4026 117.689 71.8601Z" fill="#222222"/>
<path d="M26.7046 29.3921L33.1473 0H50.7127L64.7529 58.9419H50.1049L47.6129 48.5424L45.0601 37.6946C43.9661 33.3313 42.9328 29.0285 41.9604 24.7863H41.4741L38.5567 37.6946L37.5842 42.058C37.2803 43.27 37.0372 44.4215 36.7333 45.4517C36.4902 46.5426 36.247 47.5728 36.0647 48.5424L34.3629 55.9965L33.6943 58.9419H32.7218L26.7046 29.3921Z" fill="#003D78"/>
<path d="M66.3671 0L61.208 28.9073L68.3094 58.9419H69.3412L69.9481 56.3601L71.5869 49.6939C72.0118 47.8152 72.7401 44.6639 73.8327 40.3005L83.4225 0.060606H66.3671" fill="#E22718"/>
<path d="M11.7843 49.4849C12.3886 52.3247 12.9325 54.5603 13.2951 56.1312L13.9745 58.9419H29.143L16.9815 0H0L6.94971 29.3647L9.48787 40.1196L11.7843 49.4849Z" fill="#0066B1"/>
<path fill-rule="evenodd" clip-rule="evenodd" d="M88.3853 34.6039H99.4991C103.788 34.6039 105.902 36.725 105.902 41.0277C105.902 45.3305 103.788 47.5122 99.4991 47.5122H88.3853V34.6039ZM88.3853 11.2114H97.3851C99.5595 11.2114 101.07 11.7568 102.036 12.8477C103.063 13.8779 103.546 15.4536 103.546 17.4535C103.546 19.3927 103.063 20.9684 102.036 22.0592C101.07 23.0895 99.5595 23.6349 97.3851 23.6349H88.3853V11.2114ZM96.7811 0C103.546 0 108.741 1.45445 112.425 4.30276C116.11 7.09047 117.982 11.0902 117.982 16.3626V17.5747C117.982 20.12 117.499 22.3016 116.532 24.0591C115.626 25.8772 114.358 27.3316 112.727 28.4831C115.083 29.6345 116.955 31.2708 118.284 33.3313C119.673 35.3917 120.338 37.9976 120.338 41.0884V42.1792C120.338 47.4516 118.465 51.5725 114.781 54.4815C111.157 57.3904 105.667 58.9419 98.842 58.9419H131.72L117.266 0H96.7811Z" fill="#222222"/>
</svg>
