<svg width="1024" height="1031" viewBox="0 0 1024 1031" fill="none" xmlns="http://www.w3.org/2000/svg">
<g opacity="0.05">
<path d="M-0.81543 1016.63V914.481C-0.81543 910.001 1.0197 906.416 3.7724 903.728C6.5251 901.04 10.1953 899.248 14.7832 899.248C19.371 899.248 23.0412 901.04 25.7939 903.728C28.5466 906.416 30.3818 910.001 30.3818 914.481V1015.74C30.3818 1020.22 28.5466 1023.8 25.7939 1026.49C23.0412 1029.18 19.371 1030.97 14.7832 1030.97C10.1953 1030.97 6.5251 1029.18 3.7724 1026.49C1.0197 1024.7 -0.81543 1021.11 -0.81543 1016.63Z" fill="#222222"/>
<path d="M203.612 913.585L273.828 1006.78C275.605 1009.46 276.494 1013.05 276.494 1015.74C276.494 1020.22 274.716 1023.8 272.05 1026.49C269.384 1029.18 265.828 1030.97 261.384 1030.97C256.051 1030.97 252.496 1029.18 248.941 1024.7L237.387 1009.46H107.62L96.0657 1024.7C93.3993 1028.28 88.9553 1030.97 83.6224 1030.97C79.1784 1030.97 75.6232 1029.18 72.9567 1026.49C70.2903 1023.8 68.5127 1020.22 68.5127 1015.74C68.5127 1012.15 69.4015 1009.46 71.1792 1006.78L141.395 913.585C144.95 909.105 149.394 905.52 154.727 902.832C160.06 900.144 165.393 899.248 171.615 899.248C177.836 899.248 183.169 900.144 188.502 902.832C195.612 905.52 200.056 909.105 203.612 913.585ZM131.618 980.79H216.055L174.281 924.338L131.618 980.79Z" fill="#222222"/>
<path d="M489.047 1026.58L351.529 934.374V1016.04C351.529 1020.43 349.766 1023.94 347.121 1026.58C344.476 1029.21 340.95 1030.97 336.543 1030.97C332.135 1030.97 328.609 1029.21 325.964 1026.58C323.32 1023.94 321.557 1020.43 321.557 1016.04V923.836C321.557 917.689 324.201 912.42 328.609 907.151C333.017 902.76 338.306 900.126 345.358 900.126C349.766 900.126 354.173 901.004 357.699 903.639L496.1 993.209V914.176C496.1 909.786 497.863 906.273 500.507 903.639C503.152 901.004 506.678 899.248 511.086 899.248C515.493 899.248 519.019 901.004 521.664 903.639C524.309 906.273 526.072 909.786 526.072 914.176V1006.38C526.072 1012.53 523.427 1017.8 519.019 1022.19C514.612 1026.58 509.323 1029.21 503.152 1029.21C497.863 1030.97 493.455 1029.21 489.047 1026.58Z" fill="#222222"/>
<path d="M598.149 1000.71H760.41C764.892 1000.71 768.478 1002.49 771.168 1005.16C773.857 1007.83 775.65 1011.39 775.65 1015.84C775.65 1020.29 773.857 1023.85 771.168 1026.52C768.478 1029.19 764.892 1030.97 760.41 1030.97H598.149C590.08 1030.97 582.908 1028.3 576.633 1022.07C570.358 1015.84 567.668 1008.72 567.668 1000.71V929.508C567.668 921.498 570.358 914.378 576.633 908.148C582.908 901.918 590.08 899.248 598.149 899.248H760.41C764.892 899.248 768.478 901.028 771.168 903.698C773.857 906.368 775.65 909.928 775.65 914.378C775.65 918.828 773.857 922.388 771.168 925.058C768.478 927.728 764.892 929.508 760.41 929.508H598.149V1000.71Z" fill="#222222"/>
<path d="M817.246 1000.03V929.305C817.246 921.349 819.891 914.276 826.061 908.088C832.232 901.9 839.285 899.248 847.218 899.248H1006.78C1011.18 899.248 1014.71 901.016 1017.35 903.668C1020 906.32 1021.76 909.856 1021.76 914.276C1021.76 918.697 1020 922.233 1017.35 924.885C1014.71 927.537 1011.18 929.305 1006.78 929.305H847.218V950.522H1006.78C1011.18 950.522 1014.71 952.29 1017.35 954.942C1020 957.594 1021.76 961.13 1021.76 965.551C1021.76 969.971 1020 973.507 1017.35 976.159C1014.71 978.811 1011.18 980.579 1006.78 980.579H847.218V1000.91H1005.89C1010.3 1000.91 1013.83 1002.68 1016.47 1005.33C1019.12 1007.98 1020.88 1011.52 1020.88 1015.94C1020.88 1020.36 1019.12 1023.9 1016.47 1026.55C1013.83 1029.2 1010.3 1030.97 1005.89 1030.97H846.337C838.403 1030.97 831.351 1028.32 825.18 1022.13C820.772 1015.06 817.246 1007.98 817.246 1000.03Z" fill="#222222"/>
<path d="M-517.299 377.117L-422.8 -54H-165.154L40.7841 810.547H-174.069L-210.621 658.01L-248.064 498.896C-264.111 434.895 -279.267 371.783 -293.531 309.56H-300.663L-343.455 498.896L-357.72 562.897C-362.177 580.675 -365.743 597.564 -370.201 612.676C-373.767 628.676 -377.333 643.787 -380.007 658.01L-404.969 767.344L-414.776 810.547H-429.04L-517.299 377.117Z" fill="#003D78"/>
<path d="M64.4617 -54L-11.2109 370.006L92.9502 810.547H108.085L116.987 772.678L141.025 674.899C147.257 647.343 157.94 601.12 173.964 537.119L314.627 -53.111H64.4617" fill="#E22718"/>
<path fill-rule="evenodd" clip-rule="evenodd" d="M387.415 453.562H550.431C613.333 453.562 644.342 484.674 644.342 547.786C644.342 610.898 613.333 642.898 550.431 642.898H387.415V453.562ZM387.415 110.447H519.422C551.317 110.447 573.465 118.447 587.641 134.447C602.702 149.558 609.79 172.67 609.79 202.003C609.79 230.448 602.702 253.56 587.641 269.56C573.465 284.671 551.317 292.671 519.422 292.671H387.415V110.447ZM510.563 -54C609.79 -54 685.982 -32.6664 740.025 9.11193C794.068 50.0014 821.533 108.669 821.533 186.003V203.781C821.533 241.115 814.445 273.115 800.27 298.893C786.98 325.561 768.375 346.894 744.455 363.783C779.007 380.672 806.471 404.673 825.962 434.895C846.339 465.118 856.085 503.341 856.085 548.675V564.675C856.085 642.009 828.62 702.454 774.577 745.122C721.42 787.789 640.905 810.547 540.792 810.547H1023.04L811.034 -54H510.563Z" fill="#222222"/>
</g>
</svg>
