<svg width="250" height="100" viewBox="0 0 250 100" fill="none" xmlns="http://www.w3.org/2000/svg">
<g style="mix-blend-mode:luminosity" opacity="0.4">
<path d="M76.9229 61.2357C80.8704 61.2357 84.1382 58.7973 84.1382 53.5402V43.9988C84.1382 38.7729 82.2673 36.1475 77.1162 36.1475H69.0092C67.6247 36.1475 66.9824 36.9706 66.9824 38.3239C66.9824 39.6771 67.606 40.5066 69.0092 40.5066H76.7358C78.9185 40.5066 79.6668 41.8162 79.6668 43.8117V45.7263H72.04C70.5807 45.7263 69.8635 46.3998 69.8635 47.9401C69.8635 49.6675 70.5807 50.1976 72.04 50.1976H79.6668V53.615C79.6668 55.6418 78.5755 56.8454 76.7358 56.8454L69.0341 56.8828C67.6871 56.8828 67.0074 57.706 67.0074 59.0592C67.0074 60.4125 67.6871 61.2357 69.0341 61.2357H76.9229Z" fill="#222222"/>
<path d="M170.341 43.7314H168.015C163.843 43.7314 160.949 46.1012 160.949 50.6848V54.4265C160.949 59.0475 164.03 61.2863 167.903 61.2863H170.453C174.326 61.2863 177.4 59.0725 177.4 54.4265V50.6848C177.4 46.1012 174.513 43.7314 170.341 43.7314ZM172.898 54.5138C172.898 56.0916 172.143 57.1829 170.116 57.1829H168.246C166.219 57.1829 165.464 56.0916 165.464 54.5138V50.61C165.464 48.8451 166.256 47.7912 168.283 47.7912H170.085C172.112 47.7912 172.904 48.8451 172.904 50.61L172.898 54.5138Z" fill="#222222"/>
<path d="M150.06 48.017H157.68C157.968 48.0492 158.26 48.0158 158.533 47.9194C158.806 47.823 159.054 47.6661 159.258 47.4603C159.462 47.2546 159.616 47.0054 159.71 46.7314C159.804 46.4573 159.835 46.1656 159.8 45.878C159.8 44.4873 159.09 43.6953 157.661 43.6953H147.839C146.299 43.6953 145.551 44.4125 145.551 45.878V59.1361C145.551 60.6765 146.299 61.2377 147.839 61.2377C149.38 61.2377 150.06 60.6765 150.06 59.1361V48.017Z" fill="#222222"/>
<path d="M135.143 43.6953H127.896C127.599 43.6999 127.305 43.7646 127.033 43.8854C126.76 44.0062 126.515 44.1807 126.312 44.3985C126.109 44.6163 125.952 44.8728 125.85 45.1527C125.748 45.4327 125.704 45.7302 125.72 46.0276V67.5176C125.72 68.3782 126.581 69.1639 128.009 69.1639C129.437 69.1639 130.223 68.3782 130.223 67.5176V61.2377H135.293C139.465 61.2377 142.358 58.8742 142.358 54.2781V50.5364C142.339 46.0276 139.277 43.6953 135.143 43.6953ZM137.849 54.2033C137.849 55.9806 137.057 57.0345 135.031 57.0345H130.223V48.017H135.068C137.101 48.017 137.849 49.1083 137.849 50.6986V54.2033Z" fill="#222222"/>
<path d="M115.612 43.6953H113.847C109.793 43.6953 106.75 46.2958 106.75 50.736V54.4777C106.75 58.8056 109.681 61.2128 113.697 61.2128H119.216C119.478 61.2009 119.735 61.1368 119.972 61.0241C120.209 60.9114 120.42 60.7524 120.595 60.5565C120.769 60.3607 120.903 60.1319 120.987 59.8836C121.072 59.6354 121.106 59.3728 121.087 59.1112C121.113 58.8481 121.084 58.5826 121.002 58.3312C120.92 58.0799 120.787 57.8482 120.612 57.6508C120.436 57.4534 120.221 57.2945 119.981 57.1841C119.741 57.0738 119.48 57.0143 119.216 57.0096H114.227C112.425 57.0096 111.265 56.1739 111.265 54.7022V54.4403H120.314C120.623 54.4646 120.935 54.424 121.228 54.3212C121.521 54.2184 121.789 54.0555 122.016 53.843C122.242 53.6306 122.422 53.3732 122.543 53.0873C122.665 52.8014 122.725 52.4933 122.721 52.1828V50.736C122.715 46.221 119.597 43.6953 115.612 43.6953ZM118.206 51.0041H111.259V50.7734C111.234 50.4067 111.288 50.0389 111.417 49.6946C111.545 49.3503 111.746 49.0374 112.005 48.7766C112.264 48.5158 112.575 48.3132 112.919 48.1822C113.262 48.0512 113.63 47.9949 113.996 48.017H115.35C117.221 48.017 118.206 49.0834 118.206 50.7734V51.0041Z" fill="#222222"/>
<path d="M101.26 61.2375C102.838 61.2375 103.555 60.6139 103.555 59.0985V45.7655C103.555 44.3748 102.838 43.6951 101.26 43.6951C99.8009 43.6951 99.0837 44.3748 99.0837 45.7655V50.1932H92.2239V45.7655C92.2239 44.3748 91.4693 43.6951 89.9664 43.6951C88.4635 43.6951 87.6777 44.3748 87.6777 45.7655V59.0985C87.6777 60.6388 88.4323 61.2375 89.9664 61.2375C91.5005 61.2375 92.2239 60.6139 92.2239 59.0985V54.3278H99.0837V59.0985C99.0837 60.6388 99.8009 61.2375 101.26 61.2375Z" fill="#222222"/>
<path d="M35.5259 48.6952C35.5333 49.2472 35.4272 49.7949 35.2141 50.3041C35.0364 50.7804 34.7079 51.1855 34.2787 51.4578C33.5926 51.7414 32.8471 51.8506 32.1085 51.7759H22.9039C22.1653 51.8506 21.4197 51.7414 20.7337 51.4578C20.3018 51.1856 19.9728 50.7776 19.7982 50.2979C19.3824 49.2634 19.3824 48.1083 19.7982 47.0738C19.9779 46.6019 20.3063 46.2014 20.7337 45.9326C21.4197 45.649 22.1653 45.5398 22.9039 45.6145H32.1085C32.8471 45.5398 33.5926 45.649 34.2787 45.9326C34.7067 46.2063 35.0348 46.611 35.2141 47.0863C35.4272 47.5977 35.5333 48.1474 35.5259 48.7014M26.7953 61.1738C29.2643 63.6794 32.4228 65.3938 35.8691 66.099C39.3153 66.8043 42.8934 66.4684 46.1482 65.1342C49.403 63.8 52.1873 61.5277 54.147 58.6065C56.1067 55.6853 57.153 52.2472 57.153 48.7295C57.153 45.2119 56.1067 41.7737 54.147 38.8525C52.1873 35.9313 49.403 33.659 46.1482 32.3248C42.8934 30.9906 39.3153 30.6547 35.8691 31.36C32.4228 32.0652 29.2643 33.7796 26.7953 36.2852C26.1603 36.9777 25.8187 37.8895 25.8422 38.8287C25.8657 39.768 26.2526 40.6615 26.9213 41.3214C27.5901 41.9813 28.4888 42.3562 29.4282 42.3671C30.3677 42.3781 31.2748 42.0243 31.9588 41.3802C32.919 40.3962 34.0636 39.611 35.3273 39.0696C36.591 38.5281 37.949 38.241 39.3238 38.2246C41.332 38.3089 43.3007 38.8101 45.1047 39.6964C46.5038 40.3882 47.7871 41.2928 48.9088 42.3779L48.9462 42.4216C49.0904 42.6012 49.1821 42.8173 49.211 43.0459C49.2399 43.2744 49.2049 43.5065 49.11 43.7164C49.0151 43.9263 48.8638 44.1058 48.6731 44.235C48.4824 44.3642 48.2596 44.438 48.0295 44.4484H44.1381C41.9741 44.4484 41.7247 44.704 41.02 45.9139C40.5274 46.7671 40.2681 47.7349 40.2681 48.7202C40.2681 49.7054 40.5274 50.6732 41.02 51.5264C41.706 52.7363 41.9554 52.9982 44.1381 52.9982H48.0295C48.2591 53.0096 48.4811 53.0842 48.6709 53.2139C48.8608 53.3435 49.0111 53.5231 49.1053 53.7328C49.1995 53.9425 49.2339 54.1741 49.2047 54.4022C49.1756 54.6302 49.0839 54.8457 48.94 55.0249V55.0624C47.8171 56.1462 46.534 57.0506 45.1359 57.7439C43.3273 58.634 41.3508 59.1314 39.3362 59.2032C37.9561 59.1845 36.5933 58.8921 35.3269 58.3429C34.0606 57.7938 32.9158 56.9988 31.9588 56.004C31.2752 55.3383 30.3568 54.9685 29.4026 54.9748C28.4483 54.9812 27.535 55.3631 26.8602 56.0378C26.1855 56.7126 25.8036 57.6259 25.7973 58.5802C25.7909 59.5344 26.1607 60.4528 26.8264 61.1364" fill="#E30613"/>
<path d="M192.941 48.017C194.294 48.017 195.005 47.2063 195.005 45.853C195.005 44.4998 194.294 43.6953 192.941 43.6953H181.236C179.882 43.6953 179.209 44.4998 179.209 45.853C179.209 47.2063 179.882 48.017 181.236 48.017H184.871V59.1361C184.871 60.6016 185.582 61.2377 187.085 61.2377C188.588 61.2377 189.343 60.6141 189.343 59.1361V48.017H192.941Z" fill="#E30613"/>
<path d="M229.273 46.2864C229.326 46.0817 229.364 45.8732 229.385 45.6628C229.423 44.4155 228.375 43.7046 226.947 43.6672C225.519 43.6298 225.145 44.4966 224.764 45.4008L224.035 47.7145C223.324 49.629 222.382 50.0842 220.879 50.0842H218.59V45.9309C218.59 44.5777 218.098 43.7108 216.37 43.7108C214.643 43.7108 214.119 44.5777 214.119 45.9309V59.0269C214.119 60.6421 214.911 61.2782 216.296 61.2782C217.948 61.2782 218.59 60.5673 218.59 58.9521V53.9631H220.917C222.644 53.9631 223.698 54.3747 224.371 56.5137L225.307 59.4073C225.644 60.3116 225.98 61.247 227.408 61.247C228.837 61.247 229.903 60.6234 229.903 59.3762C229.916 59.1655 229.89 58.9542 229.828 58.7525L228.668 55.4099C228.045 53.6825 227.421 52.5163 225.7 51.9551C227.165 51.3876 227.764 50.3399 228.369 48.6873L229.273 46.2864Z" fill="#E30613"/>
<path d="M203.685 61.2353C207.963 61.2353 210.894 59.0152 210.894 54.3755V50.6338C210.894 46.044 208.001 43.668 203.835 43.668H198.534C198.005 43.7125 197.515 43.9642 197.17 44.3683C196.826 44.7724 196.655 45.2962 196.695 45.8257C196.669 46.0894 196.697 46.3556 196.776 46.6084C196.855 46.8612 196.984 47.0955 197.156 47.2974C197.328 47.4992 197.538 47.6645 197.775 47.7835C198.012 47.9024 198.27 47.9725 198.534 47.9897H203.573C205.525 47.9897 206.348 48.9064 206.386 50.559H200.867C199.513 50.559 198.728 51.1826 198.728 52.4298C198.728 53.8953 199.513 54.3007 200.867 54.3007H206.386C206.311 55.7662 205.6 57.0197 203.611 57.0197H198.347C198.087 57.0305 197.831 57.094 197.596 57.2064C197.361 57.3188 197.151 57.4777 196.979 57.6736C196.807 57.8695 196.677 58.0982 196.595 58.346C196.514 58.5938 196.485 58.8554 196.508 59.115C196.485 59.3776 196.517 59.642 196.6 59.8921C196.683 60.1422 196.816 60.3728 196.991 60.5699C197.166 60.767 197.379 60.9265 197.618 61.0388C197.856 61.151 198.115 61.2136 198.378 61.2229L203.685 61.2353Z" fill="#E30613"/>
</g>
</svg>
