<svg width="250" height="100" viewBox="0 0 250 100" fill="none" xmlns="http://www.w3.org/2000/svg">
<g style="mix-blend-mode:luminosity" opacity="0.4">
<path d="M101.31 36.5054H113.844C114.009 36.5054 114.174 36.3396 114.174 36.1747V33.9992C114.174 33.8343 114.009 33.6687 113.844 33.6687H98.5199C98.355 33.6687 98.1895 33.8343 98.1895 33.9992V49.8856C98.1895 50.0512 98.3544 50.2167 98.5199 50.2167H100.979C101.144 50.2167 101.31 50.0512 101.31 49.8856V36.5054Z" fill="#222222"/>
<path d="M119.268 36.5054H132.129C132.294 36.5054 132.46 36.3396 132.46 36.1747V33.9992C132.46 33.8343 132.294 33.6687 132.129 33.6687H116.526C116.361 33.6687 116.195 33.8343 116.195 33.9992V49.8856C116.195 50.0512 116.361 50.2167 116.526 50.2167H132.129C132.294 50.2167 132.46 50.0512 132.46 49.8856V47.7107C132.46 47.5452 132.294 47.3796 132.129 47.3796H119.268V43.361H129.197C129.363 43.361 129.529 43.1954 129.529 43.0298V40.855C129.529 40.6894 129.363 40.5236 129.197 40.5236H119.268V36.5052V36.5054Z" fill="#222222"/>
<path d="M137.138 40.5238V33.9992C137.138 33.8343 136.972 33.6687 136.807 33.6687H134.395C134.23 33.6687 134.064 33.8343 134.064 33.9992V49.8856C134.064 50.0512 134.23 50.2167 134.395 50.2167H136.807C136.972 50.2167 137.138 50.0512 137.138 49.8856V43.361H147.019V49.8856C147.019 50.0512 147.184 50.2167 147.35 50.2167H149.761C149.927 50.2167 150.093 50.0512 150.093 49.8856V33.9992C150.093 33.8343 149.927 33.6687 149.761 33.6687H147.35C147.184 33.6687 147.019 33.8343 147.019 33.9992V40.5238H137.138Z" fill="#222222"/>
<path d="M155.268 36.5054H168.129C168.294 36.5054 168.46 36.3396 168.46 36.1747V33.9992C168.46 33.8343 168.294 33.6687 168.129 33.6687H152.526C152.361 33.6687 152.195 33.8343 152.195 33.9992V49.8856C152.195 50.0512 152.361 50.2167 152.526 50.2167H168.129C168.294 50.2167 168.46 50.0512 168.46 49.8856V47.7107C168.46 47.5452 168.294 47.3796 168.129 47.3796H155.268V43.361H165.197C165.363 43.361 165.529 43.1954 165.529 43.0298V40.855C165.529 40.6894 165.363 40.5236 165.197 40.5236H155.268V36.5052V36.5054Z" fill="#222222"/>
<path d="M191.147 45.7016V33.9992C191.147 33.8343 190.982 33.6687 190.817 33.6687H188.405C188.24 33.6687 188.074 33.8343 188.074 33.9992V49.8856C188.074 50.0512 188.24 50.2167 188.405 50.2167H190.415C190.698 50.2167 190.864 50.1221 191.053 49.9093L201.029 38.1838V49.8856C201.029 50.0512 201.195 50.2167 201.36 50.2167H203.772C203.937 50.2167 204.102 50.0512 204.102 49.8856V33.9992C204.102 33.8343 203.937 33.6687 203.772 33.6687H201.762C201.478 33.6687 201.313 33.7627 201.124 33.9761L191.147 45.7016H191.147Z" fill="#222222"/>
<path d="M180.715 40.5715C182.724 40.5715 183.386 39.3895 183.386 38.4205C183.386 37.3088 182.511 36.5054 181.164 36.5054H175.703C175.206 36.5054 174.403 36.5524 173.883 36.9783C173.741 37.0963 173.292 37.4746 173.292 38.184V38.3729C173.292 38.5384 173.126 38.704 172.961 38.704H170.549C170.384 38.704 170.219 38.5384 170.219 38.3729V38.0655C170.219 36.2689 171.117 35.2525 171.542 34.8744C172.724 33.8105 174.379 33.6687 175.419 33.6687H181.802C185.206 33.6687 186.601 36.1032 186.578 38.0894C186.555 39.5234 185.874 41.0457 184.261 41.8953C185.874 42.7447 186.558 44.3616 186.578 45.7958C186.604 47.7819 185.206 50.2169 181.802 50.2169H175.419C174.379 50.2169 172.724 50.0751 171.542 49.0113C171.117 48.6329 170.219 47.6163 170.219 45.8195V45.5121C170.219 45.3466 170.384 45.1814 170.549 45.1814H172.961C173.126 45.1814 173.292 45.3466 173.292 45.5121V45.7016C173.292 46.4106 173.741 46.7887 173.883 46.9073C174.403 47.3326 175.206 47.3798 175.703 47.3798H181.164C182.511 47.3798 183.386 46.5762 183.386 45.4651C183.386 44.4959 182.724 43.3135 180.715 43.3135H174.474C174.308 43.3135 174.143 43.1478 174.143 42.9828V41.8951V40.902C174.143 40.737 174.308 40.5715 174.474 40.5715H180.715Z" fill="#222222"/>
<path d="M98.5199 53.7068C98.355 53.7068 98.1895 53.8723 98.1895 54.0379V69.9243C98.1895 70.0893 98.355 70.2548 98.5199 70.2548H100.932C101.097 70.2548 101.263 70.0893 101.263 69.9243V56.5439H111.144V69.9243C111.144 70.0893 111.309 70.2548 111.475 70.2548H113.886C114.052 70.2548 114.218 70.0893 114.218 69.9243V54.0379C114.218 53.8723 114.052 53.7068 113.886 53.7068C108.919 53.7068 103.488 53.7068 98.5199 53.7068Z" fill="#222222"/>
<path d="M116.526 53.7072C116.361 53.7072 116.195 53.8728 116.195 54.0383V69.9247C116.195 70.0897 116.361 70.2552 116.526 70.2552H118.938C119.103 70.2552 119.268 70.0897 119.268 69.9247V63.7782H127.023C128.063 63.7782 129.717 63.6359 130.9 62.5725C131.325 62.1938 132.223 61.1776 132.223 59.3808C132.223 58.7502 132.223 58.7348 132.223 58.1042C132.223 56.3076 131.325 55.2908 130.9 54.9125C129.717 53.8486 128.063 53.7068 127.023 53.7068H124.008H116.527L116.526 53.7072ZM119.268 60.9413V56.5445H124.008H126.739C127.235 56.5445 128.039 56.5915 128.56 57.0175C128.701 57.1354 129.15 57.5137 129.15 58.2227C129.15 58.7548 129.15 58.7315 129.15 59.2629C129.15 59.9723 128.701 60.3506 128.56 60.4685C128.04 60.8943 127.235 60.9415 126.739 60.9415H119.269L119.268 60.9413Z" fill="#222222"/>
<path d="M141.877 70.255H139.265C138.225 70.255 136.57 70.1132 135.388 69.0493C134.963 68.6716 134.064 67.6548 134.064 65.8582C134.064 63.2734 134.064 60.6892 134.064 58.1042C134.064 56.3076 134.963 55.2908 135.388 54.9125C136.57 53.8486 138.225 53.7068 139.265 53.7068H141.877H144.891C145.932 53.7068 147.586 53.8486 148.768 54.9125C149.194 55.2908 150.093 56.3074 150.093 58.1042C150.093 60.6892 150.093 63.2734 150.093 65.8582C150.093 67.6548 149.194 68.6718 148.768 69.0493C147.586 70.1132 145.932 70.255 144.891 70.255H141.877ZM141.877 56.5441H139.548C139.053 56.5441 138.248 56.5911 137.729 57.0171C137.587 57.135 137.138 57.5133 137.138 58.2223C137.138 60.7283 137.138 63.2343 137.138 65.7405C137.138 66.4493 137.587 66.8277 137.729 66.9456C138.248 67.3713 139.052 67.4185 139.548 67.4185H141.877H144.608C145.104 67.4185 145.908 67.3715 146.428 66.9456C146.57 66.8277 147.019 66.4493 147.019 65.7405C147.019 63.2343 147.019 60.7283 147.019 58.2223C147.019 57.5133 146.569 57.1352 146.428 57.0171C145.908 56.5913 145.104 56.5441 144.608 56.5441H141.877Z" fill="#222222"/>
<path d="M155.268 56.5439H168.129C168.294 56.5439 168.46 56.3783 168.46 56.2128V54.0379C168.46 53.8723 168.294 53.7068 168.129 53.7068H152.526C152.361 53.7068 152.195 53.8723 152.195 54.0379V69.9243C152.195 70.0893 152.361 70.2548 152.526 70.2548H168.129C168.294 70.2548 168.46 70.0893 168.46 69.9243V67.7494C168.46 67.5837 168.294 67.4181 168.129 67.4181H155.268V63.3995H165.197C165.363 63.3995 165.529 63.2339 165.529 63.0684V60.8935C165.529 60.7279 165.363 60.5624 165.197 60.5624H155.268V56.5437V56.5439Z" fill="#222222"/>
<path d="M197.649 56.5439H203.772C203.937 56.5439 204.103 56.3783 204.103 56.2128V54.0379C204.103 53.8723 203.937 53.7068 203.772 53.7068C198.154 53.7068 193.745 53.7068 188.405 53.7068C188.24 53.7068 188.074 53.8723 188.074 54.0379V56.2128C188.074 56.3783 188.24 56.5439 188.405 56.5439H194.528V69.9243C194.528 70.0893 194.694 70.2548 194.859 70.2548H197.318C197.483 70.2548 197.649 70.0893 197.649 69.9243V56.5439H197.649Z" fill="#222222"/>
<path d="M173.294 60.5626V54.0379C173.294 53.8723 173.128 53.7068 172.963 53.7068H170.552C170.386 53.7068 170.221 53.8723 170.221 54.0379V69.9243C170.221 70.0899 170.386 70.2554 170.552 70.2554H172.963C173.128 70.2554 173.294 70.0899 173.294 69.9243V63.3997H181.072C181.662 63.3997 182.395 63.6831 182.821 64.1324C183.175 64.5107 183.388 65.1253 183.388 65.6694V69.9243C183.388 70.0899 183.554 70.2554 183.72 70.2554H186.13C186.297 70.2554 186.462 70.0899 186.462 69.9243V65.456C186.462 64.534 186.177 63.6832 185.682 63.0686C184.154 61.1603 182.522 60.5626 180.386 60.5626H173.294H173.294Z" fill="#222222"/>
<path d="M181.07 60.5624C181.661 60.5624 182.394 60.2789 182.82 59.8296C183.174 59.4513 183.387 58.8367 183.387 58.2928V54.0379C183.387 53.8723 183.553 53.7068 183.719 53.7068H186.13C186.296 53.7068 186.461 53.8723 186.461 54.0379V58.506C186.461 59.428 186.177 60.2789 185.681 60.8935C184.321 62.5925 182.878 63.2526 181.071 63.3768V60.5624H181.07Z" fill="#222222"/>
<path d="M209.372 38.0894C209.529 37.1537 210.357 36.5054 211.566 36.5054H217.028C217.524 36.5054 218.327 36.5524 218.847 36.9783C218.989 37.0963 219.439 37.4746 219.439 38.184V38.3729C219.439 38.5384 219.604 38.704 219.769 38.704H222.181C222.347 38.704 222.512 38.5384 222.512 38.3729V38.0655C222.512 36.2689 221.613 35.2525 221.188 34.8744C220.006 33.8105 218.351 33.6687 217.311 33.6687H210.928C207.524 33.6687 206.129 36.1032 206.153 38.0894V45.7958C206.126 47.7812 207.524 50.2169 210.928 50.2169H217.311C218.351 50.2169 220.006 50.0751 221.188 49.0108C221.613 48.6331 222.512 47.6163 222.512 45.8197V45.5128C222.512 45.3468 222.347 45.1816 222.181 45.1816H219.769C219.604 45.1816 219.439 45.3468 219.439 45.5128V45.7016C219.439 46.4106 218.989 46.7894 218.847 46.9073C218.327 47.3326 217.524 47.3798 217.028 47.3798H211.566C210.357 47.3798 209.529 46.7322 209.372 45.7958V38.0894Z" fill="#222222"/>
<path fill-rule="evenodd" clip-rule="evenodd" d="M57.7846 20.4304C60.7295 20.4304 63.574 20.8603 66.2608 21.6564V34.2986L49.3077 34.298V21.6558C51.9946 20.8597 54.839 20.4304 57.7846 20.4304V20.4304ZM67.8175 22.1645C69.9963 22.9442 72.0575 23.9695 73.9688 25.2087V34.2984H67.8175V22.1645ZM75.5249 26.2895C76.925 27.3296 78.2315 28.4899 79.4282 29.755L75.5249 33.2567V26.2895ZM80.4624 30.9084C84.8932 36.1074 87.5688 42.8483 87.5688 50.2148C87.5688 60.0169 82.8329 68.7132 75.5249 74.1403V66.132V40.0816L66.2608 48.3936V66.132V78.7734C63.574 79.5695 60.7295 79.9994 57.7846 79.9994C54.8392 79.9994 51.9948 79.5701 49.3077 78.7738V66.1318V58.8612L80.4622 30.9084H80.4624ZM73.9688 75.2212C72.0577 76.4603 69.9965 77.486 67.8175 78.2653V60.2579L73.9688 65.7768V75.2212ZM47.7519 78.2657C45.5727 77.486 43.5112 76.4603 41.6004 75.2212V65.7768L47.7519 60.2573V78.2657ZM40.0441 74.1403C38.6436 73.1002 37.3375 71.9395 36.1408 70.6748L40.0441 67.1731V74.1403ZM35.1063 69.5214C30.6752 64.3228 28 57.5819 28 50.215C28 47.9279 28.2587 45.7011 28.7468 43.5619H40.0441V45.9804V65.0913L35.1063 69.5214ZM29.1462 42.0058C29.7645 39.8445 30.6217 37.7843 31.6864 35.8539H40.0443V42.0058H29.1464H29.1462ZM32.6071 34.2984C34.5747 31.1925 37.1006 28.4762 40.0441 26.2895V34.2978V34.2984H32.6071ZM41.6004 25.2087C43.5108 23.9695 45.5727 22.9444 47.7519 22.1645V34.2978H41.6004V25.2087ZM64.0399 43.5619H63.0622H49.3079V56.7796L64.0399 43.5619Z" fill="#D6282A"/>
</g>
</svg>
