<svg width="250" height="100" viewBox="0 0 250 100" fill="none" xmlns="http://www.w3.org/2000/svg">
<g style="mix-blend-mode:luminosity" opacity="0.4">
<path d="M49.5263 34.7795C49.5263 33.3422 48.3635 32.177 46.9292 32.177C45.4948 32.177 44.332 33.3422 44.332 34.7795V57.2661C44.332 58.7034 45.4948 59.8685 46.9292 59.8685C48.3635 59.8685 49.5263 58.7034 49.5263 57.2661V34.7795Z" fill="#00A453"/>
<path fill-rule="evenodd" clip-rule="evenodd" d="M52.0204 69.4691C52.4453 69.4812 52.8643 69.368 53.2256 69.1437C53.5869 68.9193 53.8746 68.5937 54.0529 68.2071L68.0462 38.1176L82.0308 68.1461C82.2106 68.5363 82.5016 68.8643 82.8672 69.0889C83.2328 69.3135 83.6566 69.4246 84.0851 69.4082H143.085C143.366 69.4211 143.647 69.3768 143.91 69.2779C144.173 69.1791 144.414 69.0278 144.617 68.8331C144.821 68.6385 144.982 68.4046 145.093 68.1455C145.204 67.8864 145.261 67.6076 145.261 67.3258C145.261 67.044 145.204 66.7652 145.093 66.5061C144.982 66.247 144.821 66.0131 144.617 65.8185C144.414 65.6238 144.173 65.4725 143.91 65.3737C143.647 65.2748 143.366 65.2305 143.085 65.2434H85.4879L70.1222 32.2077C69.9444 31.8222 69.653 31.5004 69.2873 31.2857C68.9217 31.071 68.4992 30.9736 68.0766 31.0065C67.6364 30.9746 67.1969 31.0779 66.8167 31.3026C66.4365 31.5273 66.1336 31.8627 65.9485 32.2642L50.5785 65.3087H23.7732C23.2227 65.3087 22.6946 65.5278 22.3053 65.918C21.916 66.3081 21.6973 66.8372 21.6973 67.3889C21.6973 67.9406 21.916 68.4697 22.3053 68.8599C22.6946 69.25 23.2227 69.4691 23.7732 69.4691H52.003H52.0204Z" fill="black"/>
<path fill-rule="evenodd" clip-rule="evenodd" d="M23.5564 32.177C23.0059 32.177 22.4778 32.3962 22.0885 32.7863C21.6992 33.1764 21.4805 33.7055 21.4805 34.2572V57.7839C21.4805 58.3356 21.6992 58.8648 22.0885 59.2549C22.4778 59.645 23.0059 59.8642 23.5564 59.8642H23.7649C24.3159 59.8642 24.8444 59.6451 25.2344 59.2551C25.6244 58.8652 25.8441 58.336 25.8452 57.7839V48.2096H38.3098C38.5824 48.2096 38.8523 48.1558 39.1042 48.0513C39.3561 47.9467 39.5849 47.7935 39.7777 47.6003C39.9705 47.4072 40.1234 47.1778 40.2277 46.9255C40.332 46.6731 40.3857 46.4026 40.3857 46.1294V45.9205C40.3857 45.6473 40.332 45.3768 40.2277 45.1244C40.1234 44.872 39.9705 44.6427 39.7777 44.4495C39.5849 44.2564 39.3561 44.1031 39.1042 43.9986C38.8523 43.8941 38.5824 43.8403 38.3098 43.8403H25.8452V34.2659C25.8458 33.9918 25.7924 33.7203 25.6881 33.4669C25.5838 33.2135 25.4307 32.9831 25.2375 32.7891C25.0442 32.5951 24.8147 32.4411 24.562 32.3361C24.3093 32.2311 24.0385 32.177 23.7649 32.177H23.5564Z" fill="black"/>
<path fill-rule="evenodd" clip-rule="evenodd" d="M140.948 46.0203C140.948 47.9769 140.369 49.8896 139.284 51.5164C138.199 53.1432 136.657 54.4111 134.853 55.1597C133.049 55.9083 131.064 56.1039 129.149 55.7219C127.233 55.3398 125.474 54.3973 124.094 53.0134C122.714 51.6296 121.774 49.8666 121.393 47.9474C121.013 46.0283 121.209 44.0392 121.957 42.2317C122.705 40.4243 123.971 38.8797 125.595 37.7932C127.219 36.7068 129.128 36.1274 131.08 36.1282C132.377 36.1282 133.66 36.3841 134.857 36.8813C136.055 37.3785 137.143 38.1072 138.059 39.0258C138.976 39.9444 139.702 41.0349 140.198 42.2351C140.693 43.4352 140.948 44.7214 140.948 46.0203ZM145.104 46.0203C145.104 48.7996 144.282 51.5165 142.741 53.8274C141.2 56.1383 139.009 57.9394 136.447 59.003C133.884 60.0666 131.065 60.3449 128.344 59.8027C125.624 59.2605 123.125 57.9221 121.164 55.9569C119.203 53.9916 117.867 51.4877 117.326 48.7618C116.785 46.0358 117.063 43.2104 118.124 40.6426C119.186 38.0748 120.983 35.8801 123.289 34.336C125.595 32.7919 128.307 31.9678 131.08 31.9678C134.8 31.9678 138.367 33.4483 140.997 36.0836C143.627 38.719 145.104 42.2933 145.104 46.0203Z" fill="black"/>
<path fill-rule="evenodd" clip-rule="evenodd" d="M113.12 37.9333C112.643 36.7918 111.945 35.7564 111.066 34.887C110.185 34.0146 109.142 33.3241 107.995 32.8546C106.844 32.384 105.612 32.1416 104.369 32.1409H89.0033C88.4534 32.142 87.9265 32.3617 87.5381 32.7517C87.1498 33.1417 86.9316 33.6701 86.9316 34.2211V37.868C86.9316 38.5606 87.2062 39.2247 87.6949 39.7144C88.1836 40.2041 88.8464 40.4792 89.5375 40.4792C90.2286 40.4792 90.8914 40.2041 91.3801 39.7144C91.8688 39.2247 92.1433 38.5606 92.1433 37.868V36.3057H104.369C105.763 36.3037 107.102 36.8526 108.095 37.8332C108.584 38.3137 108.972 38.887 109.237 39.5195C109.502 40.152 109.638 40.8312 109.638 41.5172C109.638 42.2032 109.502 42.8823 109.237 43.5148C108.972 44.1474 108.584 44.7206 108.095 45.2011C107.102 46.1817 105.763 46.7306 104.369 46.7286H89.0033C88.4538 46.7286 87.9269 46.9473 87.5384 47.3367C87.1499 47.726 86.9316 48.254 86.9316 48.8045V57.2821C86.9316 57.3387 86.9316 57.3996 86.9316 57.4606C86.9316 57.5215 86.9316 57.5868 86.9316 57.6564C86.9316 58.3489 87.2062 59.0131 87.6949 59.5028C88.1836 59.9925 88.8464 60.2676 89.5375 60.2676C90.2286 60.2676 90.8914 59.9925 91.3801 59.5028C91.8688 59.0131 92.1433 58.3489 92.1433 57.6564C92.1433 57.5868 92.1433 57.5215 92.1433 57.4606C92.1433 57.3996 92.1433 57.3387 92.1433 57.2821V50.8804H104.369C105.607 50.8733 106.833 50.6265 107.978 50.1536C109.124 49.6841 110.168 48.9936 111.049 48.1213C112.371 46.8255 113.276 45.1621 113.645 43.3459C114.014 41.5297 113.831 39.6443 113.12 37.9333Z" fill="#00A453"/>
<path d="M68.2305 55.2952C68.7765 55.2946 69.3172 55.4019 69.8217 55.611C70.3263 55.8201 70.7847 56.1269 71.1707 56.5137C71.5568 56.9006 71.8629 57.3599 72.0716 57.8655C72.2803 58.3711 72.3874 58.9129 72.3868 59.46C72.3868 60.0067 72.2793 60.5481 72.0703 61.0531C71.8614 61.5582 71.5552 62.017 71.1692 62.4034C70.7832 62.7898 70.325 63.0962 69.8207 63.305C69.3165 63.5139 68.7761 63.621 68.2305 63.6205C67.1289 63.6205 66.0724 63.1823 65.2931 62.4022C64.5138 61.622 64.0754 60.5638 64.0742 59.46C64.0742 58.3554 64.5121 57.2961 65.2916 56.515C66.071 55.734 67.1282 55.2952 68.2305 55.2952Z" fill="#00A453"/>
<path d="M159.038 31.7375H160.31V38.2654H159.038V35.5541H156.623V38.2567H155.342V31.7288H156.623V34.3399H159.038V31.7375Z" fill="black"/>
<path d="M165.7 38.2557L165.309 37.0807H162.704L162.317 38.2557H160.932L163.207 31.7278H164.801L167.086 38.2557H165.7ZM163.129 35.8796H164.91L164.02 33.2205L163.129 35.8796Z" fill="black"/>
<path d="M172.584 37.0241H173.279V39.5004H171.998V38.2557H167.725V31.7278H169.006V37.0241H171.316V31.7365H172.598L172.584 37.0241Z" fill="black"/>
<path d="M177.9 38.2567V34.279L175.116 38.2567H174.139V31.7288H175.42V35.7152L178.208 31.7288H179.181V38.2567H177.9Z" fill="black"/>
<path d="M185.86 37.4089C185.388 37.8875 184.784 38.2141 184.126 38.3465C183.468 38.479 182.785 38.4113 182.165 38.1523C181.545 37.8932 181.017 37.4545 180.648 36.8925C180.278 36.3305 180.085 35.6707 180.093 34.9979C180.082 34.5521 180.164 34.109 180.331 33.6958C180.498 33.2826 180.748 32.9082 181.066 32.5956C181.704 31.9704 182.561 31.6204 183.454 31.6204C184.347 31.6204 185.204 31.9704 185.843 32.5956C186.163 32.9068 186.416 33.2806 186.585 33.6939C186.755 34.1072 186.838 34.5511 186.829 34.9979C186.839 35.4446 186.759 35.8888 186.592 36.3034C186.426 36.7179 186.177 37.0941 185.86 37.4089ZM181.951 36.5385C182.355 36.9217 182.89 37.1353 183.445 37.1353C184.001 37.1353 184.536 36.9217 184.939 36.5385C185.14 36.3374 185.296 36.0973 185.4 35.8331C185.504 35.5688 185.553 35.286 185.543 35.0022C185.553 34.7184 185.504 34.4356 185.4 34.1714C185.296 33.9071 185.14 33.667 184.939 33.466C184.536 33.0827 184.001 32.8691 183.445 32.8691C182.89 32.8691 182.355 33.0827 181.951 33.466C181.751 33.667 181.594 33.9071 181.491 34.1714C181.387 34.4356 181.338 34.7184 181.348 35.0022C181.341 35.2866 181.393 35.5693 181.5 35.8328C181.606 36.0963 181.766 36.335 181.969 36.5341L181.951 36.5385Z" fill="black"/>
<path d="M191.44 31.7375H192.713V38.2654H191.44V35.5541H189.025V38.2567H187.744V31.7288H189.025V34.3399H191.44V31.7375Z" fill="black"/>
<path d="M198.105 38.2557L197.714 37.0807H195.108L194.717 38.2557H193.336L195.612 31.7278H197.201L199.486 38.2557H198.105ZM195.529 35.8796H197.314L196.424 33.2205L195.529 35.8796Z" fill="black"/>
<path d="M199.697 38.2558V37.0634C199.85 37.1028 200.01 37.1019 200.163 37.0607C200.315 37.0195 200.454 36.9394 200.566 36.8284C200.802 36.4621 200.904 36.0257 200.857 35.5924V31.7366H205.278V38.2645H204.006V32.9682H202.129V35.5532C202.141 36.0371 202.072 36.5196 201.925 36.9807C201.825 37.3207 201.627 37.6235 201.356 37.8511C201.135 38.032 200.875 38.16 200.596 38.2253C200.3 38.2831 199.997 38.2934 199.697 38.2558Z" fill="black"/>
<path d="M208.902 33.8786C209.195 33.8723 209.486 33.9253 209.757 34.0345C210.029 34.1437 210.276 34.3068 210.483 34.514C210.691 34.7149 210.855 34.9565 210.966 35.2238C211.076 35.4911 211.131 35.7783 211.126 36.0677C211.131 36.357 211.076 36.6443 210.966 36.9116C210.855 37.1789 210.691 37.4205 210.483 37.6213C210.276 37.8285 210.029 37.9916 209.757 38.1008C209.486 38.21 209.195 38.263 208.902 38.2567H206.496V31.7288H207.799V33.8786H208.902ZM208.902 37.0556C209.029 37.0584 209.155 37.0351 209.272 36.9872C209.389 36.9393 209.495 36.8678 209.584 36.777C209.673 36.6824 209.743 36.571 209.789 36.4493C209.836 36.3276 209.857 36.1979 209.853 36.0677C209.857 35.9395 209.835 35.8118 209.789 35.6923C209.743 35.5727 209.673 35.4636 209.584 35.3713C209.499 35.2753 209.394 35.1994 209.276 35.149C209.158 35.0986 209.03 35.0749 208.902 35.0798H207.76V37.0556H208.902Z" fill="black"/>
<path d="M215.652 31.7365H216.916V38.2644H215.643V35.5532H213.228V38.2557H211.947V31.7278H213.228V34.339H215.643L215.652 31.7365Z" fill="black"/>
<path d="M222.316 38.2557L221.925 37.0807H219.319L218.928 38.2557H217.547L219.823 31.7278H221.408L223.692 38.2557H222.316ZM219.74 35.8796H221.525L220.635 33.2205L219.74 35.8796Z" fill="black"/>
<path d="M229 31.7366V38.2645H227.719V36.0015H226.985L225.491 38.2645H224.049L225.638 35.8622C225.23 35.7187 224.876 35.4509 224.626 35.0963C224.371 34.7534 224.233 34.3363 224.236 33.9082C224.231 33.624 224.284 33.3418 224.393 33.0791C224.501 32.8163 224.662 32.5787 224.865 32.3807C225.064 32.1757 225.303 32.0135 225.566 31.9043C225.83 31.795 226.113 31.7409 226.398 31.7453L229 31.7366ZM226.394 34.8656H227.697V32.9377H226.394C226.276 32.9378 226.16 32.963 226.053 33.0118C225.946 33.0606 225.85 33.1318 225.773 33.2206C225.687 33.3109 225.62 33.4174 225.575 33.5339C225.53 33.6504 225.509 33.7747 225.512 33.8995C225.508 34.1538 225.601 34.4001 225.773 34.5871C225.851 34.6759 225.947 34.7467 226.055 34.7948C226.163 34.8429 226.28 34.867 226.398 34.8656H226.394Z" fill="black"/>
<path d="M159.523 48.618L159.132 47.443H156.526L156.135 48.618H154.75L157.026 42.0901H158.615L160.9 48.618H159.523ZM156.948 46.2375H158.72L157.851 43.5785L156.948 46.2375Z" fill="black"/>
<path d="M164.398 48.7494C163.948 48.7635 163.499 48.6838 163.081 48.5152C162.664 48.3467 162.285 48.093 161.97 47.7702C161.657 47.4538 161.411 47.077 161.246 46.6626C161.082 46.2483 161.003 45.8049 161.015 45.3592C161.014 44.7707 161.167 44.1923 161.458 43.681C161.749 43.1697 162.168 42.7432 162.673 42.4436C163.179 42.1439 163.754 41.9815 164.341 41.9723C164.928 41.9632 165.508 42.1075 166.022 42.3912C166.507 42.6475 166.911 43.0331 167.191 43.5053L166.105 44.1494C165.947 43.8611 165.708 43.6252 165.419 43.4705C165.112 43.2997 164.766 43.2127 164.415 43.2181C164.133 43.206 163.85 43.2528 163.587 43.3554C163.323 43.458 163.083 43.6142 162.882 43.8143C162.684 44.0196 162.528 44.2631 162.426 44.5301C162.324 44.7972 162.277 45.0821 162.287 45.3679C162.276 45.6497 162.321 45.9309 162.421 46.1948C162.52 46.4587 162.671 46.6999 162.865 46.9042C163.066 47.1042 163.305 47.2605 163.569 47.3631C163.833 47.4657 164.115 47.5125 164.398 47.5004C164.747 47.5045 165.092 47.4207 165.401 47.2567C165.699 47.1024 165.943 46.8631 166.105 46.5691L167.208 47.2132C166.929 47.6852 166.529 48.0731 166.048 48.336C165.543 48.6146 164.975 48.757 164.398 48.7494Z" fill="black"/>
<path d="M170.999 48.7485C170.55 48.7623 170.102 48.6824 169.685 48.5139C169.268 48.3453 168.89 48.0918 168.576 47.7694C168.262 47.4529 168.016 47.0761 167.852 46.6618C167.688 46.2474 167.609 45.8041 167.62 45.3584C167.621 44.7711 167.774 44.194 168.064 43.6839C168.355 43.1738 168.772 42.7482 169.277 42.4488C169.781 42.1494 170.354 41.9866 170.94 41.9763C171.526 41.9661 172.105 42.1088 172.619 42.3903C173.106 42.6452 173.512 43.031 173.792 43.5044L172.684 44.1485C172.527 43.8593 172.289 43.6231 171.998 43.4696C171.692 43.2979 171.346 43.2108 170.995 43.2172C170.712 43.2059 170.43 43.253 170.166 43.3556C169.903 43.4582 169.663 43.614 169.462 43.8134C169.268 44.0213 169.118 44.2659 169.021 44.5327C168.923 44.7995 168.879 45.0832 168.893 45.3671C168.882 45.6485 168.927 45.9292 169.025 46.193C169.123 46.4568 169.273 46.6983 169.466 46.9033C169.802 47.2146 170.226 47.4153 170.679 47.4783C171.132 47.5413 171.594 47.4637 172.002 47.2558C172.294 47.1037 172.533 46.8671 172.689 46.5769L173.796 47.221C173.511 47.6922 173.105 48.0772 172.619 48.3351C172.123 48.6081 171.565 48.7504 170.999 48.7485Z" fill="black"/>
<path d="M180.001 47.7705C179.53 48.251 178.926 48.5794 178.267 48.7135C177.608 48.8476 176.924 48.7814 176.302 48.5232C175.681 48.265 175.151 47.8268 174.78 47.2646C174.409 46.7025 174.215 46.0421 174.221 45.3682C174.224 44.8131 174.364 44.2673 174.627 43.7789C174.891 43.2905 175.27 42.8745 175.732 42.5676C176.193 42.2607 176.723 42.0723 177.275 42.0189C177.826 41.9655 178.382 42.0488 178.894 42.2615C179.406 42.4742 179.858 42.8097 180.209 43.2385C180.561 43.6673 180.803 44.1762 180.912 44.7205C181.021 45.2647 180.996 45.8275 180.837 46.3594C180.678 46.8913 180.391 47.3759 180.001 47.7705ZM176.093 46.9001C176.499 47.2977 177.047 47.5172 177.615 47.5103C178.183 47.5034 178.725 47.2706 179.122 46.8631C179.519 46.4557 179.738 45.907 179.731 45.3377C179.724 44.7685 179.492 44.2253 179.085 43.8276C178.681 43.4431 178.146 43.2287 177.589 43.2287C177.032 43.2287 176.496 43.4431 176.093 43.8276C175.705 44.2449 175.489 44.7938 175.489 45.3639C175.489 45.934 175.705 46.4829 176.093 46.9001Z" fill="black"/>
<path d="M186.734 47.3864H187.433V49.8627H186.131V48.618H181.861V42.0901H183.143V47.3864H185.436V42.0988H186.717L186.734 47.3864Z" fill="black"/>
<path d="M192.053 48.618V44.6403L189.264 48.618H188.287V42.0901H189.555V46.0765L192.344 42.0901H193.321V48.618H192.053Z" fill="black"/>
<path d="M198.72 48.618L198.329 47.443H195.723L195.337 48.618H193.951L196.227 42.0901H197.816L200.101 48.618H198.72ZM196.144 46.2375H197.929L197.061 43.5785L196.144 46.2375Z" fill="black"/>
<path d="M205.626 47.3864H206.321V49.8627H205.018V48.618H200.744V42.0901H202.025V47.3864H204.323V42.0988H205.626V47.3864Z" fill="black"/>
<path d="M210.919 48.618V44.6403L208.131 48.618H207.158V42.0901H208.461V46.0765L211.249 42.0901H212.222V48.618H210.919Z" fill="black"/>
<path d="M217.998 42.0979V48.6258H216.695V46.3628H215.961L214.467 48.6258H213.029L214.632 46.2366C214.224 46.092 213.87 45.8245 213.62 45.4707C213.365 45.1275 213.228 44.7106 213.229 44.2826C213.229 43.7055 213.458 43.152 213.865 42.7439C214.272 42.3359 214.825 42.1066 215.401 42.1066L217.998 42.0979ZM215.392 45.227H216.695V43.299H215.392C215.274 43.2985 215.156 43.3234 215.048 43.3723C214.941 43.4211 214.844 43.4926 214.767 43.5819C214.681 43.6726 214.615 43.7792 214.571 43.8957C214.527 44.0122 214.506 44.1363 214.51 44.2608C214.504 44.5146 214.596 44.761 214.767 44.9484C214.845 45.0378 214.942 45.109 215.051 45.157C215.16 45.2051 215.277 45.229 215.396 45.227H215.392Z" fill="black"/>
<path d="M157.765 52.4618C158.058 52.4555 158.349 52.5085 158.62 52.6177C158.892 52.7269 159.139 52.89 159.346 53.0972C159.755 53.5105 159.985 54.0689 159.985 54.6509C159.985 55.2329 159.755 55.7913 159.346 56.2045C159.139 56.4117 158.892 56.5748 158.62 56.684C158.349 56.7932 158.058 56.8462 157.765 56.8399H156.623V58.9811H155.342V52.4531L157.765 52.4618ZM157.765 55.6388C157.891 55.6418 158.016 55.6186 158.133 55.5706C158.25 55.5227 158.355 55.4511 158.443 55.3602C158.624 55.1691 158.722 54.9142 158.716 54.6509C158.721 54.5203 158.699 54.3901 158.652 54.2682C158.605 54.1463 158.534 54.0352 158.443 53.9415C158.355 53.8507 158.25 53.779 158.133 53.7311C158.016 53.6832 157.891 53.66 157.765 53.663H156.623V55.6388H157.765Z" fill="black"/>
<path d="M164.341 58.9813L163.95 57.8063H161.344L160.954 58.9813H159.59L161.866 52.4534H163.451L165.74 58.9813H164.341ZM161.761 56.6051H163.546L162.656 53.9417L161.761 56.6051Z" fill="black"/>
<path d="M169.809 55.6085C170.099 55.7459 170.341 55.9658 170.506 56.2406C170.672 56.5153 170.753 56.8329 170.739 57.1534C170.746 57.4244 170.69 57.6934 170.576 57.9389C170.461 58.1845 170.291 58.3998 170.079 58.5678C169.594 58.9435 168.993 59.1362 168.38 59.1118C167.173 59.1118 166.365 58.5997 165.957 57.5755L167.06 56.9489C167.132 57.235 167.302 57.4868 167.54 57.6602C167.778 57.8337 168.069 57.9177 168.363 57.8976C168.65 57.9167 168.934 57.8385 169.171 57.6756C169.258 57.6009 169.328 57.5081 169.376 57.4037C169.424 57.2993 169.449 57.1857 169.449 57.0707C169.449 56.9558 169.424 56.8422 169.376 56.7378C169.328 56.6333 169.258 56.5406 169.171 56.4658C168.944 56.3029 168.668 56.2244 168.389 56.2438H167.581V55.0993H168.194C168.461 55.1145 168.726 55.0427 168.949 54.8947C169.031 54.8246 169.097 54.7382 169.144 54.6409C169.19 54.5437 169.216 54.4379 169.219 54.3301C169.222 54.2224 169.203 54.1152 169.163 54.0153C169.122 53.9155 169.061 53.8252 168.984 53.7502C168.792 53.592 168.546 53.5141 168.298 53.5326C168.04 53.5232 167.787 53.5984 167.576 53.747C167.365 53.8955 167.208 54.109 167.13 54.3551L166.04 53.7197C166.229 53.2845 166.547 52.9181 166.951 52.6698C167.355 52.4215 167.825 52.3034 168.298 52.3314C168.871 52.3072 169.433 52.4928 169.879 52.8537C170.078 53.0228 170.236 53.2346 170.342 53.4735C170.448 53.7123 170.499 53.972 170.491 54.2332C170.501 54.5013 170.444 54.7676 170.325 55.0078C170.206 55.248 170.029 55.4545 169.809 55.6085Z" fill="black"/>
<path d="M175.503 55.5987C175.774 55.7387 175.999 55.953 176.153 56.2166C176.307 56.4801 176.382 56.782 176.372 57.087C176.378 57.3427 176.33 57.5969 176.23 57.832C176.129 58.0672 175.979 58.2777 175.79 58.4492C175.394 58.804 174.878 58.994 174.348 58.9802H171.59V52.4522H174.152C174.67 52.4376 175.173 52.6248 175.555 52.9744C175.741 53.136 175.89 53.3368 175.99 53.5625C176.089 53.7882 176.138 54.0332 176.133 54.28C176.141 54.5344 176.088 54.787 175.979 55.0165C175.869 55.246 175.706 55.4457 175.503 55.5987ZM174.135 53.6621H172.854V55.0982H174.135C174.227 55.1007 174.319 55.0837 174.404 55.0485C174.489 55.0133 174.566 54.9605 174.63 54.8937C174.697 54.8261 174.749 54.7459 174.784 54.6576C174.819 54.5694 174.836 54.4751 174.834 54.3801C174.837 54.2859 174.821 54.192 174.787 54.1039C174.754 54.0158 174.703 53.9351 174.639 53.8666C174.573 53.7993 174.495 53.7463 174.408 53.7111C174.322 53.6759 174.228 53.6592 174.135 53.6621ZM174.33 57.779C174.43 57.7816 174.529 57.7636 174.622 57.7262C174.715 57.6888 174.799 57.6327 174.869 57.5614C174.939 57.4874 174.995 57.4 175.031 57.3044C175.068 57.2087 175.085 57.1067 175.082 57.0044C175.085 56.9046 175.068 56.8052 175.031 56.7123C174.995 56.6195 174.939 56.5352 174.869 56.4647C174.8 56.392 174.716 56.3347 174.623 56.2965C174.53 56.2582 174.431 56.2399 174.33 56.2428H172.854V57.779H174.33Z" fill="black"/>
<path d="M180.958 58.9813V55.0036L178.17 58.9813H177.197V52.4534H178.478V56.4398L181.267 52.4534H182.24V58.9813H180.958Z" fill="black"/>
<path d="M187.748 52.4612V53.6928H186.011V58.9804H184.708V53.6928H182.971V52.4612H187.748Z" fill="black"/>
<path d="M192.222 58.9813V55.0036L189.438 58.9813H188.461V52.4534H189.742V56.4398L192.53 52.4534H193.503V58.9813H192.222Z" fill="black"/>
<path d="M199.302 52.4606V58.9885H198.021V56.7255H197.287L195.789 58.9885H194.334L195.919 56.5862C195.516 56.4362 195.169 56.1658 194.925 55.8116C194.671 55.468 194.535 55.051 194.538 54.6235C194.538 54.0464 194.767 53.4929 195.174 53.0848C195.581 52.6768 196.134 52.4475 196.71 52.4475L199.302 52.4606ZM196.697 55.5896H198V53.6617H196.697C196.579 53.6609 196.463 53.6854 196.356 53.7334C196.249 53.7815 196.153 53.852 196.076 53.9402C195.903 54.125 195.809 54.3703 195.815 54.6235C195.81 54.8778 195.904 55.124 196.076 55.3111C196.153 55.4006 196.249 55.4719 196.357 55.52C196.465 55.5681 196.583 55.5919 196.701 55.5896H196.697Z" fill="black"/>
<path d="M160.813 68.4941C160.257 69.0584 159.522 69.4119 158.735 69.4941C157.948 69.5764 157.157 69.3823 156.496 68.945C155.836 68.5077 155.348 67.8543 155.115 67.0964C154.881 66.3384 154.918 65.5229 155.218 64.789C155.518 64.0551 156.063 63.4483 156.76 63.0722C157.457 62.6961 158.262 62.574 159.039 62.7267C159.816 62.8794 160.515 63.2976 161.019 63.9097C161.522 64.5218 161.798 65.29 161.799 66.0831C161.808 66.5312 161.725 66.9763 161.555 67.391C161.386 67.8057 161.133 68.1811 160.813 68.4941ZM156.904 67.6237C157.308 68.0069 157.842 68.2205 158.398 68.2205C158.954 68.2205 159.489 68.0069 159.892 67.6237C160.28 67.2065 160.495 66.6575 160.495 66.0874C160.495 65.5173 160.28 64.9684 159.892 64.5512C159.489 64.168 158.954 63.9544 158.398 63.9544C157.842 63.9544 157.308 64.168 156.904 64.5512C156.517 64.9684 156.301 65.5173 156.301 66.0874C156.301 66.6575 156.517 67.2065 156.904 67.6237Z" fill="black"/>
<path d="M165.19 65.2929C165.761 65.2709 166.318 65.4758 166.74 65.863C166.94 66.0463 167.097 66.2709 167.201 66.5211C167.305 66.7713 167.354 67.0413 167.344 67.3122C167.354 67.5864 167.306 67.8597 167.202 68.1135C167.098 68.3673 166.94 68.5957 166.74 68.7832C166.317 69.1673 165.76 69.369 165.19 69.3446H162.701V62.8167H166.788V64.0483H163.982V65.2842L165.19 65.2929ZM165.19 68.1435C165.421 68.1512 165.646 68.0738 165.824 67.9259C165.908 67.8481 165.973 67.7527 166.016 67.6467C166.059 67.5406 166.078 67.4264 166.071 67.3122C166.078 67.1993 166.059 67.0863 166.016 66.9816C165.973 66.8769 165.908 66.7832 165.824 66.7073C165.646 66.5609 165.42 66.4851 165.19 66.4941H163.982V68.1435H165.19Z" fill="black"/>
<path d="M170.556 62.8254C170.849 62.819 171.14 62.8721 171.411 62.9813C171.683 63.0904 171.93 63.2535 172.137 63.4607C172.343 63.6633 172.507 63.9051 172.619 64.1718C172.731 64.4386 172.788 64.725 172.788 65.0144C172.788 65.3037 172.731 65.5902 172.619 65.8569C172.507 66.1237 172.343 66.3655 172.137 66.568C171.93 66.7752 171.683 66.9383 171.411 67.0475C171.14 67.1567 170.849 67.2097 170.556 67.2034H169.414V69.3446H168.133V62.8167L170.556 62.8254ZM170.556 66.0023C170.683 66.0051 170.809 65.9818 170.926 65.9339C171.043 65.886 171.15 65.8145 171.238 65.7238C171.416 65.5311 171.513 65.2769 171.507 65.0144C171.511 64.8842 171.49 64.7545 171.443 64.6328C171.397 64.511 171.327 64.3996 171.238 64.305C171.15 64.2143 171.043 64.1428 170.926 64.0948C170.809 64.0469 170.683 64.0237 170.556 64.0265H169.414V66.0023H170.556Z" fill="black"/>
<path d="M177.13 69.3446L176.739 68.1696H174.133L173.742 69.3446H172.361L174.637 62.8167H176.222L178.511 69.3446H177.13ZM174.555 66.9684H176.34L175.449 64.305L174.555 66.9684Z" fill="black"/>
<path d="M182.609 65.9688C182.897 66.1074 183.138 66.3276 183.302 66.6022C183.467 66.8768 183.547 67.1938 183.534 67.5138C183.542 67.7844 183.487 68.0531 183.373 68.2987C183.259 68.5442 183.089 68.7597 182.878 68.9281C182.391 69.3033 181.789 69.4944 181.175 69.4678C179.968 69.4678 179.16 68.9572 178.752 67.9359L179.855 67.3092C179.927 67.5954 180.096 67.8472 180.335 68.0206C180.573 68.194 180.864 68.278 181.158 68.2579C181.445 68.2771 181.729 68.1989 181.966 68.036C182.053 67.9612 182.123 67.8684 182.171 67.764C182.219 67.6596 182.244 67.546 182.244 67.4311C182.244 67.3161 182.219 67.2025 182.171 67.0981C182.123 66.9937 182.053 66.9009 181.966 66.8261C181.739 66.6632 181.462 66.5847 181.184 66.6042H180.376V65.4596H180.993C181.257 65.4742 181.52 65.4024 181.74 65.2551C181.822 65.1849 181.888 65.0985 181.934 65.0013C181.981 64.9041 182.006 64.7982 182.01 64.6905C182.013 64.5828 181.994 64.4756 181.953 64.3757C181.913 64.2758 181.852 64.1855 181.775 64.1105C181.582 63.9524 181.337 63.8744 181.089 63.8929C180.831 63.8835 180.577 63.9588 180.366 64.1073C180.155 64.2558 179.999 64.4694 179.92 64.7154L178.848 64.0801C179.037 63.6449 179.355 63.2784 179.759 63.0301C180.163 62.7819 180.633 62.6638 181.106 62.6918C181.679 62.6675 182.241 62.8532 182.687 63.214C182.886 63.3832 183.044 63.595 183.15 63.8338C183.256 64.0726 183.307 64.3323 183.299 64.5936C183.308 64.8624 183.249 65.129 183.128 65.3693C183.008 65.6095 182.829 65.8156 182.609 65.9688Z" fill="black"/>
<path d="M189.836 68.4939C189.279 69.0627 188.542 69.42 187.752 69.505C186.961 69.5899 186.166 69.397 185.501 68.9594C184.837 68.5218 184.345 67.8666 184.109 67.1057C183.874 66.3448 183.909 65.5255 184.209 64.7879C184.51 64.0502 185.056 63.4399 185.756 63.0614C186.455 62.6828 187.264 62.5595 188.045 62.7124C188.825 62.8653 189.528 63.285 190.034 63.8998C190.539 64.5146 190.816 65.2862 190.817 66.0829C190.827 66.5307 190.744 66.9756 190.576 67.3903C190.407 67.805 190.155 68.1806 189.836 68.4939ZM185.927 67.6235C186.128 67.8204 186.366 67.9756 186.627 68.0803C186.889 68.185 187.168 68.2371 187.449 68.2337C187.73 68.2302 188.008 68.1713 188.267 68.0603C188.525 67.9492 188.76 67.7883 188.956 67.5865C189.153 67.3848 189.307 67.1462 189.412 66.8845C189.516 66.6228 189.568 66.343 189.565 66.0611C189.562 65.7792 189.503 65.5008 189.392 65.2417C189.281 64.9826 189.121 64.7479 188.919 64.551C188.516 64.1665 187.98 63.9521 187.423 63.9521C186.866 63.9521 186.33 64.1665 185.927 64.551C185.541 64.9692 185.327 65.5178 185.327 66.0873C185.327 66.6568 185.541 67.2053 185.927 67.6235Z" fill="black"/>
<path d="M195.637 65.9611C195.908 66.1011 196.133 66.3154 196.287 66.579C196.441 66.8425 196.517 67.1444 196.506 67.4495C196.513 67.7051 196.464 67.9593 196.364 68.1944C196.263 68.4296 196.113 68.6401 195.924 68.8116C195.528 69.1664 195.013 69.3564 194.482 69.3426H191.729V62.8146H194.291C194.809 62.7991 195.312 62.9864 195.694 63.3369C195.88 63.4984 196.028 63.6992 196.128 63.9249C196.228 64.1506 196.277 64.3956 196.271 64.6424C196.279 64.8971 196.226 65.15 196.115 65.3795C196.005 65.6091 195.841 65.8086 195.637 65.9611ZM194.269 64.0245H192.988V65.4606H194.269C194.362 65.4637 194.455 65.4471 194.541 65.4118C194.627 65.3766 194.704 65.3235 194.769 65.2561C194.835 65.1885 194.888 65.1083 194.923 65.02C194.958 64.9318 194.975 64.8375 194.973 64.7425C194.975 64.6483 194.96 64.5544 194.926 64.4663C194.892 64.3782 194.842 64.2975 194.777 64.229C194.713 64.1628 194.636 64.1105 194.551 64.0753C194.466 64.0401 194.374 64.0228 194.282 64.0245H194.269ZM194.465 68.1414C194.564 68.144 194.664 68.126 194.756 68.0886C194.849 68.0512 194.933 67.9951 195.003 67.9238C195.074 67.8498 195.129 67.7624 195.166 67.6668C195.202 67.5711 195.219 67.4691 195.216 67.3668C195.219 67.267 195.202 67.1676 195.166 67.0747C195.129 66.9819 195.074 66.8976 195.003 66.8271C194.934 66.7544 194.85 66.6971 194.757 66.6589C194.665 66.6206 194.565 66.6023 194.465 66.6052H192.988V68.1414H194.465Z" fill="black"/>
<path d="M201.521 69.3446L201.13 68.1696H198.525L198.134 69.3446H196.766L199.041 62.8167H200.631L202.915 69.3446H201.521ZM198.95 66.9684H200.735L199.84 64.305L198.95 66.9684Z" fill="black"/>
<path d="M207.243 62.8254H208.515V69.3533H207.243V66.642H204.828V69.3446H203.547V62.8167H204.828V65.4278H207.243V62.8254Z" fill="black"/>
<path d="M213.49 69.3424V65.3864L210.706 69.3641H209.729V62.8362H211.01V66.8226L213.798 62.8362H214.771V69.3641L213.49 69.3424Z" fill="black"/>
<path d="M220.566 62.823V69.3509H219.285V67.0879H218.551L217.053 69.3509H215.615L217.2 66.9486C216.793 66.8023 216.44 66.5351 216.189 66.1827C215.933 65.8395 215.796 65.4226 215.798 64.9946C215.798 64.4175 216.026 63.864 216.434 63.4559C216.841 63.0479 217.393 62.8186 217.969 62.8186L220.566 62.823ZM217.96 65.952H219.263V64.0241H217.96C217.843 64.0238 217.726 64.0485 217.618 64.0965C217.51 64.1445 217.414 64.2147 217.335 64.3026C217.165 64.4888 217.073 64.7335 217.079 64.9859C217.075 65.2393 217.166 65.4848 217.335 65.6735C217.414 65.7628 217.511 65.834 217.619 65.8821C217.728 65.9302 217.846 65.954 217.965 65.952H217.96Z" fill="black"/>
</g>
</svg>
