<svg width="250" height="100" viewBox="0 0 250 100" fill="none" xmlns="http://www.w3.org/2000/svg">
<g style="mix-blend-mode:luminosity" opacity="0.4">
<path d="M42.2986 65.6372V52.5366L36.0755 60.4458L29.8636 52.5366V65.6372H28V48.998H29.0427L36.0755 57.961L43.1084 48.998H44.2176V65.6372H42.2986Z" fill="#532A29"/>
<path d="M62.3262 65.6372H60.2852L67.196 48.998H68.2387L75.1273 65.6372H73.0751L71.267 61.2001H64.1454L62.3262 65.6372ZM64.811 59.4696H70.6236L67.7173 52.3924L64.811 59.4696Z" fill="#532A29"/>
<path d="M96.6157 48.9541C100.864 48.9541 103.815 51.2503 103.815 54.9664C103.837 56.215 103.424 57.4325 102.647 58.41C101.87 59.3876 100.777 60.0643 99.5553 60.3242C100.733 60.9509 101.695 61.917 102.317 63.0974L103.981 65.6376H101.863L100.509 63.5189C99.1005 61.3558 98.2907 60.9898 96.527 60.9676H93.1215V65.6376H91.2246V48.9985L96.6157 48.9541ZM93.1215 59.226H96.771C99.6551 59.226 102.062 57.9392 102.062 54.9664C102.062 51.9935 99.644 50.6957 96.771 50.6957H93.1215V59.226Z" fill="#532A29"/>
<path d="M133.714 58.4717C133.714 63.0197 130.896 65.804 126.914 65.804C122.931 65.804 120.125 63.0197 120.125 58.4717V48.9541H121.989V58.4162C121.989 62.0658 123.919 64.0736 126.914 64.0736C129.909 64.0736 131.85 62.0658 131.85 58.4162V48.9541H133.714V58.4717Z" fill="#532A29"/>
<path d="M156.265 48.7871C157.418 48.7855 158.556 49.0404 159.598 49.5335C160.64 50.0266 161.559 50.7455 162.289 51.638L161.079 52.7472C160.476 52.0627 159.736 51.5117 158.906 51.1297C158.077 50.7476 157.178 50.5429 156.265 50.5287H155.999C154.235 50.5287 152.116 51.4605 152.116 53.435C152.116 54.8881 153.226 55.6535 155.688 55.9198L157.496 56.1527C160.824 56.5853 162.865 57.8721 162.865 60.9004C162.865 63.9288 160.07 65.7812 156.709 65.8034H156.576C153.248 65.8034 150.896 64.2837 149.854 62.1872L151.063 61.0779C151.828 62.764 153.736 64.0841 156.609 64.0841H156.676C159.038 64.0841 160.968 62.886 160.968 60.9115C160.968 58.937 159.637 58.216 157.252 57.8832L155.444 57.6724C152.116 57.2398 150.22 55.9974 150.22 53.5015C150.22 50.6174 152.915 48.8204 155.966 48.7982L156.265 48.7871Z" fill="#532A29"/>
<path d="M183.99 65.6376V59.9249L177.645 48.9541H179.763L184.944 57.6841L190.091 48.9541H192.176L185.809 59.9249V65.6376H183.99Z" fill="#532A29"/>
<path d="M208.812 65.6372H206.76L213.671 48.998H214.78L221.668 65.6372H219.572L217.764 61.2001H210.631L208.812 65.6372ZM211.286 59.4696H217.109L214.192 52.3924L211.286 59.4696Z" fill="#532A29"/>
<path d="M192.95 35.8209L186.882 45.2164L185.451 44.3956L191.519 35L192.95 35.8209Z" fill="#532A29"/>
</g>
</svg>
