<svg width="250" height="100" viewBox="0 0 250 100" fill="none" xmlns="http://www.w3.org/2000/svg">
<g style="mix-blend-mode:luminosity" opacity="0.4">
<path d="M94.4077 57.1404C94.4077 57.9777 94.1071 58.6995 93.506 59.3059C92.9334 59.8834 92.2321 60.1721 91.4019 60.1721L82.3847 60.1721C81.5545 60.1721 80.8388 59.8834 80.2377 59.3059C79.6652 58.6995 79.3789 57.9777 79.3789 57.1404L79.3789 48.0451C79.3789 47.2077 79.6652 46.5003 80.2377 45.9228C80.8388 45.3165 81.5545 45.0133 82.3847 45.0133L91.4019 45.0133C92.2321 45.0133 92.9334 45.3165 93.506 45.9228C94.1071 46.5003 94.4077 47.2077 94.4077 48.0451L94.4077 57.1404ZM91.4019 57.5735L91.4019 47.6119L82.3847 47.6119L82.3847 57.5735L91.4019 57.5735Z" fill="#181818"/>
<path d="M115.887 57.1404C115.887 57.9777 115.587 58.6995 114.986 59.3059C114.413 59.8834 113.712 60.1721 112.882 60.1721L103.864 60.1721L100.859 60.1721L100.859 38.0835L103.864 35.0518L103.864 45.0133H106.011L112.882 45.0133C113.712 45.0133 114.413 45.3165 114.986 45.9228C115.587 46.5003 115.887 47.2077 115.887 48.0451V57.1404ZM112.882 57.5735V47.6119L103.864 47.6119L103.864 57.5735L112.882 57.5735Z" fill="#181818"/>
<path d="M136.928 60.1721L133.922 60.1721L131.775 60.1721L124.905 60.1721C124.075 60.1721 123.359 59.8834 122.758 59.3059C122.185 58.6995 121.899 57.9777 121.899 57.1404V48.0451C121.899 47.2077 122.185 46.5003 122.758 45.9228C123.359 45.3165 124.075 45.0133 124.905 45.0133L133.922 45.0133V38.0835L136.928 35.0518L136.928 60.1721ZM133.922 57.5735V47.6119H131.775L124.905 47.6119V57.5735L133.922 57.5735Z" fill="#181818"/>
<path d="M158.397 60.1721L146.374 60.1721C145.544 60.1721 144.829 59.8834 144.227 59.3059C143.655 58.6995 143.369 57.9777 143.369 57.1404V48.0451C143.369 47.2077 143.655 46.5003 144.227 45.9228C144.829 45.3165 145.544 45.0133 146.374 45.0133L155.392 45.0133C156.222 45.0133 156.923 45.3165 157.496 45.9228C158.097 46.5003 158.397 47.2077 158.397 48.0451V51.0768L155.392 54.1086L145.945 54.1086V51.5099L155.392 51.5099V47.6119L146.374 47.6119L146.374 57.5735L158.397 57.5735V60.1721Z" fill="#181818"/>
<path d="M178.577 57.1404C178.577 57.9777 178.277 58.6995 177.675 59.3059C177.103 59.8834 176.402 60.1721 175.571 60.1721L166.554 60.1721L163.548 60.1721L163.548 38.0835L166.554 35.0518V45.0133L168.701 45.0133L175.571 45.0133C176.402 45.0133 177.103 45.3165 177.675 45.9228C178.277 46.5003 178.577 47.2077 178.577 48.0451L178.577 57.1404ZM175.571 57.5735L175.571 47.6119L166.554 47.6119L166.554 57.5735L175.571 57.5735Z" fill="#181818"/>
<path d="M199.617 60.1721L196.612 60.1721H194.465L187.594 60.1721C186.764 60.1721 186.049 59.8834 185.447 59.3059C184.875 58.6995 184.589 57.9777 184.589 57.1404L184.589 45.0133H187.594L187.594 57.5735L196.612 57.5735L196.612 45.0133L199.617 45.0133L199.617 60.1721Z" fill="#181818"/>
<path d="M215.515 60.1721L209.504 60.1721C208.673 60.1721 207.958 59.8834 207.357 59.3059C206.784 58.6995 206.498 57.9777 206.498 57.1404L206.498 47.6119L202.204 47.6119L204.78 45.0133L206.498 45.0133V41.9815L209.504 38.9497L209.504 45.0133L215.515 45.0133V47.6119L209.504 47.6119V57.5735L215.515 57.5735L215.515 60.1721Z" fill="#181818"/>
<path fill-rule="evenodd" clip-rule="evenodd" d="M34 44.8164C34 43.6686 34.456 42.5678 35.2676 41.7561L44.7561 32.2676C45.5678 31.456 46.6686 31 47.8164 31L70.3545 31C71.3106 31 72.0857 31.7751 72.0857 32.7312L72.0857 67.3545C72.0857 68.3106 71.3106 69.0857 70.3545 69.0857L35.7312 69.0857C34.7751 69.0857 34 68.3106 34 67.3545L34 44.8164ZM60.4003 60.8194L63.8627 60.8194L63.8627 39.6558L57.8469 39.6558L53.5622 49.7832H53.1294L48.8448 39.6558L45.2526 39.6558L42.6558 39.6558L42.6558 42.2526L42.6558 69.0857L46.1182 69.0857L46.1182 42.7287H46.7674L51.9176 54.8036L54.4278 54.8036L59.7511 42.7287H60.4003L60.4003 60.8194Z" fill="#222222"/>
</g>
</svg>
