<svg width="250" height="100" viewBox="0 0 250 100" fill="none" xmlns="http://www.w3.org/2000/svg">
<g style="mix-blend-mode:luminosity" opacity="0.4">
<path d="M45.9186 63.853L36.8511 44.1195V59.7789C36.8511 61.2322 37.007 62.14 37.3182 62.4907C37.7459 62.9707 38.4212 63.2043 39.3288 63.2043H40.1721V63.853H32V63.2043H32.8299C33.8292 63.2043 34.5299 62.9057 34.9443 62.3093C35.1912 61.9324 35.3204 61.0896 35.3204 59.7789V44.4569C35.3204 43.432 35.2039 42.679 34.9703 42.2251C34.8278 41.875 34.5299 41.5891 34.101 41.3689C33.6732 41.1486 32.9725 41.0315 32 41.0315V40.3828H38.6542L47.1508 58.754L55.5304 40.3828H62.1584V41.0315H61.3546C60.3426 41.0315 59.6419 41.33 59.2403 41.9265C58.9806 42.3028 58.8508 43.1462 58.8508 44.4569V59.7789C58.8508 61.2322 59.0067 62.14 59.3179 62.4907C59.7456 62.9707 60.4336 63.2043 61.3546 63.2043H62.1584V63.853H52.1966V63.2043H53.0399C54.0385 63.2043 54.7393 62.9057 55.1409 62.3093C55.4005 61.9324 55.5304 61.0896 55.5304 59.7789V44.1195L46.4762 63.853H45.9186Z" fill="#2C2B2A"/>
<path d="M70.6479 47.5449C73.048 47.5449 74.9675 48.4527 76.4333 50.2695C77.6655 51.8393 78.2879 53.6167 78.2879 55.6276C78.2879 57.0548 77.9506 58.4954 77.2632 59.9487C76.5759 61.4014 75.6422 62.4918 74.4488 63.2309C73.2555 63.9706 71.9323 64.3475 70.4665 64.3475C68.0932 64.3475 66.1863 63.3869 64.7722 61.4797C63.5788 59.871 62.9824 58.0682 62.9824 56.0827C62.9824 54.6294 63.3452 53.1889 64.072 51.7489C64.7855 50.3089 65.7453 49.2579 66.9259 48.5704C68.1059 47.8829 69.3387 47.5455 70.6485 47.5455L70.6479 47.5449ZM70.1159 48.6608C69.5061 48.6608 68.8831 48.8423 68.274 49.2058C67.6515 49.5692 67.1455 50.2052 66.77 51.113C66.3932 52.0207 66.1991 53.1889 66.1991 54.6288C66.1991 56.9383 66.6529 58.9232 67.5738 60.5968C68.4948 62.2704 69.7009 63.1138 71.2055 63.1138C72.3212 63.1138 73.2421 62.6466 73.9817 61.7261C74.7079 60.8049 75.0713 59.2218 75.0713 56.9644C75.0713 54.1494 74.4616 51.9431 73.2421 50.335C72.4249 49.2185 71.3747 48.6608 70.1159 48.6608Z" fill="#2C2B2A"/>
<path d="M84.9182 39.2422V60.273C84.9182 61.259 84.9959 61.9205 85.139 62.2445C85.2816 62.5685 85.5152 62.8155 85.8131 62.9842C86.1116 63.1535 86.6697 63.2306 87.4863 63.2306V63.8538H79.7031V63.2306C80.4427 63.2306 80.9359 63.1535 81.2077 62.9976C81.4807 62.8543 81.6876 62.608 81.8308 62.2579C81.9733 61.9205 82.051 61.2584 82.051 60.273V45.8843C82.051 44.0942 82.0122 42.9911 81.9345 42.5893C81.8435 42.187 81.7137 41.9018 81.545 41.7459C81.3636 41.6033 81.13 41.5256 80.8449 41.5256C80.5464 41.5256 80.1703 41.616 79.7031 41.7981L79.418 41.1882L84.152 39.2422H84.9176H84.9182ZM92.7966 42.7969V48.0124H96.5065V49.2187H92.7966V59.4944C92.7966 60.5193 92.9526 61.2202 93.2504 61.5703C93.5489 61.9332 93.9251 62.1146 94.3916 62.1146C94.7684 62.1146 95.1312 61.9981 95.4812 61.7518C95.8319 61.5182 96.117 61.168 96.3245 60.7008H96.9992C96.5969 61.8294 96.0394 62.6857 95.2998 63.2567C94.5603 63.841 93.7953 64.1262 93.0035 64.1262C92.4715 64.1262 91.9527 63.9703 91.4468 63.6723C90.9408 63.3738 90.5646 62.9587 90.3183 62.4144C90.072 61.8695 89.9555 61.026 89.9555 59.8713V49.2193H87.439V48.6617C88.0748 48.4026 88.7361 47.9614 89.398 47.3516C90.0593 46.7417 90.6435 46.0281 91.175 45.2108C91.4474 44.7696 91.8108 43.965 92.2646 42.7975H92.7966V42.7969ZM99.6116 53.9804C99.5982 56.3287 100.156 58.1843 101.311 59.5199C102.465 60.8567 103.827 61.5309 105.384 61.5309C106.422 61.5309 107.33 61.2457 108.095 60.6613C108.861 60.0909 109.508 59.1176 110.028 57.7298L110.56 58.0672C110.314 59.6631 109.6 61.1031 108.446 62.4005C107.278 63.6978 105.813 64.3471 104.062 64.3471C102.168 64.3471 100.546 63.6074 99.1972 62.1153C97.8352 60.6365 97.1606 58.6516 97.1606 56.1473C97.1606 53.4361 97.8479 51.308 99.236 49.7897C100.624 48.2721 102.362 47.5191 104.464 47.5191C106.241 47.5191 107.694 48.1028 108.848 49.2703C109.989 50.4378 110.56 52.0082 110.56 53.9798H99.6128L99.6116 53.9804ZM99.6116 52.9682H106.94C106.875 51.9561 106.758 51.2424 106.59 50.8274C106.291 50.1915 105.85 49.686 105.293 49.3098C104.722 48.9335 104.125 48.7521 103.503 48.7521C102.556 48.7521 101.699 49.1283 100.935 49.868C100.169 50.6077 99.7281 51.6454 99.6116 52.9688V52.9682Z" fill="#2C2B2A"/>
<path d="M116.191 50.8931C118.045 48.6612 119.822 47.5453 121.509 47.5453C122.378 47.5453 123.117 47.7528 123.74 48.1812C124.349 48.609 124.843 49.336 125.219 50.3354C125.465 51.0223 125.595 52.0733 125.595 53.5005V60.2731C125.595 61.2725 125.673 61.9594 125.842 62.3102C125.984 62.5954 126.192 62.8163 126.478 62.9843C126.75 63.1536 127.268 63.2307 128.034 63.2307V63.8539H120.186V63.2307H120.524C121.263 63.2307 121.769 63.1142 122.067 62.8939C122.366 62.673 122.56 62.3363 122.677 61.9079C122.729 61.7264 122.754 61.1809 122.754 60.2731V53.7985C122.754 52.3585 122.573 51.3075 122.197 50.6455C121.821 49.9841 121.185 49.6594 120.303 49.6594C118.928 49.6594 117.553 50.4119 116.191 51.9167V60.2725C116.191 61.349 116.256 62.0104 116.385 62.2701C116.555 62.5942 116.775 62.8411 117.047 62.9971C117.32 63.153 117.903 63.2301 118.785 63.2301V63.8533H110.937V63.2301H111.274C112.091 63.2301 112.649 63.0232 112.922 62.6075C113.194 62.2052 113.324 61.4267 113.324 60.2725V54.395C113.324 52.4878 113.285 51.333 113.207 50.9046C113.129 50.4895 113 50.2043 112.818 50.0611C112.637 49.9185 112.403 49.8409 112.105 49.8409C111.78 49.8409 111.391 49.9313 110.937 50.1133L110.678 49.4774L115.451 47.5441H116.191V50.8918V50.8931ZM148.786 39.8522L149.395 47.2734H148.786C148.176 45.4184 147.385 44.0294 146.412 43.0956C145.024 41.7594 143.221 41.0846 141.029 41.0846C138.058 41.0846 135.788 42.2654 134.218 44.6132C132.921 46.6114 132.272 48.9859 132.272 51.7359C132.272 53.9805 132.701 56.0176 133.569 57.8598C134.439 59.7149 135.567 61.0644 136.968 61.9206C138.369 62.7768 139.808 63.2052 141.274 63.2052C142.144 63.2052 142.974 63.1015 143.778 62.8806C144.582 62.6603 145.361 62.3363 146.126 61.9079V55.1353C146.126 53.9544 146.035 53.1886 145.866 52.8257C145.685 52.4623 145.399 52.1898 145.023 51.995C144.647 51.8136 143.986 51.7226 143.038 51.7226V51.0478H152.119V51.7226H151.691C150.796 51.7226 150.186 52.0211 149.836 52.6176C149.616 53.0454 149.499 53.8889 149.499 55.1347V62.3096C148.176 63.0232 146.866 63.5553 145.569 63.8921C144.272 64.2168 142.832 64.3855 141.262 64.3855C136.735 64.3855 133.285 62.9322 130.937 60.0261C129.173 57.8598 128.29 55.3428 128.29 52.475C128.29 50.4252 128.784 48.4531 129.77 46.5592C130.95 44.3146 132.559 42.5761 134.621 41.3698C136.333 40.3576 138.357 39.8522 140.691 39.8522C141.561 39.8522 142.339 39.9171 143.039 40.0597C143.726 40.2023 144.712 40.5136 145.997 40.9936C146.658 41.2272 147.086 41.3437 147.294 41.3437C147.514 41.3437 147.696 41.2399 147.864 41.0452C148.02 40.8504 148.111 40.4481 148.137 39.8516H148.786V39.8522Z" fill="#2C2B2A"/>
<path d="M157.226 47.5439V51.112C158.549 48.7375 159.911 47.5439 161.312 47.5439C161.935 47.5439 162.454 47.7387 162.882 48.1149C163.297 48.5039 163.505 48.9584 163.505 49.4645C163.505 49.905 163.362 50.2819 163.064 50.5932C162.765 50.9178 162.403 51.0731 161.988 51.0731C161.585 51.0731 161.131 50.879 160.626 50.4766C160.12 50.0743 159.743 49.8795 159.497 49.8795C159.29 49.8795 159.069 49.9967 158.836 50.2169C158.304 50.6969 157.772 51.4755 157.227 52.5653V60.1419C157.227 61.0242 157.344 61.6856 157.565 62.1268C157.707 62.4508 157.98 62.7105 158.356 62.9181C158.732 63.1256 159.276 63.2287 159.99 63.2287V63.8519H151.883V63.2287C152.687 63.2287 153.283 63.0995 153.673 62.8398C153.971 62.6705 154.166 62.3725 154.269 61.9702C154.334 61.7627 154.36 61.2044 154.36 60.2966V54.1472C154.36 52.305 154.321 51.2018 154.257 50.8517C154.179 50.5015 154.036 50.2552 153.842 50.0859C153.634 49.9172 153.388 49.8395 153.089 49.8395C152.739 49.8395 152.336 49.9299 151.883 50.112L151.701 49.476L156.488 47.5427H157.227L157.226 47.5439ZM172.265 61.5691C170.643 62.827 169.618 63.5406 169.204 63.736C168.581 64.0346 167.92 64.1899 167.219 64.1899C166.129 64.1899 165.235 63.8137 164.521 63.0613C163.808 62.3088 163.458 61.3228 163.458 60.1031C163.458 59.3245 163.626 58.6504 163.977 58.0921C164.431 57.3136 165.248 56.5745 166.428 55.887C167.609 55.1994 169.554 54.3432 172.265 53.3438V52.7212C172.265 51.1508 172.019 50.061 171.513 49.4645C171.007 48.8807 170.28 48.5822 169.333 48.5822C168.607 48.5822 168.023 48.7897 167.595 49.192C167.167 49.5816 166.947 50.0228 166.947 50.5288L166.973 51.541C166.973 52.0732 166.843 52.4882 166.57 52.7607C166.297 53.0465 165.947 53.1885 165.52 53.1885C165.092 53.1885 164.741 53.0325 164.469 52.7346C164.197 52.436 164.067 52.0343 164.067 51.5149C164.067 50.5288 164.573 49.621 165.584 48.7903C166.596 47.9602 168.023 47.5445 169.852 47.5445C171.252 47.5445 172.407 47.7782 173.315 48.2582C173.976 48.6083 174.482 49.1659 174.807 49.9317C175.014 50.4251 175.117 51.4366 175.117 52.9676V58.3518C175.117 59.8567 175.144 60.7784 175.209 61.1158C175.273 61.466 175.364 61.6862 175.494 61.8033C175.611 61.9199 175.767 61.972 175.948 61.972C176.129 61.972 176.298 61.9326 176.441 61.8683C176.688 61.7123 177.141 61.2845 177.829 60.597V61.5703C176.544 63.2961 175.325 64.165 174.145 64.165C173.574 64.165 173.12 63.9703 172.796 63.5679C172.458 63.179 172.276 62.5176 172.264 61.5703L172.265 61.5691ZM172.265 60.4532V54.3942C170.514 55.0945 169.398 55.5878 168.892 55.8736C167.984 56.3797 167.335 56.9113 166.946 57.4695C166.557 58.0272 166.362 58.637 166.362 59.299C166.362 60.1164 166.609 60.7912 167.102 61.3488C167.595 61.9071 168.165 62.1796 168.801 62.1796C169.683 62.1796 170.838 61.6086 172.265 60.4538V60.4532Z" fill="#2C2B2A"/>
<path d="M188.173 47.5455V52.9431H187.59C187.161 51.2434 186.603 50.0887 185.916 49.4788C185.228 48.869 184.36 48.571 183.283 48.571C182.479 48.571 181.83 48.7786 181.337 49.207C180.844 49.6348 180.598 50.102 180.598 50.6208C180.598 51.2568 180.779 51.8144 181.155 52.2817C181.505 52.7617 182.219 53.2677 183.321 53.7993L185.851 55.0062C188.185 56.1604 189.353 57.6659 189.353 59.5209C189.353 60.9615 188.809 62.129 187.732 63.0113C186.643 63.9063 185.423 64.3481 184.061 64.3481C183.089 64.3481 181.986 64.1666 180.754 63.8159C180.365 63.6988 180.053 63.6466 179.82 63.6466C179.547 63.6466 179.34 63.8026 179.197 64.1005H178.614V58.4438H179.197C179.521 60.0525 180.131 61.2722 181.052 62.0889C181.96 62.9063 182.985 63.322 184.113 63.322C184.904 63.322 185.553 63.0883 186.059 62.6084C186.565 62.1411 186.811 61.5835 186.811 60.9214C186.811 60.1301 186.539 59.4681 185.981 58.9238C185.424 58.3789 184.295 57.6908 182.622 56.8607C180.948 56.0433 179.845 55.2908 179.327 54.6294C178.808 53.968 178.549 53.1373 178.549 52.1251C178.549 50.8278 178.99 49.7379 179.885 48.8556C180.78 47.9861 181.935 47.5449 183.374 47.5449C183.984 47.5449 184.736 47.6748 185.632 47.9472C186.216 48.1165 186.604 48.207 186.812 48.207C186.993 48.207 187.136 48.1681 187.24 48.0771C187.343 47.9994 187.46 47.8174 187.59 47.5449H188.174L188.173 47.5455Z" fill="#2C2B2A"/>
<path d="M200.826 47.5455V52.9431H200.242C199.814 51.2434 199.256 50.0887 198.568 49.4788C197.881 48.869 197.012 48.571 195.935 48.571C195.131 48.571 194.482 48.7786 193.989 49.207C193.496 49.6348 193.25 50.102 193.25 50.6208C193.25 51.2568 193.431 51.8144 193.807 52.2817C194.158 52.7617 194.871 53.2677 195.973 53.7993L198.503 55.0062C200.838 56.1604 202.006 57.6659 202.006 59.5209C202.006 60.9615 201.461 62.129 200.385 63.0113C199.295 63.9063 198.076 64.3481 196.714 64.3481C195.741 64.3481 194.638 64.1666 193.406 63.8159C193.017 63.6988 192.706 63.6466 192.472 63.6466C192.2 63.6466 191.992 63.8026 191.85 64.1005H191.266V58.4438H191.85C192.174 60.0525 192.783 61.2722 193.704 62.0889C194.612 62.9063 195.637 63.322 196.765 63.322C197.556 63.322 198.205 63.0883 198.711 62.6084C199.217 62.1411 199.464 61.5835 199.464 60.9214C199.464 60.1301 199.191 59.4681 198.634 58.9238C198.076 58.3789 196.947 57.6908 195.274 56.8607C193.601 56.0433 192.498 55.2908 191.98 54.6294C191.46 53.968 191.201 53.1373 191.201 52.1251C191.201 50.8278 191.642 49.7379 192.538 48.8556C193.433 47.9861 194.587 47.5449 196.027 47.5449C196.636 47.5449 197.389 47.6748 198.284 47.9472C198.868 48.1165 199.257 48.207 199.464 48.207C199.646 48.207 199.788 48.1681 199.892 48.0771C199.996 47.9994 200.113 47.8174 200.243 47.5449H200.826L200.826 47.5455Z" fill="#2C2B2A"/>
<path d="M218.376 40.4686H212.909V35H205.936V52.9118H212.909V47.4432H218.376V40.4686Z" fill="#BD2741"/>
</g>
</svg>
