<svg width="250" height="100" viewBox="0 0 250 100" fill="none" xmlns="http://www.w3.org/2000/svg">
<g style="mix-blend-mode:luminosity" opacity="0.4">
<path d="M80.5377 22.2475C83.4913 22.2475 85.8678 23.6461 87.6007 26.4032L87.7277 26.6063L92.0058 23.5869L91.9042 23.4092C89.6002 19.3952 85.3512 17 80.5377 17C72.8335 17 66.7988 22.8653 66.7988 30.3537C66.7988 37.8419 72.8166 43.7073 80.4994 43.7073C85.3767 43.7073 89.6404 41.3099 91.9042 37.296L92.0058 37.1183L87.7277 34.0988L87.6007 34.2998C85.8678 37.0569 83.4913 38.4556 80.5377 38.4556C75.9312 38.4556 72.588 35.0637 72.588 30.3896C72.588 25.6732 75.9312 22.2475 80.5377 22.2475Z" fill="#333332"/>
<path d="M105.706 30.9144L99.4086 17.4592H93.1074L102.646 37.0781C101.842 38.0429 100.788 38.4936 99.3429 38.4936C98.6892 38.4936 97.9403 38.4513 97.3351 38.3794L97.0833 38.3497V43.1868L97.2441 43.2354C98.2134 43.5295 99.1484 43.6671 100.189 43.6671C105.156 43.6671 106.944 40.6667 108.763 36.7395L117.544 17.457H111.516L105.706 30.9144Z" fill="#333332"/>
<path d="M120.381 43.2458H126.016V22.5944H136.388V43.2458H142.023V17.459H120.381V43.2458Z" fill="#333332"/>
<path d="M152.998 32.152H161.711V27.2854H152.998V22.5944H164.858V17.459H147.363V43.2458H165.319V38.1105H152.998V32.152Z" fill="#333332"/>
<path d="M179.102 17.459H169.355V43.2458H174.99V34.3018H179.102C184.613 34.3018 188.462 30.8317 188.462 25.8614C188.462 20.836 184.7 17.459 179.102 17.459ZM179.102 29.3209H174.988V22.4801H179.099C181.293 22.4801 182.711 23.8089 182.711 25.8614C182.714 27.9942 181.329 29.3209 179.102 29.3209Z" fill="#333332"/>
<path d="M114.031 43.4153L112.736 39.5791C103.735 43.4343 93.7815 44.651 87.4609 44.7102L87.4697 48.2967C90.1673 48.2713 93.7579 48.1063 97.768 47.5816C97.1434 53.2311 96.3271 63.6226 96.6675 73.4044L100.328 73.1591C99.9514 62.9176 100.866 51.9404 101.428 47.0123C105.512 46.2781 109.854 45.1503 114.031 43.4153Z" fill="#A2BC0C"/>
<path d="M216.321 59.0412C210.542 63.1651 207.724 63.0635 206.114 62.8921C205.172 62.7927 204.469 62.3293 203.964 61.4766C203.005 59.8558 203.291 57.2828 203.611 54.9595L200.113 54.2761C199.402 58.2054 197.489 61.7559 195.348 63.112C194.561 63.6096 193.835 63.7514 193.189 63.5352C192.569 63.3259 192.149 62.9004 191.865 62.1939C191.104 60.3044 191.617 57.2596 192.489 55.3531C193.784 52.522 196.336 51.1614 197.417 51.062C198.428 50.9668 199.133 51.2736 199.923 52.1538L202.512 49.5449C200.985 47.8437 199.226 47.1073 197.134 47.3041C194.647 47.5326 191.053 49.8623 189.286 53.7281C188.109 56.2989 187.443 60.1118 188.412 63.1374C187.31 64.0877 186.336 64.5322 185.502 64.437C184.326 64.3035 182.864 62.9346 181.364 60.5477C180.346 58.9311 179.269 57.8372 178.221 57.0564L178.056 56.94C182.185 54.4919 185.862 50.0167 187.058 46.17L183.677 45.0146C182.591 48.5017 179.161 52.5664 175.16 54.5448C174.836 54.7056 174.131 54.9892 173.77 55.133C173.907 53.3599 174.277 50.2452 174.565 48.178L170.905 47.8712C170.881 48.1716 170.822 48.7514 170.737 49.547C170.558 51.2693 170.27 54.0391 170.033 57.1665C168.922 60.8926 165.543 66.9673 163.543 65.0524C162.38 63.9394 161.967 59.8431 164.312 48.6477L160.835 47.8564C160.268 50.5648 159.1 57.5579 158.886 58.7386C158.719 59.6611 158.442 60.5265 158.298 60.8524C157.667 62.2912 156.641 64.2379 155.177 65.3933C154.227 66.1422 153.338 66.43 152.454 66.2734C151.891 66.1718 151.508 65.9011 151.209 65.3952C150.287 63.8276 150.006 59.6886 152.993 48.8826L150.406 48.0976C147.748 49.7099 144.602 51.6904 142.676 53.106C142.272 51.7454 141.631 50.4188 140.687 49.3968C139.5 48.1082 137.947 47.4289 136.201 47.4289C133.713 47.393 130.672 49.4878 129.032 53.3451C128.63 51.7856 127.89 50.4949 126.477 49.7649C124.403 48.69 121.208 49.7057 118.821 52.0438C117.763 50.5775 116.365 49.5914 114.759 49.3121C114.418 49.2529 114.067 49.2254 113.721 49.2275C109.663 49.2592 106.17 53.6773 105.226 59.5342C104.191 65.9496 106.731 71.7217 111.13 72.4858C111.47 72.545 111.819 72.5727 112.166 72.5704C116.225 72.5408 119.718 68.0678 120.662 62.2108C121.056 59.7669 120.918 57.1559 120.287 55.059C122.28 52.5305 124.568 53.0806 125.16 53.4699C126.426 54.3015 126.533 56.0619 126.28 57.9197C124.839 68.4125 123.364 79.4874 123.419 89.3666L126.982 88.9688C127.145 79.2102 128.626 66.8851 129.301 62.5684C129.502 61.2777 129.786 59.9489 129.917 59.4834C131.301 54.5935 133.956 51.3244 136.165 51.1995C136.17 51.1995 136.172 51.1995 136.174 51.1995C136.976 51.1995 137.598 51.4662 138.127 52.0417C138.92 52.9007 139.36 54.2994 139.559 55.552C134.796 59.5299 132.501 62.8752 132.1 65.8225C131.893 67.3462 131.933 69.5933 133.366 70.4628C135.651 71.8511 138.281 69.9255 139.513 68.4887C142.826 64.6232 143.22 58.7259 143.252 57.3442C143.252 57.3294 143.249 56.7941 143.249 56.7941C144.603 55.7086 146.322 54.4517 148.249 53.1398C146.694 60.1139 146.601 64.7202 148.182 67.4053C149.013 68.819 150.274 69.712 151.834 69.9911C152.198 70.0567 152.564 70.0863 152.93 70.0844C154.415 70.0738 155.954 69.5046 157.339 68.4106C158.336 67.6234 159.148 66.595 159.803 65.4991C160.02 66.1505 160.289 66.7243 160.611 67.2173C161.383 68.3958 162.452 69.3096 163.732 69.3013C166.412 69.2801 168.38 66.9886 169.777 64.3668C169.819 65.9158 169.906 67.3693 169.94 68.5353L173.194 68.2729C173.093 65.5878 173.23 62.3061 173.446 59.1745C173.837 59.13 174.343 59.13 174.876 59.3712C176.085 59.9172 177.231 60.8079 178.391 62.6531C179.743 64.8006 181.89 67.6973 184.935 68.0401C185.158 68.0655 185.38 68.0784 185.602 68.0761C187.111 68.0655 188.501 67.2173 190.007 65.865C190.593 66.4365 191.292 66.8638 192.087 67.1304C192.652 67.3208 193.232 67.4118 193.816 67.4076C194.927 67.3993 196.057 67.0417 197.159 66.3455C198.428 65.5412 199.597 64.3141 200.595 62.797C200.706 63.0316 200.809 63.2709 200.94 63.495C202.032 65.3402 203.689 66.4277 205.733 66.6458C206.078 66.6818 206.444 66.7049 206.837 66.7031C209.123 66.686 212.364 65.8036 218.073 61.7305L216.321 59.0412ZM117.082 61.593C116.417 65.7107 114.026 69.0874 111.743 68.692C109.458 68.296 108.144 64.2758 108.809 60.1584C109.473 56.0408 111.864 52.7146 114.147 53.1102C116.432 53.5059 117.746 57.4733 117.082 61.593ZM135.425 67.1369C135.033 66.7581 135.296 65.9094 135.435 65.5541C135.831 64.5446 137.251 62.177 139.528 59.9574C138.929 65.4779 136.208 67.8922 135.425 67.1369Z" fill="#A2BC0C"/>
<path d="M71.4799 42.098L67.832 41.1035C58.9451 72.2077 54.6455 72.5801 54.1842 72.5122C51.8271 72.1971 49.2012 59.8063 48.6765 46.5203L44.9207 46.3786C41.8632 74.8503 31.1079 82.4086 31 82.4806L31.9987 84.1734L31.0127 82.4723L32.9869 85.8744C33.4016 85.6037 41.5289 80.0958 46.2262 61.0547C47.4217 68.6827 49.6307 75.9254 53.7124 76.4733C56.7678 76.8817 60.6421 74.5861 66.6661 57.4787C66.9899 64.383 68.5239 72.1043 72.9758 77.6477L75.8492 75.0619C67.157 64.2411 71.4354 42.3181 71.4799 42.098Z" fill="#A2BC0C"/>
<path d="M85.3569 49.7044C84.9933 49.6409 84.6186 49.6113 84.2504 49.6134C79.9169 49.6451 76.1867 54.2938 75.1773 60.5485C74.0728 67.4001 76.7833 73.4365 81.4807 74.2533C81.8448 74.3171 82.2171 74.3466 82.5872 74.3443C86.9207 74.3124 90.6513 69.6639 91.6603 63.4094C92.1177 60.5697 91.9102 57.5735 91.0786 55.2523C89.9953 52.2329 87.9089 50.1466 85.3569 49.7044ZM88.0803 62.7872C87.3864 67.0869 85.0778 70.4784 82.5872 70.4978C82.4223 70.4996 82.2532 70.4848 82.0859 70.4553C79.4789 70.0025 78.0125 65.779 78.7554 61.1706C79.4493 56.871 81.7579 53.4792 84.2485 53.4601C84.4153 53.458 84.5826 53.4728 84.7475 53.5003C86.455 53.7966 87.3185 55.6332 87.6802 56.6404C88.279 58.3099 88.425 60.6458 88.0803 62.7872Z" fill="#A2BC0C"/>
</g>
</svg>
