<svg width="250" height="100" viewBox="0 0 250 100" fill="none" xmlns="http://www.w3.org/2000/svg">
<g style="mix-blend-mode:luminosity" opacity="0.4">
<path d="M39 38.8787L57.4153 18.4707L83.286 55.5418L69.0279 81.4812V24.5519L39 38.8787Z" stroke="#222222" stroke-miterlimit="10" stroke-linejoin="round"/>
<path d="M99.0536 38.8787L80.6383 18.4707L54.7676 55.5418L69.0257 81.4812V24.5519L99.0536 38.8787Z" stroke="#222222" stroke-miterlimit="10" stroke-linejoin="round"/>
<path d="M122.009 46.8012H121.712L123.701 30.8435H124.455L129.255 45.593L134.032 30.8435H134.786L136.775 46.8012H134.878L133.301 34.035L129.164 46.8012H127.724L123.541 34.1946L122.009 46.8012Z" fill="#222222"/>
<path d="M150.968 30.8435H151.265V39.9622C151.265 42.3482 150.793 44.1036 149.848 45.2282C148.903 46.3376 147.669 46.8924 146.145 46.8924C145.185 46.8924 144.37 46.8088 143.7 46.6416C143.029 46.4592 142.397 46.1325 141.802 45.6613C140.583 44.7191 139.974 42.8194 139.974 39.9622V30.8435H141.871V39.9394C141.871 42.7054 142.29 44.5519 143.128 45.479C143.555 45.9349 143.997 46.2465 144.454 46.4136C144.926 46.5808 145.49 46.6644 146.145 46.6644C147.608 46.6644 148.774 46.1325 149.642 45.0686C150.526 43.9896 150.968 42.2798 150.968 39.9394V30.8435Z" fill="#222222"/>
<path d="M154.143 31.0714V30.8435H163.469V31.0714L155.4 46.5732H162.28C162.722 46.5732 163.126 46.4972 163.492 46.3452C163.858 46.1933 164.101 45.9729 164.223 45.6841L164.406 45.7753C164.376 45.8513 164.322 45.9501 164.246 46.0717C164.185 46.1781 163.979 46.33 163.629 46.5276C163.279 46.71 162.852 46.8012 162.349 46.8012H153.549V46.5732L161.572 31.0714H154.143Z" fill="#222222"/>
<path d="M166.164 46.8012H165.89L172.724 30.8435L172.976 30.7295L178.736 46.8012H176.793L175.01 41.7859H168.336L166.164 46.8012ZM172.016 33.3055L168.427 41.5579H174.942L172.016 33.3055Z" fill="#222222"/>
<path d="M121.186 69.0888H120.912L127.746 53.1311L127.998 53.0171L133.758 69.0888H131.815L130.032 64.0735H123.358L121.186 69.0888ZM127.038 55.5931L123.449 63.8455H129.964L127.038 55.5931Z" fill="#222222"/>
<path d="M136.228 69.0888H135.931L137.92 53.1311H138.674L143.474 67.8805L148.251 53.1311H149.005L150.994 69.0888H149.097L147.52 56.3226L143.382 69.0888H141.942L137.76 56.4822L136.228 69.0888Z" fill="#222222"/>
<path d="M153.553 69.0888H153.278L160.113 53.1311L160.364 53.0171L166.124 69.0888H164.181L162.398 64.0735H155.724L153.553 69.0888ZM159.404 55.5931L155.816 63.8455H162.33L159.404 55.5931Z" fill="#222222"/>
<path d="M168.371 69.0888H168.074V53.1311H168.851L178.36 67.8805V53.1311H178.657V69.0888H176.988L168.371 55.8667V69.0888Z" fill="#222222"/>
<path d="M181.738 53.359V53.1311H185.806V53.359H184.686V68.8608H185.806V69.0888H181.738V68.8608H182.789V53.359H181.738Z" fill="#222222"/>
<path d="M193.952 69.0888H192.054V53.359H188.1V53.1311H197.929V53.359H193.952V69.0888Z" fill="#222222"/>
<path d="M197.749 69.0888H197.475L204.31 53.1311L204.561 53.0171L210.321 69.0888H208.378L206.595 64.0735H199.921L197.749 69.0888ZM203.601 55.5931L200.012 63.8455H206.527L203.601 55.5931Z" fill="#222222"/>
</g>
</svg>
