<svg width="250" height="100" viewBox="0 0 250 100" fill="none" xmlns="http://www.w3.org/2000/svg">
<g style="mix-blend-mode:luminosity" opacity="0.4">
<path d="M62.5903 61.463C62.5903 65.7735 61.5127 69.0937 59.3865 71.3946C57.2604 73.6955 54.2023 74.8605 50.2121 74.8605C46.222 74.8605 43.1639 73.6955 41.0377 71.3946C38.9116 69.0937 37.834 65.7443 37.834 61.4338C37.834 57.0942 38.9116 53.8031 41.0377 51.5022C43.193 49.2304 46.2511 48.0654 50.2413 48.0654C54.2314 48.0654 57.2895 49.2304 59.4157 51.5313C61.5418 53.8322 62.5903 57.1233 62.5903 61.463ZM43.6008 61.463C43.6008 64.3755 44.1541 66.5598 45.2609 68.0452C46.3676 69.5306 48.0278 70.2587 50.2121 70.2587C54.61 70.2587 56.8235 67.3462 56.8235 61.4921C56.8235 55.6379 54.6391 52.6963 50.2413 52.6963C48.0569 52.6963 46.3968 53.4244 45.2609 54.9098C44.1541 56.3661 43.6008 58.5505 43.6008 61.463Z" fill="#222222"/>
<path d="M93.3467 74.5105H87.0557L83.5316 60.8508C83.4151 60.3557 83.1821 59.3654 82.8617 57.8218C82.5413 56.3073 82.3666 55.2588 82.3083 54.7637C82.2501 55.4044 82.0462 56.4238 81.7841 57.8509C81.4928 59.2781 81.289 60.2683 81.1142 60.8799L77.6192 74.5105H71.3573L64.7168 48.4727H70.1341L73.4543 62.6857C74.0368 65.3069 74.4446 67.5787 74.7067 69.501C74.7649 68.8311 74.9397 67.7826 75.2018 66.3555C75.4639 64.9283 75.6969 63.8507 75.9299 63.0643L79.7162 48.4727H84.9296L88.7158 63.0643C88.8906 63.7051 89.0945 64.7244 89.3275 66.0642C89.5896 67.404 89.7643 68.5689 89.91 69.5301C90.0265 68.5981 90.2303 67.4622 90.4925 66.0642C90.7546 64.6953 90.9876 63.5594 91.1915 62.7148L94.5117 48.5018H99.929L93.3467 74.5105Z" fill="#222222"/>
<path d="M126.346 74.5126H119.327L107.998 54.824H107.852C108.085 58.2899 108.201 60.7947 108.201 62.2801V74.5417H103.279V48.5039H110.24L121.541 67.9886H121.657C121.482 64.6101 121.395 62.2218 121.395 60.8238V48.5039H126.375V74.5126H126.346Z" fill="#222222"/>
<path d="M167.704 74.5105H161.413L157.889 60.8508C157.773 60.3557 157.54 59.3654 157.219 57.8218C156.899 56.3073 156.724 55.2588 156.666 54.7637C156.607 55.4044 156.404 56.4238 156.142 57.8509C155.85 59.2781 155.646 60.2683 155.472 60.8799L151.977 74.5105H145.715L139.074 48.4727H144.491L147.812 62.6857C148.394 65.3069 148.802 67.5787 149.064 69.501C149.122 68.8311 149.297 67.7826 149.559 66.3555C149.821 64.9283 150.054 63.8507 150.287 63.0643L154.074 48.4727H159.287L163.073 63.0643C163.248 63.7051 163.452 64.7244 163.685 66.0642C163.947 67.404 164.122 68.5689 164.267 69.5301C164.384 68.5981 164.588 67.4622 164.85 66.0642C165.112 64.6953 165.345 63.5594 165.549 62.7148L168.869 48.5018H174.345L167.704 74.5105Z" fill="#222222"/>
<path d="M177.604 74.5105V48.4727H183.108V74.5105H177.604Z" fill="#222222"/>
<path d="M195.113 74.5105H189.695V48.4727H204.607V52.987H195.113V59.6858H203.937V64.2002H195.113V74.5105Z" fill="#222222"/>
<path d="M209.705 74.5105V48.4727H215.21V74.5105H209.705Z" fill="#222222"/>
<path d="M57.0573 41.9793C56.4456 41.9793 55.8049 41.7463 55.3389 41.3095C53.9409 39.9988 52.106 39.2998 50.1838 39.2998C48.2615 39.2998 46.4266 40.028 45.0286 41.3095C44.0092 42.2706 42.3782 42.2123 41.4171 41.1638C40.456 40.1445 40.5142 38.5135 41.5627 37.5523C43.9219 35.3679 46.98 34.1738 50.1838 34.1738C53.3875 34.1738 56.4456 35.3679 58.8048 37.5523C59.8241 38.5135 59.9115 40.1153 58.9504 41.1638C58.4261 41.6881 57.7563 41.9793 57.0573 41.9793Z" fill="#FFC030"/>
<path d="M37.0506 35.252C36.3808 35.252 35.6818 34.9899 35.1866 34.4365C34.2255 33.4171 34.2838 31.7861 35.3323 30.825C39.3807 27.0679 44.6523 25 50.1861 25C55.7198 25 60.9915 27.0679 65.0398 30.825C66.0592 31.7861 66.1175 33.388 65.1855 34.4365C64.2243 35.4559 62.6224 35.5141 61.5739 34.5821C58.4576 31.6988 54.4092 30.0969 50.1861 30.0969C45.9629 30.0969 41.8854 31.6988 38.7982 34.5821C38.303 35.019 37.6623 35.252 37.0506 35.252Z" fill="#FFC030"/>
</g>
</svg>
