<svg width="250" height="100" viewBox="0 0 250 100" fill="none" xmlns="http://www.w3.org/2000/svg">
<g style="mix-blend-mode:luminosity" opacity="0.4">
<path d="M154.311 70.0086V66.3252H156.899V66.8727H154.858V67.6692H155.854C156.252 67.6692 156.6 67.7687 156.849 68.0176C157.098 68.2167 157.198 68.5153 157.198 68.8638C157.198 69.2122 157.098 69.5109 156.849 69.71C156.6 69.9091 156.302 70.0584 155.854 70.0584H154.311V70.0086ZM154.908 69.4611H155.854C156.351 69.4611 156.65 69.2122 156.65 68.814C156.65 68.4158 156.351 68.1669 155.854 68.1669H154.908V69.4611Z" fill="#A28D67"/>
<path d="M158.394 70.0096V69.4621C158.544 69.5119 158.643 69.5616 158.793 69.5616C158.942 69.5616 159.041 69.5119 159.141 69.4621C159.24 69.3625 159.34 69.2132 159.44 68.9643L157.996 66.376H158.643L159.738 68.367L160.634 66.376H161.331L159.987 69.263C159.738 69.8603 159.39 70.1092 158.942 70.1092C158.693 70.1092 158.544 70.0594 158.394 70.0096Z" fill="#A28D67"/>
<path d="M162.125 66.3252H165.161V66.8727H163.917V70.0086H163.369V66.8727H162.125V66.3252Z" fill="#A28D67"/>
<path d="M166.305 70.0086V66.3252H166.902V69.0131L168.893 66.3252H169.441V70.0086H168.843V67.3207L166.802 70.0086H166.305Z" fill="#A28D67"/>
<path d="M170.889 70.0086V66.3252H171.436V67.8185L172.979 66.3252H173.726L171.984 68.0176L173.975 70.0086H173.178L171.436 68.2665V70.0086H170.889Z" fill="#A28D67"/>
<path d="M176.859 70.0086V66.3252H179.896V70.0086H179.298V66.8727H177.457V70.0086H176.859Z" fill="#A28D67"/>
<path d="M181.293 70.0096V69.4621C181.442 69.5119 181.542 69.5616 181.691 69.5616C181.84 69.5616 181.94 69.5119 182.039 69.4621C182.139 69.3625 182.238 69.2132 182.338 68.9643L180.895 66.376H181.542L182.637 68.367L183.533 66.376H184.13L182.786 69.263C182.537 69.8603 182.189 70.1092 181.741 70.1092C181.591 70.1092 181.442 70.0594 181.293 70.0096Z" fill="#A28D67"/>
<path d="M185.023 66.3252H188.06V66.8727H186.815V70.0086H186.268V66.8727H185.023V66.3252Z" fill="#A28D67"/>
<path d="M189.205 70.0086V66.3252H191.843V66.8727H189.802V67.7687H191.445V68.3162H189.802V69.4611H191.893V70.0086H189.205Z" fill="#A28D67"/>
<path d="M193.086 70.0086V66.3252H193.683V69.4611H195.077V66.3252H195.625V69.4611H197.018V66.3252H197.616V70.0086H193.086Z" fill="#A28D67"/>
<path d="M199.061 70.0086V66.3252H201.649V66.8727H199.608V67.7687H201.3V68.3162H199.608V69.4611H201.748V70.0086H199.061Z" fill="#A28D67"/>
<path d="M203.29 69.5596C202.941 69.2112 202.742 68.7632 202.742 68.1659C202.742 67.6184 202.941 67.1704 203.29 66.8219C203.638 66.4735 204.136 66.2744 204.683 66.2744C205.082 66.2744 205.38 66.374 205.679 66.5233V67.1206C205.38 66.9215 205.032 66.8219 204.683 66.8219C204.285 66.8219 203.987 66.9713 203.738 67.2202C203.489 67.469 203.339 67.8175 203.339 68.2157C203.339 68.6139 203.489 68.9623 203.738 69.2112C203.987 69.4601 204.335 69.6094 204.733 69.6094C205.131 69.6094 205.48 69.5099 205.779 69.261V69.8583C205.48 70.0574 205.131 70.1569 204.683 70.1569C204.136 70.1072 203.638 69.9081 203.29 69.5596Z" fill="#A28D67"/>
<path d="M206.723 66.3252H209.709V66.8727H208.515V70.0086H207.917V66.8727H206.723V66.3252Z" fill="#A28D67"/>
<path d="M210.859 70.0086V66.3252H212.552C213.199 66.3252 213.647 66.6736 213.647 67.2212C213.647 67.6194 213.448 67.8683 213.149 67.9678C213.597 68.0674 213.945 68.4158 213.945 68.9633C213.945 69.262 213.846 69.5109 213.597 69.71C213.398 69.9091 213.099 70.0086 212.701 70.0086H210.859ZM211.457 67.8185H212.452C212.85 67.8185 213.05 67.6691 213.05 67.3207C213.05 67.0221 212.801 66.823 212.452 66.823H211.457V67.8185ZM211.457 69.4611H212.602C213.05 69.4611 213.298 69.262 213.298 68.8638C213.298 68.5153 213.05 68.3162 212.602 68.3162H211.457V69.4611Z" fill="#A28D67"/>
<path d="M215.188 70.0086V66.3252H215.785V69.0131L217.826 66.3252H218.323V70.0086H217.726V67.3207L215.685 70.0086H215.188Z" fill="#A28D67"/>
<path d="M219.766 70.008V66.3246H220.363V69.0125L222.404 66.3246H222.902V70.008H222.304V67.2703L220.263 70.008H219.766ZM220.363 65.2295H220.861C220.861 65.4784 221.01 65.6775 221.309 65.6775C221.607 65.6775 221.757 65.4784 221.757 65.2295H222.254C222.254 65.777 221.856 66.0757 221.309 66.0757C220.761 66.1255 220.363 65.777 220.363 65.2295Z" fill="#A28D67"/>
<path d="M43.8734 41.9113L27.4297 44.3278L39.3351 55.9385L49.2957 49.1607V42.0881C49.2957 41.0272 50.1797 40.1432 51.2406 40.1432C52.3015 40.1432 53.1856 41.0272 53.1856 42.0881V49.1607L63.1461 55.9385L75.0515 44.3278L58.6079 41.9113L51.2406 27L43.8734 41.9113Z" fill="url(#paint0_linear_7054_6001)"/>
<path d="M39.2773 55.9385L49.2379 49.1607V42.0881C49.2379 41.0272 50.1219 40.1432 51.1828 40.1432C52.2437 40.1432 53.1278 41.0272 53.1278 42.0881V49.1607L63.1472 55.9385L51.2417 27L39.2773 55.9385Z" fill="url(#paint1_linear_7054_6001)"/>
<path d="M38.9223 58.1791L36.5059 72.3242L46.7611 66.9608C48.8828 62.9531 49.2954 58.297 49.3543 56.1752V55.9984V54.9375L38.9223 58.1791Z" fill="url(#paint2_linear_7054_6001)"/>
<path d="M53.125 54.9375V56.1752C53.1839 58.3559 53.5965 62.9531 55.7183 66.9608L65.9735 72.3242L63.557 58.1201H63.4981L53.125 54.9375Z" fill="url(#paint3_linear_7054_6001)"/>
<path d="M36.5059 72.3242L46.7611 66.9608C48.8828 62.9531 49.2954 58.297 49.3543 56.1752V55.9984V54.9375L36.5059 72.3242Z" fill="url(#paint4_linear_7054_6001)"/>
<path d="M53.125 56.1752C53.1839 58.3559 53.5965 62.9531 55.7183 66.9608L65.9735 72.3242L53.125 54.9375V56.1752Z" fill="url(#paint5_linear_7054_6001)"/>
<path d="M27.3711 44.3276L43.4022 45.9779L43.8737 41.9111L27.3711 44.3276Z" fill="url(#paint6_linear_7054_6001)"/>
<path d="M39.2773 55.939L49.2968 49.1612L43.403 45.9785L39.2773 55.939Z" fill="url(#paint7_linear_7054_6001)"/>
<path d="M59.018 45.9779L75.0491 44.3276L58.6055 41.9111L59.018 45.9779Z" fill="url(#paint8_linear_7054_6001)"/>
<path d="M53.125 49.1614L63.1444 55.9393L59.0188 45.9788L53.125 49.1614Z" fill="url(#paint9_linear_7054_6001)"/>
<path d="M109.077 57.0669C108.84 56.5934 108.603 56.0015 108.307 55.2911L108.248 55.1728C107.893 54.4033 107.538 53.6338 107.064 52.9826C108.366 52.5091 108.958 51.5028 108.958 49.9638C108.958 47.6553 107.597 46.5898 104.637 46.5898H100.02V47.241L100.494 47.4185C100.849 47.5369 101.086 47.8921 101.086 48.3064V57.0669C101.086 57.4813 100.849 57.7772 100.494 57.9548L99.9609 58.1324V58.7835H104.4V58.1324L103.927 57.9548C103.572 57.7772 103.335 57.4813 103.335 57.0669V53.2786H104.4C104.933 53.2786 105.407 54.4625 105.939 55.5871L106.176 56.1198C107.005 57.9548 107.301 58.6059 107.301 58.6059L107.36 58.7835H110.556V58.0732L110.024 58.014C109.669 57.8364 109.313 57.4813 109.077 57.0669ZM106.709 50.023C106.709 50.9701 106.354 51.562 105.584 51.7988L105.466 51.858C105.229 51.9172 104.992 51.9172 104.696 51.9172H103.394V48.0697H104.696C106.058 48.0697 106.709 48.6616 106.709 50.023Z" fill="#706F6F"/>
<path d="M111.858 47.3581L112.332 47.5357C112.687 47.7133 112.923 48.0093 112.923 48.4236V57.1841C112.923 57.5985 112.687 57.8944 112.332 58.072L111.799 58.2496V58.9007H116.238V58.2496L115.765 58.072C115.41 57.8944 115.173 57.5985 115.173 57.1841V48.4236C115.173 48.0093 115.41 47.7133 115.765 47.5357L116.297 47.3581V46.707H111.858V47.3581Z" fill="#706F6F"/>
<path d="M222.308 56.0003L221.302 57.1249C221.125 57.3025 220.888 57.4209 220.592 57.4209H216.626V48.4236C216.626 48.0093 216.863 47.7133 217.218 47.5357L217.751 47.3581V46.707H213.311V47.3581L213.785 47.5357C214.14 47.7133 214.377 48.0093 214.377 48.4236V57.1841C214.377 57.5985 214.14 57.8944 213.785 58.072L213.252 58.2496V58.9007H222.486L222.9 56.1186L222.308 56.0003Z" fill="#706F6F"/>
<path d="M93.1535 43.6895H87.0566V44.3998L87.6486 44.6365C88.1221 44.8141 88.4773 45.2877 88.4773 45.8204V56.8894C88.4773 57.4221 88.1813 57.8957 87.7078 58.0732L87.1158 58.31V59.0203H92.5615V58.31L91.9696 58.0732C91.4961 57.8957 91.1409 57.4221 91.1409 56.8894V51.9764H92.7983C96.4683 51.9764 98.1848 50.6742 98.1848 47.8329C98.1848 45.1101 96.5866 43.7486 93.1535 43.6895ZM91.1409 45.406H92.7983C94.6333 45.406 95.462 46.1755 95.462 47.8921C95.462 49.4903 94.6925 50.319 93.0943 50.3782H91.1409V45.406Z" fill="#706F6F"/>
<path d="M128.49 46.8852L125.116 50.8511L121.565 46.6484H118.131V47.2996L118.605 47.4771C118.96 47.6547 119.197 47.9507 119.197 48.365V57.1255C119.197 57.5399 118.96 57.8358 118.605 58.0134L118.072 58.191V58.8421H121.683V58.191L121.209 58.0134C120.854 57.8358 120.618 57.5399 120.618 57.1255V49.0753L124.524 53.6924L128.431 49.0753V57.1255C128.431 57.5399 128.194 57.8358 127.839 58.0134L127.306 58.191V58.8421H131.746V58.191L131.272 58.0134C130.917 57.8358 130.68 57.5399 130.68 57.1255V48.4242C130.68 48.0691 130.917 47.7139 131.272 47.5363L131.864 47.2996V46.6484H128.49V46.8852Z" fill="#706F6F"/>
<path d="M188.926 56.889L184.96 46.6487H183.658L179.692 56.9482C179.515 57.4217 179.1 57.8361 178.627 58.0137L178.271 58.132V58.7832H182.001V58.132L181.231 57.8361C181.172 57.7769 181.113 57.7177 181.054 57.6585C180.994 57.5993 180.994 57.4809 181.054 57.4217L182.237 54.4029H185.73L186.914 57.4217C186.973 57.4809 186.914 57.5993 186.914 57.6585C186.854 57.7177 186.795 57.7769 186.736 57.8361L185.848 58.1912V58.8424H190.702V58.1912L190.051 58.0137C189.518 57.8361 189.163 57.4217 188.926 56.889ZM185.138 52.9823H182.77L183.954 49.9043L185.138 52.9823Z" fill="#706F6F"/>
<path d="M196.681 47.3587L197.451 47.6547C197.628 47.7139 197.687 47.8915 197.628 48.0691L194.728 55.5865L191.827 48.0691C191.768 47.8915 191.827 47.7139 192.005 47.6547L192.893 47.2996V46.6484H188.039V47.2996L188.69 47.5363C189.164 47.7139 189.578 48.1283 189.756 48.6018L193.722 58.8421H195.024L198.99 48.5426C199.167 48.0691 199.582 47.6547 200.055 47.4771L200.41 47.3587V46.7076L196.681 46.6484V47.3587Z" fill="#706F6F"/>
<path d="M141.336 57.1267C141.159 57.3043 140.922 57.4227 140.626 57.4227H137.015V53.1608H138.436C138.791 53.1608 139.146 53.3976 139.324 53.6935V53.9303H140.034V50.8523H139.324V51.0891C139.146 51.4442 138.85 51.6218 138.436 51.6218H137.015V48.0111H139.916C140.212 48.0111 140.448 48.1294 140.626 48.307L141.632 49.4317L142.224 49.3133L141.81 46.5312H133.641V47.1824L134.115 47.3599C134.47 47.5375 134.707 47.8335 134.707 48.2478V57.0083C134.707 57.4227 134.47 57.7186 134.115 57.8962L133.582 58.0738V58.7249H142.461L142.875 56.0021L142.283 55.8245L141.336 57.1267Z" fill="#706F6F"/>
<path d="M176.145 57.0663C175.908 56.5928 175.671 56.0009 175.375 55.2906L175.316 55.2314C174.961 54.4619 174.606 53.6924 174.132 53.0412C175.435 52.5677 176.027 51.5614 176.027 50.0224C176.027 47.7139 174.665 46.6484 171.706 46.6484H167.088V47.2996L167.562 47.4771C167.917 47.5955 168.154 47.9507 168.154 48.365V57.1255C168.154 57.5399 167.917 57.8358 167.562 58.0134L167.029 58.191V58.8421H171.469V58.191L170.995 58.0134C170.64 57.8358 170.403 57.5399 170.403 57.1255V53.3372H171.469C172.001 53.3372 172.475 54.521 173.008 55.6457L173.245 56.1784C174.073 58.0134 174.369 58.6645 174.369 58.6645L174.428 58.8421H177.625V58.1318L177.151 58.0726C176.737 57.8358 176.382 57.4807 176.145 57.0663ZM170.462 48.0691H171.765C173.185 48.0691 173.836 48.661 173.836 50.0224C173.836 50.9695 173.481 51.5614 172.712 51.7982L172.593 51.8574C172.357 51.9166 172.12 51.9166 171.824 51.9166H170.522V48.0691H170.462Z" fill="#706F6F"/>
<path d="M151.573 43.6892L151.1 47.0632L151.751 47.1224L152.994 45.7018C153.231 45.4058 153.586 45.2874 153.941 45.2874H156.9V56.7708C156.9 57.3035 156.605 57.777 156.131 57.9546L155.539 58.1914V58.9017H160.985V58.1914L160.393 57.9546C159.919 57.777 159.564 57.3035 159.564 56.7708V45.2874H162.524C162.879 45.2874 163.234 45.465 163.471 45.7018L164.714 47.1224L165.365 47.0632L164.891 43.6892H151.573Z" fill="#706F6F"/>
<path d="M209.883 57.1267C209.706 57.3043 209.469 57.4227 209.173 57.4227H205.562V53.1608H206.983C207.338 53.1608 207.693 53.3976 207.871 53.6935V53.9303H208.581V50.8523H207.871V51.0891C207.693 51.4442 207.397 51.6218 206.983 51.6218H205.562V48.0111H208.463C208.758 48.0111 208.995 48.1294 209.173 48.307L210.179 49.4317L210.771 49.3133L210.357 46.5312H202.188V47.1824L202.662 47.3599C203.017 47.5375 203.254 47.8335 203.254 48.2478V57.0083C203.254 57.4227 203.017 57.7186 202.662 57.8962L202.129 58.0738V58.7249H211.008L211.422 56.0021L210.83 55.8245L209.883 57.1267Z" fill="#706F6F"/>
</g>
<defs>
<linearGradient id="paint0_linear_7054_6001" x1="27.3848" y1="41.4651" x2="75.0485" y2="41.4651" gradientUnits="userSpaceOnUse">
<stop stop-color="#F9DC85"/>
<stop offset="1" stop-color="#7F5211"/>
</linearGradient>
<linearGradient id="paint1_linear_7054_6001" x1="39.302" y1="41.4651" x2="63.1342" y2="41.4651" gradientUnits="userSpaceOnUse">
<stop stop-color="#F9DC85"/>
<stop offset="1" stop-color="#7F5211"/>
</linearGradient>
<linearGradient id="paint2_linear_7054_6001" x1="38.7394" y1="60.1873" x2="48.591" y2="68.3589" gradientUnits="userSpaceOnUse">
<stop stop-color="#F9DC85"/>
<stop offset="0.5188" stop-color="#7F5211"/>
</linearGradient>
<linearGradient id="paint3_linear_7054_6001" x1="53.1444" y1="63.6279" x2="65.9445" y2="63.6279" gradientUnits="userSpaceOnUse">
<stop stop-color="#F9DC85"/>
<stop offset="1" stop-color="#7F5211"/>
</linearGradient>
<linearGradient id="paint4_linear_7054_6001" x1="36.4875" y1="63.6279" x2="49.2871" y2="63.6279" gradientUnits="userSpaceOnUse">
<stop stop-color="#F9DC85"/>
<stop offset="1" stop-color="#7F5211"/>
</linearGradient>
<linearGradient id="paint5_linear_7054_6001" x1="55.5589" y1="66.73" x2="61.0883" y2="62.4263" gradientUnits="userSpaceOnUse">
<stop stop-color="#F9DC85"/>
<stop offset="0.9313" stop-color="#7F5211"/>
</linearGradient>
<linearGradient id="paint6_linear_7054_6001" x1="27.3852" y1="43.948" x2="43.853" y2="43.948" gradientUnits="userSpaceOnUse">
<stop stop-color="#F9DC85"/>
<stop offset="1" stop-color="#7F5211"/>
</linearGradient>
<linearGradient id="paint7_linear_7054_6001" x1="39.302" y1="50.9526" x2="49.2885" y2="50.9526" gradientUnits="userSpaceOnUse">
<stop stop-color="#F9DC85"/>
<stop offset="1" stop-color="#7F5211"/>
</linearGradient>
<linearGradient id="paint8_linear_7054_6001" x1="58.5789" y1="43.948" x2="75.0461" y2="43.948" gradientUnits="userSpaceOnUse">
<stop stop-color="#F9DC85"/>
<stop offset="1" stop-color="#7F5211"/>
</linearGradient>
<linearGradient id="paint9_linear_7054_6001" x1="53.145" y1="50.9528" x2="63.1314" y2="50.9528" gradientUnits="userSpaceOnUse">
<stop stop-color="#F9DC85"/>
<stop offset="1" stop-color="#7F5211"/>
</linearGradient>
</defs>
</svg>
