<svg width="250" height="100" viewBox="0 0 250 100" fill="none" xmlns="http://www.w3.org/2000/svg">
<g style="mix-blend-mode:luminosity" opacity="0.4">
<path d="M104.269 66.7548C104.747 66.9837 104.986 67.363 104.986 67.8926C104.986 68.3056 104.83 68.6422 104.517 68.9025C104.208 69.1584 103.804 69.2863 103.303 69.2863C102.445 69.2863 101.877 68.9227 101.6 68.1956L102.264 67.8118C102.402 68.3101 102.749 68.5592 103.303 68.5592C103.598 68.5592 103.824 68.4963 103.98 68.3706C104.137 68.2405 104.215 68.0677 104.215 67.8522C104.215 67.6413 104.139 67.473 103.987 67.3473C103.84 67.2171 103.629 67.1521 103.357 67.1521H102.787V66.4519H103.202C103.466 66.4519 103.672 66.3913 103.819 66.2701C103.967 66.1489 104.041 65.9873 104.041 65.7854C104.041 65.5834 103.974 65.424 103.84 65.3073C103.705 65.1862 103.513 65.1256 103.263 65.1256C102.798 65.1256 102.485 65.3388 102.324 65.7652L101.667 65.3814C101.971 64.7261 102.503 64.3984 103.263 64.3984C103.723 64.3984 104.097 64.5241 104.383 64.7755C104.669 65.0223 104.812 65.3455 104.812 65.745C104.812 66.1893 104.631 66.5259 104.269 66.7548Z" fill="#0651AF"/>
<path d="M108.718 69.1987L108.39 68.2495H106.391L106.063 69.1987H105.224L106.928 64.486H107.853L109.55 69.1987H108.718ZM106.646 67.5223H108.135L107.391 65.3949L106.646 67.5223Z" fill="#0651AF"/>
<path d="M113.509 64.486V69.1987H112.737V65.2266H110.826V69.1987H110.055V64.486H113.509Z" fill="#0651AF"/>
<path d="M116.964 64.486H117.736V69.1987H116.964V67.3877C116.638 67.5358 116.294 67.6099 115.932 67.6099C115.462 67.6099 115.08 67.4797 114.785 67.2194C114.494 66.9546 114.349 66.6045 114.349 66.1691V64.486H115.12V66.0883C115.12 66.3307 115.194 66.5214 115.341 66.6606C115.489 66.7997 115.69 66.8693 115.945 66.8693C116.316 66.8693 116.656 66.793 116.964 66.6404V64.486Z" fill="#0651AF"/>
<path d="M121.732 69.1987L121.403 68.2495H119.405L119.076 69.1987H118.238L119.941 64.486H120.867L122.564 69.1987H121.732ZM119.66 67.5223H121.148L120.404 65.3949L119.66 67.5223Z" fill="#0651AF"/>
<path d="M125.111 69.2863C124.405 69.2863 123.819 69.0529 123.354 68.5861C122.889 68.1148 122.657 67.5336 122.657 66.8424C122.657 66.1512 122.889 65.5722 123.354 65.1054C123.819 64.6341 124.405 64.3984 125.111 64.3984C125.536 64.3984 125.927 64.4994 126.285 64.7014C126.647 64.9034 126.929 65.1772 127.13 65.5228L126.459 65.9133C126.334 65.6799 126.151 65.4959 125.909 65.3612C125.672 65.2221 125.406 65.1525 125.111 65.1525C124.611 65.1525 124.204 65.3118 123.891 65.6305C123.582 65.9492 123.428 66.3531 123.428 66.8424C123.428 67.3316 123.582 67.7355 123.891 68.0542C124.204 68.3729 124.611 68.5322 125.111 68.5322C125.406 68.5322 125.675 68.4649 125.916 68.3302C126.158 68.1911 126.339 68.0048 126.459 67.7714L127.13 68.1552C126.933 68.5008 126.654 68.7768 126.292 68.9833C125.934 69.1853 125.541 69.2863 125.111 69.2863Z" fill="#0651AF"/>
<path d="M130.789 64.486V65.2266H129.468V69.1987H128.697V65.2266H127.369V64.486H130.789Z" fill="#0651AF"/>
<path d="M134.177 69.1987V66.0008L131.963 69.1987H131.36V64.486H132.131V67.6839L134.344 64.486H134.948V69.1987H134.177Z" fill="#0651AF"/>
<path d="M141.083 68.4582H141.586V70.1009H140.815V69.1987H137.964V70.1009H137.193V68.4582H137.629C137.902 68.0991 138.038 67.5583 138.038 66.8356V64.486H141.083V68.4582ZM138.474 68.4582H140.312V65.2131H138.809V66.8491C138.809 67.5493 138.698 68.0856 138.474 68.4582Z" fill="#0651AF"/>
<path d="M141.908 69.1987V68.4851C142.203 68.5255 142.423 68.4537 142.566 68.2697C142.713 68.0856 142.787 67.7333 142.787 67.2126V64.486H145.932V69.1987H145.161V65.2266H143.558V67.1992C143.558 67.6121 143.513 67.96 143.424 68.2427C143.339 68.5255 143.216 68.7387 143.055 68.8823C142.894 69.0215 142.72 69.1157 142.532 69.1651C142.349 69.21 142.141 69.2212 141.908 69.1987Z" fill="#0651AF"/>
<path d="M150.108 64.486V69.1987H149.337V67.4819H148.592L147.459 69.1987H146.587L147.781 67.4146C147.472 67.3204 147.217 67.1431 147.016 66.8828C146.819 66.6179 146.721 66.324 146.721 66.0008C146.721 65.5789 146.866 65.2221 147.157 64.9303C147.452 64.6341 147.81 64.486 148.23 64.486H150.108ZM148.23 66.7885H149.337V65.2131H148.23C148.024 65.2131 147.85 65.2894 147.707 65.442C147.564 65.5946 147.492 65.7809 147.492 66.0008C147.492 66.2207 147.564 66.407 147.707 66.5596C147.85 66.7122 148.024 66.7885 148.23 66.7885Z" fill="#0651AF"/>
<path d="M154.501 66.3038C154.935 66.3038 155.295 66.4407 155.581 66.7144C155.867 66.9882 156.01 67.3338 156.01 67.7513C156.01 68.1687 155.867 68.5143 155.581 68.7881C155.295 69.0619 154.935 69.1987 154.501 69.1987H152.724V64.486H155.607V65.2266H153.495V66.3038H154.501ZM154.501 68.4716C154.711 68.4716 154.885 68.4066 155.024 68.2764C155.167 68.1417 155.239 67.9667 155.239 67.7513C155.239 67.5358 155.167 67.363 155.024 67.2328C154.885 67.0982 154.711 67.0309 154.501 67.0309H153.495V68.4716H154.501Z" fill="#0651AF"/>
<path d="M156.647 69.1987V64.486H157.418V66.1018H158.377C158.82 66.1018 159.189 66.2521 159.484 66.5529C159.783 66.8491 159.933 67.2149 159.933 67.6503C159.933 68.0856 159.783 68.4537 159.484 68.7544C159.189 69.0506 158.82 69.1987 158.377 69.1987H156.647ZM160.389 69.1987V64.486H161.16V69.1987H160.389ZM157.418 68.4716H158.377C158.605 68.4716 158.793 68.3953 158.94 68.2427C159.088 68.0856 159.162 67.8881 159.162 67.6503C159.162 67.4124 159.088 67.2171 158.94 67.0645C158.793 66.9074 158.605 66.8289 158.377 66.8289H157.418V68.4716Z" fill="#0651AF"/>
<path d="M165.154 64.486V65.2266H163.833V69.1987H163.061V65.2266H161.733V64.486H165.154Z" fill="#0651AF"/>
<path d="M169.379 68.5794C168.909 69.0506 168.335 69.2863 167.655 69.2863C166.976 69.2863 166.399 69.0506 165.925 68.5794C165.456 68.1036 165.221 67.5246 165.221 66.8424C165.221 66.1601 165.456 65.5834 165.925 65.1121C166.399 64.6363 166.976 64.3984 167.655 64.3984C168.335 64.3984 168.909 64.6363 169.379 65.1121C169.853 65.5834 170.09 66.1601 170.09 66.8424C170.09 67.5246 169.853 68.1036 169.379 68.5794ZM166.468 68.0542C166.79 68.3729 167.186 68.5322 167.655 68.5322C168.125 68.5322 168.518 68.3729 168.836 68.0542C169.158 67.7311 169.319 67.3271 169.319 66.8424C169.319 66.3576 169.158 65.9559 168.836 65.6372C168.518 65.3141 168.125 65.1525 167.655 65.1525C167.186 65.1525 166.79 65.3141 166.468 65.6372C166.151 65.9559 165.992 66.3576 165.992 66.8424C165.992 67.3271 166.151 67.7311 166.468 68.0542Z" fill="#0651AF"/>
<path d="M173.556 66.7548C173.762 66.8626 173.923 67.0107 174.039 67.1992C174.155 67.3877 174.214 67.6054 174.214 67.8522C174.214 68.2382 174.077 68.5592 173.805 68.815C173.532 69.0708 173.199 69.1987 172.805 69.1987H170.793V64.486H172.658C173.042 64.486 173.366 64.6116 173.63 64.863C173.898 65.1099 174.033 65.4195 174.033 65.7921C174.033 66.2005 173.874 66.5214 173.556 66.7548ZM172.658 65.2131H171.565V66.4519H172.658C172.828 66.4519 172.971 66.3935 173.087 66.2768C173.203 66.1556 173.261 66.0075 173.261 65.8325C173.261 65.6574 173.203 65.5116 173.087 65.3949C172.971 65.2737 172.828 65.2131 172.658 65.2131ZM172.805 68.4716C172.984 68.4716 173.134 68.4088 173.255 68.2831C173.38 68.153 173.442 67.9959 173.442 67.8118C173.442 67.6278 173.38 67.473 173.255 67.3473C173.134 67.2171 172.984 67.1521 172.805 67.1521H171.565V68.4716H172.805Z" fill="#0651AF"/>
<path d="M178.81 68.5794C178.34 69.0506 177.766 69.2863 177.086 69.2863C176.407 69.2863 175.83 69.0506 175.356 68.5794C174.887 68.1036 174.652 67.5246 174.652 66.8424C174.652 66.1601 174.887 65.5834 175.356 65.1121C175.83 64.6363 176.407 64.3984 177.086 64.3984C177.766 64.3984 178.34 64.6363 178.81 65.1121C179.284 65.5834 179.521 66.1601 179.521 66.8424C179.521 67.5246 179.284 68.1036 178.81 68.5794ZM175.899 68.0542C176.221 68.3729 176.617 68.5322 177.086 68.5322C177.556 68.5322 177.949 68.3729 178.267 68.0542C178.589 67.7311 178.75 67.3271 178.75 66.8424C178.75 66.3576 178.589 65.9559 178.267 65.6372C177.949 65.3141 177.556 65.1525 177.086 65.1525C176.617 65.1525 176.221 65.3141 175.899 65.6372C175.582 65.9559 175.423 66.3576 175.423 66.8424C175.423 67.3271 175.582 67.7311 175.899 68.0542Z" fill="#0651AF"/>
<path d="M181.083 64.0147V63.3818H182.961V64.0147H181.083ZM183.041 69.1987V66.0008L180.828 69.1987H180.224V64.486H180.996V67.6839L183.209 64.486H183.812V69.1987H183.041Z" fill="#0651AF"/>
<path d="M189.478 64.486V65.2266H188.157V69.1987H187.386V65.2266H186.058V64.486H189.478Z" fill="#0651AF"/>
<path d="M190.82 68.4582H192.899V69.1987H190.048V64.486H192.865V65.2266H190.82V66.4519H192.697V67.1857H190.82V68.4582Z" fill="#0651AF"/>
<path d="M197.058 69.1987H196.18L195.147 67.4954L194.114 69.1987H193.236L194.711 66.775L193.323 64.486H194.195L195.147 66.0547L196.099 64.486H196.978L195.59 66.775L197.058 69.1987Z" fill="#0651AF"/>
<path d="M200.409 64.486H201.18V69.1987H200.409V67.1588H198.397V69.1987H197.626V64.486H198.397V66.4182H200.409V64.486Z" fill="#0651AF"/>
<path d="M204.935 69.1987V66.0008L202.722 69.1987H202.119V64.486H202.89V67.6839L205.103 64.486H205.707V69.1987H204.935Z" fill="#0651AF"/>
<path d="M210.185 69.1987H209.267L207.416 66.9568V69.1987H206.644V64.486H207.416V66.6L209.199 64.486H210.118L208.22 66.7818L210.185 69.1987Z" fill="#0651AF"/>
<path d="M213.502 69.1987V66.0008L211.289 69.1987H210.685V64.486H211.456V67.6839L213.67 64.486H214.273V69.1987H213.502Z" fill="#0651AF"/>
<path fill-rule="evenodd" clip-rule="evenodd" d="M64.7163 21C80.5764 21 93.4326 33.958 93.4326 49.9437C93.4326 65.9293 80.5764 78.8874 64.7163 78.8874C48.8562 78.8874 36 65.9293 36 49.9437C36 33.958 48.8562 21 64.7163 21Z" fill="#0651AF"/>
<path d="M44.3203 39.4039H49.9183C51.4322 39.4039 52.5949 39.5219 53.4091 39.7633C54.2179 40.0046 54.8325 40.3479 55.2422 40.7984C55.652 41.2516 55.926 41.8014 56.075 42.4423C56.2187 43.0859 56.2905 44.0808 56.2905 45.4297V47.3042C56.2905 48.6746 56.1522 49.6775 55.8675 50.3051C55.5881 50.9353 55.0693 51.4207 54.3217 51.7585C53.5687 52.0938 52.5869 52.2627 51.3763 52.2627H49.8864V60.9514H44.3203V39.4093V39.4039ZM49.8864 43.0805V48.5673C50.0433 48.5754 50.179 48.5807 50.2908 48.5807C50.799 48.5807 51.1502 48.452 51.3497 48.1999C51.5439 47.9505 51.6424 47.4249 51.6424 46.6258V44.8505C51.6424 44.1157 51.5306 43.633 51.2992 43.4104C51.073 43.1878 50.6021 43.0805 49.8837 43.0805H49.8864ZM57.8843 39.4039H61.8167C64.4374 39.4039 66.2121 39.5031 67.1406 39.7069C68.0692 39.9108 68.8248 40.4337 69.4101 41.2731C69.9955 42.1098 70.2882 43.4479 70.2882 45.2822C70.2882 46.9583 70.0806 48.0819 69.6682 48.6585C69.2585 49.2351 68.4417 49.581 67.2284 49.6936C68.3273 49.9698 69.0696 50.3372 69.4474 50.8012C69.8252 51.2598 70.0593 51.6861 70.1498 52.0723C70.2456 52.4585 70.2882 53.5204 70.2882 55.2582V60.9461H65.1265V53.7779C65.1265 52.6247 65.0361 51.9114 64.8578 51.6352C64.6822 51.359 64.2139 51.2222 63.453 51.2222V60.9461H57.8869V39.4039H57.8843ZM63.4503 43.0805V47.8728C64.0702 47.8728 64.5039 47.7869 64.7514 47.6126C64.9988 47.441 65.1239 46.8778 65.1239 45.9285V44.7432C65.1239 44.0567 65.0015 43.6088 64.7647 43.3943C64.5252 43.1824 64.0835 43.0779 63.4503 43.0779V43.0805ZM85.1079 52.0321C85.1079 54.1989 85.0574 55.7275 84.9536 56.6259C84.8552 57.5296 84.5385 58.3502 84.0091 59.0957C83.4769 59.8412 82.7559 60.4124 81.8513 60.812C80.9467 61.2116 79.8931 61.41 78.6905 61.41C77.5464 61.41 76.5247 61.2196 75.6148 60.8415C74.7048 60.4661 73.9705 59.9029 73.4224 59.1493C72.869 58.3958 72.5391 57.5752 72.4326 56.6875C72.3289 55.7972 72.2757 54.2472 72.2757 52.0294V48.3447C72.2757 46.1806 72.3262 44.6493 72.43 43.751C72.5284 42.8472 72.845 42.0266 73.3745 41.2811C73.9066 40.5356 74.6277 39.9644 75.5323 39.5648C76.4369 39.1652 77.4905 38.9668 78.6931 38.9668C79.8372 38.9668 80.8589 39.1572 81.7688 39.5353C82.6788 39.9108 83.4131 40.4739 83.9612 41.2275C84.5146 41.981 84.8445 42.8016 84.9509 43.6893C85.0547 44.5796 85.1079 46.1296 85.1079 48.3447V52.0294V52.0321ZM79.5419 44.9551C79.5419 43.9575 79.4887 43.3165 79.3796 43.0349C79.2731 42.7587 79.0523 42.6166 78.7171 42.6166C78.4324 42.6166 78.2169 42.7292 78.0652 42.9572C77.9162 43.1798 77.8391 43.8475 77.8391 44.9551V55.0088C77.8391 56.2558 77.8896 57.0281 77.9881 57.3177C78.0865 57.6127 78.318 57.7575 78.6772 57.7575C79.047 57.7575 79.2864 57.5886 79.3875 57.2534C79.4913 56.9182 79.5419 56.1136 79.5419 54.8479V44.9524V44.9551Z" fill="white"/>
<path d="M111.582 48.8808C112.388 49.157 112.987 49.6075 113.383 50.2297C113.774 50.8545 113.974 52.3214 113.974 54.6277C113.974 56.3386 113.779 57.6687 113.394 58.6127C113.005 59.5566 112.34 60.2727 111.39 60.7634C110.44 61.2569 109.224 61.5036 107.737 61.5036C106.053 61.5036 104.725 61.2166 103.765 60.6454C102.802 60.0742 102.166 59.3716 101.865 58.5403C101.564 57.7143 101.41 56.2716 101.41 54.22V52.5172H106.734V56.0222C106.734 56.9581 106.787 57.5507 106.902 57.8028C107.011 58.0576 107.258 58.1836 107.636 58.1836C108.051 58.1836 108.325 58.0254 108.456 57.7036C108.586 57.3845 108.652 56.5505 108.652 55.2016V53.7078C108.652 52.8819 108.562 52.2785 108.378 51.8977C108.195 51.5169 107.921 51.2675 107.559 51.1495C107.2 51.0261 106.5 50.9591 105.465 50.9403V47.8081C106.729 47.8081 107.508 47.7571 107.812 47.6633C108.11 47.564 108.325 47.3549 108.456 47.0223C108.586 46.6952 108.652 46.183 108.652 45.483V44.2897C108.652 43.5361 108.575 43.0427 108.424 42.8013C108.267 42.56 108.027 42.442 107.703 42.442C107.327 42.442 107.077 42.568 106.942 42.8174C106.803 43.0722 106.734 43.6085 106.734 44.4345V46.1991H101.41V44.3648C101.41 42.3079 101.878 40.9241 102.81 40.2028C103.744 39.4814 105.223 39.1167 107.256 39.1167C109.796 39.1167 111.521 39.6155 112.425 40.6184C113.33 41.6214 113.785 43.0159 113.785 44.7938C113.785 46.0006 113.622 46.8722 113.298 47.4085C112.971 47.9448 112.396 48.4356 111.582 48.8781V48.8808ZM125.651 39.5243L128.831 61.0664H123.153L122.852 57.1994H120.849L120.548 61.0664H114.796L117.616 39.5243L125.654 39.5243H125.651ZM122.701 53.386C122.435 50.943 122.155 47.9207 121.86 44.3111C121.312 48.4517 120.963 51.474 120.814 53.386H122.701ZM142.538 61.0664H136.972V43.8257H135.352V61.0664L129.786 61.0664V39.5243H142.538V61.0664ZM152.351 52.8095C151.904 53.2922 151.318 53.673 150.6 53.9626C149.879 54.2495 149.155 54.3944 148.416 54.3944C147.093 54.3944 146.128 54.0216 145.524 53.2788C144.925 52.5333 144.622 51.3828 144.622 49.8194V39.5243H150.188V49.2187C150.188 50.058 150.26 50.64 150.403 50.9537C150.547 51.2675 150.786 51.4257 151.119 51.4257C151.938 51.4257 152.348 50.7097 152.348 49.2696V39.5243H157.914V61.0664L152.348 61.0664V52.8095H152.351ZM169.743 39.5243L172.923 61.0664H167.245L166.944 57.1994H164.941L164.64 61.0664H158.888L161.708 39.5243L169.746 39.5243H169.743ZM166.793 53.386C166.527 50.943 166.247 47.9207 165.952 44.3111C165.404 48.4517 165.055 51.474 164.906 53.386H166.793ZM186.846 48.9183H181.28V45.1773C181.28 44.0885 181.221 43.4128 181.104 43.1392C180.987 42.8711 180.726 42.7343 180.325 42.7343C179.875 42.7343 179.585 42.8979 179.465 43.225C179.343 43.5549 179.282 44.2655 179.282 45.3543V55.349C179.282 56.3976 179.346 57.0787 179.465 57.4006C179.588 57.7197 179.862 57.8779 180.285 57.8779C180.695 57.8779 180.966 57.7197 181.091 57.3979C181.216 57.0787 181.28 56.3252 181.28 55.1426V52.434H186.846V53.2734C186.846 55.5073 186.689 57.0922 186.378 58.0227C186.066 58.9586 185.375 59.7765 184.305 60.4792C183.233 61.1818 181.918 61.5331 180.351 61.5331C178.726 61.5331 177.382 61.2381 176.326 60.6427C175.272 60.0474 174.57 59.2268 174.227 58.1729C173.883 57.119 173.713 55.5394 173.713 53.4289V47.1377C173.713 45.5849 173.766 44.4238 173.87 43.6461C173.979 42.8684 174.29 42.1202 174.815 41.4042C175.336 40.6881 176.062 40.1196 176.991 39.7066C177.92 39.2937 178.986 39.0898 180.192 39.0898C181.825 39.0898 183.177 39.409 184.244 40.0472C185.308 40.6828 186.005 41.4766 186.343 42.4313C186.676 43.3833 186.843 44.8636 186.843 46.8748V48.921L186.846 48.9183ZM200.024 39.5216V43.8257H196.754V61.0664H191.188V43.8257H187.892V39.5216H200.024ZM214.237 56.0275C214.237 57.6285 214.03 58.7816 213.615 59.4816C213.205 60.1842 212.574 60.6213 211.736 60.7983C210.893 60.9753 209.557 61.0664 207.719 61.0664H201.293V39.5243H206.859V46.9043H207.719C209.429 46.9043 210.731 47.0036 211.609 47.2074C212.487 47.4112 213.144 47.8617 213.58 48.559C214.016 49.2535 214.232 50.3477 214.232 51.836V56.0248L214.237 56.0275ZM208.671 55.3785V52.2651C208.671 51.356 208.581 50.8089 208.4 50.6131C208.219 50.4174 207.705 50.3101 206.859 50.2806V57.363C207.567 57.363 208.043 57.2718 208.291 57.0922C208.543 56.9098 208.669 56.3386 208.669 55.3812L208.671 55.3785Z" fill="#00A0E3"/>
</g>
</svg>
