<svg width="250" height="100" viewBox="0 0 250 100" fill="none" xmlns="http://www.w3.org/2000/svg">
<g style="mix-blend-mode:luminosity" opacity="0.4">
<path d="M79.9831 57.6127L84.8066 63.9162H82.108L78.3861 59.0462L76.1829 60.9981V63.9162H74.0254V53.3379H76.1829V58.1695L81.6191 53.3379H84.8066L79.9831 57.6127Z" fill="#0B9791"/>
<path d="M97.1145 56.512C97.1145 54.7586 95.6674 53.3379 93.8814 53.3379H86.3398V63.9162H93.8814C95.6674 63.9162 97.1145 62.4956 97.1145 60.7421C97.1145 59.923 96.7886 59.187 96.2671 58.6239C96.7951 58.0671 97.1145 57.3248 97.1145 56.512ZM93.8814 61.798H88.4909V59.6798H93.8814C94.4681 59.6798 94.957 60.1661 94.957 60.7357C94.9635 61.3309 94.4681 61.798 93.8814 61.798ZM93.8814 57.568H88.4909V55.4497H93.8814C94.4681 55.4497 94.957 55.9361 94.957 56.5056C94.9635 57.1008 94.4681 57.568 93.8814 57.568Z" fill="#0B9791"/>
<path d="M105.29 53.3379H102.793L97.5723 63.9162H99.8993L100.942 61.798H107.135L108.184 63.9162H110.511L105.29 53.3379ZM101.992 59.6862L101.972 59.7182L104.045 55.5265L106.092 59.6862H101.992Z" fill="#0B9791"/>
<path d="M120.37 53.3379V57.568H113.904V53.3379H111.746V63.9162H113.904V59.6862H120.37V63.9162H122.521V53.3379H120.37Z" fill="#0B9791"/>
<path d="M134.964 55.4497H130.656V63.9162H128.498V55.4497H124.189V53.3379H134.964V55.4497Z" fill="#0B9791"/>
<path d="M147.413 55.4497H143.105V63.9162H140.947V55.4497H136.639V53.3379H147.413V55.4497Z" fill="#0B9791"/>
<path d="M151.46 61.798V59.6862H158.493V57.568H151.46V55.4497H158.773L160.083 53.3379H149.309V63.9162H160.083L158.773 61.798H151.46Z" fill="#0B9791"/>
<path d="M173.669 63.9162H171.341L167.202 55.5265L163.057 63.9162H160.736L165.951 53.3379H168.447L173.669 63.9162Z" fill="#0B9791"/>
<path d="M193.714 57.6127L198.531 63.9162H195.833L192.111 59.0462L189.908 60.9981V63.9162H187.75V53.3379H189.908V58.1695L195.344 53.3379H198.531L193.714 57.6127Z" fill="#0B9791"/>
<path d="M210.167 56.512V60.7421C210.167 62.4956 208.72 63.9162 206.934 63.9162H202.626C200.84 63.9162 199.393 62.4956 199.393 60.7421V56.512C199.393 54.7586 200.84 53.3379 202.626 53.3379H206.934C208.72 53.3379 210.167 54.7586 210.167 56.512ZM208.016 56.512C208.016 55.9361 207.521 55.4561 206.941 55.4561H202.632C202.032 55.4561 201.557 55.9425 201.557 56.512V60.7421C201.557 61.3309 202.032 61.798 202.632 61.798H206.941C207.527 61.798 208.016 61.3309 208.016 60.7421V56.512Z" fill="#0B9791"/>
<path d="M224.183 53.3379V63.9162H222.025V57.1456L218.251 62.7387L214.484 57.1456V63.9162H212.326V53.3379H214.484L218.251 58.931L222.025 53.3379H224.183Z" fill="#0B9791"/>
<path d="M176.929 61.798V59.6862H183.962V57.568H176.929V55.4497H184.236L185.546 53.3379H174.771V63.9162H185.546L184.236 61.798H176.929Z" fill="#0B9791"/>
<path d="M124.271 39.5794C124.271 37.8132 122.804 36.4053 121.038 36.4053H113.496V46.9836H115.654V42.7536H121.038C122.759 42.7536 124.271 41.3457 124.271 39.5794ZM115.647 38.5235H121.031C121.324 38.5235 122.107 38.7603 122.107 39.5794C122.107 40.1682 121.611 40.6353 121.031 40.6353H115.647V38.5235Z" fill="#0B9791"/>
<path d="M82.6523 40.6412V39.5853C82.6523 39.0093 82.1569 38.5294 81.5768 38.5294H77.2682C76.6685 38.5294 76.1927 39.0157 76.1927 39.5853V43.8153C76.1927 44.4041 76.6685 44.8713 77.2682 44.8713H81.5768C82.1634 44.8713 82.6523 44.4041 82.6523 43.8153V42.7594H84.8098V43.8153C84.8098 45.5688 83.3628 46.9895 81.5768 46.9895H77.2682C75.4822 46.9895 74.0352 45.5688 74.0352 43.8153V39.5853C74.0352 37.8318 75.4822 36.4111 77.2682 36.4111H81.5768C83.3628 36.4111 84.8098 37.8318 84.8098 39.5853V40.6412H82.6523Z" fill="#0B9791"/>
<path d="M98.5618 36.4033V46.9881H96.4042V40.2174L92.6367 45.8042L88.8626 40.2174V46.9881H86.7051V36.4033H88.8626L92.6367 41.9965L96.4042 36.4033H98.5618Z" fill="#0B9791"/>
<path d="M107.294 36.4033H104.797L99.5762 46.9817H101.903L102.946 44.8634H109.138L110.188 46.9817H112.515L107.294 36.4033ZM103.996 42.7516L103.976 42.79L106.042 38.5983L108.089 42.7516H103.996Z" fill="#0B9791"/>
<path d="M135.628 38.5216H131.32V46.9817H129.162V38.5216H124.854V36.4033H135.628V38.5216Z" fill="#0B9791"/>
<path d="M145.23 40.6412V39.5853C145.23 39.0093 144.735 38.5294 144.155 38.5294H139.846C139.247 38.5294 138.771 39.0157 138.771 39.5853V43.8153C138.771 44.4041 139.247 44.8713 139.846 44.8713H144.155C144.742 44.8713 145.23 44.4041 145.23 43.8153V42.7594H147.388V43.8153C147.388 45.5688 145.941 46.9895 144.155 46.9895H139.846C138.06 46.9895 136.613 45.5688 136.613 43.8153V39.5853C136.613 37.8318 138.06 36.4111 139.846 36.4111H144.155C145.941 36.4111 147.388 37.8318 147.388 39.5853V40.6412H145.23Z" fill="#0B9791"/>
<path d="M63.2517 60.7542V39.5592L52.9008 33.7228L34.2716 44.2436V56.0634L44.5965 61.919L54.9671 56.0634L54.9605 44.2372L52.9268 43.1301L42.5368 48.9536V51.3406L44.5965 52.4861L49.6156 49.7599V53.0173L44.59 55.7819L39.6362 53.0109V47.2897L52.9399 39.8471L57.8807 42.5669L57.8612 57.7081L44.5965 65.2211L31.3775 57.7209V42.0742L49.3744 31.6686L44.6617 29L26 39.5528V60.7542L44.5965 71.3198L63.2517 60.7542Z" fill="#0B9791"/>
</g>
</svg>
