<svg width="250" height="100" viewBox="0 0 250 100" fill="none" xmlns="http://www.w3.org/2000/svg">
<g style="mix-blend-mode:luminosity" opacity="0.4">
<path fill-rule="evenodd" clip-rule="evenodd" d="M124.809 59.6561C124.975 59.4671 125.061 59.2556 125.07 59.0217L125.07 59.0215V73.5212C125.071 73.5487 125.072 73.5763 125.073 73.6039C125.082 73.797 125.086 73.9925 125.086 74.1904C125.086 74.3116 125.084 74.4321 125.081 74.5519C125.036 76.3487 124.652 77.9816 123.929 79.4505C123.883 79.5469 123.835 79.6421 123.785 79.736C123.045 81.1452 121.999 82.2811 120.646 83.1438C120.469 83.2557 120.287 83.3607 120.101 83.4586C118.795 84.1441 117.261 84.4868 115.498 84.4868C113.608 84.4868 111.929 84.0392 110.462 83.1438C108.994 82.2236 107.838 80.9925 106.992 79.4505C106.172 77.9086 105.761 76.1925 105.761 74.3023C105.761 72.2132 106.172 70.3852 106.992 68.8183C107.813 67.2515 108.945 66.0328 110.387 65.1623C111.854 64.2919 113.558 63.8566 115.498 63.8566C117.264 63.8566 118.868 64.2919 120.311 65.1623C120.383 65.2053 120.455 65.2492 120.526 65.2939C121.59 65.9645 122.484 66.8262 123.207 67.8792V59.0564C123.208 59.0702 123.21 59.0839 123.211 59.0975C123.234 59.3015 123.319 59.4877 123.466 59.6561C123.491 59.6779 123.516 59.6983 123.542 59.7173C123.721 59.8506 123.92 59.9172 124.138 59.9172C124.411 59.9172 124.635 59.8302 124.809 59.6561ZM114.766 65.1834C117.212 65.1834 119.416 66.3069 120.958 68.102C121.016 68.1649 121.074 68.229 121.131 68.2942C121.529 68.7504 121.877 69.2609 122.176 69.8256C122.263 69.9841 122.344 70.1456 122.421 70.31C122.954 71.4606 123.22 72.7541 123.22 74.1904C123.22 74.2883 123.219 74.3857 123.217 74.4826C123.182 75.9355 122.885 77.2681 122.325 78.4806C122.305 78.5228 122.285 78.5648 122.264 78.6065C121.957 79.2317 121.577 79.7917 121.127 80.2864C120.933 80.5255 120.728 80.7536 120.513 80.9697C119.006 82.4825 116.986 83.4077 114.766 83.4077C110.103 83.4077 106.324 79.328 106.324 74.2955C106.324 69.263 110.103 65.1834 114.766 65.1834Z" fill="#505050"/>
<path d="M95.1967 80.1997C96.2299 81.5127 97.1429 82.7055 97.9357 83.778C97.9792 83.8402 98.0328 83.8946 98.0965 83.9412C98.2877 84.0811 98.5699 84.1511 98.9429 84.1511C99.1916 84.1511 99.403 84.064 99.5771 83.8899C99.7512 83.691 99.8383 83.4671 99.8383 83.2184V65.125C99.8383 64.8515 99.7512 64.6276 99.5771 64.4535C99.403 64.2794 99.1792 64.1924 98.9056 64.1924C98.6569 64.1924 98.4331 64.2794 98.2341 64.4535C98.2123 64.4753 98.1919 64.4978 98.1729 64.5211C98.0396 64.6844 97.973 64.8857 97.973 65.125V80.7562C96.9533 79.4132 95.8341 77.9832 94.6154 76.4661C93.4216 74.9241 92.2278 73.407 91.0341 71.9147C89.8651 70.3976 88.7833 69.0049 87.7884 67.7365C86.7936 66.4432 85.9854 65.3863 85.3636 64.5655L85.3635 64.5654C85.2828 64.45 85.1672 64.3614 85.0167 64.2995C84.843 64.2281 84.6229 64.1924 84.3563 64.1924C84.2444 64.1924 84.1356 64.2141 84.0299 64.2577C83.9242 64.3012 83.8216 64.3665 83.7221 64.4535C83.548 64.6276 83.4609 64.8515 83.4609 65.125V83.2184L83.4609 83.2185C83.4609 83.3429 83.4827 83.461 83.5262 83.5728C83.5697 83.6848 83.635 83.7905 83.7221 83.8899C83.747 83.9117 83.7722 83.9321 83.7979 83.9512C83.9774 84.0844 84.176 84.1511 84.3936 84.1511C84.6672 84.1511 84.891 84.064 85.0651 83.8899C85.2392 83.691 85.3262 83.4671 85.3262 83.2184V67.5872C85.4319 67.7209 85.5394 67.8571 85.6486 67.9958C86.413 68.967 87.263 70.0619 88.1988 71.2805C88.3356 71.4546 88.473 71.6295 88.6109 71.8051C89.5766 73.0347 90.5708 74.3023 91.5936 75.608C91.6667 75.6997 91.7396 75.7913 91.8124 75.8829C92.9039 77.2556 93.9626 78.6065 94.9885 79.9355C95.0584 80.0241 95.1278 80.1122 95.1967 80.1997Z" fill="#505050"/>
<path fill-rule="evenodd" clip-rule="evenodd" d="M124.809 59.6561C124.975 59.4671 125.061 59.2556 125.07 59.0217L125.07 59.0215V73.5212C125.071 73.5487 125.072 73.5763 125.073 73.6039C125.082 73.797 125.086 73.9925 125.086 74.1904C125.086 74.3116 125.084 74.4321 125.081 74.5519C125.036 76.3487 124.652 77.9816 123.929 79.4505C123.883 79.5469 123.835 79.6421 123.785 79.736C123.045 81.1452 121.999 82.2811 120.646 83.1438C120.469 83.2557 120.287 83.3607 120.101 83.4586C118.795 84.1441 117.261 84.4868 115.498 84.4868C113.608 84.4868 111.929 84.0392 110.462 83.1438C108.994 82.2236 107.838 80.9925 106.992 79.4505C106.172 77.9086 105.761 76.1925 105.761 74.3023C105.761 72.2132 106.172 70.3852 106.992 68.8183C107.813 67.2515 108.945 66.0328 110.387 65.1623C111.854 64.2919 113.558 63.8566 115.498 63.8566C117.264 63.8566 118.868 64.2919 120.311 65.1623C120.383 65.2053 120.455 65.2492 120.526 65.2939C121.59 65.9645 122.484 66.8262 123.207 67.8792V59.0564C123.208 59.0702 123.21 59.0839 123.211 59.0975C123.234 59.3015 123.319 59.4877 123.466 59.6561C123.491 59.6779 123.516 59.6983 123.542 59.7173C123.721 59.8506 123.92 59.9172 124.138 59.9172C124.411 59.9172 124.635 59.8302 124.809 59.6561ZM114.766 65.1834C117.212 65.1834 119.416 66.3069 120.958 68.102C121.016 68.1649 121.074 68.229 121.131 68.2942C121.529 68.7504 121.877 69.2609 122.176 69.8256C122.263 69.9841 122.344 70.1456 122.421 70.31C122.954 71.4606 123.22 72.7541 123.22 74.1904C123.22 74.2883 123.219 74.3857 123.217 74.4826C123.182 75.9355 122.885 77.2681 122.325 78.4806C122.305 78.5228 122.285 78.5648 122.264 78.6065C121.957 79.2317 121.577 79.7917 121.127 80.2864C120.933 80.5255 120.728 80.7536 120.513 80.9697C119.006 82.4825 116.986 83.4077 114.766 83.4077C110.103 83.4077 106.324 79.328 106.324 74.2955C106.324 69.263 110.103 65.1834 114.766 65.1834Z" fill="#505050"/>
<path d="M95.1967 80.1997C96.2299 81.5127 97.1429 82.7055 97.9357 83.778C97.9792 83.8402 98.0328 83.8946 98.0965 83.9412C98.2877 84.0811 98.5699 84.1511 98.9429 84.1511C99.1916 84.1511 99.403 84.064 99.5771 83.8899C99.7512 83.691 99.8383 83.4671 99.8383 83.2184V65.125C99.8383 64.8515 99.7512 64.6276 99.5771 64.4535C99.403 64.2794 99.1792 64.1924 98.9056 64.1924C98.6569 64.1924 98.4331 64.2794 98.2341 64.4535C98.2123 64.4753 98.1919 64.4978 98.1729 64.5211C98.0396 64.6844 97.973 64.8857 97.973 65.125V80.7562C96.9533 79.4132 95.8341 77.9832 94.6154 76.4661C93.4216 74.9241 92.2278 73.407 91.0341 71.9147C89.8651 70.3976 88.7833 69.0049 87.7884 67.7365C86.7936 66.4432 85.9854 65.3863 85.3636 64.5655L85.3635 64.5654C85.2828 64.45 85.1672 64.3614 85.0167 64.2995C84.843 64.2281 84.6229 64.1924 84.3563 64.1924C84.2444 64.1924 84.1356 64.2141 84.0299 64.2577C83.9242 64.3012 83.8216 64.3665 83.7221 64.4535C83.548 64.6276 83.4609 64.8515 83.4609 65.125V83.2184L83.4609 83.2185C83.4609 83.3429 83.4827 83.461 83.5262 83.5728C83.5697 83.6848 83.635 83.7905 83.7221 83.8899C83.747 83.9117 83.7722 83.9321 83.7979 83.9512C83.9774 84.0844 84.176 84.1511 84.3936 84.1511C84.6672 84.1511 84.891 84.064 85.0651 83.8899C85.2392 83.691 85.3262 83.4671 85.3262 83.2184V67.5872C85.4319 67.7209 85.5394 67.8571 85.6486 67.9958C86.413 68.967 87.263 70.0619 88.1988 71.2805C88.3356 71.4546 88.473 71.6295 88.6109 71.8051C89.5766 73.0347 90.5708 74.3023 91.5936 75.608C91.6667 75.6997 91.7396 75.7913 91.8124 75.8829C92.9039 77.2556 93.9626 78.6065 94.9885 79.9355C95.0584 80.0241 95.1278 80.1122 95.1967 80.1997Z" fill="#505050"/>
<path d="M138.855 83.9512C139.035 84.0844 139.233 84.1511 139.451 84.1511C139.724 84.1511 139.948 84.064 140.122 83.8899C140.296 83.691 140.384 83.4671 140.384 83.2184V66.0577H147.509C147.783 66.0577 148.006 65.9706 148.18 65.7966L148.18 65.7965C148.355 65.5976 148.442 65.3738 148.442 65.1251V65.125C148.442 64.8515 148.355 64.6276 148.181 64.4536L148.18 64.4535C148.006 64.2794 147.783 64.1924 147.509 64.1924H131.542C131.293 64.1924 131.069 64.2794 130.871 64.4535C130.849 64.4753 130.828 64.4978 130.809 64.5211C130.676 64.6844 130.609 64.8857 130.609 65.125C130.609 65.1406 130.61 65.156 130.61 65.1714C130.621 65.4016 130.707 65.61 130.871 65.7965C130.895 65.8183 130.921 65.8387 130.946 65.8577C131.126 65.991 131.324 66.0577 131.542 66.0577H138.518V83.2184C138.518 83.234 138.519 83.2494 138.519 83.2648C138.529 83.495 138.616 83.7034 138.779 83.8899C138.804 83.9117 138.83 83.9321 138.855 83.9512Z" fill="#505050"/>
<path d="M153.699 83.9512C153.879 84.0844 154.077 84.1511 154.295 84.1511H164.703C164.977 84.1511 165.201 84.0641 165.375 83.89L165.375 83.8899C165.549 83.691 165.636 83.4671 165.636 83.2184C165.636 82.9449 165.549 82.7211 165.375 82.547L165.375 82.5469C165.201 82.3728 164.977 82.2858 164.703 82.2858H155.228V74.4142H163.024C163.298 74.4142 163.522 74.3272 163.696 74.1531L163.696 74.1531C163.87 73.9541 163.957 73.7303 163.957 73.4816C163.957 73.2081 163.87 72.9844 163.696 72.8103C163.696 72.8102 163.696 72.8102 163.696 72.8101C163.522 72.636 163.298 72.5489 163.024 72.5489H155.228V66.0577H164.629C164.902 66.0577 165.126 65.9706 165.3 65.7966L165.3 65.7965C165.474 65.5976 165.561 65.3737 165.561 65.125C165.561 64.8515 165.474 64.6276 165.3 64.4536L165.3 64.4535C165.126 64.2794 164.902 64.1924 164.629 64.1924H154.183C153.959 64.1924 153.76 64.2919 153.586 64.4908C153.567 64.5126 153.55 64.5349 153.534 64.5579C153.419 64.7184 153.362 64.9074 153.362 65.125V83.2184C153.362 83.234 153.363 83.2494 153.363 83.2648C153.373 83.495 153.46 83.7034 153.623 83.8899C153.648 83.9117 153.674 83.9321 153.699 83.9512Z" fill="#505050"/>
<path d="M138.855 83.9512C139.035 84.0844 139.233 84.1511 139.451 84.1511C139.724 84.1511 139.948 84.064 140.122 83.8899C140.296 83.691 140.384 83.4671 140.384 83.2184V66.0577H147.509C147.783 66.0577 148.006 65.9706 148.18 65.7966L148.18 65.7965C148.355 65.5976 148.442 65.3738 148.442 65.1251C148.442 64.8515 148.355 64.6276 148.181 64.4536L148.18 64.4535C148.006 64.2794 147.783 64.1924 147.509 64.1924H131.542C131.293 64.1924 131.069 64.2794 130.871 64.4535C130.849 64.4753 130.828 64.4978 130.809 64.5211C130.676 64.6844 130.609 64.8857 130.609 65.125C130.609 65.1406 130.61 65.156 130.61 65.1714C130.621 65.4016 130.707 65.61 130.871 65.7965C130.895 65.8183 130.921 65.8387 130.946 65.8577C131.126 65.991 131.324 66.0577 131.542 66.0577H138.518V83.2184C138.518 83.234 138.519 83.2494 138.519 83.2648C138.529 83.495 138.616 83.7034 138.779 83.8899C138.804 83.9117 138.83 83.9321 138.855 83.9512Z" fill="#505050"/>
<path d="M153.699 83.9512C153.879 84.0844 154.077 84.1511 154.295 84.1511H164.703C164.977 84.1511 165.201 84.0641 165.375 83.89L165.375 83.8899C165.549 83.691 165.636 83.4671 165.636 83.2184C165.636 82.9449 165.549 82.7211 165.375 82.547L165.375 82.5469C165.201 82.3728 164.977 82.2858 164.703 82.2858H155.228V74.4142H163.024C163.298 74.4142 163.522 74.3272 163.696 74.1531L163.696 74.1531C163.87 73.9541 163.957 73.7303 163.957 73.4816C163.957 73.2081 163.87 72.9844 163.696 72.8103C163.696 72.8102 163.696 72.8102 163.696 72.8101C163.522 72.636 163.298 72.5489 163.024 72.5489H155.228V66.0577H164.629C164.902 66.0577 165.126 65.9706 165.3 65.7966L165.3 65.7965C165.474 65.5976 165.561 65.3737 165.561 65.125C165.561 64.8515 165.474 64.6276 165.3 64.4536L165.3 64.4535C165.126 64.2794 164.902 64.1924 164.629 64.1924H154.183C153.959 64.1924 153.76 64.2919 153.586 64.4908C153.567 64.5126 153.55 64.5349 153.534 64.5579C153.419 64.7184 153.362 64.9074 153.362 65.125V83.2184C153.362 83.234 153.363 83.2494 153.363 83.2648C153.373 83.495 153.46 83.7034 153.623 83.8899C153.648 83.9117 153.674 83.9321 153.699 83.9512Z" fill="#505050"/>
<path fill-rule="evenodd" clip-rule="evenodd" d="M140.361 23.071C141.021 20.7502 141.545 18.3905 141.753 16C139.39 16.4199 137.133 17.1945 134.88 18.0587C132.674 18.9659 130.523 20.0952 128.661 21.6609C126.748 23.0941 125.085 25.1002 124.203 27.4759C123.717 28.6657 123.594 29.9292 123.56 31.1887C123.526 32.4482 123.762 33.6957 124.129 34.8924C124.184 35.1146 124.372 35.286 124.598 35.3208C124.71 35.3365 124.823 35.3525 124.936 35.3686C126.052 35.5272 127.201 35.6906 128.337 35.5584C129.589 35.4127 130.833 35.0877 131.978 34.5873C134.266 33.4968 136.026 31.666 137.373 29.6291C138.72 27.5921 139.654 25.349 140.361 23.071ZM135.084 18.5888C137.239 17.5492 139.492 16.6849 141.753 16C141.318 18.3557 140.658 20.6765 139.764 22.7831C138.92 25.0223 137.846 27.1369 136.538 29.0373C135.183 30.8949 133.462 32.5891 131.435 33.4883C130.422 33.9378 129.311 34.212 128.192 34.3069C127.438 34.3708 126.658 34.3338 125.897 34.2351L129.817 29.717C130.482 29.7573 131.143 29.7214 131.801 29.6091C132.515 29.4875 133.181 29.3229 133.891 29.1116C134.6 28.9002 135.216 28.6032 135.828 28.2165C136.439 27.8297 136.958 27.3573 137.429 26.8421C136.915 27.4042 136.35 27.8337 135.734 28.1308C135.118 28.4278 134.456 28.682 133.789 28.8465C133.08 29.0579 132.409 29.1327 131.692 29.1647C131.519 29.1609 131.343 29.1602 131.167 29.1595C130.884 29.1583 130.599 29.1571 130.315 29.1434L141.025 16.7977L125.019 33.4017C124.846 32.65 124.7 31.8972 124.636 31.1407C124.631 30.0177 124.805 28.8867 125.163 27.8374C125.921 25.6919 127.412 23.8732 129.142 22.3583C130.961 20.8395 132.929 19.6285 135.084 18.5888Z" fill="#222222"/>
<path fill-rule="evenodd" clip-rule="evenodd" d="M140.361 23.071C141.021 20.7502 141.545 18.3905 141.753 16C139.39 16.4199 137.133 17.1945 134.88 18.0587C132.674 18.9659 130.523 20.0952 128.661 21.6609C126.748 23.0941 125.085 25.1002 124.203 27.4759C123.717 28.6657 123.594 29.9292 123.56 31.1887C123.526 32.4482 123.762 33.6957 124.129 34.8924C124.184 35.1146 124.372 35.286 124.598 35.3208C124.71 35.3365 124.823 35.3525 124.936 35.3686C126.052 35.5272 127.201 35.6906 128.337 35.5584C129.589 35.4127 130.833 35.0877 131.978 34.5873C134.266 33.4968 136.026 31.666 137.373 29.6291C138.72 27.5921 139.654 25.349 140.361 23.071ZM135.084 18.5888C137.239 17.5492 139.492 16.6849 141.753 16C141.318 18.3557 140.658 20.6765 139.764 22.7831C138.92 25.0223 137.846 27.1369 136.538 29.0373C135.183 30.8949 133.462 32.5891 131.435 33.4883C130.422 33.9378 129.311 34.212 128.192 34.3069C127.438 34.3708 126.658 34.3338 125.897 34.2351L129.817 29.717C130.482 29.7573 131.143 29.7214 131.801 29.6091C132.515 29.4875 133.181 29.3229 133.891 29.1116C134.6 28.9002 135.216 28.6032 135.828 28.2165C136.439 27.8297 136.958 27.3573 137.429 26.8421C136.915 27.4042 136.35 27.8337 135.734 28.1308C135.118 28.4278 134.456 28.682 133.789 28.8465C133.08 29.0579 132.409 29.1327 131.692 29.1647C131.519 29.1609 131.343 29.1602 131.167 29.1595C130.884 29.1583 130.599 29.1571 130.315 29.1434L141.025 16.7977L125.019 33.4017C124.846 32.65 124.7 31.8972 124.636 31.1407C124.631 30.0177 124.805 28.8867 125.163 27.8374C125.921 25.6919 127.412 23.8732 129.142 22.3583C130.961 20.8395 132.929 19.6285 135.084 18.5888Z" fill="#222222"/>
<path d="M94.5709 41.0476C93.974 40.7989 93.3149 40.5999 92.5937 40.4507C91.8973 40.3015 90.9771 40.2269 89.833 40.2269C88.5646 40.2269 87.5574 40.5502 86.8113 41.1968C86.0651 41.8186 85.6921 42.5274 85.6921 43.3233C85.6921 44.1191 86.0403 44.8404 86.7366 45.487C87.433 46.1337 88.7885 46.6932 90.803 47.1658C92.5937 47.5637 93.974 48.0736 94.944 48.6953C95.9388 49.3171 96.6352 50.0259 97.0331 50.8218C97.431 51.5928 97.63 52.4508 97.63 53.3959C97.63 54.3161 97.3937 55.199 96.9212 56.0446C96.4735 56.8653 95.7274 57.5493 94.6828 58.0964C93.6631 58.6187 92.2952 58.8799 90.5792 58.8799C88.1418 58.8799 85.891 58.3078 83.8268 57.1638C83.5035 56.9648 83.3418 56.6912 83.3418 56.3431C83.3418 56.1192 83.4288 55.9078 83.6029 55.7089C83.777 55.5099 84.0009 55.4104 84.2744 55.4104C84.4237 55.4104 84.5729 55.4477 84.7221 55.5223C86.4879 56.5172 88.4403 57.0146 90.5792 57.0146C92.2704 57.0146 93.5512 56.6664 94.4217 55.97C95.317 55.2487 95.7647 54.3907 95.7647 53.3959C95.7647 52.3513 95.3419 51.4808 94.4963 50.7845C93.6756 50.0881 92.3201 49.5036 90.4299 49.0311C88.6641 48.5834 87.2962 48.0736 86.3263 47.5015C85.3812 46.9295 84.7221 46.2829 84.3491 45.5616C84.0009 44.8404 83.8268 44.0445 83.8268 43.174C83.8268 42.3782 84.0506 41.6196 84.4983 40.8984C84.9708 40.1523 85.6548 39.5429 86.5501 39.0704C87.4455 38.5978 88.5398 38.3616 89.833 38.3616C91.2009 38.3616 92.2952 38.4735 93.116 38.6973C93.9616 38.8963 94.8445 39.1823 95.7647 39.5554C96.1626 39.7046 96.3616 39.9906 96.3616 40.4134C96.3616 40.6621 96.2621 40.8859 96.0631 41.0849C95.889 41.259 95.6776 41.3461 95.4289 41.3461C95.3792 41.3461 95.3046 41.3336 95.2051 41.3087C95.1056 41.259 94.8942 41.172 94.5709 41.0476Z" fill="#222222"/>
<path d="M104.957 58.5441C104.708 58.5441 104.484 58.4571 104.285 58.283C104.111 58.084 104.024 57.8602 104.024 57.6115V39.5181C104.024 39.2445 104.111 39.0206 104.285 38.8466C104.484 38.6725 104.708 38.5854 104.957 38.5854H110.291C111.759 38.5854 113.039 38.8839 114.134 39.4808C115.228 40.0528 116.074 40.8362 116.671 41.831C117.292 42.8259 117.603 43.9699 117.603 45.2632C117.603 46.457 117.33 47.5637 116.783 48.5834C116.26 49.6031 115.452 50.4238 114.358 51.0456C113.288 51.6674 111.933 51.9783 110.291 51.9783H105.889V57.6115C105.889 57.8602 105.802 58.084 105.628 58.283C105.454 58.4571 105.23 58.5441 104.957 58.5441ZM105.889 40.4507V50.113H110.291C112.057 50.113 113.4 49.6529 114.32 48.7326C115.265 47.7876 115.738 46.6311 115.738 45.2632C115.738 43.8207 115.228 42.6642 114.208 41.7937C113.189 40.8984 111.883 40.4507 110.291 40.4507H105.889Z" fill="#222222"/>
<path d="M125.093 58.9826C125.093 59.2313 125.006 59.4551 124.832 59.6541C124.658 59.8282 124.434 59.9152 124.16 59.9152C123.912 59.9152 123.688 59.8282 123.489 59.6541C123.315 59.4551 123.228 59.2313 123.228 58.9826V39.2942C123.228 39.0207 123.315 38.7968 123.489 38.6227C123.688 38.4486 123.912 38.3616 124.16 38.3616C124.434 38.3616 124.658 38.4486 124.832 38.6227C125.006 38.7968 125.093 39.0207 125.093 39.2942V58.9826Z" fill="#222222"/>
<path d="M158.322 58.5441C158.073 58.5441 157.85 58.4571 157.651 58.283C157.477 58.084 157.39 57.8602 157.39 57.6115V51.3441C156.967 50.7969 156.407 50.0259 155.711 49.0311C155.014 48.0363 154.281 46.9668 153.51 45.8228C152.764 44.6787 152.042 43.5844 151.346 42.5398C150.674 41.4953 150.152 40.6497 149.779 40.003C149.704 39.8538 149.667 39.6922 149.667 39.5181C149.667 39.2942 149.742 39.0953 149.891 38.9212C150.04 38.7222 150.264 38.6227 150.563 38.6227C150.936 38.6227 151.197 38.7595 151.346 39.0331C151.694 39.6051 152.154 40.3512 152.726 41.2714C153.323 42.1668 153.957 43.1243 154.629 44.144C155.325 45.1637 155.997 46.1461 156.643 47.0912C157.315 48.0363 157.887 48.8446 158.359 49.5161C158.882 48.7948 159.454 47.9616 160.076 47.0166C160.722 46.0466 161.369 45.0642 162.015 44.0694C162.662 43.0497 163.259 42.1046 163.806 41.2341C164.378 40.3388 164.826 39.6051 165.149 39.0331C165.298 38.7595 165.56 38.6227 165.933 38.6227C166.529 38.6227 166.828 38.9212 166.828 39.5181C166.828 39.6922 166.791 39.8538 166.716 40.003C166.343 40.6248 165.833 41.4455 165.186 42.4652C164.565 43.4601 163.881 44.5295 163.135 45.6735C162.389 46.7927 161.667 47.8622 160.971 48.8819C160.299 49.9016 159.727 50.7472 159.255 51.4187V57.6115C159.255 57.8602 159.168 58.084 158.994 58.283C158.82 58.4571 158.596 58.5441 158.322 58.5441Z" fill="#222222"/>
<path d="M145.194 41.1842C143.98 40.5413 142.445 40.2198 140.587 40.2198C139.101 40.2198 137.726 40.5784 136.463 41.2955C135.224 42.0127 134.221 43.0142 133.453 44.3001C132.685 45.5613 132.301 47.0451 132.301 48.7514C132.301 50.3093 132.636 51.7189 133.305 52.9801C133.973 54.2166 134.939 55.2057 136.203 55.9476C137.491 56.6648 139.026 57.0233 140.81 57.0233C141.702 57.0233 142.531 56.9368 143.299 56.7637C144.092 56.5906 144.798 56.3433 145.417 56.0218C145.541 55.9476 145.677 55.9105 145.826 55.9105C146.098 55.9105 146.321 55.9971 146.495 56.1702C146.668 56.3433 146.755 56.5658 146.755 56.8379C146.755 57.2335 146.581 57.5056 146.235 57.6539C145.491 58.0496 144.662 58.3464 143.745 58.5442C142.829 58.7668 141.85 58.878 140.81 58.878C138.63 58.878 136.76 58.4329 135.2 57.5427C133.664 56.6524 132.487 55.4407 131.67 53.9074C130.852 52.3742 130.444 50.6556 130.444 48.7514C130.444 46.6741 130.914 44.8565 131.856 43.2986C132.797 41.7406 134.035 40.5289 135.571 39.6634C137.107 38.7979 138.779 38.3651 140.587 38.3651C142.816 38.3651 144.649 38.7608 146.086 39.5521C146.408 39.7499 146.569 40.022 146.569 40.3682C146.569 40.5907 146.482 40.8009 146.309 40.9988C146.135 41.1966 145.913 41.2955 145.64 41.2955C145.491 41.2955 145.343 41.2584 145.194 41.1842Z" fill="#222222"/>
</g>
</svg>
