<svg width="250" height="100" viewBox="0 0 250 100" fill="none" xmlns="http://www.w3.org/2000/svg">
<g style="mix-blend-mode:luminosity" opacity="0.4">
<path d="M105.294 42.1406C98.775 42.1406 93.4863 47.6263 93.4863 54.3621C93.4863 61.1236 98.775 66.5838 105.294 66.5838C111.812 66.5838 117.101 61.098 117.101 54.3621C117.101 47.6263 111.837 42.1406 105.294 42.1406ZM105.294 61.2766C101.628 61.2766 98.6521 58.1894 98.6521 54.3877C98.6521 50.5859 101.628 47.4988 105.294 47.4988C108.959 47.4988 111.935 50.5859 111.935 54.3877C111.935 58.1894 108.983 61.2766 105.294 61.2766Z" fill="#373F55"/>
<path d="M158.943 66.5838V45.196C158.943 43.5155 160.342 42.1406 162.051 42.1406C163.759 42.1406 165.158 43.5155 165.158 45.196V66.5838H158.943Z" fill="#373F55"/>
<path d="M210.732 66.5838V45.196C210.732 43.5155 212.131 42.1406 213.84 42.1406C215.549 42.1406 216.947 43.5155 216.947 45.196V66.5838H210.732Z" fill="#373F55"/>
<path d="M91.3322 32.1982H74.9263C73.2857 32.1982 71.9434 33.5767 71.9434 35.2616C71.9434 36.9464 73.2857 38.3249 74.9263 38.3249H80.1463V66.5844H86.1121V38.3249H91.3322C92.9728 38.3249 94.315 36.9464 94.315 35.2616C94.315 33.5767 92.9728 32.1982 91.3322 32.1982Z" fill="#373F55"/>
<path d="M152.705 51.3068C152.504 46.2145 148.407 42.1406 143.359 42.1406C140.885 42.1406 138.661 43.1082 136.987 44.7122C135.313 43.1336 133.089 42.1406 130.615 42.1406C125.567 42.1406 121.469 46.2145 121.269 51.3068H121.244V66.5838H127.241V50.9249C127.241 49.0153 128.741 47.4876 130.615 47.4876C132.489 47.4876 133.988 49.0153 133.988 50.9249V66.5838H139.986V51.3068H139.961C139.961 51.1795 139.961 51.0522 139.936 50.9249H139.986C139.986 49.0153 141.485 47.4876 143.359 47.4876C145.233 47.4876 146.733 49.0153 146.733 50.9249V66.5838H152.73L152.705 51.3068Z" fill="#373F55"/>
<path d="M204.073 51.3323C203.875 46.2399 199.798 42.1406 194.777 42.1406C189.755 42.1406 185.654 46.2145 185.48 51.3068H185.455V66.5838H191.421V60.6003C192.465 61.0077 193.584 61.2368 194.777 61.2368C195.97 61.2368 197.088 61.0077 198.133 60.6003V66.5838H204.098L204.073 51.3323ZM194.752 55.8899C192.49 55.8899 190.651 54.0058 190.651 51.6887C190.651 49.3717 192.49 47.4876 194.752 47.4876C197.014 47.4876 198.853 49.3717 198.853 51.6887C198.853 54.0058 197.039 55.8899 194.752 55.8899Z" fill="#373F55"/>
<path d="M174.896 66.5864C176.612 66.5864 178.003 65.1953 178.003 63.4793C178.003 61.7632 176.612 60.3721 174.896 60.3721C173.179 60.3721 171.789 61.7632 171.789 63.4793C171.789 65.1953 173.179 66.5864 174.896 66.5864Z" fill="#373F55"/>
<path d="M56.1973 63.9463V43.1469C56.1973 41.4543 57.5022 40.0693 59.0972 40.0693C60.6923 40.0693 61.9973 41.4543 61.9973 43.1469V63.895C61.9973 65.6132 60.6923 66.9982 59.0732 66.9982C57.4781 66.9982 56.1973 65.639 56.1973 63.9463Z" fill="#373F55"/>
<path d="M44.6016 63.9989V52.6257C44.6016 50.9613 45.9066 49.5996 47.5017 49.5996C49.0967 49.5996 50.4016 50.9613 50.4016 52.6257V63.9485C50.4016 65.638 49.0967 66.9998 47.4775 66.9998C45.8824 66.9998 44.6016 65.6633 44.6016 63.9989Z" fill="#373F55"/>
<path d="M33 63.9472V59.3052C33 57.6125 34.305 56.2275 35.9 56.2275C37.4951 56.2275 38.8001 57.6125 38.8001 59.3052V63.8959C38.8001 65.6141 37.4951 66.9991 35.8759 66.9991C34.2809 66.9991 33 65.6398 33 63.9472Z" fill="#373F55"/>
<path d="M33 51.0512V43.1995C33 41.4779 34.305 40.0693 35.9 40.0693C37.4951 40.0693 38.8001 41.4779 38.8001 43.1995V50.999C38.8001 52.7467 37.4951 54.1552 35.8759 54.1552C34.2809 54.1552 33 52.7728 33 51.0512Z" fill="#0075FF"/>
<path d="M44.6016 44.2951V42.9126C44.6016 41.3475 45.7809 40.0693 47.2249 40.0693H47.7784C49.2224 40.0693 50.4016 41.3475 50.4016 42.9126V44.2691C50.4016 45.8341 49.2224 47.1123 47.7784 47.1123H47.2249C45.7568 47.1123 44.6016 45.8602 44.6016 44.2951Z" fill="#0075FF"/>
<path d="M165.158 39.2419C165.158 39.2419 164.096 38.4393 161.973 38.4393C159.849 38.4393 158.943 39.2419 158.943 39.2419V33.0276H165.158V39.2419Z" fill="#0075FF"/>
<path d="M216.947 39.2417C216.947 39.2417 215.885 38.439 213.762 38.439C211.639 38.439 210.732 39.2417 210.732 39.2417V33.0273H216.947V39.2417Z" fill="#0075FF"/>
</g>
</svg>
