<svg width="250" height="100" viewBox="0 0 250 100" fill="none" xmlns="http://www.w3.org/2000/svg">
<g style="mix-blend-mode:luminosity" opacity="0.4">
<path d="M97.5018 79.2287C97.5018 79.5229 97.4773 79.7991 97.4282 80.057C97.3793 80.3151 97.2906 80.5409 97.1628 80.7352C97.0347 80.929 96.86 81.0815 96.6382 81.1925C96.4165 81.3034 96.1329 81.3588 95.7874 81.3588H94.5914C94.5401 81.3588 94.5049 81.3504 94.4858 81.3333C94.4666 81.3162 94.457 81.2885 94.457 81.25V77.2266C94.457 77.1583 94.4953 77.1241 94.5721 77.1241H95.7874C96.1286 77.1241 96.41 77.1786 96.6317 77.2872C96.8535 77.396 97.0283 77.5451 97.1563 77.735C97.2842 77.9247 97.3737 78.1476 97.425 78.4035C97.4762 78.6594 97.5018 78.9343 97.5018 79.2285V79.2287ZM96.9774 79.28C96.9774 78.9217 96.9443 78.6318 96.8783 78.4101C96.8121 78.1884 96.7236 78.0157 96.6129 77.892C96.5019 77.7683 96.3751 77.6852 96.2323 77.6426C96.0894 77.6 95.9414 77.5786 95.7878 77.5786H94.9562V80.8983H95.743C95.888 80.8983 96.0329 80.8801 96.178 80.8438C96.323 80.8076 96.4551 80.733 96.5746 80.6199C96.694 80.507 96.7909 80.3437 96.8655 80.1306C96.9402 79.9175 96.9776 79.6339 96.9776 79.28H96.9774ZM108.457 81.2565C108.444 81.2991 108.427 81.3268 108.406 81.3396C108.384 81.3524 108.356 81.3588 108.322 81.3588H107.99C107.93 81.3588 107.913 81.3247 107.939 81.2565L109.276 77.2203C109.293 77.1563 109.333 77.1243 109.397 77.1243H109.755C109.798 77.1243 109.827 77.1328 109.842 77.1499C109.857 77.1669 109.868 77.1903 109.877 77.2202L111.214 81.2691C111.227 81.3288 111.209 81.3586 111.163 81.3586H110.772C110.738 81.3586 110.714 81.3522 110.699 81.3394C110.684 81.3266 110.672 81.3054 110.664 81.2754L110.35 80.2262H108.789L108.457 81.2561V81.2565ZM109.89 78.7043L109.583 77.6681H109.563L109.263 78.6853L108.936 79.7727H110.209L109.89 78.7045V78.7043ZM122.226 78.0136H122.207V81.2502C122.207 81.3227 122.17 81.359 122.098 81.359H121.836C121.759 81.359 121.721 81.3229 121.721 81.2502V77.214C121.721 77.15 121.755 77.118 121.823 77.118H122.085C122.132 77.118 122.165 77.1277 122.184 77.1468C122.204 77.166 122.224 77.1905 122.245 77.2203L123.978 79.8941L124.317 80.4314H124.337V77.2333C124.337 77.1864 124.345 77.1554 124.362 77.1405C124.379 77.1256 124.407 77.118 124.445 77.118H124.714C124.748 77.118 124.774 77.1256 124.791 77.1405C124.808 77.1554 124.816 77.1864 124.816 77.2333V81.2567C124.816 81.3248 124.782 81.359 124.714 81.359H124.471C124.424 81.359 124.39 81.3506 124.369 81.3335C124.347 81.3164 124.326 81.2908 124.305 81.2567L122.597 78.6212L122.226 78.0136ZM137.243 77.0732C137.307 77.0732 137.386 77.0754 137.479 77.0797C137.573 77.084 137.673 77.0925 137.78 77.1053C137.887 77.118 137.993 77.1351 138.1 77.1563C138.206 77.1777 138.302 77.2054 138.388 77.2394C138.435 77.2608 138.462 77.282 138.471 77.3034C138.479 77.3248 138.479 77.3504 138.471 77.3802L138.433 77.5593C138.424 77.5807 138.412 77.5998 138.397 77.6169C138.382 77.634 138.354 77.6383 138.311 77.6298C138.17 77.6084 138.005 77.5883 137.815 77.569C137.625 77.5498 137.435 77.5403 137.243 77.5403C136.995 77.5403 136.799 77.5872 136.654 77.6811C136.509 77.7749 136.398 77.9017 136.321 78.0616C136.245 78.2215 136.196 78.4069 136.174 78.6182C136.153 78.8293 136.142 79.0519 136.142 79.2866C136.142 79.4999 136.155 79.7065 136.181 79.907C136.206 80.1074 136.259 80.2845 136.338 80.4379C136.417 80.5915 136.528 80.7141 136.673 80.8058C136.818 80.8976 137.008 80.9432 137.243 80.9432C137.439 80.9432 137.627 80.9337 137.805 80.9145C137.985 80.8952 138.151 80.8749 138.304 80.8537C138.351 80.8452 138.382 80.8504 138.397 80.8697C138.412 80.8889 138.424 80.9091 138.432 80.9305L138.464 81.0968C138.473 81.1308 138.474 81.1587 138.468 81.1799C138.461 81.2013 138.437 81.2204 138.394 81.2374C138.317 81.2716 138.226 81.2993 138.119 81.3207C138.012 81.3419 137.905 81.359 137.796 81.3718C137.687 81.3845 137.584 81.3943 137.486 81.4005C137.388 81.407 137.307 81.4101 137.243 81.4101C136.906 81.4101 136.632 81.3515 136.421 81.2342C136.21 81.117 136.045 80.9601 135.925 80.7639C135.806 80.5677 135.725 80.3417 135.682 80.086C135.639 79.8301 135.618 79.5636 135.618 79.2864C135.618 79.005 135.638 78.7311 135.679 78.4644C135.719 78.1979 135.797 77.9623 135.912 77.7577C136.027 77.553 136.191 77.3878 136.405 77.2619C136.618 77.136 136.897 77.0732 137.243 77.0732ZM151.504 81.2565C151.504 81.2991 151.496 81.3268 151.479 81.3396C151.462 81.3524 151.434 81.3588 151.396 81.3588H149.151C149.074 81.3588 149.035 81.3247 149.035 81.2565V77.2268C149.035 77.1543 149.074 77.118 149.151 77.118H151.357C151.43 77.118 151.466 77.1522 151.466 77.2203V77.4698C151.466 77.5422 151.428 77.5786 151.351 77.5786H149.534V78.9282H151.166C151.238 78.9282 151.274 78.9624 151.274 79.0307V79.2801C151.274 79.3483 151.238 79.3825 151.166 79.3825H149.534V80.9049H151.402C151.47 80.9049 151.505 80.9411 151.505 81.0137V81.2567L151.504 81.2565Z" fill="#2B2A29"/>
<path fill-rule="evenodd" clip-rule="evenodd" d="M121.95 67.1556C119.293 68.0027 117.569 66.2518 118.07 63.4953C118.374 61.8254 122.804 41.9189 122.804 41.9189C123.314 39.9965 125.362 38.9813 127.172 39.7287C127.7 39.947 128.126 40.4414 128.229 40.568C128.333 40.6944 128.482 40.6255 128.632 40.5565C130.555 39.6684 132.893 39.0779 134.919 39.9884C136.866 40.864 137.731 42.9259 137.389 45.3253C137.298 45.9554 135.736 52.5015 135.644 53.2816C135.447 54.9574 135.213 57.2963 137.523 56.9814C138.209 56.8879 138.454 56.2236 138.516 55.889C138.578 55.5541 142.262 38.602 142.262 38.602C142.584 36.6156 144.136 35.5559 146.083 35.8727C147.703 36.1364 148.447 37.7372 148.304 39.2556C148.247 39.8593 145.623 51.5656 145.623 51.5656C144.966 53.9574 146.682 54.9278 148.794 54.8298C152.214 54.671 152.38 57.4082 150.809 58.4377C150.432 58.685 148.64 59.4295 147.154 59.9992C145.799 60.5184 144.116 61.1331 142.641 60.8011C141.553 60.5565 141.802 60.5596 141.073 61.089C135.842 64.8892 127.53 65.1989 128.822 56.1591C129.072 54.4082 130.439 50.2976 129.668 49.0749C129.287 48.4709 128.51 48.2074 127.487 48.4529C126.398 53.4082 125.309 58.3635 124.219 63.3186C123.918 64.691 123.493 66.6638 121.95 67.1558V67.1556ZM96.8344 33.9429C96.458 34.0307 94.6258 34.3069 93.8979 34.2818C92.3136 34.2271 91.6147 32.2707 92.2114 30.9802C93.0796 29.1028 100.241 26.4596 102.022 26.3323C106.323 25.6507 108.413 27.0332 107.765 31.5733C107.66 32.3041 107.155 34.1098 106.908 35.2401C106.662 36.3701 101.461 58.5025 101.461 58.5025C100.851 61.6616 102.654 63.427 104.711 63.6097C108.388 63.9363 109.443 60.2873 110.106 57.4472C112.263 48.1965 114.566 38.1107 116.685 28.8506C116.685 28.8506 117.376 25.4757 118.964 23.747C121.385 21.1114 125.186 19.3348 128.757 19.0275C130.351 18.8903 131.823 19.2337 132.442 20.8181C133.171 22.6435 132.218 23.957 130.694 24.7713C129.165 25.589 127.504 25.6002 125.918 26.2758C124.216 27.0016 123.448 28.1577 122.727 30.8853C122.48 31.8204 116.101 60.8335 116.101 60.8335C114.958 67.2362 111.096 71.7527 104.266 71.468C98.5676 71.2306 94.2326 66.9638 94.4183 61.2048C94.5014 58.6287 95.4862 55.1948 95.737 53.9959C95.9879 52.7969 100.271 36.3049 100.271 36.3049C100.905 33.745 98.6019 33.6392 96.8344 33.9428V33.9429Z" fill="#2B2A29"/>
<path fill-rule="evenodd" clip-rule="evenodd" d="M147.936 20.71C149.925 20.71 151.692 21.6613 152.807 23.1334C156.177 23.754 158.48 25.0038 158.48 26.4446C158.48 27.807 156.421 28.9986 153.347 29.6491C152.326 31.5954 150.286 32.9235 147.936 32.9235C145.578 32.9235 143.532 31.5866 142.514 29.6296C139.491 28.9751 137.473 27.7936 137.473 26.4446C137.473 25.0175 139.732 23.7777 143.051 23.1514C144.165 21.6688 145.938 20.71 147.935 20.71H147.936ZM153.951 25.7582C154.011 26.1021 154.043 26.4556 154.043 26.8167C154.043 26.9154 154.04 27.0134 154.035 27.1109C154.816 26.9205 155.272 26.6912 155.272 26.4446C155.272 26.1893 154.783 25.9524 153.951 25.7582ZM141.836 27.0904C141.832 26.9996 141.829 26.9084 141.829 26.8167C141.829 26.4628 141.859 26.1159 141.917 25.7785C141.137 25.969 140.681 26.1981 140.681 26.4446C140.681 26.6826 141.105 26.9041 141.836 27.0904ZM150.062 30.0992C149.388 30.1474 148.691 30.1727 147.977 30.1727C147.23 30.1727 146.502 30.145 145.8 30.0924C146.414 30.4936 147.148 30.7272 147.936 30.7272C148.72 30.7272 149.45 30.4964 150.062 30.0992ZM144.078 27.4553C145.206 27.5724 146.543 27.6402 147.977 27.6402C149.376 27.6402 150.683 27.5756 151.793 27.4637C151.828 27.2532 151.846 27.0372 151.846 26.8165C151.846 24.6569 150.095 22.9061 147.936 22.9061C145.776 22.9061 144.025 24.6567 144.025 26.8165C144.025 27.0341 144.043 27.2474 144.078 27.4553H144.078Z" fill="#2B2A29"/>
</g>
</svg>
