<svg width="250" height="100" viewBox="0 0 250 100" fill="none" xmlns="http://www.w3.org/2000/svg">
<g style="mix-blend-mode:luminosity" opacity="0.4">
<path d="M44.6676 33.0139C44.6791 42.6556 44.7002 52.1362 44.7179 61.7783L54.0994 61.78L54.0783 41.345H58.1893L58.2148 65.9343L46.9933 65.9266C44.0895 65.9295 42.7169 65.9306 41.6069 64.8144C40.5316 63.7328 40.5472 62.5548 40.577 60.3205C40.6963 51.1981 40.5676 42.1507 40.5566 33.0143H44.6676V33.0139Z" fill="#1D2431"/>
<path d="M84.1113 37.2167V33.0898H88.2385V37.2167H84.1113Z" fill="#1D2431"/>
<path d="M88.2325 41.3447V65.9492H84.1055V41.3447H88.2325Z" fill="#1D2431"/>
<path d="M92.3398 33.0977H109.988V37.2247H92.3398V33.0977Z" fill="#1D2431"/>
<path d="M103.147 45.4598H109.945C109.945 50.3261 109.95 55.5245 110.013 60.3986C110.043 62.6327 110.059 63.8109 108.983 64.8924C107.873 66.0087 106.501 66.0073 103.597 66.0045L94.4277 66.0124L94.4532 41.3535H98.5642L98.543 61.8579L105.872 61.8562C105.889 52.884 105.834 56.731 105.836 49.5866H103.147V45.4594V45.4598Z" fill="#1D2431"/>
<path d="M191.645 59.8477H209.258V63.9746H191.645V59.8477Z" fill="#1D2431"/>
<path d="M193.703 45.4795H207.19V49.6065H193.703V45.4795Z" fill="#1D2431"/>
<path d="M191.645 33.0938H209.258V37.2207H191.645V33.0938Z" fill="#1D2431"/>
<path d="M69.7363 46.9624L76.2578 33.0098L79.9817 34.751L73.4605 48.7036L69.7363 46.9624Z" fill="#1D2431"/>
<path d="M75.8588 65.9906C75.8473 56.3487 75.8927 69.4688 75.8748 59.8271L66.4221 59.8254V63.9745H62.2949C62.2949 53.6514 62.2949 43.3329 62.2949 33.0068H66.4221V55.6739L73.5995 55.6788C76.5032 55.676 77.8757 55.6749 78.9859 56.7911C80.061 57.8726 80.0455 59.0505 80.0156 61.2848C80.0156 61.2848 80.0156 60.9782 79.9698 65.9904H75.8588V65.9906Z" fill="#1D2431"/>
<path d="M148.079 45.5148H161.577L161.572 49.6418C161.507 61.496 150.288 65.984 139.979 65.984L139.979 61.8568C147.859 61.8568 157.375 59.0019 157.445 49.6416H148.079V45.5146V45.5148Z" fill="#1D2431"/>
<path d="M161.619 37.1108C151.977 37.1223 153.591 37.1434 143.949 37.1611L143.948 49.8835L139.797 49.8882L139.801 39.4367C139.799 36.5329 139.797 35.1603 140.913 34.0503C141.995 32.9749 143.173 32.9906 145.407 33.0203C154.53 33.1396 152.482 33.0109 161.619 33V37.111V37.1108Z" fill="#1D2431"/>
<path d="M226.936 63.9726C226.924 54.3308 226.903 46.8575 226.885 37.2156L217.504 37.2139L217.525 65.9883H213.414L213.389 33.0596L224.61 33.0673C227.514 33.0645 228.886 33.0633 229.996 34.1795C231.072 35.2611 231.056 36.4391 231.026 38.6734C230.907 47.7958 231.036 54.836 231.047 63.9724H226.936V63.9726Z" fill="#1D2431"/>
<path d="M114.084 33.1016H135.657V37.2286H118.213V66.0356H114.086C114.086 55.0568 114.084 44.0779 114.084 33.1016H114.084Z" fill="#1D2431"/>
<path d="M118.205 37.115C118.731 50.6855 123.339 56.8827 132.817 65.8572L135.654 62.8745C126.997 54.6772 122.798 49.4072 122.316 36.9697L118.205 37.115H118.205Z" fill="#1D2431"/>
<path d="M120.277 63.9739V59.8467H124.404V63.9739H120.277Z" fill="#1D2431"/>
<path d="M173.973 45.5148H187.472L187.467 49.6418C187.401 61.496 176.183 65.984 165.873 65.984L165.873 61.8568C173.754 61.8568 183.269 59.0019 183.34 49.6416H173.973V45.5146V45.5148Z" fill="#1D2431"/>
<path d="M187.513 37.1108C177.871 37.1223 179.486 37.1434 169.844 37.1611L169.842 49.8835L165.691 49.8882L165.696 39.4367C165.693 36.5329 165.692 35.1603 166.808 34.0503C167.889 32.9749 169.068 32.9906 171.302 33.0203C180.424 33.1396 178.377 33.0109 187.513 33V37.111V37.1108Z" fill="#1D2431"/>
<path d="M36.4486 37.1861C35.9227 50.7568 31.3147 56.9538 21.8373 65.9283L19 62.9458C27.6568 54.7485 31.856 49.4783 32.3378 37.041L36.4488 37.1861H36.4486Z" fill="#1D2431"/>
<path d="M25.617 48.7026L19.0957 34.75L22.8195 33.0088L29.3409 46.9614L25.617 48.7026Z" fill="#1D2431"/>
</g>
</svg>
