<svg width="250" height="100" viewBox="0 0 250 100" fill="none" xmlns="http://www.w3.org/2000/svg">
<g style="mix-blend-mode:luminosity" opacity="0.4">
<path d="M120.014 26.1814C120.235 26.0966 120.463 26.0248 120.665 25.9465C123.151 25.1255 125.241 23.4034 126.525 21.1181C127.003 20.3939 127.227 19.5311 127.162 18.6653C127.097 17.7995 126.747 16.9799 126.167 16.3353C125.993 16.1557 125.861 15.9395 125.781 15.7025C125.701 15.4655 125.675 15.2136 125.704 14.9651C125.762 14.736 125.885 14.5283 126.056 14.3665C126.228 14.2046 126.443 14.0954 126.675 14.0516C126.96 13.9627 127.27 13.9894 127.536 14.126C127.802 14.2625 128.005 14.4981 128.1 14.7824C128.514 15.6631 128.629 16.6556 128.426 17.6077C127.384 21.7967 125.138 24.9808 120.893 26.4294C120.665 26.5077 120.431 26.5664 120.203 26.6251C119.975 26.6838 119.923 26.6251 119.864 26.4946C119.806 26.3641 119.877 26.2336 120.014 26.1814Z" fill="#66675D"/>
<path d="M124.226 22.9453C124.35 20.7725 124.35 20.7725 123.191 18.7171C123.084 18.5701 123.011 18.401 122.978 18.2222C122.944 18.0434 122.951 17.8593 122.998 17.6835C123.045 17.5078 123.13 17.3447 123.248 17.2063C123.366 17.0679 123.513 16.9577 123.679 16.8836C123.829 16.7925 123.998 16.737 124.173 16.7214C124.348 16.7057 124.524 16.7303 124.688 16.7932C124.852 16.8562 124.999 16.9558 125.119 17.0846C125.239 17.2133 125.327 17.3678 125.378 17.5361C126.003 18.8868 125.743 21.8752 124.226 22.9453Z" fill="#66675D"/>
<path d="M127.547 21.8948C127.792 21.3648 128.161 20.9016 128.622 20.544C129.083 20.1863 129.623 19.9447 130.197 19.8394C130.378 19.775 130.576 19.7749 130.757 19.839C130.938 19.9031 131.092 20.0277 131.193 20.1918C131.274 20.3035 131.318 20.4383 131.318 20.5767C131.318 20.7151 131.274 20.85 131.193 20.9617C131.112 21.1373 130.967 21.2758 130.789 21.3495C130.61 21.4233 130.41 21.4269 130.229 21.3597C129.324 21.0465 128.517 21.3663 127.547 21.8948Z" fill="#66675D"/>
<path d="M129.128 22.9257C129.25 22.9238 129.37 22.9516 129.479 23.0067C129.588 23.0617 129.682 23.1424 129.753 23.2418C129.824 23.3412 129.87 23.4564 129.887 23.5774C129.904 23.6985 129.891 23.8219 129.85 23.937C129.83 24.0582 129.78 24.1723 129.703 24.2685C129.627 24.3646 129.527 24.4397 129.414 24.4867C129.301 24.5337 129.177 24.551 129.055 24.5371C128.934 24.5231 128.817 24.4783 128.718 24.4068C127.96 23.94 127.08 23.7126 126.191 23.7543C126.574 23.3829 127.042 23.1127 127.555 22.9681C128.068 22.8234 128.608 22.8088 129.128 22.9257Z" fill="#66675D"/>
<path d="M122.904 23.8765C122.892 23.4425 122.794 23.0151 122.615 22.6196C122.436 22.2241 122.181 21.8684 121.863 21.5732C121.706 21.4635 121.594 21.3008 121.547 21.115C121.501 20.9293 121.523 20.7329 121.609 20.5619C121.675 20.4209 121.785 20.3049 121.922 20.2309C122.059 20.1569 122.216 20.1289 122.371 20.1508C122.56 20.1644 122.74 20.2402 122.882 20.3663C123.025 20.4925 123.122 20.6621 123.158 20.849C123.364 21.3364 123.449 21.8667 123.404 22.3942C123.36 22.9216 123.189 23.4304 122.904 23.8765Z" fill="#66675D"/>
<path d="M128.824 19.0882C128.941 18.5981 129.176 18.1442 129.508 17.7664C129.841 17.3887 130.261 17.0987 130.732 16.922C131.142 16.7915 131.598 16.8372 131.715 17.3657C131.743 17.4647 131.747 17.5688 131.727 17.6697C131.707 17.7705 131.663 17.8652 131.6 17.946C131.536 18.0267 131.455 18.0913 131.362 18.1345C131.268 18.1777 131.166 18.1982 131.064 18.1943C130.236 18.2212 129.444 18.5375 128.824 19.0882Z" fill="#66675D"/>
<path d="M126.525 24.9475C126.857 24.9932 127.13 25.1107 127.215 25.4565C127.261 25.587 127.264 25.7288 127.224 25.8614C127.185 25.9939 127.104 26.1103 126.994 26.1938C126.875 26.2966 126.724 26.3533 126.567 26.3533C126.411 26.3533 126.259 26.2966 126.141 26.1938C125.802 25.9523 125.418 25.7831 125.011 25.6967C124.605 25.6102 124.185 25.6084 123.777 25.6914C124.147 25.3627 124.587 25.1245 125.064 24.9954C125.541 24.8663 126.041 24.8499 126.525 24.9475Z" fill="#66675D"/>
<path d="M101.583 32.9265C101.579 32.7082 101.619 32.4914 101.701 32.2891C101.783 32.0868 101.905 31.9031 102.059 31.749C102.214 31.5949 102.398 31.4736 102.6 31.3923C102.802 31.3109 103.018 31.2713 103.236 31.2757C103.474 31.2725 103.709 31.3211 103.926 31.4179C104.143 31.5148 104.336 31.6578 104.493 31.8369C104.504 31.8454 104.512 31.8563 104.518 31.8687C104.524 31.8812 104.528 31.8948 104.528 31.9086C104.528 31.9225 104.524 31.9361 104.518 31.9485C104.512 31.961 104.504 31.9719 104.493 31.9804L104.447 32.0196C104.438 32.0305 104.427 32.0394 104.414 32.0454C104.401 32.0515 104.387 32.0546 104.372 32.0546C104.358 32.0546 104.344 32.0515 104.331 32.0454C104.318 32.0394 104.307 32.0305 104.298 32.0196C104.166 31.8729 104.006 31.7553 103.826 31.6744C103.647 31.5935 103.452 31.5511 103.256 31.5498C102.9 31.5741 102.567 31.7328 102.324 31.9938C102.08 32.2548 101.945 32.5987 101.945 32.9559C101.945 33.3131 102.08 33.657 102.324 33.918C102.567 34.179 102.9 34.3377 103.256 34.362C103.453 34.3619 103.649 34.3194 103.828 34.2372C104.008 34.155 104.168 34.0352 104.298 33.8857C104.307 33.8747 104.318 33.8659 104.331 33.8598C104.344 33.8538 104.358 33.8506 104.372 33.8506C104.387 33.8506 104.401 33.8538 104.414 33.8598C104.427 33.8659 104.438 33.8747 104.447 33.8857L104.493 33.9248C104.504 33.9327 104.512 33.943 104.518 33.9549C104.524 33.9668 104.528 33.98 104.528 33.9933C104.528 34.0067 104.524 34.0199 104.518 34.0318C104.512 34.0437 104.504 34.054 104.493 34.0619C104.268 34.3196 103.97 34.5017 103.638 34.5833C103.307 34.6649 102.958 34.6421 102.64 34.518C102.322 34.3939 102.05 34.1745 101.86 33.8897C101.671 33.6049 101.574 33.2686 101.583 32.9265Z" fill="#66675D"/>
<path d="M105.879 32.9283C105.874 32.5943 105.968 32.2663 106.149 31.986C106.331 31.7058 106.591 31.4859 106.898 31.3545C107.204 31.2231 107.543 31.186 107.87 31.248C108.198 31.31 108.5 31.4682 108.737 31.7026C108.975 31.9369 109.137 32.2368 109.204 32.564C109.271 32.8913 109.239 33.2311 109.113 33.5402C108.987 33.8493 108.772 34.1138 108.495 34.3C108.218 34.4861 107.892 34.5856 107.559 34.5856C107.339 34.5927 107.119 34.5549 106.914 34.4744C106.709 34.394 106.522 34.2726 106.365 34.1176C106.208 33.9627 106.084 33.7773 106 33.5729C105.917 33.3684 105.875 33.1491 105.879 32.9283ZM108.946 32.9283C108.944 32.6511 108.861 32.3805 108.707 32.1507C108.552 31.9208 108.333 31.742 108.077 31.6369C107.821 31.5317 107.54 31.5048 107.269 31.5597C106.998 31.6146 106.749 31.7487 106.554 31.9451C106.359 32.1416 106.226 32.3916 106.173 32.6635C106.119 32.9355 106.147 33.2172 106.253 33.4731C106.359 33.7291 106.539 33.9478 106.769 34.1017C106.999 34.2555 107.269 34.3376 107.546 34.3377C107.731 34.3422 107.916 34.3087 108.088 34.2394C108.261 34.1701 108.417 34.0663 108.548 33.9345C108.679 33.8026 108.782 33.6454 108.85 33.4724C108.919 33.2994 108.951 33.1143 108.946 32.9283Z" fill="#66675D"/>
<path d="M110.901 33.2874V31.4474C110.9 31.4334 110.902 31.4194 110.907 31.4063C110.911 31.3932 110.919 31.3813 110.929 31.3714C110.939 31.3615 110.951 31.3539 110.964 31.349C110.977 31.3441 110.991 31.342 111.005 31.343H111.076C111.09 31.342 111.104 31.3441 111.117 31.349C111.13 31.3539 111.142 31.3615 111.152 31.3714C111.162 31.3813 111.17 31.3932 111.175 31.4063C111.18 31.4194 111.182 31.4334 111.181 31.4474V33.2744C111.181 33.5495 111.29 33.8134 111.484 34.008C111.678 34.2025 111.941 34.3118 112.216 34.3118C112.49 34.3118 112.754 34.2025 112.948 34.008C113.142 33.8134 113.251 33.5495 113.251 33.2744V31.4474C113.25 31.434 113.252 31.4206 113.256 31.4079C113.261 31.3953 113.268 31.3837 113.277 31.3739C113.286 31.3641 113.297 31.3564 113.31 31.351C113.322 31.3457 113.335 31.343 113.349 31.343H113.414C113.428 31.342 113.442 31.3441 113.455 31.349C113.468 31.3539 113.48 31.3615 113.49 31.3714C113.499 31.3813 113.507 31.3932 113.512 31.4063C113.517 31.4194 113.519 31.4334 113.518 31.4474V33.2874C113.518 33.6335 113.381 33.9655 113.137 34.2102C112.892 34.4549 112.561 34.5924 112.216 34.5924C111.87 34.5924 111.539 34.4549 111.295 34.2102C111.051 33.9655 110.914 33.6335 110.914 33.2874H110.901Z" fill="#66675D"/>
<path d="M117.878 31.4469V34.481C117.878 34.5017 117.87 34.5217 117.855 34.5363C117.84 34.551 117.821 34.5593 117.8 34.5593C117.761 34.5593 117.722 34.5201 117.683 34.4679L115.651 31.8906V34.4223C115.653 34.4367 115.652 34.4515 115.648 34.4654C115.643 34.4793 115.636 34.492 115.626 34.5027C115.616 34.5133 115.603 34.5216 115.59 34.5268C115.576 34.5321 115.562 34.5343 115.547 34.5332H115.456C115.442 34.5332 115.428 34.5303 115.415 34.5247C115.401 34.519 115.39 34.5107 115.38 34.5003C115.37 34.4899 115.363 34.4776 115.358 34.4642C115.353 34.4508 115.351 34.4365 115.352 34.4223V31.3882C115.353 31.3696 115.361 31.3522 115.374 31.3391C115.388 31.3259 115.405 31.3179 115.423 31.3164C115.462 31.3164 115.502 31.3164 115.541 31.4078L117.572 33.9851V31.4469C117.571 31.4329 117.573 31.4189 117.578 31.4058C117.583 31.3927 117.59 31.3808 117.6 31.3709C117.61 31.361 117.622 31.3534 117.635 31.3485C117.648 31.3436 117.662 31.3415 117.676 31.3425H117.741C117.757 31.3352 117.775 31.3324 117.792 31.3344C117.81 31.3364 117.827 31.3431 117.841 31.3538C117.855 31.3645 117.866 31.3788 117.872 31.3952C117.879 31.4116 117.881 31.4295 117.878 31.4469Z" fill="#66675D"/>
<path d="M120.483 34.4225V31.5842H119.513C119.441 31.5842 119.402 31.5516 119.402 31.4863V31.4406C119.402 31.3754 119.441 31.3428 119.513 31.3428H121.733C121.805 31.3428 121.844 31.3754 121.844 31.4406V31.4863C121.844 31.5516 121.805 31.5842 121.733 31.5842H120.757V34.4225C120.759 34.437 120.757 34.4517 120.753 34.4656C120.748 34.4796 120.741 34.4923 120.731 34.5029C120.721 34.5136 120.709 34.5218 120.695 34.5271C120.682 34.5324 120.667 34.5346 120.652 34.5334H120.587C120.573 34.5335 120.559 34.5306 120.546 34.5249C120.533 34.5193 120.521 34.511 120.511 34.5006C120.501 34.4902 120.494 34.4779 120.489 34.4645C120.484 34.4511 120.482 34.4368 120.483 34.4225Z" fill="#66675D"/>
<path d="M125.874 34.5206C125.799 34.5657 125.714 34.5905 125.627 34.5924C125.347 34.5924 125.197 34.3836 125.08 34.103L124.819 33.4897C124.748 33.32 124.683 33.1504 124.455 33.1504H123.667V34.4227C123.668 34.437 123.666 34.4513 123.661 34.4647C123.656 34.4781 123.649 34.4904 123.639 34.5008C123.629 34.5112 123.617 34.5195 123.604 34.5251C123.591 34.5308 123.577 34.5337 123.563 34.5337H123.491C123.477 34.5337 123.463 34.5308 123.45 34.5251C123.437 34.5195 123.425 34.5112 123.415 34.5008C123.405 34.4904 123.398 34.4781 123.393 34.4647C123.388 34.4513 123.386 34.437 123.387 34.4227V31.4474C123.387 31.4331 123.39 31.419 123.395 31.4059C123.401 31.3927 123.409 31.3809 123.42 31.3711C123.43 31.3614 123.442 31.3538 123.456 31.349C123.469 31.3441 123.483 31.3421 123.498 31.343H124.572C125.262 31.343 125.646 31.6823 125.646 32.2434C125.655 32.4638 125.579 32.6791 125.434 32.8445C125.288 33.0099 125.084 33.1125 124.865 33.1308C124.943 33.1308 125.002 33.2613 125.06 33.4048L125.314 33.9921C125.399 34.1944 125.49 34.3444 125.633 34.3444C125.677 34.3418 125.719 34.3283 125.757 34.3053C125.815 34.3053 125.854 34.3053 125.887 34.3444V34.3966C125.895 34.4054 125.901 34.4157 125.904 34.4269C125.908 34.4381 125.909 34.4498 125.908 34.4615C125.906 34.4731 125.903 34.4844 125.897 34.4946C125.891 34.5047 125.883 34.5136 125.874 34.5206ZM124.617 32.9285C124.79 32.9285 124.956 32.8598 125.078 32.7374C125.2 32.6151 125.269 32.4491 125.269 32.276C125.269 32.103 125.2 31.937 125.078 31.8147C124.956 31.6923 124.79 31.6235 124.617 31.6235H123.647V32.9285H124.617Z" fill="#66675D"/>
<path d="M129.78 31.4463L128.627 33.3124V34.4217C128.629 34.4356 128.628 34.4497 128.624 34.4632C128.62 34.4766 128.613 34.489 128.604 34.4995C128.594 34.51 128.583 34.5184 128.57 34.5241C128.557 34.5298 128.544 34.5327 128.53 34.5326H128.478C128.464 34.5327 128.45 34.5298 128.437 34.5241C128.424 34.5184 128.413 34.51 128.403 34.4995C128.394 34.489 128.387 34.4766 128.383 34.4632C128.379 34.4497 128.378 34.4356 128.38 34.4217V33.3255L127.416 31.766C127.338 31.6421 127.273 31.5572 127.188 31.5377C127.128 31.5268 127.065 31.5384 127.013 31.5703C127.002 31.5782 126.99 31.5835 126.977 31.5858C126.964 31.5881 126.95 31.5874 126.938 31.5836C126.925 31.5798 126.913 31.573 126.904 31.5639C126.894 31.5548 126.887 31.5436 126.882 31.5311V31.4855C126.876 31.475 126.871 31.4632 126.87 31.451C126.868 31.4387 126.869 31.4262 126.873 31.4144C126.877 31.4025 126.883 31.3917 126.891 31.3825C126.9 31.3734 126.91 31.3662 126.921 31.3615C126.997 31.3111 127.085 31.2838 127.175 31.2832C127.416 31.2832 127.553 31.4529 127.696 31.6812L128.478 33.071L129.467 31.4398C129.513 31.3746 129.545 31.3419 129.617 31.3419H129.708C129.78 31.3419 129.832 31.4007 129.78 31.4463Z" fill="#66675D"/>
<path d="M133.283 32.9267C133.28 32.7078 133.321 32.4904 133.403 32.2877C133.485 32.0849 133.608 31.9009 133.763 31.7467C133.918 31.5926 134.102 31.4714 134.305 31.3905C134.508 31.3095 134.725 31.2706 134.944 31.2759C135.181 31.2727 135.417 31.3212 135.634 31.4181C135.85 31.515 136.044 31.6579 136.2 31.837C136.21 31.8462 136.218 31.8573 136.223 31.8696C136.229 31.882 136.232 31.8953 136.232 31.9088C136.232 31.9223 136.229 31.9356 136.223 31.9479C136.218 31.9603 136.21 31.9714 136.2 31.9806L136.148 32.0197C136.14 32.0306 136.129 32.0393 136.116 32.0454C136.104 32.0514 136.09 32.0545 136.077 32.0545C136.063 32.0545 136.049 32.0514 136.037 32.0454C136.024 32.0393 136.014 32.0306 136.005 32.0197C135.873 31.8722 135.711 31.7542 135.531 31.6733C135.35 31.5923 135.155 31.5503 134.957 31.5499C134.601 31.5742 134.268 31.7329 134.025 31.9939C133.781 32.255 133.646 32.5988 133.646 32.956C133.646 33.3132 133.781 33.6571 134.025 33.9181C134.268 34.1792 134.601 34.3379 134.957 34.3621C135.155 34.3622 135.351 34.3197 135.532 34.2375C135.713 34.1554 135.874 34.0355 136.005 33.8858C136.014 33.875 136.024 33.8662 136.037 33.8602C136.049 33.8541 136.063 33.851 136.077 33.851C136.09 33.851 136.104 33.8541 136.116 33.8602C136.129 33.8662 136.14 33.875 136.148 33.8858L136.2 33.925C136.21 33.9335 136.218 33.9441 136.223 33.9559C136.228 33.9677 136.231 33.9805 136.231 33.9935C136.231 34.0064 136.228 34.0193 136.223 34.0311C136.218 34.0429 136.21 34.0534 136.2 34.062C135.975 34.3185 135.676 34.4995 135.344 34.5804C135.013 34.6613 134.665 34.6383 134.347 34.5145C134.028 34.3907 133.756 34.1721 133.566 33.8881C133.376 33.6042 133.277 33.2686 133.283 32.9267Z" fill="#66675D"/>
<path d="M137.853 34.4293V31.4474C137.852 31.4334 137.854 31.4194 137.859 31.4063C137.864 31.3932 137.871 31.3813 137.881 31.3714C137.891 31.3615 137.903 31.3539 137.916 31.349C137.929 31.3441 137.943 31.342 137.957 31.343H138.028C138.042 31.342 138.056 31.3441 138.069 31.349C138.083 31.3539 138.094 31.3615 138.104 31.3714C138.114 31.3813 138.122 31.3932 138.127 31.4063C138.132 31.4194 138.134 31.4334 138.133 31.4474V34.2857H139.643C139.657 34.2839 139.671 34.285 139.685 34.2891C139.698 34.2932 139.71 34.3001 139.721 34.3093C139.731 34.3186 139.74 34.3301 139.745 34.3429C139.751 34.3557 139.754 34.3696 139.754 34.3836V34.4358C139.754 34.5011 139.708 34.5337 139.643 34.5337H137.957C137.943 34.5359 137.928 34.5348 137.914 34.5303C137.901 34.5258 137.888 34.5182 137.878 34.508C137.868 34.4979 137.86 34.4854 137.856 34.4717C137.852 34.458 137.85 34.4435 137.853 34.4293Z" fill="#66675D"/>
<path d="M141.102 33.2875V31.4475C141.101 31.4341 141.103 31.4207 141.107 31.408C141.112 31.3954 141.119 31.3838 141.128 31.374C141.137 31.3642 141.148 31.3564 141.161 31.3511C141.173 31.3458 141.186 31.3431 141.199 31.3431H141.278C141.292 31.3421 141.305 31.3442 141.319 31.3491C141.332 31.354 141.344 31.3616 141.353 31.3715C141.363 31.3814 141.371 31.3933 141.376 31.4064C141.381 31.4195 141.383 31.4335 141.382 31.4475V33.2745C141.382 33.5496 141.491 33.8135 141.685 34.008C141.879 34.2026 142.142 34.3119 142.417 34.3119C142.692 34.3119 142.955 34.2026 143.149 34.008C143.343 33.8135 143.452 33.5496 143.452 33.2745V31.4475C143.45 31.4339 143.451 31.42 143.455 31.4068C143.459 31.3937 143.466 31.3817 143.476 31.3716C143.485 31.3616 143.497 31.3538 143.51 31.3489C143.522 31.3439 143.536 31.342 143.55 31.3431H143.615C143.629 31.342 143.642 31.3439 143.655 31.3489C143.668 31.3538 143.68 31.3616 143.689 31.3716C143.698 31.3817 143.705 31.3937 143.709 31.4068C143.714 31.42 143.715 31.4339 143.713 31.4475V33.2875C143.713 33.6336 143.575 33.9655 143.331 34.2103C143.087 34.455 142.756 34.5925 142.41 34.5925C142.065 34.5925 141.734 34.455 141.49 34.2103C141.245 33.9655 141.108 33.6336 141.108 33.2875H141.102Z" fill="#66675D"/>
<path d="M147.86 33.658C147.86 34.18 147.417 34.5323 146.76 34.5323H145.705C145.69 34.5332 145.675 34.531 145.661 34.5258C145.647 34.5206 145.634 34.5126 145.623 34.5022C145.612 34.4918 145.603 34.4793 145.597 34.4654C145.591 34.4515 145.588 34.4365 145.588 34.4214V31.446C145.588 31.4312 145.591 31.4164 145.597 31.4028C145.603 31.3892 145.612 31.3771 145.623 31.3672C145.634 31.3573 145.647 31.3499 145.661 31.3455C145.675 31.3411 145.69 31.3398 145.705 31.3416H146.708C147.359 31.3416 147.736 31.6418 147.736 32.1703C147.737 32.3196 147.693 32.4657 147.609 32.5892C147.526 32.7127 147.406 32.8078 147.268 32.8619C147.439 32.9127 147.589 33.0177 147.696 33.1612C147.803 33.3047 147.86 33.479 147.86 33.658ZM145.868 31.5831V32.7706H146.747C147.19 32.7706 147.443 32.5487 147.443 32.1768C147.443 31.8049 147.183 31.5831 146.727 31.5831H145.868ZM147.58 33.6449C147.58 33.2534 147.268 32.9924 146.805 32.9924H145.868V34.2974H146.76C147.281 34.2844 147.58 34.0495 147.58 33.6449Z" fill="#66675D"/>
<path d="M66.3328 61.7939C67.2993 61.3931 68.1761 60.8028 68.9118 60.0577C69.6474 59.3126 70.2272 58.4276 70.6169 57.4549C71.0457 56.4208 71.2669 55.3122 71.2679 54.1924C71.2817 53.1123 71.0797 52.0404 70.6738 51.0397C70.2679 50.039 69.6664 49.1298 68.9045 48.3657C68.1575 47.6206 67.2706 47.0311 66.2951 46.6313C65.3195 46.2315 64.2746 46.0293 63.2207 46.0363C61.3187 46.0272 59.4745 46.6903 58.0121 47.909C56.5932 49.072 55.6276 50.698 55.2841 52.5025H53.8908V46.4539H51V62.1137H53.8908V55.4061H55.232C55.3537 56.3143 55.6242 57.1962 56.0328 58.016C56.8978 59.7879 58.3937 61.1707 60.2257 61.8918C62.195 62.6578 64.3837 62.6298 66.3328 61.8135V61.7939ZM63.1686 48.9268C63.864 48.9246 64.5534 49.0552 65.1999 49.3118C65.828 49.5613 66.4026 49.9289 66.8927 50.3949C67.3956 50.8825 67.7936 51.4681 68.0623 52.1155C68.3311 52.763 68.4648 53.4586 68.4553 54.1598C68.4607 54.8857 68.3258 55.6058 68.0581 56.2804C67.7973 56.9094 67.4195 57.4829 66.9448 57.9703C66.4533 58.4659 65.8676 58.8576 65.2223 59.1221C64.577 59.3866 63.8853 59.5186 63.1881 59.5102C62.4987 59.5119 61.8162 59.372 61.1828 59.0992C60.5438 58.8353 59.9605 58.4522 59.464 57.9703C58.9708 57.4783 58.5734 56.8986 58.292 56.2608C57.9966 55.6001 57.8457 54.8838 57.8493 54.1598C57.8398 53.4244 57.9771 52.6946 58.253 52.0131C58.5048 51.3928 58.8841 50.8325 59.3663 50.3688C59.8505 49.9064 60.4214 49.5449 61.0461 49.3053C61.7237 49.0472 62.4437 48.9188 63.1686 48.9268Z" fill="#66675D"/>
<path d="M76.8081 56.2096C77.1566 56.0425 77.5271 55.9261 77.9084 55.8637C78.3671 55.7923 78.831 55.7596 79.2952 55.7659H81.8995C82.5514 55.7739 83.1996 55.6657 83.8136 55.4461C84.3928 55.2369 84.9179 54.9002 85.3502 54.4609C85.77 54.0391 86.0981 53.5348 86.3138 52.9797C86.7564 51.7371 86.7564 50.3792 86.3138 49.1366C86.0986 48.5869 85.7703 48.0889 85.3502 47.675C84.9188 47.2628 84.4035 46.9489 83.8397 46.755C83.2268 46.5403 82.5813 46.4343 81.932 46.4418H73.9238V62.1015H76.8081V56.2096ZM81.919 49.3715C82.4193 49.332 82.9179 49.4655 83.3319 49.7499C83.4902 49.9252 83.6098 50.1321 83.6827 50.357C83.7557 50.5819 83.7803 50.8198 83.7551 51.0549C83.7551 52.2685 83.1886 52.8166 81.919 52.8166H79.3147C78.814 52.8163 78.3137 52.849 77.8173 52.9145C77.4815 52.9676 77.1535 53.0618 76.8406 53.195V49.3715H81.919Z" fill="#66675D"/>
<path d="M98.8716 61.8985C99.5137 61.7794 100.128 61.5404 100.682 61.1938C101.247 60.8277 101.714 60.3281 102.042 59.7388C102.414 59.009 102.594 58.1958 102.563 57.3768C102.607 56.7031 102.491 56.0286 102.225 55.4083C101.96 54.788 101.551 54.2395 101.033 53.8077C99.8589 52.9812 98.4425 52.5723 97.0095 52.6462H94.4638C94.0005 52.6371 93.5388 52.5891 93.0835 52.5027C92.7139 52.4421 92.3545 52.3301 92.0158 52.1699V46.4541H89.1055V62.1139H97.003C97.6313 62.1021 98.257 62.03 98.8716 61.8985ZM97.2244 59.1711H92.0158V55.1714C92.3278 55.3055 92.6562 55.3976 92.9924 55.4454C93.4865 55.5133 93.9846 55.5482 94.4833 55.5498H97.0356C97.3698 55.5475 97.7034 55.5781 98.0317 55.6412C98.3238 55.6922 98.6054 55.7914 98.8651 55.9348C99.09 56.0657 99.2799 56.2493 99.4185 56.4698C99.5658 56.7414 99.6356 57.0485 99.6203 57.3572C99.6351 57.6597 99.5652 57.9603 99.4185 58.225C99.2835 58.4492 99.0985 58.639 98.8781 58.7796C98.6418 58.9245 98.3816 59.0262 98.1098 59.0798C97.8183 59.1388 97.5218 59.1694 97.2244 59.1711Z" fill="#66675D"/>
<path d="M117.012 59.1711H107.832V55.9674C108.185 55.803 108.56 55.6909 108.945 55.6346C109.397 55.564 109.854 55.5291 110.312 55.5302H113.926V52.6136H110.286C109.792 52.6142 109.298 52.6447 108.808 52.705C108.472 52.7481 108.144 52.8359 107.832 52.966V49.3707H116.107V46.4541H104.947V62.1139H117.012V59.1711Z" fill="#66675D"/>
<path d="M129.616 61.853C130.245 61.709 130.843 61.4526 131.381 61.0961C131.913 60.7449 132.359 60.2762 132.683 59.7259C133.031 59.0936 133.204 58.3794 133.184 57.6575C133.191 57.1505 133.125 56.6451 132.989 56.1568C132.869 55.7445 132.701 55.3481 132.488 54.9758C132.288 54.6369 132.033 54.3346 131.732 54.0818C131.617 53.9786 131.495 53.8827 131.368 53.7947C131.664 53.5069 131.901 53.1632 132.064 52.7834C132.312 52.1862 132.437 51.5445 132.429 50.8977C132.44 50.2511 132.319 49.6092 132.071 49.012C131.849 48.4767 131.511 47.9976 131.081 47.6091C130.639 47.2202 130.123 46.925 129.564 46.7413C128.963 46.5469 128.334 46.45 127.702 46.4542H119.785V62.114H127.696C128.344 62.1046 128.989 62.017 129.616 61.853ZM127.911 59.1713H122.702V56.0067C123.049 55.8426 123.417 55.7263 123.796 55.6609C124.25 55.5851 124.709 55.548 125.17 55.5499H127.715C128.052 55.5479 128.387 55.5785 128.718 55.6413C129.01 55.6923 129.292 55.7916 129.551 55.9349C129.776 56.0658 129.966 56.2494 130.105 56.47C130.252 56.7416 130.322 57.0486 130.307 57.3573C130.316 57.6303 130.246 57.9002 130.105 58.1338C129.962 58.3596 129.773 58.553 129.551 58.7015C129.312 58.8605 129.048 58.9795 128.77 59.0538C128.49 59.1312 128.201 59.1707 127.911 59.1713ZM129.069 52.2092C128.677 52.5157 128.186 52.6667 127.689 52.6333H125.143C124.645 52.6319 124.146 52.6668 123.653 52.7377C123.317 52.7854 122.989 52.8753 122.676 53.0052V49.3709H127.689C128.179 49.3467 128.665 49.4718 129.082 49.7297C129.255 49.8722 129.389 50.0569 129.47 50.266C129.551 50.4752 129.577 50.7017 129.545 50.9238C129.566 51.16 129.534 51.3978 129.452 51.6201C129.369 51.8425 129.239 52.0437 129.069 52.2092Z" fill="#66675D"/>
<path d="M137.45 59.9996C138.208 60.7571 139.106 61.3598 140.093 61.7743C141.178 62.2221 142.343 62.4438 143.516 62.4259C144.689 62.4079 145.846 62.1507 146.917 61.6699C147.988 61.1849 148.948 60.4829 149.736 59.6081L149.931 59.3928L148.147 56.959L147.854 57.3309C147.329 58.0003 146.662 58.5442 145.901 58.923C145.123 59.3183 144.261 59.5197 143.388 59.5102C142.669 59.5141 141.955 59.3813 141.285 59.1187C140.647 58.8595 140.058 58.4908 139.547 58.029C139.039 57.5608 138.628 56.9979 138.336 56.3717C138.038 55.7209 137.887 55.0126 137.893 54.2968C137.886 53.5562 138.027 52.8217 138.31 52.1371C138.58 51.4983 138.974 50.9196 139.468 50.4341C139.969 49.95 140.563 49.5726 141.213 49.3248C141.912 49.0583 142.653 48.9233 143.401 48.9268C144.174 48.9242 144.94 49.0773 145.654 49.377C146.341 49.6717 146.966 50.0946 147.496 50.6233L147.77 50.8973L149.632 48.7115L149.397 48.4766C148.612 47.6914 147.68 47.0698 146.654 46.6476C145.629 46.2254 144.529 46.011 143.42 46.0167C141.25 46.0089 139.156 46.8248 137.561 48.3004C136.788 49.0222 136.164 49.889 135.725 50.8517C135.268 51.8551 135.035 52.946 135.041 54.0489C135.039 55.169 135.26 56.2782 135.692 57.3113C136.096 58.3147 136.693 59.2283 137.45 59.9996Z" fill="#66675D"/>
<path d="M162.882 61.696C163.208 61.8627 163.561 61.973 163.924 62.0222C164.265 62.0645 164.609 62.0863 164.952 62.0875H166.092V59.1513H165.734H165.46C165.232 59.1703 165.002 59.1571 164.777 59.1121C164.615 59.0794 164.461 59.0175 164.321 58.9294C164.112 58.799 163.919 58.6434 163.748 58.4662C163.499 58.2164 163.281 57.9382 163.097 57.6375L160.558 53.8074L165.701 46.4277H162.211L158.383 52.0913C158.012 52.2846 157.612 52.4168 157.198 52.4828C156.748 52.5498 156.293 52.5847 155.837 52.5872H155.186V46.4538H152.309V62.1136H155.173V55.5887H156.072C156.453 55.5862 156.834 55.5578 157.211 55.5039C157.506 55.4583 157.796 55.3863 158.077 55.2885L160.773 59.6146C161.071 60.112 161.425 60.5739 161.827 60.9913C162.141 61.2791 162.496 61.5167 162.882 61.696Z" fill="#66675D"/>
<path d="M182.211 60.0906C182.979 59.3585 183.6 58.4859 184.041 57.5198C184.486 56.5024 184.708 55.4009 184.692 54.29C184.706 53.1688 184.484 52.0572 184.041 51.0276C183.616 50.0509 183.008 49.165 182.25 48.4176C180.67 46.8728 178.546 46.0147 176.339 46.0295C174.168 46.0217 172.074 46.8376 170.479 48.3132C169.701 49.0316 169.074 49.8991 168.636 50.8644C168.191 51.8704 167.969 52.9612 167.985 54.0616C167.983 55.1817 168.205 56.2909 168.636 57.3241C169.046 58.3188 169.647 59.2228 170.405 59.9842C171.164 60.7455 172.065 61.3494 173.057 61.761C174.1 62.1986 175.221 62.4205 176.352 62.4135C177.456 62.4069 178.548 62.1853 179.568 61.761C180.542 61.3683 181.438 60.8024 182.211 60.0906ZM174.242 59.1184C173.592 58.8626 172.993 58.4937 172.471 58.0288C171.964 57.5606 171.552 56.9976 171.26 56.3714C170.963 55.7206 170.812 55.0123 170.817 54.2965C170.81 53.5559 170.952 52.8214 171.234 52.1368C171.505 51.4981 171.898 50.9193 172.393 50.4338C172.894 49.9497 173.487 49.5724 174.138 49.3246C174.836 49.058 175.578 48.9231 176.326 48.9265C177.053 48.9231 177.774 49.0536 178.455 49.3115C179.102 49.56 179.696 49.9298 180.206 50.4012C180.708 50.8726 181.112 51.4379 181.397 52.065C181.694 52.7228 181.843 53.4378 181.834 54.1595C181.839 54.8851 181.69 55.6034 181.397 56.267C181.113 56.9012 180.714 57.4765 180.219 57.9635C179.715 58.4506 179.123 58.8361 178.474 59.0989C177.116 59.6405 175.605 59.6475 174.242 59.1184Z" fill="#66675D"/>
<path d="M190.265 59.1711V55.9674C190.61 55.8054 190.976 55.6933 191.352 55.6346C191.807 55.5637 192.266 55.5288 192.726 55.5302H196.333V52.6136H192.726C192.23 52.614 191.734 52.6445 191.242 52.705C190.906 52.7492 190.578 52.8369 190.265 52.966V49.3707H198.566V46.4541H187.381V62.1139H199.445V59.1711H190.265Z" fill="#66675D"/>
<path d="M60.5645 83.5881H63.4487V70.871H70.6756V83.5881H73.5664V67.9609H60.5645V83.5881Z" fill="#66675D"/>
<path d="M92.3359 72.5275C91.68 71.0283 90.6006 69.7543 89.2308 68.8627C87.8609 67.9711 86.2606 67.5008 84.6272 67.5099C82.4583 67.513 80.3687 68.3274 78.7675 69.7936C77.9961 70.5166 77.3725 71.3831 76.9315 72.3448C76.4836 73.3523 76.2613 74.4458 76.2804 75.5486C76.2789 76.6686 76.5002 77.7777 76.9315 78.811C77.3419 79.8062 77.9436 80.7108 78.7024 81.4732C79.8901 82.6301 81.3879 83.4157 83.0133 83.7343C84.6387 84.0529 86.3215 83.8907 87.8565 83.2675C88.844 82.8677 89.7491 82.2881 90.5259 81.558C91.2967 80.8284 91.9181 79.9551 92.3555 78.9872C92.8063 77.96 93.0285 76.8467 93.0065 75.7247C93.0015 74.6245 92.7734 73.5367 92.3359 72.5275ZM82.5177 80.6184C81.8667 80.3651 81.2668 79.996 80.7468 79.5288C80.2362 79.066 79.8243 78.5044 79.5358 77.878C79.2386 77.2271 79.0875 76.5188 79.0931 75.803C79.0833 75.06 79.2251 74.3229 79.5098 73.6368C79.78 72.9999 80.174 72.4232 80.6687 71.9403C81.1693 71.4543 81.7628 71.0748 82.4136 70.8245C83.1125 70.5602 83.8541 70.4275 84.6012 70.4331C85.3263 70.4286 86.046 70.5592 86.7237 70.818C87.3711 71.0637 87.9656 71.4314 88.4751 71.9012C88.9793 72.3718 89.3863 72.9371 89.673 73.565C89.9658 74.2263 90.1145 74.9426 90.1093 75.666C90.1133 76.3914 89.9646 77.1096 89.673 77.7736C89.3876 78.4084 88.9856 78.9839 88.4881 79.47C87.9861 79.9544 87.3959 80.3376 86.7497 80.5988C85.3927 81.1437 83.8797 81.1507 82.5177 80.6184Z" fill="#66675D"/>
<path d="M108.177 67.9609H96.6916L97.9091 70.871H99.361C99.0467 72.6766 98.5493 74.4453 97.8766 76.1497C97.2332 77.7782 96.3558 79.3037 95.2723 80.678H92.8828V85.8653H95.7671V83.5881H106.588V85.8653H109.472V80.678H108.17L108.177 67.9609ZM105.292 70.871V80.6584H98.7815C99.1614 80.0463 99.5092 79.4147 99.8233 78.7662C100.261 77.8679 100.65 76.9465 100.989 76.0061C101.321 75.0665 101.64 74.1204 101.848 73.1874C102.043 72.4177 102.195 71.6379 102.304 70.8515L105.292 70.871Z" fill="#66675D"/>
<path d="M124.643 76.4826C124.367 76.0102 123.989 75.6064 123.536 75.3016C123.832 75.0151 124.067 74.671 124.226 74.2902C124.712 73.0803 124.712 71.7288 124.226 70.5188C123.998 69.9801 123.653 69.4987 123.217 69.1094C122.773 68.7238 122.258 68.431 121.7 68.2482C121.098 68.0538 120.47 67.9568 119.838 67.9611H111.953V83.6208H119.864C120.521 83.6215 121.177 83.5448 121.817 83.3924C122.445 83.2457 123.042 82.9895 123.581 82.6356C124.113 82.2802 124.558 81.8097 124.883 81.2588C125.23 80.6262 125.401 79.9118 125.378 79.1904C125.384 78.6856 125.319 78.1824 125.183 77.6962C125.059 77.2688 124.877 76.8605 124.643 76.4826ZM120.085 80.6781H114.876V77.5135C115.222 77.3456 115.591 77.2291 115.97 77.1677C116.424 77.0897 116.884 77.0505 117.344 77.0503H119.89C120.226 77.0515 120.561 77.0821 120.892 77.1416C121.185 77.1959 121.466 77.2973 121.726 77.4417C121.952 77.5692 122.14 77.7537 122.273 77.9768C122.423 78.2475 122.495 78.5547 122.481 78.8642C122.49 79.1351 122.42 79.4028 122.279 79.6341C122.136 79.8636 121.945 80.0594 121.719 80.2083C121.483 80.3685 121.221 80.4876 120.944 80.5606C120.662 80.6353 120.371 80.6747 120.079 80.6781H120.085ZM121.244 73.7095C120.851 74.0162 120.361 74.1693 119.864 74.1401H117.318C116.819 74.1394 116.321 74.1721 115.827 74.238C115.491 74.2849 115.162 74.3771 114.85 74.5121V70.8712H119.864C120.353 70.8502 120.838 70.9751 121.257 71.23C121.426 71.3756 121.557 71.5607 121.637 71.769C121.718 71.9773 121.746 72.2023 121.719 72.4241C121.74 72.6608 121.708 72.8993 121.624 73.1218C121.541 73.3443 121.409 73.5451 121.237 73.7095H121.244Z" fill="#66675D"/>
<path d="M141.501 69.911C139.92 68.3611 137.794 67.4983 135.582 67.5099C133.413 67.513 131.324 68.3274 129.723 69.7936C128.951 70.5166 128.328 71.3831 127.887 72.3448C127.439 73.3523 127.216 74.4458 127.236 75.5486C127.234 76.6686 127.455 77.7777 127.887 78.811C128.297 79.8062 128.899 80.7108 129.658 81.4732C130.845 82.6301 132.343 83.4157 133.968 83.7343C135.594 84.0529 137.277 83.8907 138.812 83.2675C139.799 82.8677 140.704 82.2881 141.481 81.558C142.252 80.8283 142.873 79.9551 143.311 78.9872C143.761 77.96 143.984 76.8467 143.962 75.7247C143.972 74.6039 143.75 73.493 143.311 72.4623C142.874 71.5048 142.259 70.6391 141.501 69.911ZM133.479 80.6184C132.828 80.3651 132.228 79.9959 131.708 79.5287C131.198 79.066 130.786 78.5044 130.497 77.8779C130.2 77.2271 130.049 76.5188 130.055 75.803C130.045 75.06 130.187 74.3229 130.471 73.6368C130.742 72.9999 131.136 72.4232 131.63 71.9403C132.131 71.4543 132.724 71.0748 133.375 70.8245C134.074 70.5602 134.816 70.4275 135.563 70.433C136.288 70.4286 137.008 70.5592 137.685 70.818C138.333 71.0637 138.927 71.4314 139.437 71.9011C139.941 72.3718 140.348 72.9371 140.635 73.565C140.927 74.2263 141.076 74.9426 141.071 75.666C141.075 76.3914 140.926 77.1096 140.635 77.7735C140.349 78.4084 139.947 78.9839 139.45 79.47C138.948 79.9543 138.358 80.3375 137.711 80.5988C136.352 81.1455 134.837 81.1525 133.473 80.6184H133.479Z" fill="#66675D"/>
<path d="M158.031 69.1879C157.602 68.7766 157.089 68.4629 156.527 68.2679C155.913 68.0585 155.268 67.9549 154.62 67.9612H146.611V83.621H149.496V77.7486C149.85 77.5695 150.226 77.4399 150.615 77.3636C151.072 77.2913 151.533 77.2542 151.996 77.2527H154.639C155.291 77.2586 155.94 77.1482 156.553 76.9264C157.11 76.7266 157.616 76.4082 158.038 75.9934C158.459 75.5741 158.785 75.069 158.995 74.5122C159.446 73.2734 159.446 71.9144 158.995 70.6756C158.787 70.1145 158.458 69.6065 158.031 69.1879ZM154.607 70.8713C155.106 70.835 155.604 70.9683 156.019 71.2498C156.178 71.4251 156.297 71.632 156.37 71.8569C156.443 72.0818 156.468 72.3196 156.443 72.5547C156.443 73.7749 155.876 74.3165 154.607 74.3165H152.002C151.501 74.3181 151.001 74.353 150.505 74.4209C150.169 74.4686 149.84 74.5608 149.528 74.6949V70.8713H154.607Z" fill="#66675D"/>
<path d="M173.721 75.3014C172.548 74.4722 171.131 74.0631 169.698 74.14H167.152C166.689 74.1401 166.228 74.1008 165.772 74.0226C165.393 73.9549 165.025 73.8364 164.678 73.6702V67.9609H161.787V83.6207H169.691C170.318 83.6198 170.944 83.5586 171.56 83.438C172.202 83.3169 172.816 83.0756 173.37 82.7268C173.936 82.3663 174.402 81.868 174.724 81.2783C175.1 80.5497 175.282 79.736 175.251 78.9162C175.303 78.235 175.191 77.5513 174.925 76.9223C174.659 76.2934 174.246 75.7375 173.721 75.3014ZM169.913 80.678H164.704V76.6456C165.016 76.7806 165.344 76.8728 165.681 76.9196C166.174 76.991 166.673 77.0259 167.171 77.024H169.724C170.058 77.0253 170.391 77.0559 170.72 77.1154C171.012 77.1686 171.294 77.27 171.553 77.4155C171.777 77.5453 171.965 77.7292 172.1 77.9506C172.248 78.2219 172.318 78.5291 172.302 78.8379C172.316 79.1403 172.246 79.4406 172.1 79.7058C171.963 79.9284 171.775 80.1161 171.553 80.2538C171.323 80.4033 171.067 80.5074 170.798 80.5605C170.508 80.6324 170.211 80.6718 169.913 80.678Z" fill="#66675D"/>
<path d="M180.518 77.4742C180.862 77.3093 181.228 77.195 181.605 77.1349C182.057 77.0643 182.514 77.0294 182.972 77.0305H186.586V74.1139H182.972C182.478 74.1132 181.984 74.1459 181.494 74.2118C181.159 74.2549 180.83 74.3427 180.518 74.4728V70.871H188.819V67.9609H177.627V83.6207H189.678V80.7106H180.498L180.518 77.4742Z" fill="#66675D"/>
</g>
</svg>
