<svg width="250" height="100" viewBox="0 0 250 100" fill="none" xmlns="http://www.w3.org/2000/svg">
<g style="mix-blend-mode:luminosity" opacity="0.4">
<path d="M80.6393 44.7473C80.62 44.6741 80.596 44.6021 80.5675 44.5319L71.8282 29.6362C71.7693 29.5363 71.6853 29.4534 71.5845 29.3958C71.4838 29.3382 71.3698 29.3079 71.2538 29.3079C71.1377 29.3079 71.0237 29.3382 70.923 29.3958C70.8222 29.4534 70.7382 29.5363 70.6793 29.6362L68.9151 32.6318L62.6888 22.0242L62.3093 21.3472C62.2442 21.2411 62.1529 21.1535 62.0443 21.0927C61.9356 21.0319 61.8132 21 61.6887 21C61.5642 21 61.4418 21.0319 61.3332 21.0927C61.2246 21.1535 61.1333 21.2411 61.0682 21.3472L52.1135 36.6327L51.5801 36.8994L50.1133 34.4065C50.0563 34.3108 49.9772 34.2301 49.8826 34.1712C49.788 34.1123 49.6807 34.0769 49.5696 34.068H49.4568C49.3457 34.0769 49.2384 34.1123 49.1438 34.1712C49.0492 34.2301 48.9701 34.3108 48.9131 34.4065L43.4562 43.7112C40.9869 47.0457 39.479 50.9936 39.0966 55.1254C38.7142 59.2572 39.4718 63.4148 41.2872 67.146C43.1026 70.8772 45.9061 74.0391 49.3929 76.2879C52.8797 78.5367 56.9163 79.7863 61.0637 79.9007C65.211 80.0151 69.3104 78.99 72.9159 76.9369C76.5213 74.8838 79.4949 71.8812 81.5132 68.2558C83.5314 64.6304 84.5171 60.5209 84.3631 56.3743C84.209 52.2277 82.921 48.2027 80.6393 44.7371V44.7473ZM71.2538 31.2571L76.2388 39.7616L78.8134 44.1626H63.6941L71.2538 31.2571ZM52.9853 37.9766L54.288 35.7607L57.3652 30.5493V33.4935H59.3244V27.1536L60.7502 24.7326V38.9409H62.7093V24.8351L63.9915 27.0202V33.4935H65.9507V30.4159L68.1047 34.0885L67.4072 35.2785L66.5764 36.7045L61.9606 44.5729C61.8986 44.676 61.8652 44.7937 61.8638 44.9139C61.8625 45.0341 61.8931 45.1526 61.9526 45.257C62.0122 45.3615 62.0984 45.4482 62.2026 45.5083C62.3067 45.5684 62.425 45.5996 62.5452 45.5988H74.8541L78.0852 51.1078H45.3231L48.9131 44.9525H55.0676C55.1829 44.9449 55.2943 44.9079 55.3913 44.8451C55.4882 44.7822 55.5675 44.6956 55.6215 44.5935L55.683 44.4806C55.736 44.383 55.7637 44.2737 55.7637 44.1626C55.7637 44.0515 55.736 43.9422 55.683 43.8446L52.6058 38.6126L52.9853 37.9766ZM47.5694 39.4641L49.5183 36.1608L50.3492 37.5765L50.9544 38.6024L51.139 38.9204L51.7852 40.0181L53.8367 43.5163H45.1589L47.5694 39.4641ZM61.6939 78.3139C57.8138 78.3155 54.0084 77.2471 50.6961 75.226C47.3838 73.205 44.6929 70.3096 42.9192 66.8582C41.1455 63.4068 40.3577 59.5331 40.6425 55.663C40.9272 51.7929 42.2735 48.0763 44.5332 44.9217H47.2617L43.4562 51.4053C43.3932 51.5144 43.36 51.6383 43.36 51.7643C43.36 51.8904 43.3932 52.0142 43.4562 52.1234C43.5171 52.233 43.6063 52.3242 43.7146 52.3874C43.8229 52.4506 43.9463 52.4834 44.0717 52.4824H79.3058C79.4313 52.4813 79.5543 52.4473 79.6626 52.3838C79.7709 52.3204 79.8606 52.2296 79.9229 52.1206C79.9851 52.0116 80.0177 51.8882 80.0175 51.7627C80.0172 51.6372 79.984 51.514 79.9212 51.4053L76.485 45.5475H79.275C81.3835 48.7268 82.5908 52.4184 82.7684 56.2294C82.946 60.0404 82.0872 63.8282 80.2835 67.1899C78.4797 70.5515 75.7985 73.3613 72.5251 75.3201C69.2516 77.2789 65.5085 78.3135 61.6939 78.3139Z" fill="#574C00"/>
<path d="M48.0825 59.3767C47.9042 59.2107 47.6901 59.0878 47.4568 59.0177C47.6692 58.9179 47.8501 58.7618 47.9799 58.5663C48.1588 58.3233 48.2492 58.0265 48.2363 57.7251C48.24 57.5335 48.2036 57.3433 48.1294 57.1666C48.0552 56.9899 47.9449 56.8307 47.8055 56.6992C47.5986 56.5149 47.3565 56.3744 47.0938 56.2863C46.8312 56.1981 46.5534 56.1641 46.2772 56.1863C45.8673 56.1837 45.4605 56.2567 45.0771 56.4017C44.8034 56.5062 44.542 56.6403 44.2975 56.8018L44.8617 57.8892C45.0073 57.7669 45.1655 57.6603 45.3335 57.5712C45.5409 57.4691 45.7691 57.4165 46.0002 57.4173C46.1918 57.4095 46.3812 57.4595 46.5439 57.5609C46.6112 57.6042 46.6669 57.6633 46.7062 57.733C46.7455 57.8028 46.7673 57.881 46.7695 57.961C46.7705 58.0274 46.7583 58.0933 46.7336 58.1549C46.709 58.2165 46.6724 58.2727 46.6259 58.3201C46.3639 58.4977 46.0492 58.5809 45.7335 58.556H45.3643V59.705H45.9182C46.162 59.6797 46.408 59.7261 46.6259 59.8384C46.7013 59.883 46.7643 59.9458 46.8091 60.0211C46.8539 60.0964 46.8791 60.1817 46.8824 60.2692C46.8803 60.3624 46.8548 60.4536 46.8082 60.5342C46.7616 60.6149 46.6954 60.6826 46.6157 60.7309C46.4227 60.831 46.2073 60.8805 45.99 60.8745C45.7223 60.877 45.4581 60.8136 45.2207 60.6898C44.9995 60.5637 44.7989 60.4046 44.6257 60.2179L43.877 61.2438C44.1516 61.4944 44.4673 61.6957 44.8104 61.8388C45.2502 61.9978 45.7182 62.0641 46.1849 62.0337C46.745 62.0646 47.3018 61.929 47.785 61.6439C48.0059 61.4944 48.1862 61.2925 48.3097 61.0561C48.4332 60.8198 48.4961 60.5564 48.4928 60.2897C48.4891 60.1178 48.4509 59.9484 48.3804 59.7915C48.3099 59.6347 48.2086 59.4936 48.0825 59.3767Z" fill="#574C00"/>
<path d="M54.5547 56.9856C53.937 56.4369 53.1396 56.1338 52.3134 56.1338C51.4873 56.1338 50.6898 56.4369 50.0722 56.9856C49.7869 57.2603 49.5607 57.5903 49.4072 57.9555C49.2538 58.3206 49.1764 58.7131 49.1798 59.1092C49.1782 59.505 49.2564 59.897 49.4097 60.2619C49.5631 60.6267 49.7884 60.9569 50.0722 61.2327C50.6928 61.7753 51.4891 62.0743 52.3134 62.0743C53.1377 62.0743 53.9341 61.7753 54.5547 61.2327C54.8329 60.9544 55.0526 60.623 55.2005 60.2582C55.3485 59.8935 55.4219 59.5028 55.4163 59.1092C55.4237 58.7154 55.3511 58.3241 55.203 57.9591C55.0549 57.5941 54.8344 57.263 54.5547 56.9856ZM53.4571 60.2069C53.3061 60.3523 53.1277 60.4662 52.9322 60.5419C52.7367 60.6176 52.5281 60.6537 52.3186 60.648C52.1052 60.6528 51.8929 60.6154 51.694 60.5379C51.4951 60.4605 51.3134 60.3445 51.1595 60.1966C50.8801 59.9272 50.718 59.5587 50.7081 59.1707C50.7071 58.7534 50.869 58.3522 51.1595 58.0525C51.3144 57.898 51.4984 57.7758 51.7009 57.6931C51.9034 57.6103 52.1203 57.5686 52.3391 57.5704C52.7614 57.5744 53.1672 57.7353 53.4776 58.0218C53.6233 58.163 53.7392 58.332 53.8185 58.5187C53.8978 58.7055 53.9388 58.9063 53.9392 59.1092C53.9301 59.5245 53.7567 59.9192 53.4571 60.2069Z" fill="#574C00"/>
<path d="M57.8151 61.5415C58.2593 60.9899 58.4725 60.2876 58.4101 59.5821V57.5304H59.8358V61.9724H61.3232V56.2686H56.9433V59.4077C56.9433 60.1566 56.7381 60.4336 56.6458 60.4336C56.5089 60.5506 56.3335 60.6128 56.1534 60.608C56.0348 60.6043 55.9174 60.5835 55.8047 60.5464V61.9109C56.0127 61.9703 56.2255 62.0115 56.4406 62.034C56.6911 62.049 56.9421 62.0132 57.1783 61.9285C57.4146 61.8439 57.6312 61.7123 57.8151 61.5415Z" fill="#574C00"/>
<path d="M65.3985 62.033C66.227 62.0481 67.0301 61.7473 67.6449 61.1918C67.9269 60.9145 68.151 60.5841 68.3042 60.2195C68.4573 59.855 68.5366 59.4636 68.5373 59.0682C68.5383 58.6725 68.4599 58.2806 68.3066 57.9159C68.1533 57.5511 67.9283 57.2208 67.6449 56.9446C67.0312 56.3862 66.2282 56.0819 65.3985 56.0932C64.5717 56.0803 63.7714 56.3851 63.1624 56.9446C62.8758 57.2188 62.648 57.5485 62.4928 57.9136C62.3376 58.2787 62.2583 58.6715 62.2598 59.0682C62.2601 59.4646 62.3402 59.8569 62.4953 60.2218C62.6503 60.5866 62.8772 60.9165 63.1624 61.1918C63.7724 61.7485 64.5729 62.0496 65.3985 62.033ZM64.2497 57.9808C64.5587 57.6856 64.9713 57.5235 65.3985 57.5294C65.8213 57.5314 66.2278 57.6926 66.5371 57.9808C66.6828 58.122 66.7987 58.291 66.878 58.4777C66.9573 58.6645 66.9983 58.8653 66.9987 59.0682C66.9989 59.2756 66.9571 59.4808 66.876 59.6716C66.7948 59.8625 66.676 60.0349 66.5265 60.1787C66.3771 60.3224 66.2001 60.4344 66.0063 60.508C65.8124 60.5816 65.6057 60.6153 65.3985 60.607C65.1866 60.6122 64.9758 60.5749 64.7785 60.4974C64.5813 60.4198 64.4015 60.3037 64.2497 60.1556C64.1096 60.0236 63.9974 59.8648 63.9199 59.6885C63.8423 59.5123 63.801 59.3223 63.7984 59.1297C63.797 58.9244 63.8361 58.7209 63.9136 58.5308C63.991 58.3406 64.1053 58.1677 64.2497 58.0218V57.9808Z" fill="#574C00"/>
<path d="M70.1337 61.9519H71.6108V57.5201H72.8314V56.2686H68.9336V57.5201H70.1337V61.9519Z" fill="#574C00"/>
<path d="M76.363 56.1342C75.5361 56.1214 74.7358 56.4261 74.1269 56.9857C73.8416 57.2604 73.6154 57.5904 73.4619 57.9555C73.3085 58.3206 73.2311 58.7132 73.2345 59.1092C73.2329 59.505 73.3111 59.8971 73.4644 60.2619C73.6177 60.6268 73.8431 60.957 74.1269 61.2328C74.7475 61.7754 75.5438 62.0744 76.3681 62.0744C77.1924 62.0744 77.9887 61.7754 78.6094 61.2328C78.8932 60.957 79.1185 60.6268 79.2718 60.2619C79.4251 59.8971 79.5033 59.505 79.5017 59.1092C79.5051 58.7132 79.4277 58.3206 79.2743 57.9555C79.1209 57.5904 78.8946 57.2604 78.6094 56.9857C77.9967 56.4255 77.193 56.1208 76.363 56.1342ZM77.5118 60.2377C77.198 60.5246 76.7882 60.6837 76.363 60.6837C75.9378 60.6837 75.528 60.5246 75.2142 60.2377C75.074 60.1057 74.9618 59.9469 74.8843 59.7706C74.8068 59.5944 74.7655 59.4044 74.7628 59.2118C74.7601 59.0048 74.7986 58.7993 74.876 58.6073C74.9535 58.4153 75.0685 58.2407 75.2142 58.0936C75.5238 57.7994 75.9359 57.6375 76.363 57.6422C76.7887 57.6447 77.1983 57.8056 77.5118 58.0936C77.7894 58.3621 77.9575 58.724 77.9837 59.1092C77.9729 59.5221 77.804 59.9151 77.5118 60.2069V60.2377Z" fill="#574C00"/>
<path d="M50.6047 64.5449L48.4199 70.2385H49.979L50.3586 69.2845H52.41L52.7588 70.2385H54.3897L52.2562 64.5552L50.6047 64.5449ZM50.7689 68.1868L51.3946 66.3505L52.0305 68.1868H50.7689Z" fill="#574C00"/>
<path d="M55.7748 67.6738C55.7748 68.433 55.5696 68.6997 55.4773 68.6997C55.3404 68.8167 55.165 68.8789 54.985 68.8741C54.8696 68.8713 54.7554 68.8506 54.6465 68.8126V70.2385C54.8659 70.2839 55.0892 70.3079 55.3132 70.3103C55.5563 70.3218 55.7992 70.2851 56.0281 70.2024C56.2569 70.1196 56.4671 69.9925 56.6467 69.8282C57.0908 69.2765 57.3041 68.5743 57.2416 67.8687V65.817H58.6674V70.2385H60.1547V64.5449H55.7748V67.6738Z" fill="#574C00"/>
<path d="M64.7206 64.5449H60.8125V65.7965H62.0126V70.2283H63.4897V65.7965H64.7206V64.5449Z" fill="#574C00"/>
<path d="M66.4856 64.5449L64.3008 70.2385H65.8599L66.2394 69.2845H68.2909L68.6397 70.2385H70.2193L68.0858 64.5552L66.4856 64.5449ZM66.701 68.1868L67.3267 66.3505L67.9114 68.1868H66.701Z" fill="#574C00"/>
<path d="M71.1712 65.1109C70.8563 65.4863 70.6919 65.9651 70.7096 66.4548C70.6975 66.6728 70.7304 66.891 70.8063 67.0957C70.8821 67.3004 70.9994 67.4873 71.1506 67.6448C71.3734 67.8823 71.6697 68.0377 71.9917 68.0859L70.4121 70.2402H72.1148L73.3355 68.3013H73.4791V70.2402H74.9561V64.5466H72.7713C72.4805 64.5298 72.1892 64.571 71.9145 64.6679C71.6398 64.7648 71.3871 64.9153 71.1712 65.1109ZM73.4791 65.7879V67.1626H73.0585C72.8238 67.1748 72.5921 67.106 72.402 66.9677C72.2823 66.8323 72.2198 66.6558 72.2277 66.4753C72.2237 66.3856 72.239 66.2962 72.2727 66.213C72.3063 66.1298 72.3574 66.0548 72.4226 65.9931C72.6034 65.8523 72.8298 65.7829 73.0585 65.7982L73.4791 65.7879Z" fill="#574C00"/>
<path d="M111.401 37.465C110.833 36.9359 110.151 36.5444 109.408 36.3209C110.084 36.003 110.661 35.5055 111.075 34.8825C111.644 34.1082 111.933 33.1624 111.892 32.2019C111.903 31.5914 111.787 30.9852 111.551 30.4222C111.314 29.8592 110.963 29.3519 110.519 28.9328C109.859 28.3455 109.088 27.898 108.251 27.617C107.414 27.3361 106.529 27.2277 105.649 27.2983C104.342 27.29 103.046 27.5227 101.824 27.9848C100.952 28.3177 100.119 28.7453 99.3401 29.2597L101.138 32.7249C101.602 32.3352 102.106 31.9956 102.641 31.7115C103.302 31.3863 104.03 31.2184 104.766 31.2211C105.376 31.1962 105.98 31.3556 106.498 31.6788C106.713 31.8169 106.89 32.0051 107.016 32.2273C107.141 32.4494 107.21 32.6988 107.218 32.9537C107.221 33.1652 107.182 33.3752 107.103 33.5716C107.025 33.768 106.908 33.9469 106.76 34.0979C105.925 34.664 104.922 34.9292 103.916 34.8498H102.74V38.5111H104.505C105.282 38.4306 106.065 38.5783 106.76 38.9361C107 39.0782 107.201 39.2784 107.344 39.5183C107.486 39.7582 107.567 40.0301 107.577 40.3091C107.571 40.606 107.489 40.8965 107.341 41.1536C107.192 41.4108 106.981 41.6263 106.727 41.7802C106.112 42.0994 105.426 42.2569 104.733 42.2379C103.88 42.2459 103.038 42.0438 102.282 41.6494C101.577 41.2475 100.938 40.7404 100.386 40.1457L98 43.4147C98.8751 44.2131 99.8813 44.8546 100.974 45.3108C102.376 45.8173 103.867 46.0288 105.354 45.9319C107.139 46.0304 108.914 45.5981 110.453 44.6896C111.157 44.2134 111.732 43.5697 112.125 42.8166C112.519 42.0634 112.72 41.2243 112.709 40.3745C112.697 39.8266 112.575 39.2867 112.351 38.7869C112.126 38.2871 111.803 37.8375 111.401 37.465Z" fill="#574C00"/>
<path d="M132.022 29.8434C130.054 28.0947 127.513 27.1289 124.881 27.1289C122.248 27.1289 119.707 28.0947 117.739 29.8434C116.83 30.7188 116.109 31.7703 115.62 32.9338C115.131 34.0973 114.884 35.3483 114.895 36.6103C114.89 37.8715 115.139 39.1208 115.628 40.2835C116.116 41.4461 116.834 42.4984 117.739 43.3773C119.716 45.1062 122.254 46.0591 124.881 46.0591C127.507 46.0591 130.045 45.1062 132.022 43.3773C132.909 42.4902 133.609 41.4342 134.081 40.2719C134.552 39.1096 134.786 37.8645 134.768 36.6103C134.792 35.3553 134.56 34.1086 134.089 32.9455C133.617 31.7824 132.914 30.7271 132.022 29.8434ZM128.525 40.1082C128.044 40.5716 127.475 40.9345 126.852 41.1758C126.229 41.4172 125.565 41.5321 124.897 41.5139C124.217 41.5292 123.54 41.41 122.907 41.1632C122.273 40.9164 121.694 40.5467 121.203 40.0755C120.313 39.2171 119.797 38.0428 119.765 36.8065C119.762 35.4766 120.278 34.198 121.203 33.2432C121.697 32.7508 122.283 32.3615 122.929 32.0977C123.574 31.834 124.265 31.7011 124.962 31.7067C126.308 31.7195 127.601 32.2322 128.59 33.1451C129.055 33.5951 129.424 34.1336 129.677 34.7288C129.929 35.3239 130.06 35.9637 130.061 36.6103C130.032 37.9337 129.48 39.1915 128.525 40.1082Z" fill="#574C00"/>
<path d="M142.414 44.3615C143.83 42.6036 144.509 40.3658 144.31 38.1176V31.5795H148.854V45.7345H153.593V27.5586H139.636V37.5619C139.636 39.9483 138.982 40.8309 138.688 40.8309C138.252 41.2038 137.693 41.4018 137.119 41.3867C136.741 41.3748 136.367 41.3087 136.008 41.1905V45.5384C136.671 45.7278 137.349 45.859 138.034 45.9307C138.833 45.9787 139.632 45.8645 140.385 45.5948C141.138 45.3251 141.828 44.9055 142.414 44.3615Z" fill="#574C00"/>
<path d="M166.578 45.9291C169.218 45.9773 171.777 45.0188 173.737 43.2484C174.635 42.3651 175.349 41.312 175.837 40.1503C176.325 38.9887 176.578 37.7416 176.58 36.4815C176.583 35.2206 176.333 33.9719 175.845 32.8094C175.356 31.647 174.639 30.5946 173.737 29.7146C171.781 27.9351 169.222 26.9653 166.578 27.0012C163.943 26.9604 161.393 27.9315 159.453 29.7146C158.539 30.5883 157.813 31.6389 157.319 32.8022C156.824 33.9656 156.572 35.2174 156.576 36.4815C156.577 37.7447 156.832 38.9949 157.327 40.1574C157.821 41.32 158.544 42.3712 159.453 43.2484C161.396 45.0225 163.947 45.9822 166.578 45.9291ZM162.917 33.0163C163.902 32.0757 165.217 31.5592 166.578 31.5779C167.925 31.5844 169.221 32.0979 170.206 33.0163C170.671 33.4663 171.04 34.0048 171.293 34.6C171.545 35.1951 171.676 35.8349 171.677 36.4815C171.678 37.1423 171.545 37.7964 171.286 38.4045C171.028 39.0125 170.649 39.5621 170.173 40.0201C169.696 40.4781 169.132 40.8351 168.515 41.0697C167.897 41.3042 167.238 41.4115 166.578 41.3851C165.903 41.4015 165.231 41.2827 164.603 41.0357C163.974 40.7887 163.401 40.4184 162.917 39.9467C162.471 39.526 162.113 39.0199 161.866 38.4583C161.619 37.8967 161.488 37.2911 161.479 36.6776C161.475 36.0234 161.599 35.3748 161.846 34.7689C162.093 34.1631 162.457 33.6119 162.917 33.1471V33.0163Z" fill="#574C00"/>
<path d="M181.672 45.6691H186.379V31.5468H190.268V27.5586H177.848V31.5468H181.672V45.6691Z" fill="#574C00"/>
<path d="M201.518 27.1303C198.884 27.0894 196.333 28.0605 194.393 29.8436C193.484 30.719 192.763 31.7705 192.274 32.934C191.785 34.0975 191.538 35.3485 191.549 36.6105C191.544 37.8717 191.793 39.121 192.282 40.2837C192.77 41.4463 193.488 42.4986 194.393 43.3775C196.371 45.1064 198.908 46.0593 201.535 46.0593C204.162 46.0593 206.699 45.1064 208.677 43.3775C209.581 42.4986 210.299 41.4463 210.788 40.2837C211.276 39.121 211.526 37.8717 211.52 36.6105C211.531 35.3485 211.285 34.0975 210.796 32.934C210.307 31.7705 209.586 30.719 208.677 29.8436C206.724 28.0584 204.163 27.0877 201.518 27.1303ZM205.179 40.2065C204.179 41.1207 202.873 41.6277 201.518 41.6277C200.164 41.6277 198.858 41.1207 197.858 40.2065C197.411 39.7858 197.054 39.2796 196.807 38.718C196.559 38.1565 196.428 37.5509 196.419 36.9374C196.411 36.2777 196.533 35.6229 196.78 35.0111C197.027 34.3993 197.393 33.8429 197.858 33.3741C198.844 32.4365 200.158 31.9205 201.518 31.9358C202.875 31.9436 204.18 32.4564 205.179 33.3741C206.064 34.2295 206.6 35.3827 206.683 36.6105C206.649 37.9262 206.11 39.1784 205.179 40.1084V40.2065Z" fill="#574C00"/>
<path d="M104.962 53.9343L98 72.0776H102.968L104.178 69.0374H110.715L111.826 72.0776H117.023L110.225 53.967L104.962 53.9343ZM105.485 65.5395L107.479 59.6879L109.506 65.5395H105.485Z" fill="#574C00"/>
<path d="M121.441 63.9049C121.441 66.324 120.787 67.174 120.493 67.174C120.057 67.5469 119.498 67.7449 118.924 67.7297C118.557 67.7209 118.193 67.6548 117.846 67.5336V72.0776C118.545 72.2221 119.256 72.2988 119.97 72.3064C120.745 72.343 121.519 72.2261 122.248 71.9624C122.978 71.6987 123.647 71.2935 124.22 70.77C125.635 69.0121 126.314 66.7742 126.115 64.5261V57.9879H130.659V72.0776H135.398V53.9343H121.441V63.9049Z" fill="#574C00"/>
<path d="M149.946 53.9346H137.492V57.9228H141.316V72.0451H146.023V57.9228H149.946V53.9346Z" fill="#574C00"/>
<path d="M155.572 53.9346L148.609 72.0778H153.578L154.787 69.0376H161.324L162.436 72.0778H167.469L160.671 53.9673L155.572 53.9346ZM156.258 65.5397L158.252 59.6881L160.115 65.5397H156.258Z" fill="#574C00"/>
<path d="M170.503 55.7394C169.5 56.9357 168.975 58.4615 169.032 60.0218C168.993 60.7166 169.098 61.4118 169.34 62.0642C169.582 62.7166 169.955 63.3122 170.437 63.8139C171.147 64.5709 172.092 65.0662 173.118 65.2196L168.084 72.0846H173.51L177.4 65.9061H177.857V72.0846H182.564V53.9414H175.602C174.675 53.8877 173.747 54.0191 172.872 54.3277C171.996 54.6364 171.191 55.1163 170.503 55.7394ZM177.857 57.8969V62.2775H176.517C175.769 62.3162 175.031 62.097 174.425 61.6564C174.044 61.225 173.844 60.6625 173.869 60.0872C173.857 59.8016 173.906 59.5165 174.013 59.2514C174.12 58.9863 174.283 58.7474 174.49 58.5508C175.067 58.1019 175.788 57.8808 176.517 57.9296L177.857 57.8969Z" fill="#574C00"/>
</g>
</svg>
